<svg id="svg2" xmlns="http://www.w3.org/2000/svg" viewBox="0 0 311.91 178.25">

  <rect fill="none" width="311.87" height="178.25"/>
  <path id="path22" fill="#131313" d="M18.62,14.9a3.72,3.72,0,0,0,0-7.45H7.45V14.9ZM21.1,29.79a3.72,3.72,0,1,0,0-7.45H7.4v7.45Zm11.17-3.72A11.19,11.19,0,0,1,21.1,37.23H0V0H18.62A11.21,11.21,0,0,1,28,17.28a11.18,11.18,0,0,1,4.27,8.79" transform="translate(0 75.83)"/><path id="path24" fill="#131313" d="M62.3,19.86a6.21,6.21,0,1,0,0-12.41H56.1V19.86Zm15,17.38H68.46L62,27.31H56.1v9.93H48.65V0H62.3a13.66,13.66,0,0,1,7.2,25.27l7.84,12" transform="translate(0 75.83)"/><path id="path26" fill="#131313" d="M96.45,18.62A11.17,11.17,0,1,0,107.63,7.45,11.19,11.19,0,0,0,96.45,18.62Zm11.17,18.62a18.62,18.62,0,1,1,18.62-18.62,18.62,18.62,0,0,1-18.62,18.62" transform="translate(0 75.83)"/><path id="path28" fill="#131313" d="M154.29,29.79a11.17,11.17,0,1,0,0-22.34h-6.21V29.79Zm-13.65,7.45V0h13.65a18.62,18.62,0,1,1,0,37.23H140.64" transform="translate(0 75.83)"/><path id="path30" fill="#131313" d="M219.08,21.1a16.14,16.14,0,0,1-32.27,0V0h7.45V21.1a8.69,8.69,0,0,0,17.38,0V0h7.45V21.1" transform="translate(0 75.83)"/><path id="path32" fill="#131313" d="M251.09,29.79a11.17,11.17,0,1,0,0-22.34h-6.21V29.79Zm-13.65,7.45V0h13.65a18.62,18.62,0,0,1,0,37.23H237.44" transform="translate(0 75.83)"/><path id="path34" fill="#131313" d="M284.6,0h27.31V7.45H292V18.62h14.89v7.45H292v3.72h19.86v7.45H284.6V0" transform="translate(0 75.83)"/></svg>
