<?xml version="1.0" encoding="utf-8"?>
<!-- Generator: Adobe Illustrator 22.0.1, SVG Export Plug-In . SVG Version: 6.00 Build 0)  -->
<svg version="1.1" xmlns="http://www.w3.org/2000/svg" xmlns:xlink="http://www.w3.org/1999/xlink" x="0px" y="0px"
	 viewBox="0 0 841.9 595.3" style="enable-background:new 0 0 841.9 595.3;" xml:space="preserve">
<style type="text/css">
	.st0{display:none;}
	.st1{fill:#016DAF;}
	.st2{fill:#F07F00;}
	.st3{fill:#7FBB33;}
	.st4{fill:#474D55;}
	.st5{fill:#7D878C;}
</style>
</g>
<g id="Направляющие" class="st0">
</g>
<g id="Лого">
	<rect x="31.3" y="303" class="st1" width="16.5" height="16.5"/>
	<rect x="632.1" y="303" class="st2" width="16.5" height="16.5"/>
	<rect x="62.1" y="283" class="st3" width="16.5" height="36.5"/>
	<path class="st4" d="M138.5,247.8h-6.1c-5.3,0-9.6,4.3-9.6,9.6v2.6v59.5h15.7v-56.6c0-1.6,1.3-2.9,2.9-2.9h18.3
		c6.9,0,12.4,5.6,12.4,12.4v47.1h15.7v-49.4c0-12.3-10-22.3-22.3-22.3H138.5z"/>
	<path class="st5" d="M496.4,247.8h-6.1c-5.3,0-9.6,4.3-9.6,9.6v2.6v59.5h15.7v-56.6c0-1.6,1.3-2.9,2.9-2.9h18.3
		c6.9,0,12.4,5.6,12.4,12.4v47.1h15.7v-49.4c0-12.3-10-22.3-22.3-22.3H496.4z"/>
	<path class="st4" d="M240.6,235.8v-12.2h-12.3c-13.1,0-23.7,10.6-23.7,23.7v0.4h-10.3V260h10.3v59.5h15.7V260h20.4v-12.2h-20.4
		v-1.9c0-5.5,4.5-10,10-10H240.6z"/>
	<path class="st5" d="M345.4,247.8v-22.9h-15.7v83.7c0,6.1,4.9,11,11,11h29.8c13.8,0,25.1-11.2,25.1-25.1v-21.6
		c0-13.8-11.2-25.1-25.1-25.1H345.4z M364.3,307.4h-14.7c-2.3,0-4.3-1.9-4.3-4.3V260h18.9c8.6,0,15.6,7,15.6,15.6v16.1
		C380,300.4,373,307.4,364.3,307.4z"/>
	<path class="st5" d="M677.6,247.8v-22.9h-15.7v83.7c0,6.1,4.9,11,11,11h29.8c13.8,0,25.1-11.2,25.1-25.1v-21.6
		c0-13.8-11.2-25.1-25.1-25.1H677.6z M696.5,307.4h-14.7c-2.3,0-4.3-1.9-4.3-4.3V260h18.9c8.6,0,15.6,7,15.6,15.6v16.1
		C712.2,300.4,705.2,307.4,696.5,307.4z"/>
	<path class="st5" d="M408.3,247.8V260h35.7c5.5,0,9.9,4.4,9.9,9.9v5h-33c-9.5,0-17.3,7.7-17.3,17.3v10.1c0,9.5,7.7,17.3,17.3,17.3
		H460c5.3,0,9.5-4.3,9.5-9.5v-43.5c0-10.3-8.4-18.7-18.7-18.7H408.3z M449.6,307.4h-21.9c-4.7,0-8.5-3.8-8.5-8.5v-3.4
		c0-4.7,3.8-8.5,8.5-8.5h26.1v16.1C453.8,305.5,451.9,307.4,449.6,307.4z"/>
	<path class="st4" d="M244.8,276.8v13.8c0,16.2,13.4,29.4,29.8,29.4h16c16.5,0,29.8-13.2,29.8-29.4v-13.8
		c0-16.2-13.4-29.4-29.8-29.4h-16C258.2,247.4,244.8,260.5,244.8,276.8z M285.5,308.1h-5.7c-10.7,0-19.3-8.6-19.3-19.1v-10.6
		c0-10.6,8.7-19.1,19.3-19.1h5.7c10.7,0,19.3,8.6,19.3,19.1V289C304.8,299.6,296.2,308.1,285.5,308.1z"/>
	<path class="st4" d="M111.8,319.5H96.1v-71.7h15.7V319.5z M111.8,224.9H96.1v12.5h15.7V224.9z"/>
	<rect x="556.7" y="224.9" class="st5" width="15.7" height="94.6"/>
	<polygon class="st5" points="808.3,247.8 792.7,247.8 768.6,301 744.5,247.8 728.8,247.8 760.8,318.3 749.8,342.4 765.5,342.4 	"/>
	<path class="st5" d="M625.3,319.5l-30.7-33.2c-2.2-2.4-2.2-6.1,0-8.5l27.7-29.9h-18.8L581,272.2c-5.2,5.6-5.2,14.2,0,19.8
		l25.5,27.5H625.3z"/>
	<g>
		<path d="M31.3,357.2h12.3c2.5,0,4.4,0.5,5.6,1.4c1.2,0.9,1.9,2.3,1.9,4.1c0,1.2-0.3,2.2-1,3.1c-0.7,0.9-1.5,1.5-2.6,1.8
			c1.5,0.4,2.5,1,3.3,2c0.7,1,1.1,2.1,1.1,3.2c0,1.6-0.6,3-1.8,4c-1.2,1-3,1.5-5.4,1.5H31.3V357.2z M37,366h3.6c1.7,0,3-0.2,3.8-0.7
			c0.8-0.4,1.2-1.1,1.2-2.1c0-0.9-0.4-1.5-1.1-1.9c-0.7-0.4-2-0.6-3.9-0.6H37V366z M37,374.8h4.4c1.6,0,2.8-0.2,3.5-0.6
			c0.7-0.4,1.1-1.1,1.1-2.1c0-1-0.4-1.7-1.3-2.1c-0.8-0.4-2.5-0.6-4.9-0.6H37V374.8z"/>
		<path d="M84.4,363.4l-5.5,1c-0.2-1.1-0.6-1.9-1.3-2.5c-0.7-0.6-1.5-0.8-2.6-0.8c-1.4,0-2.5,0.5-3.3,1.4c-0.8,1-1.2,2.6-1.2,4.8
			c0,2.5,0.4,4.3,1.3,5.3c0.8,1,2,1.6,3.4,1.6c1.1,0,1.9-0.3,2.6-0.9c0.7-0.6,1.2-1.6,1.4-3.1l5.5,0.9c-0.6,2.5-1.7,4.4-3.3,5.7
			c-1.6,1.3-3.8,1.9-6.5,1.9c-3.1,0-5.6-1-7.4-2.9c-1.8-2-2.8-4.7-2.8-8.1c0-3.5,0.9-6.2,2.8-8.2c1.8-1.9,4.3-2.9,7.5-2.9
			c2.6,0,4.6,0.6,6.1,1.7C82.7,359.5,83.8,361.2,84.4,363.4z"/>
		<path d="M111.6,371.6l5.6,0.9c-0.7,2-1.8,3.6-3.4,4.7s-3.5,1.6-5.8,1.6c-3.7,0-6.4-1.2-8.2-3.6c-1.4-1.9-2.1-4.4-2.1-7.3
			c0-3.5,0.9-6.3,2.7-8.2c1.8-2,4.2-3,7-3c3.1,0,5.6,1,7.5,3.1c1.8,2.1,2.7,5.3,2.6,9.6h-14c0,1.7,0.5,3,1.4,3.9
			c0.9,0.9,1.9,1.4,3.2,1.4c0.9,0,1.6-0.2,2.2-0.7C110.8,373.4,111.3,372.7,111.6,371.6z M111.9,366c0-1.6-0.5-2.9-1.3-3.7
			c-0.8-0.8-1.8-1.3-2.9-1.3c-1.2,0-2.2,0.4-3,1.3c-0.8,0.9-1.2,2.1-1.2,3.6H111.9z"/>
		<path d="M144.8,367.5c0-1.9,0.5-3.7,1.4-5.4c0.9-1.7,2.2-3.1,3.9-4c1.7-0.9,3.6-1.4,5.6-1.4c3.2,0,5.8,1,7.9,3.1
			c2,2.1,3.1,4.7,3.1,7.9c0,3.2-1,5.9-3.1,8c-2.1,2.1-4.7,3.2-7.8,3.2c-1.9,0-3.8-0.4-5.5-1.3s-3.1-2.2-4-3.9
			C145.2,372,144.8,369.9,144.8,367.5z M150.5,367.8c0,2.1,0.5,3.7,1.5,4.8s2.2,1.7,3.7,1.7c1.5,0,2.7-0.6,3.7-1.7
			c1-1.1,1.5-2.7,1.5-4.9c0-2.1-0.5-3.7-1.5-4.8c-1-1.1-2.2-1.7-3.7-1.7c-1.5,0-2.7,0.6-3.7,1.7S150.5,365.7,150.5,367.8z"/>
		<path d="M207.2,349.1h5.6v10.7c0.7-1,1.5-1.8,2.4-2.4c0.9-0.5,2-0.8,3.2-0.8c2.3,0,4.1,1.1,5.6,3.3c1.4,2.2,2.2,4.8,2.2,7.9
			c0,3.1-0.8,5.7-2.4,7.8c-1.6,2.1-3.5,3.2-5.7,3.2c-1,0-1.9-0.2-2.8-0.7c-0.9-0.5-1.7-1.2-2.4-2.2v10.5h-5.6v-10.5
			c-0.8,1-1.7,1.7-2.6,2.2c-0.9,0.5-1.9,0.7-2.9,0.7c-2.3,0-4.2-1.1-5.7-3.2c-1.5-2.1-2.2-4.8-2.2-8c0-3.2,0.8-5.8,2.6-7.9
			c1.7-2.1,3.5-3.1,5.5-3.1c1.1,0,2.1,0.3,2.9,0.8c0.9,0.5,1.7,1.3,2.4,2.3V349.1z M203.5,361c-1,0-1.9,0.6-2.7,1.9
			c-0.8,1.2-1.2,2.9-1.2,4.9c0,2,0.4,3.7,1.1,4.9c0.7,1.2,1.6,1.9,2.7,1.9c1.1,0,2-0.6,2.8-1.9c0.8-1.2,1.1-2.9,1.1-5.1
			c0-2.3-0.4-4-1.2-5.1C205.2,361.5,204.4,361,203.5,361z M216.6,361c-1.1,0-2.1,0.7-2.8,2c-0.7,1.3-1.1,3-1.1,5
			c0,2,0.4,3.6,1.1,4.8c0.8,1.2,1.7,1.8,2.7,1.8s2-0.7,2.7-2c0.8-1.3,1.1-2.9,1.1-4.7c0-1.9-0.3-3.5-1-4.9
			C218.7,361.7,217.7,361,216.6,361z"/>
		<path d="M241.2,357.2h5.4v13.3l8.6-13.3h5.5v21.2h-5.4v-13.5l-8.7,13.5h-5.4V357.2z"/>
		<path d="M276.9,357.2h5.6v7.7h8v-7.7h5.6v21.2h-5.6v-8.9h-8v8.9h-5.6V357.2z"/>
		<path d="M316.6,363.6l-5.1-0.9c0.6-2,1.6-3.6,2.9-4.5s3.5-1.5,6.2-1.5c2.5,0,4.4,0.3,5.6,0.9c1.2,0.6,2.1,1.3,2.6,2.3
			c0.5,0.9,0.7,2.6,0.7,5l-0.1,6.5c0,1.9,0.1,3.2,0.3,4.1c0.2,0.9,0.5,1.8,1,2.8h-5.5c-0.1-0.4-0.3-0.9-0.5-1.7
			c-0.1-0.3-0.2-0.6-0.2-0.7c-1,0.9-2,1.6-3.1,2.1c-1.1,0.5-2.3,0.7-3.5,0.7c-2.2,0-3.9-0.6-5.1-1.8c-1.3-1.2-1.9-2.7-1.9-4.5
			c0-1.2,0.3-2.3,0.9-3.2c0.6-0.9,1.4-1.7,2.4-2.2c1-0.5,2.5-0.9,4.5-1.3c2.6-0.5,4.4-0.9,5.4-1.4V364c0-1.1-0.3-1.8-0.8-2.3
			c-0.5-0.5-1.5-0.7-3-0.7c-1,0-1.8,0.2-2.3,0.6C317.4,362,316.9,362.7,316.6,363.6z M324.1,368.2c-0.7,0.2-1.9,0.5-3.4,0.9
			c-1.6,0.3-2.6,0.7-3,1c-0.7,0.5-1.1,1.2-1.1,2c0,0.8,0.3,1.5,0.9,2c0.6,0.6,1.3,0.9,2.2,0.9c1,0,2-0.3,2.9-1
			c0.7-0.5,1.1-1.1,1.3-1.9c0.1-0.5,0.2-1.4,0.2-2.7V368.2z"/>
		<path d="M345.5,357.2h5.6v7.7h8v-7.7h5.6v21.2h-5.6v-8.9h-8v8.9h-5.6V357.2z"/>
		<path d="M399.5,363.4l-5.5,1c-0.2-1.1-0.6-1.9-1.3-2.5c-0.7-0.6-1.5-0.8-2.6-0.8c-1.4,0-2.5,0.5-3.3,1.4c-0.8,1-1.2,2.6-1.2,4.8
			c0,2.5,0.4,4.3,1.3,5.3c0.8,1,2,1.6,3.4,1.6c1.1,0,1.9-0.3,2.6-0.9c0.7-0.6,1.2-1.6,1.4-3.1l5.5,0.9c-0.6,2.5-1.7,4.4-3.3,5.7
			c-1.6,1.3-3.8,1.9-6.5,1.9c-3.1,0-5.6-1-7.4-2.9c-1.8-2-2.8-4.7-2.8-8.1c0-3.5,0.9-6.2,2.8-8.2c1.8-1.9,4.3-2.9,7.5-2.9
			c2.6,0,4.6,0.6,6.1,1.7C397.7,359.5,398.8,361.2,399.5,363.4z"/>
		<path d="M419.1,363.6l-5.1-0.9c0.6-2,1.6-3.6,2.9-4.5c1.4-1,3.5-1.5,6.2-1.5c2.5,0,4.4,0.3,5.6,0.9c1.2,0.6,2.1,1.3,2.6,2.3
			c0.5,0.9,0.7,2.6,0.7,5l-0.1,6.5c0,1.9,0.1,3.2,0.3,4.1c0.2,0.9,0.5,1.8,1,2.8h-5.5c-0.1-0.4-0.3-0.9-0.5-1.7
			c-0.1-0.3-0.2-0.6-0.2-0.7c-1,0.9-2,1.6-3.1,2.1c-1.1,0.5-2.3,0.7-3.5,0.7c-2.2,0-3.9-0.6-5.2-1.8c-1.3-1.2-1.9-2.7-1.9-4.5
			c0-1.2,0.3-2.3,0.9-3.2c0.6-0.9,1.4-1.7,2.4-2.2c1-0.5,2.5-0.9,4.5-1.3c2.6-0.5,4.4-0.9,5.4-1.4V364c0-1.1-0.3-1.8-0.8-2.3
			c-0.5-0.5-1.5-0.7-3-0.7c-1,0-1.8,0.2-2.3,0.6C419.9,362,419.4,362.7,419.1,363.6z M426.6,368.2c-0.7,0.2-1.9,0.5-3.4,0.9
			c-1.6,0.3-2.6,0.7-3,1c-0.7,0.5-1.1,1.2-1.1,2c0,0.8,0.3,1.5,0.9,2c0.6,0.6,1.3,0.9,2.2,0.9c1,0,2-0.3,2.9-1
			c0.7-0.5,1.1-1.1,1.3-1.9c0.1-0.5,0.2-1.4,0.2-2.7V368.2z"/>
		<path d="M445.5,378.3l7.6-10.9l-7.3-10.3h6.8l3.7,5.8l3.9-5.8h6.6l-7.2,10l7.8,11.1h-6.9l-4.3-6.6l-4.3,6.6H445.5z"/>
		<path d="M495,357.2h12.3c2.5,0,4.4,0.5,5.6,1.4c1.2,0.9,1.9,2.3,1.9,4.1c0,1.2-0.3,2.2-1,3.1c-0.7,0.9-1.5,1.5-2.6,1.8
			c1.5,0.4,2.5,1,3.3,2c0.7,1,1.1,2.1,1.1,3.2c0,1.6-0.6,3-1.8,4c-1.2,1-3,1.5-5.4,1.5H495V357.2z M500.7,366h3.6
			c1.7,0,3-0.2,3.8-0.7c0.8-0.4,1.2-1.1,1.2-2.1c0-0.9-0.4-1.5-1.1-1.9c-0.7-0.4-2-0.6-3.9-0.6h-3.6V366z M500.7,374.8h4.4
			c1.6,0,2.8-0.2,3.5-0.6s1.1-1.1,1.1-2.1c0-1-0.4-1.7-1.3-2.1c-0.8-0.4-2.5-0.6-4.9-0.6h-2.9V374.8z"/>
		<path d="M544.3,349.1h21.8v4.9h-15.9v6.8h7.9c2.2,0,4,0.3,5.4,0.8c1.4,0.5,2.7,1.5,3.7,2.9c1,1.4,1.5,3.1,1.5,5
			c0,2-0.5,3.7-1.5,5.1c-1,1.4-2.2,2.4-3.5,2.9c-1.3,0.5-3.2,0.8-5.6,0.8h-13.8V349.1z M550.2,373.4h5.7c1.8,0,3.1-0.1,3.9-0.3
			c0.7-0.2,1.4-0.6,1.9-1.2c0.6-0.6,0.8-1.4,0.8-2.4c0-1.4-0.5-2.3-1.4-3c-1-0.6-2.6-0.9-4.9-0.9h-6V373.4z"/>
		<path d="M596.3,371.6l5.6,0.9c-0.7,2-1.8,3.6-3.4,4.7c-1.5,1.1-3.5,1.6-5.8,1.6c-3.7,0-6.4-1.2-8.2-3.6c-1.4-1.9-2.1-4.4-2.1-7.3
			c0-3.5,0.9-6.3,2.7-8.2c1.8-2,4.2-3,7-3c3.1,0,5.6,1,7.5,3.1c1.8,2.1,2.7,5.3,2.6,9.6h-14c0,1.7,0.5,3,1.4,3.9
			c0.9,0.9,1.9,1.4,3.2,1.4c0.9,0,1.6-0.2,2.2-0.7C595.6,373.4,596,372.7,596.3,371.6z M596.6,366c0-1.6-0.5-2.9-1.3-3.7
			c-0.8-0.8-1.8-1.3-2.9-1.3c-1.2,0-2.2,0.4-3,1.3c-0.8,0.9-1.2,2.1-1.2,3.6H596.6z"/>
		<path d="M618.9,357.2h18.7v21.2h-5.6v-16.6h-7.6v9.5c0,2.4-0.3,4.1-0.8,5.1c-0.6,1-1.2,1.6-1.9,1.9c-0.7,0.3-1.8,0.5-3.3,0.5
			c-0.9,0-2.1-0.1-3.5-0.4v-4.1c0.1,0,0.4,0,0.9,0c0.6,0,1,0.1,1.4,0.1c0.8,0,1.2-0.2,1.4-0.7c0.2-0.5,0.3-1.9,0.3-4.2V357.2z"/>
		<path d="M658.2,363.6l-5.1-0.9c0.6-2,1.6-3.6,2.9-4.5c1.4-1,3.5-1.5,6.2-1.5c2.5,0,4.4,0.3,5.6,0.9c1.2,0.6,2.1,1.3,2.6,2.3
			c0.5,0.9,0.7,2.6,0.7,5l-0.1,6.5c0,1.9,0.1,3.2,0.3,4.1c0.2,0.9,0.5,1.8,1,2.8h-5.5c-0.1-0.4-0.3-0.9-0.5-1.7
			c-0.1-0.3-0.2-0.6-0.2-0.7c-1,0.9-2,1.6-3.1,2.1c-1.1,0.5-2.3,0.7-3.5,0.7c-2.2,0-3.9-0.6-5.2-1.8c-1.3-1.2-1.9-2.7-1.9-4.5
			c0-1.2,0.3-2.3,0.9-3.2c0.6-0.9,1.4-1.7,2.4-2.2c1-0.5,2.5-0.9,4.5-1.3c2.6-0.5,4.4-0.9,5.4-1.4V364c0-1.1-0.3-1.8-0.8-2.3
			c-0.5-0.5-1.5-0.7-3-0.7c-1,0-1.8,0.2-2.3,0.6C659,362,658.5,362.7,658.2,363.6z M665.7,368.2c-0.7,0.2-1.9,0.5-3.4,0.9
			c-1.6,0.3-2.6,0.7-3,1c-0.7,0.5-1.1,1.2-1.1,2c0,0.8,0.3,1.5,0.9,2s1.3,0.9,2.2,0.9c1,0,2-0.3,2.9-1c0.7-0.5,1.1-1.1,1.3-1.9
			c0.1-0.5,0.2-1.4,0.2-2.7V368.2z"/>
		<path d="M687.2,357.2h5.2v3.1c0.7-1.1,1.6-1.9,2.7-2.6c1.2-0.7,2.4-1,3.8-1c2.5,0,4.5,1,6.3,2.9c1.7,1.9,2.6,4.6,2.6,8
			c0,3.5-0.9,6.3-2.6,8.2c-1.7,2-3.8,2.9-6.3,2.9c-1.2,0-2.2-0.2-3.2-0.7c-1-0.5-1.9-1.3-3-2.4v10.7h-5.6V357.2z M692.7,367.4
			c0,2.4,0.5,4.1,1.4,5.3c0.9,1.1,2.1,1.7,3.4,1.7c1.3,0,2.4-0.5,3.2-1.6c0.9-1,1.3-2.8,1.3-5.1c0-2.2-0.4-3.9-1.3-4.9
			c-0.9-1.1-2-1.6-3.3-1.6c-1.4,0-2.5,0.5-3.4,1.6C693.2,363.8,692.7,365.3,692.7,367.4z"/>
		<path d="M719.7,357.2h6l5.1,15l4.9-15h5.8l-7.5,20.4l-1.3,3.7c-0.5,1.2-1,2.2-1.4,2.8c-0.4,0.7-1,1.2-1.5,1.6
			c-0.6,0.4-1.3,0.7-2.1,0.9c-0.8,0.2-1.8,0.3-2.9,0.3c-1.1,0-2.1-0.1-3.2-0.3l-0.5-4.4c0.9,0.2,1.7,0.3,2.4,0.3
			c1.3,0,2.3-0.4,2.9-1.1c0.6-0.8,1.1-1.7,1.4-2.9L719.7,357.2z"/>
		<path d="M773.1,363.4l-5.5,1c-0.2-1.1-0.6-1.9-1.3-2.5c-0.7-0.6-1.5-0.8-2.6-0.8c-1.4,0-2.5,0.5-3.3,1.4c-0.8,1-1.2,2.6-1.2,4.8
			c0,2.5,0.4,4.3,1.3,5.3c0.8,1,2,1.6,3.4,1.6c1.1,0,1.9-0.3,2.6-0.9c0.7-0.6,1.2-1.6,1.4-3.1l5.5,0.9c-0.6,2.5-1.7,4.4-3.3,5.7
			c-1.6,1.3-3.8,1.9-6.5,1.9c-3.1,0-5.6-1-7.4-2.9c-1.8-2-2.8-4.7-2.8-8.1c0-3.5,0.9-6.2,2.8-8.2c1.8-1.9,4.3-2.9,7.5-2.9
			c2.6,0,4.6,0.6,6.1,1.7C771.4,359.5,772.5,361.2,773.1,363.4z"/>
		<path d="M787.9,357.2h5.4v13.3l8.6-13.3h5.5v21.2H802v-13.5l-8.7,13.5h-5.4V357.2z"/>
	</g>
</g>
</svg>
