<?xml version="1.0" encoding="UTF-8" standalone="no"?>
<svg
   xmlns:dc="http://purl.org/dc/elements/1.1/"
   xmlns:cc="http://creativecommons.org/ns#"
   xmlns:rdf="http://www.w3.org/1999/02/22-rdf-syntax-ns#"
   xmlns:svg="http://www.w3.org/2000/svg"
   xmlns="http://www.w3.org/2000/svg"
   xml:space="preserve"
   style="enable-background:new 0 0 50 14;"
   viewBox="0 0 50 14"
   y="0px"
   x="0px"
   id="Layer_1"
   version="1.1"><metadata
     id="metadata25"><rdf:RDF><cc:Work
         rdf:about=""><dc:format>image/svg+xml</dc:format><dc:type
           rdf:resource="http://purl.org/dc/dcmitype/StillImage" /><dc:title></dc:title></cc:Work></rdf:RDF></metadata><defs
     id="defs23" /><g
     transform="translate(0,-18)"
     id="g3"><g
       id="g5"><polygon
         style="fill:#001ba8"
         id="polygon7"
         points="2.5,21 2.5,27.1 5.9,27.1 5.9,21 8.4,21 8.4,18.3 0,18.3 0,21 " /><polygon
         style="fill:#001ba8"
         id="polygon9"
         points="22.4,21 22.4,27.1 25.8,27.1 25.8,21 28.3,21 28.3,18.3 19.9,18.3 19.9,21 " /><path
         style="fill:#001ba8"
         id="path11"
         d="m 31.7,18.3 5.7,0 c 2.7,0 3.2,3.5 1.2,4.3 2.5,0.5 2.5,4.5 -0.9,4.5 l -5.9,0 0,-8.8 z m 3.2,3.4 1.1,0 c 0.4,0.1 0.8,-0.2 0.9,-0.5 0.1,-0.3 -0.2,-0.8 -0.5,-0.9 -0.1,0 -0.2,0 -0.3,0 l -1.1,0 0,1.4 z m 0,3.5 1.4,0 c 0.5,0 0.9,-0.4 0.9,-0.9 0,-0.5 -0.4,-0.9 -0.9,-0.9 l 0,0 -1.4,0 0,1.8 z" /><polygon
         style="fill:#001ba8"
         id="polygon13"
         points="44.8,20.8 43.4,18.3 39.7,18.3 43.1,23.4 43.1,27.1 46.6,27.1 46.6,23.4 50,18.3 46.3,18.3 " /><circle
         style="fill:#001ba8"
         id="circle15"
         r="1.5"
         cy="26"
         cx="28.799999" /><path
         style="fill:#cc0000"
         id="path17"
         d="m 0.4,30.7 0.2,0 c 0,0 0.1,0 0.1,0 0,0 0.1,0.1 0.1,0.1 0,0.1 0,0.1 0,0.2 0,0.1 0,0.1 0,0.2 0,0 0,0.1 -0.1,0.1 0,0 -0.1,0 -0.1,0 l -0.2,0 0,-0.6 0,0 z m 47.6,-1 0,0.9 c 0,0.1 0,0.2 0,0.3 0,0.1 0,0.1 0,0.2 0,0 0,0.1 0,0.1 0,0 0,0 0,0.1 l 0,0 -0.2,0 0,0.3 0.1,0 0.1,0 c 0.1,0 0.2,0 0.2,-0.1 0.1,-0.1 0.1,-0.2 0.1,-0.3 0,-0.2 0,-0.3 0,-0.5 l 0,-0.7 0.4,0 0,1.6 0.4,0 0,-1.9 -1.1,0 z m -3.6,1.9 0.4,0 0.1,-0.5 0.4,0 0.1,0.5 0.4,0 -0.4,-1.9 -0.5,0 c 0,0 -0.5,1.9 -0.5,1.9 z m 0.6,-0.7 0.2,-0.9 0.2,0.9 -0.4,0 z m -2.7,-0.9 0.5,0 0,-0.3 -1.3,0 0,0.3 0.5,0 0,1.6 0.4,0 C 42.3,31.6 42.3,30 42.3,30 Z m -3.5,0.8 0.3,0 c 0.1,0 0.1,0 0.2,0 0.1,0 0.1,-0.1 0.2,-0.1 0,-0.1 0.1,-0.1 0.1,-0.2 0,-0.1 0,-0.1 0,-0.2 0,-0.1 0,-0.1 0,-0.2 0,-0.1 -0.1,-0.1 -0.1,-0.2 0,-0.1 -0.1,-0.1 -0.2,-0.1 -0.1,0 -0.1,0 -0.2,0 l -0.7,0 0,1.9 0.4,0 0,-0.9 0,0 z m 0,-0.8 0.2,0 c 0.1,0 0.1,0 0.2,0.1 0.1,0.1 0.1,0.1 0.1,0.2 0,0.1 0,0.2 -0.1,0.2 -0.1,0.1 -0.1,0.1 -0.2,0.1 l -0.2,0 0,-0.6 0,0 z m -3.8,1.6 0.4,0 0.1,-0.5 0.4,0 0.1,0.5 0.4,0 -0.4,-1.9 -0.5,0 -0.5,1.9 z m 0.5,-0.8 0.2,-0.9 0.2,0.9 -0.4,0 z m -3.8,-1.1 0,1.9 0.4,0 0,-1.6 0.5,0 0,1.6 0.4,0 0,-1.9 -1.3,0 z m -5.3,0 -0.4,0 0,1.9 0.4,0 0,-1.9 z m -3.2,0 -0.4,0 0,1.9 0.4,0 0,-0.6 0.1,-0.2 0.3,0.8 0.4,0 -0.5,-1.1 0.5,-0.8 -0.4,0 -0.4,0.8 0,-0.8 0,0 z m -2.5,0.6 0,-0.1 c 0,-0.1 0,-0.2 -0.1,-0.3 0,-0.1 -0.1,-0.1 -0.2,-0.2 -0.1,0 -0.2,-0.1 -0.3,-0.1 -0.2,0 -0.3,0 -0.4,0.2 -0.1,0.1 -0.2,0.3 -0.1,0.5 l 0,0.7 c 0,0.1 0,0.2 0,0.2 0,0.1 0,0.1 0.1,0.2 0,0.1 0.1,0.1 0.2,0.1 0.1,0 0.2,0.1 0.3,0 0.1,0 0.2,0 0.3,0 0.1,0 0.1,-0.1 0.2,-0.1 0,-0.1 0.1,-0.1 0.1,-0.2 0,-0.1 0,-0.2 0,-0.2 l 0,-0.1 -0.4,0 0,0.1 c 0,0.1 0,0.1 0,0.2 0,0 0,0.1 -0.1,0.1 0,0 -0.1,0 -0.1,0 0,0 -0.1,0 -0.1,0 0,0 -0.1,-0.1 -0.1,-0.1 0,-0.1 0,-0.1 0,-0.2 l 0,-0.7 c 0,-0.1 0,-0.1 0,-0.2 0,0 0,-0.1 0.1,-0.1 0,0 0.1,0 0.1,0 0,0 0.1,0 0.1,0 0,0 0.1,0.1 0.1,0.1 0,0.1 0,0.1 0,0.2 l 0,0 0.3,0 z m -4.5,-0.6 0.5,1.5 c 0,0 0,0.1 -0.1,0.1 0,0 -0.1,0 -0.1,0 l -0.1,0 0,0.3 0.1,0 0.1,0 c 0.1,0 0.1,0 0.2,0 0.1,0 0.1,-0.1 0.1,-0.1 0,-0.1 0,-0.1 0.1,-0.2 l 0.5,-1.5 -0.4,0 -0.3,1 -0.3,-1 -0.3,-0.1 z m -2.8,1.1 0.3,0 c 0.1,0 0.1,0 0.2,0 0.1,0 0.1,-0.1 0.2,-0.1 0,-0.1 0.1,-0.1 0.1,-0.2 0,-0.1 0,-0.1 0,-0.2 0,-0.1 0,-0.1 0,-0.2 0,-0.1 -0.1,-0.1 -0.1,-0.2 0,-0.1 -0.1,-0.1 -0.2,-0.1 -0.1,0 -0.1,0 -0.2,0 l -0.7,0 0,1.9 0.4,0 0,-0.9 0,0 z m 0,-0.8 0.2,0 c 0.1,0 0.1,0 0.2,0.1 0.1,0.1 0.1,0.1 0.1,0.2 0,0.1 0,0.2 -0.1,0.2 -0.1,0.1 -0.1,0.1 -0.2,0.1 l -0.2,0 c 0,-0.1 0,-0.6 0,-0.6 z m -3.8,1.6 0.4,0 0.1,-0.5 0.4,0 0.1,0.5 0.4,0 -0.4,-1.9 -0.5,0 c 0,0 -0.5,1.9 -0.5,1.9 z m 0.6,-0.8 0.2,-0.9 0.1,0.9 -0.3,0 z m -3.7,-1.1 0,0.9 c 0,0.1 0,0.2 0,0.3 0,0.1 0,0.1 0,0.2 0,0 0,0.1 0,0.1 0,0 0,0 0,0.1 l 0,0 -0.3,0 0,0.3 0.1,0 0.1,0 c 0.1,0 0.2,0 0.2,-0.1 0.1,-0.1 0.1,-0.2 0.1,-0.3 0,-0.2 0,-0.3 0,-0.5 l 0,-0.7 0.4,0 0,1.6 0.4,0 0,-1.9 -1,0 z m -3.3,0 0,1.9 1,0 0,-0.3 -0.6,0 0,-0.6 0.6,0 0,-0.3 -0.6,0 0,-0.4 0.7,0 0,-0.3 -1.1,0 z m -3.2,0 0,1.9 0.7,0 c 0.1,0 0.2,0 0.2,-0.1 0.1,-0.1 0.1,-0.1 0.2,-0.2 0,-0.1 0.1,-0.2 0,-0.3 0,-0.1 0,-0.1 0,-0.2 0,-0.1 0,-0.1 -0.1,-0.1 0,0 -0.1,-0.1 -0.1,-0.1 0,0 -0.1,-0.1 -0.1,-0.1 -0.1,0 -0.1,0 -0.2,0 l -0.2,0 0,-0.5 0.6,0 0,-0.3 -1,0 z" /><path
         style="fill:#cc0000"
         id="path19"
         d="m 18.9,18.3 -3.4,0 0,2.7 1.7,0 -3.1,4.1 -3,-4.1 1.7,0 0,-2.7 -3.5,0 0,5.6 c 0,1.9 1.7,3.7 4.8,3.7 3,0 4.8,-1.8 4.8,-3.7 l 0,-5.6 z" /></g></g></svg>