<?xml version="1.0" encoding="utf-8"?>
<!-- Generator: Adobe Illustrator 21.0.0, SVG Export Plug-In . SVG Version: 6.00 Build 0)  -->
<svg version="1.1" id="Layer_1" xmlns="http://www.w3.org/2000/svg" xmlns:xlink="http://www.w3.org/1999/xlink" x="0px" y="0px"
	 viewBox="0 0 264.4 64.9" style="enable-background:new 0 0 264.4 64.9;" xml:space="preserve">
<style type="text/css">
	.st0{fill:#F4C532;}
	.st1{fill:#9C9B9B;}
	.st2{fill:#1D1D1B;}
</style>
<g>
	<path class="st0" d="M125.9,0c-1.8,0-3.2,1-3.6,2.7l-6.4,28.4c-0.5,2-2.3,3.5-4.4,3.5H1.3L0,40.1h227.1c1.8,0,3.2-1,3.6-2.7L239,0
		H125.9z"/>
	<path class="st1" d="M11,27l1.8-7.8H8.6L6.8,27H4.1l2.3-10.2H16L13.7,27H11z"/>
	<path class="st1" d="M16.7,22.7c0-3.2,2.4-6.1,5.9-6.1c3.2,0,5.1,2,5.1,4.6c0,3.2-2.4,6-5.9,6C18.5,27.3,16.7,25.3,16.7,22.7z
		 M24.8,21.4c0-1.5-0.9-2.4-2.4-2.4c-1.8,0-3,1.7-3,3.5c0,1.5,0.9,2.4,2.4,2.4C23.6,24.9,24.8,23.2,24.8,21.4z"/>
	<path class="st1" d="M27.9,25.1c0.8,0,1.5-0.8,2.4-3.3l1.7-4.9h8.2L38,27h-2.7l1.7-7.8h-3.2l-1,2.9c-1.2,3.5-2.8,5.2-5.4,5.2
		L27.9,25.1z"/>
	<path class="st1" d="M40.3,28.6c0.2,0.1,0.7,0.2,1,0.2c0.5,0,0.9-0.2,1.3-0.7l0.6-0.9l-1.8-10.2h2.8l1.1,7.1l4.3-7.1h3l-7.4,11.8
		c-1.1,1.8-2.3,2.5-3.9,2.5c-0.6,0-1.2-0.1-1.7-0.3L40.3,28.6z"/>
	<path class="st1" d="M56,16.8l-0.6,2.8c-0.3,1.4,0.3,1.9,1.7,1.9c0.9,0,1.6-0.2,2.1-0.4l0.9-4.3h2.7L60.7,27H58l0.8-3.8
		c-0.7,0.4-1.9,0.6-3.1,0.6c-2.8,0-3.6-1.2-3.2-3.4l0.8-3.7H56z"/>
	<path class="st1" d="M63.7,22.7c0-3.3,2.5-6.1,5.9-6.1c2.6,0,4.6,1.7,4.6,4.6c0,0.6-0.1,1.3-0.2,1.6h-7.6c0,0,0,0.2,0,0.3
		c0,0.9,0.9,2.1,2.8,2.1c0.9,0,1.9-0.3,2.6-0.8l0.8,1.8c-1,0.7-2.3,1.1-3.6,1.1C65.8,27.3,63.7,25.5,63.7,22.7z M71.8,21
		c0,0,0-0.2,0-0.2c0-1-0.7-2-2.3-2c-1.4,0-2.5,1.1-2.8,2.3H71.8z"/>
	<path class="st1" d="M75,27l2.3-10.2h2.7l-0.8,3.7h4.2l0.8-3.7h2.7L84.5,27h-2.7l0.9-4.1h-4.2L77.6,27H75z"/>
	<path class="st1" d="M87.1,27l2.2-10.2h2.7L90.7,23l5.6-6.2h2.7L96.7,27H94l1.4-6.4L89.7,27H87.1z"/>
	<path class="st1" d="M99,27l3.3-3.8c-0.9-0.4-1.7-1.3-1.7-2.6c0-1.9,1.5-3.8,4-3.8h6.5L108.8,27h-2.7l0.8-3.5h-2l-2.8,3.5H99z
		 M107.4,21.3l0.5-2.2h-3.2c-0.8,0-1.3,0.5-1.3,1.2c0,0.6,0.4,0.9,1.2,0.9H107.4z"/>
	<g>
		<path class="st2" d="M131.1,27.1l-2.6-5.4l-1.3,1.3l-0.9,4.1h-3.6l3.1-14.1h3.6l-1.2,5.5l5.3-5.5h4.7l-6.9,6.6l4.1,7.5H131.1z"/>
		<path class="st2" d="M150.9,19.2c0,4.9-3.8,8.2-8.3,8.2c-3.8,0-5.8-2.1-6.5-4.3l3.5-1.1c0.4,1.4,1.6,2.3,3.2,2.3
			c1.7,0,3.2-1.1,3.9-2.6h-5.9l0.7-3.2h5.5c-0.4-1.4-1.6-2.4-3.4-2.4c-1.1,0-2.4,0.7-3.1,1.6l-2.8-1.9c1.7-2.3,4.2-3,6.1-3
			C147.8,12.8,150.9,15.3,150.9,19.2z"/>
		<path class="st2" d="M173,13l-3.1,14.1H151l3.1-14.1h3.6l-2.4,10.9h4l2.4-10.9h3.6L163,23.9h4l2.4-10.9H173z"/>
		<path class="st2" d="M186.1,13l-0.7,3.2h-7.4l-0.4,1.8h2.7c3.1,0,4.7,1.8,4.7,3.9c0,2-1.4,5.2-6,5.2h-7l3.1-14.1H186.1z M177,21.2
			l-0.6,2.8h3c1.2,0,1.9-0.7,1.9-1.6c0-0.7-0.5-1.2-1.3-1.2H177z"/>
		<path class="st2" d="M200.5,19.2c0,4.9-3.8,8.2-8.3,8.2c-3.8,0-5.8-2.1-6.5-4.3l3.5-1.1c0.4,1.4,1.6,2.3,3.2,2.3
			c1.7,0,3.2-1.1,3.9-2.6h-5.9l0.7-3.2h5.5c-0.4-1.4-1.6-2.4-3.4-2.4c-1.1,0-2.4,0.7-3.1,1.6l-2.8-1.9c1.7-2.3,4.2-3,6.1-3
			C197.3,12.8,200.5,15.3,200.5,19.2z"/>
		<path class="st2" d="M209,27.1l-2.6-5.4l-1.3,1.3l-0.9,4.1h-3.6l3.1-14.1h3.6l-1.2,5.5l5.3-5.5h4.7l-6.9,6.6l4.1,7.5H209z"/>
		<path class="st2" d="M224.1,27.1l-0.3-2h-5.5l-1.1,2h-4.3l8.4-14.1h4.6l2.2,14.1H224.1z M222.9,16.6l-3,5.3h3.6L222.9,16.6z"/>
	</g>
	<g>
		<path class="st0" d="M250.6,38.6c0,0-5.6,0-6.4,0l2.9,10.4h-61.6l-1.3,5.6h61.6l-7.5,10.3c0,0,6.4,0,6.4,0l9.6-13.1L250.6,38.6z"
			/>
		<path class="st0" d="M260.7,38.6c0,0-5.6,0-6.4,0l3.7,13.1l-9.6,13.1c0,0,6.4,0,6.4,0l9.6-13.1L260.7,38.6z"/>
	</g>
	<g>
		<path class="st1" d="M56.9,56.4l2.3-10.2h2.7L61,49.9h4.2l0.8-3.7h2.7l-2.3,10.2h-2.7l0.9-4.1h-4.2l-0.9,4.1H56.9z"/>
		<path class="st1" d="M69.5,52.1c0-3.3,2.5-6.1,5.9-6.1c2.6,0,4.6,1.7,4.6,4.6c0,0.6-0.1,1.3-0.2,1.6h-7.6c0,0,0,0.2,0,0.3
			c0,0.9,0.9,2.1,2.8,2.1c0.9,0,1.9-0.3,2.6-0.8l0.8,1.8c-1,0.7-2.3,1.1-3.6,1.1C71.6,56.6,69.5,54.9,69.5,52.1z M77.5,50.3
			c0,0,0-0.2,0-0.2c0-1-0.7-2-2.3-2c-1.4,0-2.5,1.1-2.8,2.3H77.5z"/>
		<path class="st1" d="M81.1,52c0-3.2,2.4-6.1,5.9-6.1c3.2,0,5.1,2,5.1,4.6c0,3.2-2.4,6-5.9,6C82.9,56.6,81.1,54.7,81.1,52z
			 M89.3,50.7c0-1.5-0.9-2.4-2.4-2.4c-1.8,0-3,1.7-3,3.5c0,1.5,0.9,2.4,2.4,2.4C88,54.3,89.3,52.5,89.3,50.7z"/>
		<path class="st1" d="M93.2,51.8c0-1.4,0.5-3.2,1.1-4.2c1.4-2.5,3.2-4,6.3-4.4c1.4-0.2,2-0.5,2.1-0.8h2.8c-0.4,2-3.1,2.5-4.8,2.7
			c-2.5,0.3-3.7,1.4-4.2,2.5c1-1,2.2-1.6,3.6-1.6c2.6,0,4,1.9,4,4.6c0,3.2-2.4,6-5.9,6C95,56.6,93.2,54.7,93.2,51.8z M101.4,50.7
			c0-1.5-0.9-2.4-2.4-2.4c-1.8,0-3,1.7-3,3.5c0,1.5,0.9,2.4,2.4,2.4C100.1,54.3,101.4,52.5,101.4,50.7z"/>
		<path class="st1" d="M111.4,56.4l-1.6-3.4l-3.1,3.4h-3.1l4.7-5.2l-2.3-5h2.9l1.4,3.1l2.8-3.1h3.1l-4.5,5l2.5,5.2H111.4z"/>
		<path class="st1" d="M115.3,52c0-3.2,2.4-6.1,5.9-6.1c3.2,0,5.1,2,5.1,4.6c0,3.2-2.4,6-5.9,6C117.1,56.6,115.3,54.7,115.3,52z
			 M123.4,50.7c0-1.5-0.9-2.4-2.4-2.4c-1.8,0-3,1.7-3,3.5c0,1.5,0.9,2.4,2.4,2.4C122.2,54.3,123.4,52.5,123.4,50.7z"/>
		<path class="st1" d="M126.5,54.1c0.8-0.2,1.4-0.5,2.3-3l1.7-4.9h8.2L137,54h1.1l-1.1,4.9h-2.7l0.6-2.6h-6.3l-0.6,2.6h-2.7
			L126.5,54.1z M131.4,51.3c-0.4,1.2-1,2.1-1.8,2.7h4.7l1.2-5.5h-3.2L131.4,51.3z"/>
		<path class="st1" d="M139.3,56.4l2.2-10.2h2.7l-1.4,6.2l5.6-6.2h2.7l-2.2,10.2h-2.7l1.4-6.4l-5.7,6.4H139.3z"/>
		<path class="st1" d="M160.9,56.4l1.4-6.6l-4.2,6.6H157l-1.3-6.6l-1.4,6.6h-2.7l2.2-10.2h3.4l1.2,6.1l3.8-6.1h3.6l-2.2,10.2H160.9z
			"/>
		<path class="st1" d="M166.6,52c0-3.2,2.4-6.1,5.9-6.1c3.2,0,5.1,2,5.1,4.6c0,3.2-2.4,6-5.9,6C168.4,56.6,166.6,54.7,166.6,52z
			 M174.8,50.7c0-1.5-0.9-2.4-2.4-2.4c-1.8,0-3,1.7-3,3.5c0,1.5,0.9,2.4,2.4,2.4C173.5,54.3,174.8,52.5,174.8,50.7z"/>
	</g>
	<g>
		<path class="st1" d="M77.6,10.2c0.8-0.2,1.4-0.5,2.3-3l1.7-4.9h8.2l-1.7,7.8h1.1l-1.1,4.9h-2.7l0.6-2.6h-6.3l-0.6,2.6h-2.7
			L77.6,10.2z M82.5,7.4c-0.4,1.2-1,2.1-1.8,2.7h4.7l1.2-5.5h-3.2L82.5,7.4z"/>
		<path class="st1" d="M89.9,10.5c0.8,0,1.5-0.8,2.4-3.3L94,2.3h8.2L100,12.5h-2.7L99,4.6h-3.2l-1,2.9c-1.2,3.5-2.8,5.2-5.4,5.2
			L89.9,10.5z"/>
		<path class="st1" d="M102.3,12.5l3.3-3.8c-0.9-0.4-1.7-1.3-1.7-2.6c0-1.9,1.5-3.8,4-3.8h6.5l-2.2,10.2h-2.7l0.8-3.5h-2l-2.8,3.5
			H102.3z M110.7,6.7l0.5-2.2H108c-0.8,0-1.3,0.5-1.3,1.2c0,0.6,0.4,0.9,1.2,0.9H110.7z"/>
	</g>
</g>
</svg>
