<?xml version="1.0" encoding="utf-8"?><svg xmlns="http://www.w3.org/2000/svg" xmlns:xlink="http://www.w3.org/1999/xlink"><symbol viewBox="0 -256 1850 1850" id="heart" xmlns="http://www.w3.org/2000/svg"><path d="M933.966 1471.424q-26 0-44-18l-624-602q-10-8-27.5-26t-55.5-65.5q-38-47.5-68-97.5t-53.5-121q-23.5-71-23.5-138 0-220 127-344t351-124q62 0 126.5 21.5t120 58q55.5 36.5 95.5 68.5t76 68q36-36 76-68t95.5-68.5q55.5-36.5 120-58t126.5-21.5q224 0 351 124t127 344q0 221-229 450l-623 600q-18 18-44 18"/></symbol><symbol viewBox="0 0 12 13" id="search" xmlns="http://www.w3.org/2000/svg"><g stroke-width="2" fill="none"><path d="M11.29 11.71l-4-4"/><circle cx="5" cy="5" r="4"/></g></symbol></svg>