<svg viewBox="0 0 154 48" height="48" width="154"><path d="M2.5 1A1.5 1.5 0 0 0 1 2.5v43A1.5 1.5 0 0 0 2.5 47h149a1.5 1.5 0 0 0 1.5-1.5v-43a1.5 1.5 0 0 0-1.5-1.5H2.5zm0-1h149a2.5 2.5 0 0 1 2.5 2.5v43a2.5 2.5 0 0 1-2.5 2.5H2.5A2.5 2.5 0 0 1 0 45.5v-43A2.5 2.5 0 0 1 2.5 0z"/><path d="M60.859 35.871c-.143-.404-.306-.87-.49-1.398l-.49-1.398-.213-.606h-5.569l-1.406 4.009h-1.834l5.161-14.008h1.727l5.16 14.008h-1.833l-.213-.607zm-4.235-10.629c-.152.43-.338.962-.557 1.596a443.494 443.494 0 0 1-1.228 3.5l-.228.645h4.54l-2.24-6.387h-.059l-.228.646zm16.176 2.14c.828.977 1.242 2.265 1.242 3.864 0 1.598-.41 2.886-1.232 3.863-.821.977-1.891 1.466-3.21 1.466-.745 0-1.404-.157-1.98-.471a3.45 3.45 0 0 1-1.358-1.325h-.039v5.193h-1.688V26.013h1.601v1.7h.039c.304-.544.763-.98 1.377-1.306a4.21 4.21 0 0 1 2.008-.49c1.333-.001 2.413.488 3.24 1.465zm-3.55 7.688c.925 0 1.667-.348 2.226-1.043.56-.696.84-1.623.84-2.781 0-1.159-.28-2.086-.84-2.782-.56-.695-1.301-1.043-2.226-1.043-.899 0-1.63.353-2.192 1.058-.563.705-.844 1.628-.844 2.767s.28 2.06.844 2.766c.562.705 1.293 1.058 2.192 1.058zm15.075-7.688c.828.977 1.242 2.265 1.242 3.864 0 1.598-.41 2.886-1.232 3.863-.821.977-1.892 1.466-3.211 1.466-.744 0-1.404-.157-1.98-.471a3.45 3.45 0 0 1-1.357-1.325h-.039v5.193H76.06V26.013h1.6v1.7h.04c.303-.544.763-.98 1.377-1.306a4.21 4.21 0 0 1 2.008-.49c1.332-.001 2.412.488 3.24 1.465zm-3.55 7.688c.924 0 1.667-.348 2.226-1.043.56-.696.84-1.623.84-2.781 0-1.159-.28-2.086-.84-2.782-.56-.695-1.302-1.043-2.226-1.043-.9 0-1.63.353-2.193 1.058-.562.705-.844 1.628-.844 2.767s.282 2.06.844 2.766c.563.705 1.294 1.058 2.193 1.058zm12.897.524c.947.745 2.162 1.117 3.643 1.117 1.61 0 2.886-.374 3.827-1.121.94-.748 1.411-1.762 1.411-3.044 0-1.003-.317-1.805-.95-2.407-.634-.602-1.676-1.084-3.124-1.446l-1.465-.389c-.95-.246-1.635-.538-2.052-.878a1.61 1.61 0 0 1-.626-1.306c0-.686.287-1.242.859-1.67.572-.427 1.311-.64 2.217-.64.912 0 1.652.217 2.221.65.57.434.893 1.026.97 1.777h1.746c-.038-1.178-.514-2.14-1.426-2.883-.912-.745-2.063-1.117-3.453-1.117-1.455 0-2.644.37-3.565 1.107-.922.738-1.383 1.689-1.383 2.854 0 1.831 1.242 3.064 3.726 3.698l1.794.466c.944.24 1.632.55 2.062.932.43.382.645.87.645 1.466 0 .686-.309 1.254-.927 1.703-.617.45-1.398.675-2.342.675-.996 0-1.824-.23-2.484-.69-.66-.459-1.031-1.067-1.115-1.824h-1.756c.084 1.236.6 2.226 1.547 2.97zm11.5-9.58h-1.455v1.397h1.455v6.349c0 1.003.202 1.72.607 2.15.404.43 1.078.645 2.022.645.2 0 .406-.008.616-.024.21-.016.367-.037.47-.063v-1.427l-.329.03a5.672 5.672 0 0 1-.398.019c-.446 0-.774-.114-.984-.34-.21-.227-.316-.58-.316-1.058v-6.28h2.037v-1.399h-2.037v-2.358h-1.688v2.359zm10.147 10.56c-1.468 0-2.638-.483-3.511-1.45-.873-.968-1.31-2.26-1.31-3.878 0-1.625.437-2.92 1.31-3.883.873-.965 2.043-1.447 3.511-1.447 1.469 0 2.64.482 3.512 1.447.873.964 1.31 2.258 1.31 3.883 0 1.617-.437 2.91-1.31 3.878-.873.967-2.043 1.45-3.512 1.45zm2.285-2.518c.547-.676.82-1.613.82-2.81 0-1.204-.273-2.143-.82-2.816-.546-.673-1.308-1.01-2.285-1.01-.976 0-1.738.339-2.284 1.015-.547.677-.82 1.613-.82 2.81 0 1.198.275 2.135.825 2.81.55.677 1.31 1.015 2.28 1.015.976 0 1.738-.338 2.284-1.014zm4.555 2.422h1.688v-6.475c0-.738.205-1.333.616-1.786.41-.453.955-.68 1.634-.68.207 0 .396.01.568.03.171.019.29.042.354.067v-1.66a4.129 4.129 0 0 0-.699-.058c-.608 0-1.143.162-1.605.486a2.32 2.32 0 0 0-.927 1.31h-.038v-1.699h-1.591v10.465zm8.667-8.261c-.54.544-.839 1.259-.897 2.145h5.753c-.02-.886-.287-1.601-.8-2.145-.515-.544-1.186-.815-2.014-.815-.821 0-1.502.271-2.042.815zm6.485 5.271c-.142.9-.62 1.639-1.435 2.218-.815.58-1.782.869-2.9.869-1.469 0-2.635-.477-3.498-1.432-.863-.955-1.295-2.24-1.295-3.859 0-1.624.43-2.925 1.29-3.902.86-.977 2.002-1.466 3.424-1.466 1.397 0 2.503.46 3.318 1.379s1.222 2.17 1.222 3.756v.66h-7.508v.098c0 .996.281 1.792.844 2.388.563.595 1.31.893 2.24.893.654 0 1.218-.144 1.694-.432.475-.288.787-.678.936-1.17h1.668zm-78.7-14.628h-.79V17h-4.962v1.86h-.79v-2.612h.551c.501-.843.93-1.868 1.287-3.076.356-1.208.554-2.311.593-3.31h3.208v6.386h.903v2.612zm-1.733-2.612v-5.64h-1.626c-.059.788-.256 1.735-.59 2.84-.336 1.105-.727 2.038-1.173 2.8h3.389zm8.432-1.929c0 .873-.22 1.554-.66 2.044-.44.49-1.046.735-1.82.735-.48 0-.904-.113-1.275-.337a2.224 2.224 0 0 1-.86-.967c-.202-.42-.302-.912-.302-1.475 0-.872.218-1.552.654-2.038.436-.487 1.042-.73 1.816-.73.749 0 1.344.249 1.785.747.441.498.662 1.172.662 2.021zm-4.078 0c0 .684.137 1.205.41 1.563.274.358.676.537 1.207.537.53 0 .933-.178 1.208-.535.275-.356.413-.878.413-1.565 0-.68-.138-1.197-.413-1.55-.275-.353-.681-.53-1.218-.53-.53 0-.931.174-1.201.523-.27.348-.406.867-.406 1.557zm8.637 2.779c-.775 0-1.374-.239-1.8-.716-.424-.477-.636-1.151-.636-2.024 0-.895.215-1.587.647-2.075.43-.488 1.045-.732 1.843-.732.257 0 .514.027.771.083.257.055.46.12.606.195l-.25.689a3.811 3.811 0 0 0-.585-.179 2.616 2.616 0 0 0-.562-.07c-1.087 0-1.63.693-1.63 2.08 0 .657.132 1.162.397 1.513.266.352.659.528 1.18.528.446 0 .903-.096 1.372-.288v.717c-.358.186-.81.279-1.353.279zm7.23-4.756h-1.738V17h-.81v-4.658h-1.719v-.694H77.1v.694zm1.21-.694h.87L80.35 14.7c.257.697.416 1.2.478 1.509h.04c.041-.166.13-.45.265-.852.135-.402.577-1.638 1.326-3.709h.87l-2.3 6.094c-.229.602-.495 1.03-.799 1.282-.304.252-.678.378-1.12.378a3.26 3.26 0 0 1-.733-.083v-.65c.179.04.38.06.6.06.557 0 .954-.313 1.192-.938l.298-.762-2.158-5.38zM86.01 17h-.81v-5.352h4.491V17h-.82v-4.648H86.01V17zm7.21-5.352v2.242h2.999v-2.242h.81V17h-.81v-2.412H93.22V17h-.81v-5.352h.81zm11.147 2.671c0 .873-.22 1.554-.659 2.044-.44.49-1.047.735-1.821.735-.479 0-.904-.113-1.275-.337a2.224 2.224 0 0 1-.859-.967c-.202-.42-.303-.912-.303-1.475 0-.872.218-1.552.655-2.038.436-.487 1.041-.73 1.816-.73.749 0 1.344.249 1.785.747.44.498.661 1.172.661 2.021zm-4.077 0c0 .684.137 1.205.41 1.563.274.358.676.537 1.206.537.53 0 .934-.178 1.209-.535.275-.356.412-.878.412-1.565 0-.68-.137-1.197-.412-1.55-.275-.353-.681-.53-1.218-.53-.531 0-.931.174-1.202.523-.27.348-.405.867-.405 1.557zm14.437-1.328c0 .349-.1.613-.3.794-.2.18-.482.302-.843.363v.044c.456.062.789.196.999.4.21.206.314.49.314.85 0 .498-.183.883-.549 1.153-.366.27-.9.405-1.604.405h-2.358v-5.352h2.348c1.329 0 1.993.448 1.993 1.343zm-.64 2.398c0-.29-.11-.5-.33-.633-.22-.131-.583-.197-1.091-.197h-1.47v1.762h1.49c.934 0 1.4-.31 1.4-.932zm-.151-2.32c0-.26-.1-.445-.3-.554-.2-.109-.504-.163-.911-.163h-1.529v1.508h1.372c.502 0 .855-.061 1.06-.185.205-.124.308-.326.308-.606zm-76.904 21.15c-1.202 1.751-2.446 3.492-4.41 3.528-1.932.036-2.551-1.14-4.756-1.14-2.207 0-2.897 1.104-4.722 1.176-1.895.071-3.336-1.891-4.549-3.634-2.476-3.565-4.366-10.08-1.824-14.476 1.259-2.183 3.514-3.565 5.958-3.601 1.862-.034 3.62 1.25 4.757 1.25 1.139 0 3.273-1.542 5.517-1.316.939.039 3.575.377 5.268 2.845-.134.087-3.147 1.834-3.11 5.471.037 4.346 3.822 5.79 3.866 5.81-.034.102-.605 2.062-1.995 4.087zm-8.244-22.986c1.04-1.214 2.795-2.116 4.244-2.176.185 1.685-.495 3.372-1.5 4.588-1.007 1.214-2.656 2.159-4.273 2.033-.22-1.649.595-3.368 1.53-4.445h-.001z"/></svg>