<svg width="1792" height="1792" xmlns="http://www.w3.org/2000/svg" viewBox="0 0 1792 1792"><path d="M1664 1344l3.285 96.79c0 17.333-17.831 29.048-30.498 41.715C1624.12 1495.172 1617.333 1500 1600 1500H200c-17.333 0-30.477-11.399-43.144-24.066-12.667-12.667-28.856-17.811-28.856-35.144v-86.934c0-17.333 11.261-22.477 23.928-35.144C164.595 1306.045 182.667 1300 200 1300h1400c17.333 0 27.405 7.687 40.072 20.354 12.667 12.667 23.928 6.313 23.928 23.646zm-3.285-490.646l.441 79.065c0 17.333-9.048 35.823-21.715 48.49C1626.774 993.576 1617.333 1000 1600 1000H200c-17.333 0-29.214-5.865-41.881-18.532C145.452 968.801 128 952.442 128 935.109v-83.397c0-17.333 12.904-20.835 25.571-33.502C166.238 805.543 182.667 800 200 800h1400c17.333 0 27.405 7.186 40.072 19.853 12.667 12.667 20.643 16.168 20.643 33.501zM1664 356.387v79.134c0 17.333-4.69 25.1-17.357 37.767C1633.976 485.955 1617.333 500 1600 500H200c-17.333 0-40.333-10.759-53-23.426-12.667-12.667-20.643-22.739-20.643-40.072l-.95-78.351c0-17.333 11.777-27.415 24.444-40.082C162.518 305.402 182.667 300 200 300h1400c17.333 0 24.267 4.389 36.934 17.056 12.667 12.667 27.066 21.998 27.066 39.331z"/></svg>