<svg xmlns="http://www.w3.org/2000/svg" width="27.3" height="24.2" viewBox="0 0 27.3 24.2"  stroke="#FCCA37" ><path d="M24.7 4c1.2 0 2 1.2 1.6 2.3l-4.1 9.9c-.3.6-.9 1-1.6 1H9c-.8 0-1.5-.5-1.7-1.3L5.1 6c-.2-1 .6-2 1.7-2h17.9m0-.7H6.8c-.8 0-1.5.3-1.9.9-.4.6-.6 1.3-.5 2l2.3 9.9C6.9 17.2 7.9 18 9 18h11.5c1 0 1.9-.6 2.2-1.5l4.1-9.9c.3-.7.2-1.5-.2-2.2-.4-.7-1.1-1.1-1.9-1.1zM9.7 19.5c1 0 1.9.8 1.9 1.9s-.8 1.9-1.9 1.9-1.9-.8-1.9-1.9.9-1.9 1.9-1.9m0-.7c-1.4 0-2.6 1.2-2.6 2.6S8.3 24 9.7 24c1.4 0 2.6-1.2 2.6-2.6s-1.1-2.6-2.6-2.6zM19.9 19.5c1 0 1.9.8 1.9 1.9s-.8 1.9-1.9 1.9-1.9-.9-1.9-1.9.8-1.9 1.9-1.9m0-.7c-1.4 0-2.6 1.2-2.6 2.6s1.2 2.6 2.6 2.6c1.4 0 2.6-1.2 2.6-2.6s-1.2-2.6-2.6-2.6z"/><g fill="none"><path d="M.5.5h.8c1.2 0 2.2.8 2.5 1.9l1.8 7.4M5.1 7.4h12.8M19.7 7.4h1.7"/></g></svg>
