<svg xmlns="http://www.w3.org/2000/svg" viewBox="0 0 50 50"><path d="M49.1 10.5c-.8-1.4-2.3-2.3-3.9-2.3H12.6c-1.5-.1-2.9.3-3.9 1.4-.3.3-.6.9-.7 1.3L7 7c-.5-2.3-2.5-3.9-4.9-4H.6c-.3 0-.5.3-.5.5s.2.5.5.5H2c1.9 0 3.6 1.3 4.1 3.2l5.6 23.1c.5 2.2 2.4 3.8 4.7 3.8h21c2 0 3.7-1.2 4.5-3l7.7-16.3c.5-1.3.3-3-.5-4.3zm-.5 4L41 30.4c-.6 1.5-2 2.6-3.6 2.6H16.5c-1.8 0-3.5-1.3-3.8-3.1L9.4 16.7h23.3c.3 0 .5-.2.5-.5s-.2-.5-.5-.5H9.2l-.4-1.8c-.3-1.2 0-2.5.6-3.5.7-1 2-1.2 3.2-1.1h32.6c1.2 0 2.3.6 3 1.8.6 1 .9 2.3.4 3.4zm-30.7 22c-2.9 0-5.3 2.3-5.3 5.2s2.3 5.3 5.2 5.3 5.3-2.3 5.3-5.2c0-2.9-2.2-5.3-5.2-5.3.1 0 0 0 0 0zm0 9.5c-2.3 0-4.2-1.9-4.2-4.2s1.9-4.2 4.2-4.2c2.3 0 4.2 1.9 4.2 4.2v.1c0 2.1-1.9 4-4.2 4.1zm18.6-9.5c-2.9 0-5.2 2.3-5.2 5.2s2.3 5.2 5.2 5.2 5.2-2.3 5.2-5.2c0-2.9-2.3-5.2-5.2-5.2zm0 9.5c-2.3 0-4.2-1.9-4.2-4.2s1.9-4.2 4.2-4.2 4.2 1.9 4.2 4.2c0 2.2-1.9 4.1-4.2 4.2z"/><path d="M39.2 15.7h-3.1c-.3 0-.5.2-.5.5s.2.5.5.5h3.1c.3 0 .5-.2.5-.5s-.2-.5-.5-.5z"/></svg>