<svg xmlns="http://www.w3.org/2000/svg" viewBox="0 0 40.9 31.5" width="40.9"><g fill="none"><circle cx="8.6" cy="22.9" r="7.9"/><circle cx="32.3" cy="22.9" r="7.9"/><path d="M32.3 27.3c-2.5 0-4.5-2-4.5-4.5M7.8 27.3c-2.5 0-4.5-2-4.5-4.5M1.1 20.5l5.5-13c.8-1.9 2.6-3.1 4.6-3.1h6.9M39.9 20.5l-5.5-13c-.8-1.9-2.6-3.1-4.6-3.1h-6.9M9.7 4.2c0-1.9 1.5-3.5 3.5-3.5s3.5 1.5 3.5 3.5M24.9 4.2c0-1.9 1.5-3.5 3.5-3.5 1.9 0 3.5 1.5 3.5 3.5"/><circle cx="20.3" cy="20" r="3.5"/><path d="M16.7 19l1.5-14.8M24.5 19.4L22.9 4.3M18.2 4.5c0-1.3 1.1-2.4 2.4-2.4 1.3 0 2.4 1.1 2.4 2.4"/></g></svg>