<svg xmlns="http://www.w3.org/2000/svg" viewBox="0 0 50 50" height="50" width="50"><path d="M48.9 29.7l-6.3-15c-.7-1.7-2.2-3.1-3.9-3.7v-.1c0-2.7-2.2-4.6-4.7-4.6s-4.8 1.9-4.8 4.3h-.8c-.4-1.9-2.2-3.1-4-2.7-1.4.1-2.5 1.2-2.8 2.6h-.8c-.1-2.6-2.2-4.6-4.8-4.6-2.6 0-4.8 2.1-4.8 4.7v.3c-1.7.7-3.1 2-3.8 3.7 0 0-6.6 15.4-6.6 15.5-2 5.3.6 11.2 5.9 13.2s11.2-.6 13.2-5.9c.4-1.2.7-2.4.7-3.6v-.3c1.5 2.4 4.7 3.1 7.2 1.6.6-.4 1.2-1 1.6-1.6v.3C29.4 39.4 34 44 39.6 44s10.2-4.6 10.2-10.2c0-1.4-.3-2.8-.9-4.1zm-15-22.6c2.1 0 3.7 1.4 3.8 3.5-.4-.1-.8-.1-1.2-.1h-6.3c.1-2 1.7-3.4 3.7-3.4zm-11.4 4c-.1-1.4.9-2.5 2.3-2.6 1.4-.1 2.5.9 2.6 2.3v.3L29 27.4c-1.7-2.2-5-2.6-7.2-.9-.3.2-.6.5-.9.9 0-.1 1.6-16.3 1.6-16.3zM16 7c2 0 3.7 1.5 3.8 3.6h-6.2c-.5 0-.9.1-1.3.2C12.3 8.6 14 6.9 16 7zm-5.6 36c-5.1 0-9.2-4.1-9.2-9.2s4.1-9.2 9.2-9.2 9.2 4.1 9.2 9.2-4.1 9.2-9.2 9.2zm9.3-13.4c-2.3-5.2-8.3-7.5-13.4-5.2-1 .4-1.9 1-2.7 1.8L8.4 15c.9-2.1 2.9-3.5 5.2-3.5h7.9l-1.8 18.1zm5.3 5.2c-2.3 0-4.2-1.8-4.3-4.2s1.8-4.2 4.2-4.3 4.2 1.8 4.3 4.2c-.1 2.4-1.9 4.3-4.2 4.3zm3.5-23.3h8c2.3 0 4.3 1.4 5.2 3.5l4.7 11.2c-4.2-3.8-10.6-3.5-14.4.7-.7.8-1.3 1.7-1.7 2.7l-1.8-18.1zM39.6 43c-5.1 0-9.2-4.1-9.2-9.2s4.1-9.2 9.2-9.2 9.2 4.1 9.2 9.2-4.1 9.2-9.2 9.2z"/><path d="M39.6 38.7c-2.8 0-5-2.2-5-5 0-.3-.2-.5-.5-.5s-.5.2-.5.5c0 3.3 2.7 6 6 6 .3 0 .5-.2.5-.5s-.3-.5-.5-.5zm-30.2 0c-2.8 0-5-2.2-5-5 0-.3-.2-.5-.5-.5s-.5.2-.5.5c0 3.3 2.7 6 6 6 .3 0 .5-.2.5-.5s-.2-.5-.5-.5z"/></svg>