<svg xmlns="http://www.w3.org/2000/svg" viewBox="0 0 50 50"><path d="M23.6 30.5v12.8h5.3V24h-4.4l-6.8 6.5 2.8 3.2zm-9.8-16.7c1.3 0 2.4-1.1 2.4-2.4v-9C16.2 1 15 0 13.7.1c-1.2.1-2.2 1.1-2.3 2.3v9c0 1.3 1.1 2.4 2.4 2.4zm22.4 0c1.3 0 2.4-1.1 2.4-2.4v-9C38.5 1 37.4 0 36 .1c-1.2.1-2.2 1.1-2.3 2.3v9c.1 1.3 1.1 2.4 2.5 2.4z"/><path d="M41.1 5.6v5.7c0 2.6-2.1 4.8-4.8 4.8h-.2c-2.6 0-4.7-2.1-4.7-4.8V4.6H18.8v6.6c0 2.6-2.1 4.8-4.8 4.8h-.2C11.2 16 9 13.9 9 11.2V5.5c-4.7 2-7.8 6.5-7.9 11.6v20.3c.1 6.9 5.6 12.4 12.5 12.5h22.8c7-.1 12.6-5.8 12.5-12.8v-20c-.1-5.1-3.2-9.6-7.8-11.5zm4.6 31.5c.1 5.2-4.1 9.6-9.3 9.6H13.6c-5.1-.1-9.3-4.2-9.3-9.3V20.6h41.5v16.5z"/></svg>