<svg xmlns="http://www.w3.org/2000/svg" viewBox="0 0 1000 1000" height="1000" width="1000"><path d="M698.11 13.49c-37.06 6.64-74.37 23.26-104.27 46-21.99 16.87-212.89 208.8-219.54 220.81l-4.86 8.69 8.69-1.53c34.76-6.13 75.9-4.09 115.77 6.13l20.19 5.11 76.93-76.41c67.98-67.73 78.72-77.44 93.54-84.34 51.37-23.77 104.02-15.33 145.67 24.02 32.97 31.18 44.21 56.23 44.21 98.14 0 29.9-4.6 47.28-18.66 68.75-4.09 6.39-51.37 55.46-105.3 109.13-92 91.24-98.91 97.63-115.77 105.29-30.93 13.8-57.5 15.59-90.73 6.39-19.17-5.11-30.16-11.25-47.79-26.07-25.05-20.7-38.08-25.05-60.06-20.45-18.91 4.09-38.59 23.77-42.68 42.68-4.86 23.51 1.53 40.38 23.51 61.08 48.81 46.26 121.91 70.28 189.89 62.1 44.98-5.37 86.13-21.98 121.14-48.3 24.81-18.9 206.78-202.91 219.81-222.33 15.59-23.26 29.65-54.95 36.29-81.02 7.92-31.69 7.92-87.4-.26-117.31-21.72-81.02-86.64-150.53-165.86-177.88-34.76-12-82.81-15.33-119.86-8.68z"/><path d="M388.1 331.68c-35.01 4.85-74.12 20.19-106.06 41.66-18.66 12.52-202.92 195.25-222.35 220.3C2.96 667.75-5.99 767.17 36.95 851.76c31.44 61.85 94.56 112.96 161.52 130.85 34.25 9.2 85.36 9.71 119.1 1.28 26.07-6.65 57.76-20.7 81.02-36.29 29.65-19.93 236.66-228.99 231.55-234.1-.51-.51-11.5.26-24.54 1.79-28.11 3.32-67.21 0-98.14-8.18l-20.19-5.62-75.65 75.39c-43.7 43.45-80.76 78.2-87.41 82.04-21.47 12.01-37.57 15.85-65.17 15.59-40.89-.51-66.19-12.01-96.86-44.47-39.1-41.66-47.79-94.05-24.02-145.67 7.16-15.08 17.63-26.58 106.32-115.52 85.61-85.88 100.94-100.19 116.02-108.11 32.2-17.12 67.73-20.19 100.18-8.94 19.42 6.64 27.6 11.24 44.21 25.3 25.04 20.7 38.08 25.05 60.06 20.45 18.91-4.09 38.59-23.77 42.68-42.68 4.86-23.51-1.53-40.38-23.51-61.08-16.36-15.59-44.47-34.25-65.17-43.45-36.03-15.85-92.26-24.03-130.85-18.66z"/></svg>