<svg xmlns="http://www.w3.org/2000/svg" id="Layer_1" viewBox="0 0 128 128"><style id="style2">.st0{fill:none;stroke:#e5ad2a;stroke-width:2.5961;stroke-linecap:round;stroke-miterlimit:10}</style><g id="g30"><path d="M46.28 22.688a1.298 1.298 0 0 0-1.057.59L32.389 42.401H3.099a1.298 1.298 0 1 0 0 2.596h27.547l-3.357 5.004H2.922l9.603 48.947c.712 3.674 3.861 6.35 7.575 6.35h78.2c3.709 0 6.9-2.701 7.548-6.293l1.877 6.127 4.345-8.926 9.63 9.629 5.04-5.041-9.642-9.543 8.886-4.443-3.103-.95-13.543-4.146 6.24-31.711H91.311l-3.358-5.004H114.9a1.298 1.298 0 1 0 0-2.596H86.21L73.378 23.277a1.298 1.298 0 1 0-2.154 1.446l11.863 17.68H35.514l11.863-17.68a1.298 1.298 0 0 0-1.098-2.035zm-12.51 22.31h51.057l3.358 5.004H30.414zm-27.695 7.6h19.47l-5.581 8.318c-.023 0-.042-.014-.065-.014-2.358 0-4.298 1.939-4.298 4.297 0 2.359 1.94 4.299 4.298 4.299 2.359 0 4.297-1.94 4.297-4.299 0-1.382-.708-2.563-1.734-3.351l6.209-9.25h61.256l6.629 9.877c-.63.748-1.055 1.678-1.055 2.724 0 2.359 1.94 4.299 4.299 4.299 2.358 0 4.297-1.94 4.297-4.299 0-2.358-1.939-4.297-4.297-4.297-.365 0-.694.124-1.033.211l-5.715-8.515h19.369l-5.578 28.351-7.201-2.205 4.587 14.983a1.298 1.298 0 0 0-.006.029l-.902 4.715-.002.015c-.393 2.359-2.561 4.215-5.02 4.215H20.1c-2.486 0-4.537-1.722-5.026-4.248v-.002zm32.309 7.486a1.298 1.298 0 0 0-1.278 1.44l3.301 34.3a1.298 1.298 0 1 0 2.584-.248l-3.3-34.3a1.298 1.298 0 0 0-1.307-1.192zm21.595 0A1.298 1.298 0 0 0 58.7 61.4v34a1.299 1.299 0 1 0 2.598 0v-34a1.298 1.298 0 0 0-1.319-1.316zm21.897 0a1.298 1.298 0 0 0-1.27 1.191L77.31 95.576a1.298 1.298 0 1 0 2.584.248l3.298-34.3a1.298 1.298 0 0 0-1.314-1.44zM19.9 63.498c.956 0 1.702.746 1.702 1.701 0 .956-.746 1.703-1.702 1.703a1.685 1.685 0 0 1-1.703-1.703c0-.955.748-1.701 1.703-1.701zm79.9 0c.956 0 1.702.746 1.702 1.701 0 .956-.746 1.703-1.701 1.703a1.685 1.685 0 0 1-1.703-1.703c0-.955.747-1.701 1.703-1.701zm-78.69 8.785a1.298 1.298 0 0 0-1.288 1.543l3.9 22.1a1.298 1.298 0 1 0 2.555-.451l-3.898-22.1a1.298 1.298 0 0 0-1.27-1.092zm77.742.002a1.298 1.298 0 0 0-1.23 1.09l-3.9 22.1a1.298 1.298 0 1 0 2.555.45l3.9-22.099a1.298 1.298 0 0 0-1.325-1.54zm4.705 10.371l15.459 4.735-6.317 3.158 10.36 10.256-1.36 1.36-10.369-10.37-3.055 6.273z" id="line28"/></g></svg>