<svg xmlns="http://www.w3.org/2000/svg" viewBox="0 0 67 67" height="67" width="67"><path d="M61.559 16.528L44.432.713C44.064.377 43.583 0 43.083 0H25.446c-5.407 0-9.134 2.81-9.134 6.877V12h-3.358c-4.946 0-8.642 3.124-8.642 7.369V59.37c0 4.492 4.077 7.63 8.642 7.63h29.231c4.677 0 8.127-3.288 8.127-7.63V55h4.365c4.41 0 7.635-3.513 7.635-8.122V18.555c0-.029.242-.057.241-.085.001-.03.134-.059.134-.089.001-.84-.394-1.557-1.128-1.853zM44.312 6.665L55.462 16h-11.15V6.665zm2 52.705c0 2.363-1.938 3.63-4.127 3.63h-29.23c-2.323 0-4.642-1.381-4.642-3.63V19.369c0-2.6 3.095-3.369 4.642-3.369h15.358v15.381c0 1.104 1.396 1.619 2.5 1.619h15.5v26.37zM44.028 29H32.312v-9.878L44.028 29zm10.649 22h-4.365V31.047c0-.562.014-1.097-.4-1.476l-17.43-16.059c-.324-.667-.94-1.132-1.732-1.132-.036 0-.039-.182-.075-.18-.038-.002-.044-.201-.083-.201h-10.28V6.876c0-2.063 3.02-2.877 5.134-2.877h14.866V18.38c0 1.104 1.396 1.619 2.5 1.619h15.5v26.878c0 2.399-1.431 4.123-3.635 4.123z"/></svg>