<svg xmlns="http://www.w3.org/2000/svg" viewBox="0 0 50 50" height="50" width="50"><path d="M25 46C13.4 46 4 36.6 4 25S13.4 4 25 4s21 9.4 21 21-9.4 21-21 21zm0-41C14 5 5 14 5 25s9 20 20 20 20-9 20-20S36 5 25 5z"/><path d="M25.7 33.8c-.3 0-.5-.2-.5-.5V14.2l-5.9 3.9c-.2.2-.5.1-.7-.1s-.1-.5.1-.7l7.5-4.9v20.9c0 .3-.2.5-.5.5z"/><path d="M24.9 41.1c-8.9 0-16.2-7.2-16.2-16.2 0-4.8 2.1-9.3 5.8-12.4.2-.2.5-.2.7.1s.2.5-.1.7c-6.4 5.4-7.2 15-1.8 21.4s15 7.2 21.4 1.8c3.4-2.9 5.4-7.1 5.4-11.6 0-4.6-2.1-8.9-5.6-11.8-.2-.2-.2-.5-.1-.7.2-.2.5-.2.7-.1 6.9 5.6 8 15.9 2.4 22.8-3.1 3.8-7.7 6-12.6 6z"/></svg>