<svg xmlns="http://www.w3.org/2000/svg" width="50.3" viewBox="0 0 50.3 43.2"><g stroke="#FCCA37" fill="none"><ellipse cx="14.1" cy="6.4" rx="13.4" ry="5.7"/><path d="M26.5 8.6c.7.7 1.1 1.4 1.1 2.2 0 3.1-6 5.7-13.4 5.7S.7 13.9.7 10.8c0-.8.4-1.5 1.1-2.2"/><path d="M26.5 13.8c.7.7 1.1 1.4 1.1 2.2 0 3.1-6 5.7-13.4 5.7S.7 19.1.7 16c0-.8.4-1.5 1.1-2.2"/><path d="M26.5 19c.7.7 1.1 1.4 1.1 2.2 0 3.1-6 5.7-13.4 5.7S.7 24.4.7 21.2c0-.8.4-1.5 1.1-2.2"/><path d="M26.5 24.2c.7.7 1.1 1.4 1.1 2.2 0 3.1-6 5.7-13.4 5.7S.7 29.6.7 26.4c0-.8.4-1.5 1.1-2.2"/><path d="M26.5 29.4c.7.7 1.1 1.4 1.1 2.2 0 3.1-6 5.7-13.4 5.7S.7 34.8.7 31.7c0-.8.4-1.5 1.1-2.2"/><path d="M26.5 34.7c.7.7 1.1 1.4 1.1 2.2 0 3.1-6 5.7-13.4 5.7S.7 40 .7 36.9c0-.8.4-1.5 1.1-2.2M27.6 9.4c2.3-.8 5.3-1.3 8.6-1.3 7.4 0 13.4 2.5 13.4 5.7s-6 5.7-13.4 5.7c-3.5 0-6.6-.6-9-1.5"/><path d="M48.6 15.9c.7.7 1.1 1.4 1.1 2.2 0 3.1-6 5.7-13.4 5.7-3.3 0-6.4-.5-8.7-1.4"/><path d="M48.6 21.2c.7.7 1.1 1.4 1.1 2.2 0 3.1-6 5.7-13.4 5.7-3.4 0-6.4-.5-8.8-1.4"/><path d="M48.6 26.4c.7.7 1.1 1.4 1.1 2.2 0 3.1-6 5.7-13.4 5.7-3.3 0-6.4-.5-8.7-1.4"/><path d="M48.6 31.6c.7.7 1.1 1.4 1.1 2.2 0 3.1-6 5.7-13.4 5.7-3.4 0-6.4-.5-8.8-1.4"/></g></svg>
