<svg viewBox="0 0 32 32" xmlns="http://www.w3.org/2000/svg" height="32" width="32"><g data-name="9-Computer-Communication"><path d="M30 22H2v-3h12v-2H6V6h3V4H5a1 1 0 0 0-1 1v12H2V3a1 1 0 0 1 1-1h7V0H3a3 3 0 0 0-3 3v20a1 1 0 0 0 1 1h8.85l-.71 5H8a1 1 0 0 0-1 1H5v2h22v-2h-2a1 1 0 0 0-1-1h-1.13l-.71-5H31a1 1 0 0 0 1-1v-6h-2zm-18.85 7l.71-5h8.27l.71 5z"/><path d="M29 1H15a3 3 0 0 0-3 3v6a3 3 0 0 0 3 3h2v4a1 1 0 0 0 1.71.71l4.7-4.71H29a3 3 0 0 0 3-3V4a3 3 0 0 0-3-3zm1 9a1 1 0 0 1-1 1h-6a1 1 0 0 0-.71.29L19 14.59V12a1 1 0 0 0-1-1h-3a1 1 0 0 1-1-1V4a1 1 0 0 1 1-1h14a1 1 0 0 1 1 1z"/><path d="M21 6h2v2h-2zM25 6h2v2h-2zM17 6h2v2h-2z"/></g></svg>