<svg xmlns="http://www.w3.org/2000/svg" viewBox="0 0 512 512" height="512" width="512"><path d="M407 301c-8.276 0-15 6.724-15 15s6.724 15 15 15 15-6.724 15-15-6.724-15-15-15z"/><path d="M497 91H151.245v45c0 8.291-6.709 15-15 15s-15-6.709-15-15V91H15c-8.291 0-15 6.709-15 15v90c0 8.291 6.709 15 15 15 24.814 0 45 20.186 45 45s-20.186 45-45 45c-8.291 0-15 6.709-15 15v90c0 8.291 6.709 15 15 15h105v-45c0-8.291 6.709-15 15-15s15 6.709 15 15v45h347c8.291 0 15-6.709 15-15V106c0-8.291-6.709-15-15-15zM150 316c0 8.291-6.709 15-15 15s-15-6.709-15-15v-30c0-8.291 6.709-15 15-15s15 6.709 15 15v30zm0-90c0 8.291-6.709 15-15 15s-15-6.709-15-15v-30c0-8.291 6.709-15 15-15s15 6.709 15 15v30zm92-30c0-24.814 20.186-45 45-45s45 20.186 45 45-20.186 45-45 45-45-20.186-45-45zm36.68 162.48c-6.899-4.6-8.76-13.901-4.16-20.801l120-180c4.585-6.899 13.887-8.745 20.801-4.16 6.899 4.6 8.76 13.901 4.16 20.801l-120 180c-4.525 6.797-13.792 8.806-20.801 4.16zM407 361c-24.814 0-45-20.186-45-45s20.186-45 45-45 45 20.186 45 45-20.186 45-45 45z"/><path d="M287 181c-8.276 0-15 6.724-15 15s6.724 15 15 15 15-6.724 15-15-6.724-15-15-15z"/></svg>