<svg xmlns="http://www.w3.org/2000/svg" viewBox="0 0 512 512" height="512" width="512"><path d="M501.344 117.338H149.343L128 138.671l-21.328-21.333h-96C4.779 117.338 0 122.113 0 128.005v255.999c0 5.893 4.779 10.658 10.672 10.658h96L128 373.348l21.343 21.314h352.001A10.649 10.649 0 0 0 512 384.004V128.005c0-5.892-4.765-10.667-10.656-10.667zm-10.667 256.01H158.172l-15.079-15.088L128 343.162l-15.078 15.098-15.079 15.088h-76.5V138.671h76.5l15.079 15.083L128 168.838l15.093-15.083 15.079-15.083h332.505v234.676z"/><path d="M277.343 170.671c-23.563 0-42.671 19.108-42.671 42.667 0 23.564 19.107 42.667 42.671 42.667 23.56 0 42.657-19.103 42.657-42.667 0-23.559-19.098-42.667-42.657-42.667zm0 64c-11.765 0-21.343-9.573-21.343-21.333 0-11.764 9.578-21.333 21.343-21.333s21.334 9.569 21.334 21.333c0 11.76-9.569 21.333-21.334 21.333zM362.677 256.005c-23.569 0-42.677 19.099-42.677 42.657 0 23.558 19.107 42.686 42.677 42.686 23.559 0 42.667-19.127 42.667-42.686s-19.109-42.657-42.667-42.657zm0 63.999c-11.774 0-21.333-9.559-21.333-21.342 0-11.756 9.559-21.314 21.333-21.314 11.765 0 21.323 9.559 21.323 21.314 0 11.783-9.559 21.342-21.323 21.342zM394.677 170.672a10.654 10.654 0 0 0-7.55 3.123L237.799 323.133a10.633 10.633 0 0 0-3.127 7.529c0 5.902 4.779 10.686 10.671 10.686 2.937 0 5.608-1.205 7.549-3.127l149.324-149.343a10.577 10.577 0 0 0 3.128-7.539c0-5.888-4.785-10.667-10.667-10.667zM128 181.338c-5.873 0-10.657 4.774-10.657 10.667s4.785 10.667 10.657 10.667c5.907 0 10.672-4.774 10.672-10.667s-4.765-10.667-10.672-10.667zM128 224.005c-5.873 0-10.657 4.774-10.657 10.667 0 5.888 4.785 10.667 10.657 10.667a10.663 10.663 0 0 0 10.672-10.667A10.66 10.66 0 0 0 128 224.005zM128 266.672c-5.873 0-10.657 4.773-10.657 10.676 0 5.873 4.785 10.656 10.657 10.656 5.907 0 10.672-4.783 10.672-10.656A10.661 10.661 0 0 0 128 266.672zM128 309.348c-5.873 0-10.657 4.766-10.657 10.656 0 5.893 4.785 10.658 10.657 10.658 5.907 0 10.672-4.766 10.672-10.658 0-5.891-4.765-10.656-10.672-10.656z"/></svg>