<svg xmlns="http://www.w3.org/2000/svg" id="Layer_1" data-name="Layer 1" viewBox="0 0 58 58" version="1.1" height="58" width="58"><defs id="defs4"><style id="style2"/></defs><path d="M42.26 8.76a64.2 64.2 0 0 0-.01 0c-1.672 0-3.212.254-4.58.754-1.368.499-2.565 1.244-3.553 2.222s-1.769 2.192-2.301 3.627C31.284 16.799 31 18.458 31 20.33c0-7.49 4.58-11.57 11.26-11.57z" id="path839"/><path d="M45.648 8.922a64.2 64.2 0 0 0-3.056-.162 64.2 64.2 0 0 0-.332 0 64.2 64.2 0 0 1 3.388.162z" id="path837"/><path d="M42.18 17.242c.572-.193 1.278-.303 2.17-.303H49v-.009h-4.6c-.914 0-1.641.11-2.22.312z" id="path835"/><path d="M40 35.57h7.57l.002-.009H40v.009z" id="path833"/><path d="M3.2 0A3.2 3.2 0 0 0 0 3.2V54.8A3.2 3.2 0 0 0 3.2 58H31V35.57h-7.551v-8.781H31V20.33c0-1.872.284-3.531.816-4.967.532-1.435 1.313-2.649 2.301-3.627.988-.978 2.185-1.723 3.553-2.222 1.368-.5 2.908-.754 4.58-.754a64.2 64.2 0 0 1 .01 0 64.2 64.2 0 0 1 .332 0 64.2 64.2 0 0 1 3.056.162A64.2 64.2 0 0 1 49 9.1v7.839h-4.65c-.892 0-1.598.11-2.17.303-1.729.604-2.129 2.045-2.129 3.947v5.59h8.699l-1.131 8.782h-.047l-.002.009H40V58h14.801A3.2 3.2 0 0 0 58 54.801V3.199A3.2 3.2 0 0 0 54.801 0H3.199z" id="path8"/></svg>