<svg xmlns="http://www.w3.org/2000/svg" viewBox="0 0 50 50"><g stroke-width="0"><path d="M45.2 7.4H4.8C2.2 7.4 0 9.5 0 12.2v25.7c0 2.7 2.2 4.8 4.8 4.8h40.4c2.7 0 4.8-2.2 4.8-4.9V12.2c0-2.7-2.2-4.8-4.8-4.8zm0 33.2H18.9v-9.9c0-.6-.5-1-1-1s-1 .5-1 1v9.9h-12c-1.5 0-2.7-1.2-2.8-2.7V12.2c0-1.5 1.2-2.7 2.7-2.8h12.1v6.1c0 .6.5 1 1 1s1-.5 1-1V9.4h26.3c1.5 0 2.7 1.2 2.8 2.7v11.8H32.7c-.6 0-1 .5-1 1s.5 1 1 1h15.2v11.7c.1 1.5-1.1 2.8-2.6 2.9 0 .1-.1.1-.1.1z"/><path d="M24.4 16.4c-3.4.5-5.4 3.2-6.6 5.5-1.1-2.3-3.2-5-6.6-5.5-1.7-.3-3.4.4-4.4 1.8-1.1 1.6-1.3 3.8-.4 5.6.7 1.4 2.2 2.3 3.8 2.2h3.1c-2 1.4-3.4 3.4-4.1 5.7-.2.5.1 1.1.7 1.2h.4c.5 0 .9-.3 1-.8 1.1-4.2 5.5-5.8 6.6-6.2 1.1.3 5.5 2 6.6 6.2.1.5.5.8 1 .8h.3c.5-.1.9-.6.8-1.2v-.1c-.6-2.3-2.1-4.4-4.1-5.7h3c1.6.1 3.1-.8 3.8-2.2.9-1.8.7-3.9-.4-5.6-1.1-1.3-2.8-2-4.5-1.7zm-14.1 7.5c-.8.1-1.6-.4-2-1.1-.5-1.1-.4-2.4.3-3.4.4-.7 1.2-1 2-1h.4c3.1.4 4.8 3.7 5.5 5.5h-6.2zm17.1-1.1c-.4.7-1.2 1.2-2 1.1h-6.2c.7-1.8 2.4-5.1 5.5-5.5.9-.2 1.9.2 2.4 1 .7 1 .8 2.3.3 3.4z"/></g></svg>