<svg xmlns="http://www.w3.org/2000/svg" width="49.652" height="49.652" viewBox="0 0 49.652 49.652"><path d="M20.184 22.91c.63 0 1.16-.247 1.57-.716.645-.732.928-1.936.76-3.215-.3-2.287-1.932-4.186-3.637-4.236h-.068a2.01 2.01 0 0 0-1.55.715c-.638.725-.904 1.87-.737 3.146.3 2.283 1.965 4.256 3.635 4.307zm1.861 6.888a63.986 63.986 0 0 1-.52-.355 5.898 5.898 0 0 0-1.655-.254h-.072c-2.625 0-4.929 1.592-4.929 3.406 0 1.97 1.972 3.518 4.491 3.518 3.322 0 5.006-1.145 5.006-3.404 0-.215-.025-.436-.076-.656-.225-.88-1.03-1.427-2.245-2.255z"/><path d="M24.77.108C11.17.108.145 11.13.145 24.73S11.17 49.355 24.77 49.355c13.598 0 24.623-11.025 24.623-24.625S38.367.108 24.77.108zM22.53 38.13c-.983.283-2.042.428-3.155.428a14.45 14.45 0 0 1-3.54-.424c-2.15-.541-3.74-1.57-4.48-2.895a3.69 3.69 0 0 1-.482-1.816c0-.652.156-1.312.463-1.967 1.18-2.51 4.283-4.197 7.722-4.197h.1a3.064 3.064 0 0 1-.416-1.537c0-.268.035-.54.105-.814-3.606-.084-6.306-2.725-6.306-6.207 0-2.461 1.965-4.855 4.776-5.824a7.784 7.784 0 0 1 2.543-.44h7.713c.264 0 .494.17.576.42a.604.604 0 0 1-.22.68l-1.726 1.249a.617.617 0 0 1-.357.115h-.617c.8.955 1.266 2.316 1.266 3.848 0 1.69-.855 3.289-2.41 4.506-1.2.936-1.25 1.19-1.25 1.729.016.295.854 1.252 1.775 1.904 2.152 1.523 2.953 3.014 2.953 5.508 0 2.595-1.977 4.847-5.034 5.734zm17.42-13.231a.607.607 0 0 1-.607.605H34.96v4.385a.606.606 0 0 1-.607.607h-1.248a.606.606 0 0 1-.607-.607v-4.385h-4.386a.606.606 0 0 1-.605-.605v-1.25c0-.334.273-.607.605-.607h4.385v-4.383c0-.336.271-.607.607-.607h1.248c.336 0 .607.27.607.607v4.383h4.383c.334 0 .607.273.607.607v1.25z"/></svg>