<svg xmlns="http://www.w3.org/2000/svg" width="32" height="32" viewBox="0 0 32 32"><path d="M16 31.09q-.438 0-.741-.353L4.749 18.908q-.168-.157-.463-.51-.294-.355-.934-1.288-.64-.933-1.146-1.916-.505-.982-.9-2.377Q.91 11.422.91 10.105q0-4.322 2.139-6.759Q5.187.91 8.96.91q1.044 0 2.13.422 1.087.422 2.022 1.14.934.717 1.608 1.346.674.628 1.28 1.336.606-.708 1.28-1.336.674-.63 1.608-1.346.935-.718 2.021-1.14Q21.996.91 23.04.91q3.774 0 5.912 2.436 2.14 2.437 2.14 6.76 0 4.342-3.857 8.841L16.74 30.737q-.303.353-.741.353z"/></svg>