<svg xmlns="http://www.w3.org/2000/svg" viewBox="0 0 50 50"><path d="M44.4 5.7C40 2.4 35.1 1.9 29.9 4c-2 .9-3.7 2.4-4.9 4.2-1.2-1.9-2.9-3.4-4.9-4.2C15.3 1.8 9.7 2.5 5.6 5.7 1.2 9-.6 13.7.2 19.7c.6 4.5 2.6 8.5 6.4 13.2 4.8 5.7 10.7 10 16.4 13.7.6.4 1.2.6 1.9.7h.2c.7 0 1.3-.3 1.9-.7 5.3-3.5 11.5-7.9 16.4-13.8 3.7-4.3 5.8-8.7 6.4-13.2.9-5.8-1-10.5-5.4-13.9zm4.4 13.9c-.6 4.4-2.6 8.4-6.2 12.7-4.8 5.7-10.9 10-16.1 13.4-.4.3-.9.5-1.4.5h-.2c-.5 0-1-.2-1.4-.5C17.9 42 12 37.9 7.3 32.2c-3.7-4.5-5.6-8.4-6.2-12.7-.7-5.6 1-9.9 5-13 2.2-1.8 5-2.8 7.8-2.8 1.9 0 3.9.4 5.6 1.2 2.1.9 3.8 2.5 4.9 4.6.1.2.3.2.5.2s.3-.1.4-.3c1-2 2.8-3.7 4.9-4.5 4.9-2 9.3-1.5 13.5 1.6s5.9 7.6 5.1 13.1z" stroke-width="0"/></svg>