<svg xmlns="http://www.w3.org/2000/svg" viewBox="0 0 50 50"><g data-name="Layer 2"><path d="M25 50a1.56 1.56 0 0 1-1.23-.58L6.36 29.82a10.14 10.14 0 0 1-.77-.82q-.48-.62-1.59-2.16a29.38 29.38 0 0 1-1.9-3.17 21.43 21.43 0 0 1-1.44-3.94 16.42 16.42 0 0 1-.66-4.5Q0 8.07 3.54 4t9.79-4a9.7 9.7 0 0 1 3.53.7 13.49 13.49 0 0 1 3.35 1.89q1.55 1.19 2.66 2.23A27.17 27.17 0 0 1 25 7a27.17 27.17 0 0 1 2.12-2.21q1.12-1 2.66-2.23A13.5 13.5 0 0 1 33.13.7a9.71 9.71 0 0 1 3.53-.7q6.25 0 9.79 4T50 15.23q0 7.19-6.39 14.65L26.22 49.41A1.56 1.56 0 0 1 25 50z" data-name="Layer 1"/></g></svg>