<svg xmlns="http://www.w3.org/2000/svg" viewBox="0 0 502.664 502.664" height="502.664" width="502.664"><path d="M378.74 181.184c0-76.576-84.708-138.743-189.305-138.743C84.73 42.441 0 104.608 0 181.184c0 47.154 32.291 88.591 81.343 113.7l-47.024 89.389 101.987-70.515c16.955 3.645 34.6 6.234 53.129 6.234 104.618 0 189.305-62.146 189.305-138.808zM129.942 196.24H89.95v-40.014h39.992v40.014zM251.3 156.226h39.992v40.014H251.3v-40.014zm-80.675 0h39.971v40.014h-39.971v-40.014z"/><path d="M502.664 268.481c0-50.325-38.763-93.984-95.602-115.943 2.804 10.332 4.314 21.053 4.314 32.097 0 90.77-100.304 164.412-224.25 164.412-1.532 0-2.955-.324-4.465-.324 32.68 30.868 83.695 50.799 141.138 50.799 17.515 0 34.147-2.438 50.152-5.846l96.378 66.546-44.457-84.363c46.334-23.748 76.792-62.878 76.792-107.378z"/></svg>