<svg xmlns="http://www.w3.org/2000/svg" viewBox="0 0 50 50" height="50" width="50"><g stroke-width="0"><path d="M42.9 24.7c-.6 0-1 .4-1 1V46h-5V33.3c0-.6-.4-1-1-1H25.1c-.6 0-1 .4-1 1V46H8.5V25.7c0-.6-.4-1-1-1s-1 .4-1 1V47c0 .6.4 1 1 1h17.6c.6 0 1-.4 1-1V34.3h8.8V47c0 .6.4 1 1 1h7c.6 0 1-.4 1-1V25.7c0-.6-.4-1-1-1z"/><path d="M49.7 25.1L25.8 2.2c-.4-.4-1-.4-1.4 0L.3 25.1c-.4.4-.4 1 0 1.4.4.4 1 .4 1.4 0L25.1 4.4l23.2 22.2c.4.4 1 .4 1.4 0 .4-.5.4-1.1 0-1.5zM34.3 8.3h7.2v7.2c0 .6.4 1 1 1s1-.4 1-1V7.3c0-.6-.4-1-1-1h-8.2c-.6 0-1 .4-1 1s.4 1 1 1zM20.1 42.5c.6 0 1-.4 1-1v-8.1c0-.6-.4-1-1-1h-7.4c-.6 0-1 .4-1 1v8.1c0 .6.4 1 1 1h7.4zm-6.4-8.1h5.4v6.1h-5.4v-6.1z"/></g></svg>