<svg xmlns="http://www.w3.org/2000/svg" viewBox="0 0 50 50"><g stroke-width="0"><path d="M49.8 41.5L46.9 34c-.3-.9-.9-1.6-1.7-2 .9-.9 1.4-2.1 1.4-3.4V7.7c0-2.5-2-4.6-4.5-4.6H7.8c-2.5 0-4.6 2-4.6 4.5v21.1c0 1.3.5 2.5 1.5 3.4-.7.5-1.2 1.1-1.5 1.9L.3 41.4c-.6 1.2-.5 2.6.3 3.7.7 1.1 2 1.8 3.4 1.8h42c1.3 0 2.5-.7 3.2-1.7.8-1.1 1-2.5.6-3.7zM5.2 7.7c0-1.4 1.1-2.6 2.5-2.6h34.2c1.4 0 2.6 1.1 2.6 2.5v21c0 1.5-1.1 2.7-2.6 2.7H7.8c-1.4 0-2.6-1.1-2.6-2.5V7.7zM47.6 44c-.3.5-.9.8-1.5.8H4c-.7 0-1.3-.3-1.7-.9-.3-.5-.3-1.1-.1-1.7l2.9-7.5c.3-.7 1-1.2 1.8-1.2h36.3c.8 0 1.6.5 1.8 1.2l2.9 7.5c.2.6.1 1.3-.3 1.8z"/><path d="M42.9 40.2H7c-.6 0-1 .4-1 1s.4 1 1 1h35.9c.6 0 1-.4 1-1s-.4-1-1-1zM9 37.8h3.6c.6 0 1-.4 1-1s-.4-1-1-1H9c-.6 0-1 .4-1 1s.5 1 1 1zm6.7 0h25.2c.6 0 1-.4 1-1s-.4-1-1-1H15.7c-.6 0-1 .4-1 1s.4 1 1 1z"/></g></svg>