<svg xmlns="http://www.w3.org/2000/svg" viewBox="0 0 50 50"><path d="M25 50c-9.9.1-18.1-7.9-18.2-17.8V21h24.5c.9 0 1.7.7 1.7 1.7s-.7 1.7-1.7 1.7H10.2v7.5c-.1 8.1 6.4 14.7 14.5 14.8h.3c8.1.1 14.7-6.4 14.8-14.5v-9.5c0-.9.7-1.7 1.7-1.7.9 0 1.7.7 1.7 1.7v9.2c.1 9.9-7.9 18.1-17.8 18.2-.2-.1-.3-.1-.4-.1zm13-31.3c-.9 0-1.7-.7-1.7-1.7v-2.1c0-6.4-5.2-11.5-11.5-11.5-6.5-.1-11.7 5-11.8 11.5v1.7c0 .9-.7 1.7-1.7 1.7-.9 0-1.7-.7-1.7-1.7v-1.7c0-8.3 6.7-15 15-15s15 6.7 15 15V17c.1.9-.7 1.7-1.6 1.7z"/><path d="M23.3 43.3l-7-7c-.6-.7-.4-1.8.3-2.3.6-.5 1.4-.4 2 0l4.3 4.3 12.3-16.4c.6-.7 1.6-.8 2.4-.2.7.5.8 1.5.3 2.2L23.3 43.3z"/></svg>