<svg height="48" width="48" xmlns="http://www.w3.org/2000/svg" viewBox="0 0 48 48"><path d="M44 40H4c-2.206 0-4-1.794-4-4V6c0-2.206 1.794-4 4-4h40c2.206 0 4 1.794 4 4v30c0 2.206-1.794 4-4 4zM4 4c-1.103 0-2 .897-2 2v30c0 1.103.897 2 2 2h40c1.103 0 2-.897 2-2V6c0-1.103-.897-2-2-2H4zM38 46H10a1 1 0 0 1 0-2h28a1 1 0 0 1 0 2z"/><path d="M31.02 46H17a1.002 1.002 0 0 1-.949-1.317l2-6A1 1 0 0 1 19 38h10a1 1 0 0 1 .949.684l1.94 5.821A1 1 0 0 1 31.02 46zm-12.633-2h11.226l-1.333-4h-8.559l-1.334 4zM44 32H4V6h40v26zM6 30h36V8H6v22z"/><circle cx="24" cy="35" r="2"/></svg>