<svg xmlns="http://www.w3.org/2000/svg" viewBox="0 0 50 50"><g data-name="Layer 2"><path d="M31.16 0H18.84A18.77 18.77 0 0 0 0 19.1v11.8A18.77 18.77 0 0 0 18.84 50h12.32A18.77 18.77 0 0 0 50 30.9V19.1A18.77 18.77 0 0 0 31.16 0zm15.41 30.9a15.35 15.35 0 0 1-15.41 15.63H18.84A15.35 15.35 0 0 1 3.42 30.9V19.1A15.35 15.35 0 0 1 18.84 3.47h12.32A15.35 15.35 0 0 1 46.57 19.1z"/><path d="M25 18.75a5.25 5.25 0 0 0-5.48-5.56A5.25 5.25 0 0 0 14 18.75c0 3.12 2.1 5.25 5.52 5.25S25 21.87 25 18.75zm-7.53 0c0-1.74.68-2.43 2.05-2.43 1 0 2.05.69 2.05 2.43a2.31 2.31 0 0 1-2.05 2.43 2.31 2.31 0 0 1-2.05-2.43zM31.51 24.65A5.25 5.25 0 0 0 26 30.21a5.17 5.17 0 0 0 5.48 5.21c3.42 0 5.48-2.08 5.48-5.21a5.25 5.25 0 0 0-5.45-5.56zm-.34 8c-1 0-2.05-.69-2.05-2.43a2.18 2.18 0 0 1 2.4-2.43c1 0 2.05.69 2.05 2.43a2.36 2.36 0 0 1-2.41 2.42zM30.82 13.54L17.46 35.07h2.74l13.36-21.53h-2.74z"/></g></svg>