<svg xmlns="http://www.w3.org/2000/svg" viewBox="0 0 14.6 14.4" width="14.6" height="14.4" stroke="#FCCA37"><path d="M9.1 13.9H5.5c-2.8 0-5-2.2-5-5V5.5c0-2.8 2.2-5 5-5h3.6c2.8 0 5 2.2 5 5v3.4c0 2.8-2.2 5-5 5zM9.32 3.894l-3.776 6.148" fill="none"/><path fill="none" d="M6.17 4.369c.486.47.294 1.37-.028 1.74-.34.392-1.029.377-1.504.05-.493-.425-.499-1.21-.086-1.66.604-.472 1.078-.458 1.618-.13zM10.22 7.762c.486.47.295 1.37-.027 1.741-.34.392-1.03.376-1.504.05-.494-.426-.5-1.211-.087-1.661.604-.472 1.079-.457 1.618-.13z"/></svg>
