<svg xmlns="http://www.w3.org/2000/svg" width="31.6" height="26.2" stroke="#FCCA37" viewBox="0 0 31.6 26.2"><g fill="none"><path d="M18.8 6.3c.9.1 1.6.3 2.3.5M20.6 8c1.3-2.6 2.7-3.1 2.8-3.2.2-.2.6 0 .6.3l.6 3.9c1.4 1.1 2.4 2.5 3.1 4.1H30c.7 0 1.2.5 1.2 1.2v4c0 1.3-3.7 2.2-3.7 2.2-.1 0-.5.5-1.1 1.1l.5 2c.2.7-.3 1.5-1 1.7l-1.3.3c-.7.2-1.5-.3-1.7-1l-.2-1c-1.8.6-4 .9-6.2.9-2.1 0-4.1-.2-5.9-.8l-.2.8c-.2.7-.9 1.2-1.7 1l-1.3-.3c-.7-.2-1.2-.9-1-1.7l.4-1.8c-1.5-1.3-2.4-3-2.4-5.4 0-2.8 1.1-5 3.1-6.9"/><path class="st0" d="M5 12.8c-.1.4-.6.5-1.1.5-.9 0-1.9-.2-2.6-.7-.3-.2-.7-.6-.8-1s0-.9.4-1.1c.1 0 .2-.1.2 0 .2 0 .3.3.3.5"/><path d="M22.2 12.8h1.5M9.5 11.6c-1.3-1-2.9-2.9-2.9-5.1 0-3.3 2.7-6 6-6s6 2.7 6 6c0 1-.3 2-.7 2.9 0 0-6.6-.2-9.7 3.8"/></g></svg>
