<svg xmlns="http://www.w3.org/2000/svg" viewBox="0 0 50 50"><path d="M47.6 24.6h-3.3c-1.1-2.4-2.7-4.6-4.8-6.3l-.9-6c0-.4-.3-.8-.7-1-.4-.2-.8-.1-1.1.2h-.1c-1.3.8-2.4 1.8-3.2 3-1.2-.4-2.4-.6-3.6-.8-.5-5.5-5.3-9.7-10.8-9.2-5.3.4-9.3 4.8-9.3 10.1 0 1.6.5 3.2 1.3 4.5-1.5 1.4-2.7 3.2-3.6 5.1l-.3.3c-.1.4-.9.4-1.3.4-1.4.1-2.7-.3-3.9-1-.5-.3-.9-.8-1.1-1.3-.1-.4 0-.8.3-1.1h.1c0 .1.1.2.1.3 0 .3.2.5.5.5s.5-.2.5-.5c0-.5-.2-1-.6-1.2-.2-.1-.4-.1-.6 0H1c-.8.5-1.2 1.4-.9 2.3.3.8.8 1.4 1.4 1.9 1.4.7 2.9 1.2 4.5 1.1.3 0 .6 0 .9-.1-.4 1.4-.6 2.9-.6 4.4-.1 3.3 1.2 6.5 3.7 8.8l-.5 2.5c-.4 1.5.5 2.9 2 3.3l2.1.5c1.5.4 2.9-.5 3.3-2l.2-.8c2.9.8 6 1.2 9 1.1 3.2.1 6.4-.3 9.5-1.2l.2 1.1c.4 1.2 1.4 2 2.7 2 .2 0 .4 0 .6-.1l2.1-.5c.7-.2 1.3-.7 1.7-1.4.3-.6.4-1.3.3-2l-.7-2.9.8-.8.6-.6c1.2-.3 6.2-1.7 6.2-4V27c0-1.3-1-2.4-2.3-2.4h-.2zM19.8 5.5c5 0 9.1 4.1 9.1 9.1 0 1.4-.3 2.8-.9 4.1-1.6 0-8 .2-12.8 3.6-2.1-1.6-4.4-4.5-4.4-7.7 0-5 4-9.1 9-9.1zM49 33.4c0 1.1-3.2 2.5-5.5 3-.3 0-.5.3-1.1.9l-1 1-.2.2.9 3.5c.1.4 0 .8-.2 1.2-.2.4-.6.7-1 .9l-2.1.5c-.9.2-1.8-.3-2.1-1.2l-.4-2.2-.5.2c-3.1 1-6.4 1.4-9.7 1.4-3.1.1-6.3-.3-9.3-1.3l-.5-.2-.5 1.8c-.2.9-1.2 1.5-2.1 1.2l-2-.5c-.9-.2-1.5-1.2-1.2-2.1l.7-3.2-.2-.1c-2.4-2-3.8-5.1-3.6-8.2 0-3.9 1.5-7.6 4.4-10.2.8 1.1 1.7 2.1 2.7 3-.7.6-1.4 1.3-2 2-.2.2-.1.5.1.7.2.2.5.1.7-.1 4.7-6.1 14.9-5.9 15-5.9h.3l.1-.3c.7-1.4 1.1-3 1.1-4.6 1 .1 2 .3 3 .6-.2.4-.5.9-.7 1.3-.1.2 0 .6.2.7.2.1.6 0 .7-.2.9-2 2.3-3.7 4.1-4.8.1 0 .2-.1.2-.2h.1l1 6.6.2.1c2.1 1.7 3.7 3.9 4.8 6.3l.1.3h4c.7-.1 1.4.5 1.4 1.2v6.7z"/><path d="M37.5 24.1h-2.4c-.3 0-.5.2-.5.5s.2.5.5.5h2.4c.3 0 .5-.2.5-.5s-.2-.5-.5-.5z"/></svg>