<svg viewBox="0 0 154 48" height="48" width="154"><g fill-rule="evenodd"><rect x=".5" y=".5" width="153" height="47" rx="2" fill="none"/><path d="M115.857 36.058c-.628.833-1.468 1.25-2.52 1.25-1.244 0-2.196-.438-2.856-1.313v4.642h-1V28.04h.932l.05 1.287c.656-.97 1.605-1.455 2.848-1.455 1.087 0 1.94.412 2.558 1.236.619.824.928 1.968.928 3.431v.143c0 1.418-.313 2.544-.94 3.376zm-.782-6.303c-.476-.672-1.14-1.009-1.99-1.009-.616 0-1.146.149-1.588.446-.442.297-.781.729-1.016 1.295v4.365c.24.52.585.919 1.033 1.194.448.274.977.412 1.587.412.846 0 1.505-.338 1.978-1.014.474-.675.71-1.655.71-2.939 0-1.16-.238-2.077-.714-2.75zm4.066 7.384V24.222h1.008V37.14l-1.008-.001zm9.281-1.27a3.51 3.51 0 0 1-1.348 1.064 4.125 4.125 0 0 1-1.734.374c-.874 0-1.581-.244-2.121-.732-.54-.487-.81-1.104-.81-1.85 0-.885.367-1.586 1.104-2.102.736-.516 1.762-.774 3.078-.774h1.823v-1.034c0-.65-.2-1.162-.6-1.535-.401-.372-.985-.559-1.752-.559-.7 0-1.28.18-1.739.538-.459.36-.689.79-.689 1.295l-1.008-.008c0-.723.336-1.35 1.008-1.88.672-.53 1.498-.794 2.478-.794 1.014 0 1.813.254 2.398.76.586.508.886 1.216.903 2.124v4.306c0 .88.093 1.539.277 1.976v.1h-1.075c-.1-.285-.165-.709-.193-1.269zm-1.163.059c.529-.325.914-.76 1.155-1.303v-2.002h-1.798c-1.002.011-1.786.195-2.352.55-.565.357-.848.846-.848 1.468 0 .51.189.934.567 1.27.378.337.87.505 1.474.505.672 0 1.273-.163 1.802-.488zm10.369-7.888h1.084l-3.881 10.646-.202.471c-.498 1.105-1.268 1.657-2.31 1.657-.24 0-.498-.04-.772-.118l-.009-.833.521.051c.493 0 .892-.122 1.197-.366.305-.244.564-.663.777-1.257l.445-1.228-3.427-9.023h1.1l2.823 7.652 2.654-7.652zM15 36.61V11.838c0-.865.5-1.612 1.227-1.967l14.314 14.35-14.32 14.354A2.186 2.186 0 0 1 15 36.611v-.001zm20.082-7.838L19.431 37.83l12.344-12.374 3.307 3.316zm4.865-6.285c.52.4.856 1.029.856 1.737 0 .697-.325 1.318-.832 1.718l-3.325 1.924-3.638-3.647 3.636-3.644 3.303 1.912zM19.44 10.618l15.64 9.052-3.305 3.313L19.44 10.618zm46.099 19.287s.107.429.107 1.171c0 3.519-2.542 5.898-6.015 5.898A6.573 6.573 0 0 1 53 30.47c0-3.36 2.851-6.47 6.537-6.47 2.894 0 4.482 1.767 4.482 1.767l-1.237 1.28s-1.18-1.276-3.182-1.276c-2.595 0-4.664 2.058-4.664 4.731a4.64 4.64 0 0 0 4.659 4.702c1.945 0 4.005-1.056 4.213-3.533h-4.22v-1.766h5.951zm4.874-1.278c2.008 0 4.185 1.422 4.185 4.184 0 2.41-1.872 4.155-4.156 4.155-2.523 0-4.22-1.944-4.22-4.204 0-2.226 1.75-4.135 4.191-4.135zm.025 1.638c-1.35 0-2.386 1.078-2.386 2.523 0 1.475 1.05 2.541 2.38 2.541 1.211 0 2.345-.998 2.345-2.53 0-1.564-1.138-2.534-2.34-2.534h.001zm9.092-1.638c2.007 0 4.184 1.422 4.184 4.184 0 2.41-1.871 4.155-4.155 4.155-2.523 0-4.22-1.944-4.22-4.204 0-2.226 1.75-4.135 4.191-4.135zm.024 1.638c-1.349 0-2.386 1.078-2.386 2.523 0 1.475 1.05 2.541 2.381 2.541 1.211 0 2.344-.998 2.344-2.53 0-1.564-1.138-2.534-2.339-2.534zm8.918-1.634c.976 0 1.711.378 2.249.957v-.706h1.748v7.492c0 2.944-1.699 4.348-3.927 4.348-2.038 0-3.182-1.254-3.75-2.456l1.602-.67c.222.538.861 1.485 2.135 1.485 1.318 0 2.191-.862 2.191-2.3v-.823c-.466.542-1.098 1.014-2.286 1.014-1.922 0-3.965-1.665-3.965-4.175 0-2.203 1.762-4.166 4.003-4.166zm.162 1.635c-1.176 0-2.33.955-2.33 2.556 0 1.54 1.111 2.51 2.306 2.51 1.126 0 2.252-.897 2.252-2.526 0-1.602-1.129-2.54-2.228-2.54zm11.608-1.645c1.667 0 2.928 1.112 3.468 2.444l.29.68-5.591 2.32c.334.621.873 1.263 2.045 1.263 1.044 0 1.669-.567 2.043-1.147l1.441.959c-.646.864-1.729 1.83-3.493 1.83-2.114 0-4.092-1.558-4.092-4.185 0-2.482 1.775-4.164 3.89-4.164h-.001zm.073 1.604c-1.207 0-2.352 1.243-2.19 2.45l3.733-1.56c-.233-.485-.781-.89-1.543-.89zm-6.628 6.497v-12.29h1.837v12.29h-1.837z" fill-rule="nonzero"/><path d="M60.611 17.86h-.79V16h-4.962v1.86h-.79v-2.612h.551c.501-.843.93-1.868 1.287-3.076.356-1.208.554-2.311.593-3.31h3.208v6.386h.903v2.612zm-1.733-2.612v-5.64h-1.626c-.059.788-.256 1.735-.59 2.84-.336 1.105-.727 2.038-1.173 2.8h3.389zm8.432-1.929c0 .873-.22 1.554-.66 2.044-.44.49-1.046.735-1.82.735-.48 0-.904-.113-1.275-.337a2.224 2.224 0 0 1-.86-.967c-.202-.42-.302-.912-.302-1.475 0-.872.218-1.552.654-2.038.436-.487 1.042-.73 1.816-.73.749 0 1.344.249 1.785.747.441.498.662 1.172.662 2.021zm-4.078 0c0 .684.137 1.205.41 1.563.274.358.676.537 1.207.537.53 0 .933-.178 1.208-.535.275-.356.413-.878.413-1.565 0-.68-.138-1.197-.413-1.55-.275-.353-.681-.53-1.218-.53-.53 0-.931.174-1.201.523-.27.348-.406.867-.406 1.557zm8.637 2.779c-.775 0-1.374-.239-1.8-.716-.424-.477-.636-1.151-.636-2.024 0-.895.215-1.587.647-2.075.43-.488 1.045-.732 1.843-.732.257 0 .514.027.771.083.257.055.46.12.606.195l-.25.689a3.811 3.811 0 0 0-.585-.179 2.616 2.616 0 0 0-.562-.07c-1.087 0-1.63.693-1.63 2.08 0 .657.132 1.162.397 1.513.266.352.659.528 1.18.528.446 0 .903-.096 1.372-.288v.717c-.358.186-.81.279-1.353.279zm7.23-4.756h-1.738V16h-.81v-4.658h-1.719v-.694H79.1v.694zm1.21-.694h.87L82.35 13.7c.257.697.416 1.2.478 1.509h.04c.041-.166.13-.45.265-.852.135-.402.577-1.638 1.326-3.709h.87l-2.3 6.094c-.229.602-.495 1.03-.799 1.282-.304.252-.678.378-1.12.378a3.26 3.26 0 0 1-.733-.083v-.65c.179.04.38.06.6.06.557 0 .954-.313 1.192-.938l.298-.762-2.158-5.38zM88.01 16h-.81v-5.352h4.491V16h-.82v-4.648H88.01V16zm7.21-5.352v2.242h2.999v-2.242h.81V16h-.81v-2.412H95.22V16h-.81v-5.352h.81zm11.147 2.671c0 .873-.22 1.554-.659 2.044-.44.49-1.047.735-1.821.735-.479 0-.904-.113-1.275-.337a2.224 2.224 0 0 1-.859-.967c-.202-.42-.303-.912-.303-1.475 0-.872.218-1.552.655-2.038.436-.487 1.041-.73 1.816-.73.749 0 1.344.249 1.785.747.44.498.661 1.172.661 2.021zm-4.077 0c0 .684.137 1.205.41 1.563.274.358.676.537 1.206.537.53 0 .934-.178 1.209-.535.275-.356.412-.878.412-1.565 0-.68-.137-1.197-.412-1.55-.275-.353-.681-.53-1.218-.53-.531 0-.931.174-1.202.523-.27.348-.405.867-.405 1.557zm14.437-1.328c0 .349-.1.613-.3.794-.2.18-.482.302-.843.363v.044c.456.062.789.196.999.4.21.206.314.49.314.85 0 .498-.183.883-.549 1.153-.366.27-.9.405-1.604.405h-2.358v-5.352h2.348c1.329 0 1.993.448 1.993 1.343zm-.64 2.398c0-.29-.11-.5-.33-.633-.22-.131-.583-.197-1.091-.197h-1.47v1.762h1.49c.934 0 1.4-.31 1.4-.932zm-.151-2.32c0-.26-.1-.445-.3-.554-.2-.109-.504-.163-.911-.163h-1.529v1.508h1.372c.502 0 .855-.061 1.06-.185.205-.124.308-.326.308-.606z"/></g></svg>