<svg xmlns="http://www.w3.org/2000/svg" id="Layer_1" viewBox="0 0 128 128"><style id="style2">.st0{fill:none;stroke:#e5ad2a;stroke-width:2.9146;stroke-linecap:round;stroke-linejoin:round;stroke-miterlimit:10}.st1{fill:#e5ad2a}</style><g id="g18"><path d="M101.355 27.201a1.5 1.5 0 0 0-.144.01s-14.042 1.753-24.07 11.31C73.57 37.888 69.84 37.5 66 37.5c-13.296 0-25.386 3.927-34.215 10.71C22.956 54.995 17.4 64.713 17.4 76c0 7.37 2.478 14.077 6.573 19.707l-3.934 3.932c-3.457 3.457-3.468 9.058.012 12.43 3.461 3.45 9.06 3.46 12.428-.028l4.718-4.717c8.09 4.585 18.009 7.176 28.703 7.176 9.434 0 18.26-2.298 25.768-6.012l3.672 3.672c3.456 3.457 9.054 3.47 12.426-.008 3.452-3.46 3.463-9.057-.02-12.426l-1.928-1.93c1.92-2.171 3.545-4.509 4.836-6.995H121.1a1.5 1.5 0 0 0 1.5-1.5V62.8a1.5 1.5 0 0 0-1.5-1.5h-10.383c-1.96-3.653-4.597-7.038-7.817-10.081v-22.52a1.5 1.5 0 0 0-1.545-1.498zM99.9 30.504V51.8a1.5 1.5 0 0 0 .487 1.105c3.484 3.194 6.266 6.753 8.172 10.565a1.5 1.5 0 0 0 1.341.83h9.7v23.5h-9.8a1.5 1.5 0 0 0-1.35.845 31.82 31.82 0 0 1-5.731 8.213 1.5 1.5 0 0 0 .021 2.102l2.899 2.9a1.5 1.5 0 0 0 .02.018c2.309 2.23 2.319 5.82-.02 8.16a1.5 1.5 0 0 0-.018.02c-2.23 2.309-5.82 2.32-8.16-.02l-4.4-4.4a1.5 1.5 0 0 0-1.752-.27C84.02 109.16 75.25 111.5 65.9 111.5c-10.652 0-20.493-2.646-28.228-7.287a1.5 1.5 0 0 0-1.832.226l-5.5 5.5a1.5 1.5 0 0 0-.02.02c-2.23 2.31-5.82 2.32-8.16-.02a1.5 1.5 0 0 0-.017-.019c-2.31-2.23-2.322-5.821.017-8.16l4.8-4.799a1.5 1.5 0 0 0 .12-1.988C22.867 89.61 20.4 83.153 20.4 76c0-10.312 4.992-19.094 13.213-25.41C41.834 44.273 53.296 40.5 66 40.5c3.9 0 7.707.39 11.32 1.074a1.5 1.5 0 0 0 1.34-.414c7.464-7.464 17.614-9.956 21.24-10.656z" id="path4"/><path d="M13.352 50.936a9.294 9.294 0 0 0-7.6 6.775c-1.314 4.897 1.683 9.93 6.559 11.238 4.897 1.314 9.93-1.685 11.238-6.56.518-1.933-2.38-2.71-2.899-.778-.892 3.325-4.26 5.326-7.562 4.44-3.325-.892-5.326-4.26-4.44-7.563a6.274 6.274 0 0 1 3.453-4.098 6.07 6.07 0 0 1 4.11-.341c1.932.518 2.71-2.38.777-2.899a8.983 8.983 0 0 0-3.636-.214z" id="path6"/><path d="M95.5 62.3c-2.91 0-5.3 2.39-5.3 5.3 0 2.909 2.39 5.3 5.3 5.3 2.91 0 5.3-2.391 5.3-5.3 0-2.91-2.39-5.3-5.3-5.3zm0 3c1.288 0 2.3 1.012 2.3 2.3 0 1.288-1.012 2.3-2.3 2.3a2.279 2.279 0 0 1-2.3-2.3 2.277 2.277 0 0 1 2.3-2.3z" id="circle8"/><path d="M48.531 13.377a21.328 21.328 0 0 0-17.484 9.598 1.5 1.5 0 0 0-.002.004c-5.467 8.361-4.406 19.042 2.053 26.039a1.5 1.5 0 1 0 2.205-2.036c-5.54-6.002-6.48-15.12-1.75-22.357l.002-.004c5.558-8.426 16.799-10.819 25.217-5.27 6.298 4.169 9.245 11.562 7.953 18.577a1.5 1.5 0 1 0 2.95.545c1.509-8.185-1.946-16.791-9.247-21.623a1.5 1.5 0 0 0-.002-.002 20.937 20.937 0 0 0-11.895-3.471z" id="path10"/><path d="M86.22 73.791a1.5 1.5 0 0 0-.622 2.883l8.9 3.9a1.5 1.5 0 1 0 1.203-2.748l-8.898-3.9a1.5 1.5 0 0 0-.582-.135z" id="line12"/><path d="M48.9 20.1c-8.108 0-14.8 6.59-14.8 14.8 0 4.31 1.783 8.235 4.804 10.92a1.5 1.5 0 1 0 1.992-2.242C38.518 41.464 37.1 38.39 37.1 34.9a11.77 11.77 0 0 1 11.8-11.8c6.478 0 11.8 5.322 11.8 11.8 0 1.258-.182 2.514-.534 3.659a1.5 1.5 0 1 0 2.867.882 15.48 15.48 0 0 0 .666-4.54C63.7 26.777 57.022 20.1 48.9 20.1z" id="path14"/><path d="M29.035 66.182a1.5 1.5 0 0 0-1.336.98C26.637 69.923 26 72.992 26 76.1c0 8.58 4.57 16.319 11.775 21.83 7.205 5.51 17.064 8.87 27.924 8.87 8.747 0 16.793-2.157 23.33-5.788a1.5 1.5 0 1 0-1.457-2.623c-6.063 3.368-13.62 5.412-21.873 5.412-10.24 0-19.479-3.19-26.1-8.254C32.98 90.483 29 83.619 29 76.1c0-2.693.562-5.423 1.5-7.862a1.5 1.5 0 0 0-1.465-2.056z" id="path16"/></g></svg>