<svg xmlns="http://www.w3.org/2000/svg" width="30.1" height="22.6" viewBox="0 0 30.1 22.6"><path d="M17.7 6.2h.2L28.2 9c.8.2.9 1.3.2 1.7l-2.7 1.5c-.5.3-.6 1-.2 1.5l3.3 3.3c.4.4.4.9 0 1.3-.2.2-.4.3-.7.3-.2 0-.5-.1-.7-.3L24.1 15c-.2-.2-.4-.3-.7-.3-.3 0-.6.2-.8.5l-1.5 2.7c-.2.3-.5.5-.8.5-.4 0-.8-.2-.9-.7L16.8 7.4c-.1-.6.3-1.2.9-1.2m0-.7c-.5 0-1 .2-1.3.6-.3.4-.4.9-.3 1.4l2.7 10.2c.2.7.8 1.2 1.6 1.2.6 0 1.1-.3 1.4-.8l1.5-2.7c.1-.1.1-.1.2-.1 0 0 .1 0 .1.1l3.3 3.3c.3.3.7.5 1.2.5.4 0 .8-.2 1.2-.5.3-.3.5-.7.5-1.2 0-.4-.2-.8-.5-1.2L26 13.1V13s0-.1.1-.2l2.7-1.5c.6-.3.9-1 .8-1.6-.1-.7-.6-1.2-1.2-1.4L18.1 5.5h-.4z"/><g fill="none"><path d="M24 3c0-1.4-1.3-2.5-3-2.5H3.4C1.8.5.4 1.6.4 3v16.6c0 1.4 1.3 2.5 3 2.5H21c1.6 0 3-1.1 3-2.5M3.5 6.3h8.8M3.5 10.1h8.8M3.5 14h8.8"/></g></svg>