<svg xmlns="http://www.w3.org/2000/svg" viewBox="0 0 128 128" height="128" width="128"><path d="M17.8 19.143a7.56 7.56 0 0 0-7.558 7.556v1.744H2.2a1.457 1.457 0 1 0 0 2.914h9.262a1.457 1.457 0 0 0 .473 0H115.06a1.457 1.457 0 0 0 .472 0H125.8a1.457 1.457 0 1 0 0-2.914h-9.043V26.7a7.56 7.56 0 0 0-7.559-7.556zm0 2.914h91.4c2.628 0 4.642 2.014 4.642 4.642v1.744H13.158V26.7c0-2.628 2.014-4.642 4.643-4.642zm-15 12.586A1.457 1.457 0 0 0 1.343 36.1V53c0 6.398 5.26 11.658 11.658 11.658S24.658 59.398 24.658 53V36.1a1.457 1.457 0 0 0-1.459-1.457zm25.6 0a1.457 1.457 0 0 0-1.457 1.457V53c0 6.398 5.259 11.658 11.657 11.658 6.484 0 11.658-5.277 11.658-11.658V36.1a1.457 1.457 0 0 0-1.457-1.457zm25.7 0a1.457 1.457 0 0 0-1.457 1.457V53c0 6.398 5.26 11.658 11.658 11.658S75.957 59.398 75.957 53V36.1a1.457 1.457 0 0 0-1.457-1.457zm25.6 0a1.457 1.457 0 0 0-1.458 1.457V53c0 6.398 5.26 11.658 11.658 11.658s11.657-5.26 11.657-11.658V36.1a1.457 1.457 0 0 0-1.457-1.457zm25.7 0a1.457 1.457 0 0 0-1.457 1.457V53c0 6.398 5.259 11.658 11.657 11.658s11.658-5.26 11.658-11.658V36.1a1.457 1.457 0 0 0-1.457-1.457zM4.258 37.557h17.484V53c0 4.802-3.94 8.742-8.742 8.742-4.802 0-8.742-3.94-8.742-8.742zm25.6 0h17.484V53c0 4.82-3.826 8.742-8.742 8.742-4.802 0-8.743-3.94-8.743-8.742zm25.699 0h17.486V53c0 4.802-3.94 8.742-8.742 8.742-4.802 0-8.744-3.94-8.744-8.742zm25.601 0h17.485V53c0 4.802-3.94 8.742-8.743 8.742-4.802 0-8.742-3.94-8.742-8.742zm25.7 0h17.484V53c0 4.802-3.94 8.742-8.742 8.742-4.802 0-8.743-3.94-8.743-8.742zm-95.18 29.765a1.457 1.457 0 0 0-1.436 1.479v32.5a7.56 7.56 0 0 0 7.559 7.556h91.398a7.56 7.56 0 0 0 7.559-7.556V68.8a1.458 1.458 0 1 0-2.916 0v32.5c0 2.628-2.014 4.642-4.643 4.642h-7.642V73c0-2.61-2.147-4.758-4.756-4.758H76.9c-2.61 0-4.758 2.148-4.758 4.758v32.943H17.8c-2.629 0-4.643-2.014-4.643-4.642V68.8a1.457 1.457 0 0 0-1.48-1.479zm20.922.92c-2.278 0-4.157 1.881-4.157 4.158v14.5c0 2.278 1.88 4.157 4.157 4.157h21.2a1.457 1.457 0 0 0 .096-.002c2.221-.148 4.061-1.977 4.061-4.254V72.4c0-2.278-1.879-4.159-4.156-4.159zm0 2.916h21.2c.724 0 1.243.52 1.243 1.242v14.4c0 .72-.557 1.286-1.33 1.343H32.6c-.723 0-1.243-.52-1.243-1.243V72.4c0-.722.52-1.242 1.243-1.242zm44.3 0h19.9c.991 0 1.843.852 1.843 1.842v32.943H75.057V73c0-.99.853-1.842 1.843-1.842z"/></svg>