<svg xmlns="http://www.w3.org/2000/svg" viewBox="0 0 50 50"><path d="M49 33s-4.8-4.6-5.3-5.1l4.4-2.4c1.2-.6 1.8-1.9 1.6-3.2-.2-1.3-1.1-2.4-2.4-2.8l-16.9-4.6c-1.4-.3-2.8.1-3.7 1.1-.6.8-.8 1.8-.6 2.8l4.5 17c.5 1.7 2.3 2.7 4 2.2.8-.2 1.5-.8 1.9-1.5l2.4-4.2 5.3 5.3c.6.6 1.5 1 2.4 1 .9-.1 1.7-.4 2.4-1 .6-.6 1-1.5 1-2.4 0-.7-.4-1.6-1-2.2zm-.7 4c-.5.4-1.1.7-1.7.7-.6 0-1.2-.3-1.6-.7l-5.4-5.5c-.2-.2-.4-.3-.7-.3h-.1c-.3 0-.5.2-.6.4L35.7 36c-.4.7-1.1 1.1-1.9 1.1-1 0-1.9-.6-2.2-1.6l-4.5-17c-.1-.7 0-1.4.4-1.9.6-.7 1.6-1 2.5-.8l17 4.7c.9.3 1.5 1 1.7 1.9.1.9-.3 1.7-1.1 2.1L43 27.1c-.2.1-.4.4-.4.6 0 .3.1.6.3.8l5.3 5.2c.4.5.7 1.1.7 1.7.1.6-.2 1.1-.6 1.6z"/><path d="M39.8 38.3c-.3 0-.5.2-.5.5 0 2-2.1 3.7-4.5 3.7H5.5C3 42.5 1 40.9 1 38.8V11.2c0-2 2.1-3.7 4.5-3.7h29.3c2.5 0 4.5 1.6 4.5 3.7 0 .3.2.5.5.5s.5-.2.5-.5c0-2.6-2.4-4.7-5.5-4.7H5.5c-3 0-5.5 2.1-5.5 4.7v27.7c0 2.7 2.4 4.7 5.5 4.7h29.3c3 0 5.5-2.1 5.5-4.7 0-.3-.2-.6-.5-.6z"/><path d="M20.3 16.2H5.6c-.3 0-.5.2-.5.5s.2.5.5.5h14.7c.3 0 .5-.2.5-.5s-.2-.5-.5-.5zm0 6.3H5.6c-.3 0-.5.2-.5.5s.2.5.5.5h14.7c.3 0 .5-.2.5-.5s-.2-.5-.5-.5zm0 6.5H5.6c-.3 0-.5.2-.5.5s.3.5.5.5h14.7c.3 0 .5-.2.5-.5s-.2-.5-.5-.5z"/></svg>