<svg xmlns="http://www.w3.org/2000/svg" viewBox="0 0 128 128" height="128" width="128"><path d="M32.4 4.543c-3.883 0-7.158 3.167-7.158 7.156v87.102c0 3.883 3.169 7.156 7.158 7.156h37.8a7.15 7.15 0 0 0 7.157-7.156V11.699c0-3.883-3.168-7.156-7.158-7.156zm0 2.914h37.8a4.217 4.217 0 0 1 4.243 4.242v87.102c0 2.44-1.803 4.242-4.244 4.242H32.4c-2.41 0-4.242-1.926-4.242-4.242V11.699c0-2.41 1.926-4.242 4.242-4.242z"/><path class="st1" d="M34.2 79.1c-.3 0-.6 0-.9-.1-.3-.1-.5-.1-.7-.2v-1.1h.1c.2.2.5.3.7.4.3.1.5.2.8.2h.3c.1 0 .2 0 .3-.1.1 0 .1-.1.2-.1s.1-.1.1-.2 0-.2-.1-.3c-.1-.1-.2-.1-.3-.2-.2 0-.3-.1-.5-.1s-.3-.1-.5-.1c-.3-.1-.6-.3-.7-.5s-.2-.5-.2-.8c0-.4.2-.8.5-1 .4-.3.8-.4 1.3-.4.3 0 .5 0 .8.1.3.1.5.1.7.2v1H36c-.2-.1-.4-.3-.6-.4-.2-.1-.5-.1-.7-.1h-.3c-.1 0-.2 0-.2.1-.1 0-.1.1-.2.1s-.1.1-.1.2 0 .2.1.3.2.1.5.2c.2 0 .3.1.4.1s.3.1.4.1c.3.1.5.3.7.5.2.2.2.4.2.8s-.2.8-.5 1.1c-.4.1-.9.3-1.5.3zM40.7 76.7c0 .4-.1.8-.3 1.1-.2.3-.4.6-.7.8-.2.2-.5.2-.8.3-.3 0-.6.1-.9.1h-1.4v-4.5H38c.3 0 .6 0 .9.1.3 0 .5.1.8.3.3.2.5.4.7.8s.3.6.3 1zm-1.1 0c0-.3-.1-.5-.2-.8s-.3-.4-.5-.5c-.2-.1-.3-.1-.5-.1h-.6v2.8h.6c.1 0 .3-.1.5-.2s.3-.3.4-.5c.2-.1.3-.4.3-.7zM46.4 76.7c0 .4 0 .7-.1 1s-.2.5-.3.7c-.1.2-.3.3-.5.4-.2.1-.5.1-.8.1-.3 0-.6 0-.8-.1-.2-.1-.4-.2-.5-.4-.1-.2-.2-.4-.3-.7-.1-.3-.1-.6-.1-1s0-.7.1-1c.1-.3.2-.5.3-.7.1-.2.3-.3.5-.4.2-.1.5-.1.8-.1.3 0 .6.1.8.2.2.1.4.3.5.5.1.2.2.4.3.7.1.1.1.5.1.8zm-1.1 0c0-.6 0-.9-.1-1.2-.1-.2-.2-.3-.5-.3-.2 0-.4.1-.5.3-.1.2-.1.6-.1 1.2 0 .5 0 .9.1 1.2.1.2.2.3.5.3.2 0 .4-.1.5-.3 0-.2.1-.6.1-1.2zM50.3 76.7c0 .4 0 .7-.1 1s-.2.5-.3.7c-.1.2-.3.3-.5.4-.2.1-.5.1-.8.1-.3 0-.6 0-.8-.1-.2-.1-.4-.2-.5-.4-.2-.1-.3-.4-.3-.6-.1-.3-.1-.6-.1-1s0-.7.1-1c.1-.3.2-.5.3-.7.1-.2.3-.3.5-.4.2-.1.5-.1.8-.1.3 0 .6.1.8.2.2.1.4.3.5.5.1.2.2.4.3.7.1 0 .1.4.1.7zm-1.1 0c0-.6 0-.9-.1-1.2-.1-.2-.2-.3-.5-.3-.2 0-.4.1-.5.3-.1.3-.1.7-.1 1.2s0 .9.1 1.2c.1.2.2.3.5.3.2 0 .4-.1.5-.3 0-.2.1-.6.1-1.2zM54.2 76.7c0 .4 0 .7-.1 1s-.2.5-.3.7c-.1.2-.3.3-.5.4-.2.1-.5.1-.8.1-.3 0-.6 0-.8-.1-.2-.1-.4-.2-.5-.4-.1-.2-.2-.4-.3-.7-.1-.3-.1-.6-.1-1s0-.7.1-1c.1-.3.2-.5.3-.7.1-.2.3-.3.5-.4.2-.1.5-.1.8-.1.3 0 .6.1.8.2.2.1.4.3.5.5.1.2.2.4.3.7.1.1.1.5.1.8zm-1.1 0c0-.6 0-.9-.1-1.2-.1-.2-.2-.3-.5-.3-.2 0-.4.1-.5.3-.1.2-.1.6-.1 1.2 0 .5 0 .9.1 1.2.1.2.2.3.5.3.2 0 .4-.1.5-.3.1-.2.1-.6.1-1.2zM58.2 76.7c0 .4 0 .7-.1 1s-.2.5-.3.7c-.1.2-.3.3-.5.4-.2.1-.5.1-.8.1-.3 0-.6 0-.8-.1-.2-.1-.4-.2-.5-.4-.1-.2-.2-.4-.3-.7-.1-.3-.1-.6-.1-1s0-.7.1-1c.1-.3.2-.5.3-.7.1-.2.3-.3.5-.4.2-.1.5-.1.8-.1.3 0 .6.1.8.2.2.1.4.3.5.5.1.2.2.4.3.7 0 .1.1.5.1.8zm-1.2 0c0-.6 0-.9-.1-1.2-.1-.2-.2-.3-.5-.3-.2 0-.4.1-.5.3-.1.2-.1.6-.1 1.2 0 .5 0 .9.1 1.2.1.2.2.3.5.3.2 0 .4-.1.5-.3.1-.2.1-.6.1-1.2zM62.1 76.7c0 .4 0 .7-.1 1s-.2.5-.3.7c-.1.2-.3.3-.5.4-.2.1-.5.1-.8.1-.3 0-.6 0-.8-.1-.2-.1-.4-.2-.5-.4-.1-.2-.2-.4-.3-.7-.1-.3-.1-.6-.1-1s0-.7.1-1c.1-.3.2-.5.3-.7.1-.2.3-.3.5-.4.2-.1.5-.1.8-.1.3 0 .6.1.8.2.2.1.4.3.5.5.1.2.2.4.3.7.1.1.1.5.1.8zm-1.1 0c0-.6 0-.9-.1-1.2-.1-.2-.2-.3-.5-.3-.2 0-.4.1-.5.3-.1.2-.1.6-.1 1.2 0 .5 0 .9.1 1.2.1.2.2.3.5.3.2 0 .4-.1.5-.3 0-.2.1-.6.1-1.2zM66 76.7c0 .4 0 .7-.1 1s-.2.5-.3.7c-.1.2-.3.3-.5.4-.2.1-.5.1-.8.1-.3 0-.6 0-.8-.1-.2-.1-.4-.2-.5-.4-.1-.2-.2-.4-.3-.7-.1-.3-.1-.6-.1-1s0-.7.1-1c.1-.3.2-.5.3-.7.1-.2.3-.3.5-.4.2-.1.5-.1.8-.1.3 0 .6.1.8.2.2.1.4.3.5.5.1.2.2.4.3.7.1.1.1.5.1.8zm-1.1 0c0-.6 0-.9-.1-1.2-.1-.2-.2-.3-.5-.3-.2 0-.4.1-.5.3-.1.2-.1.6-.1 1.2 0 .5 0 .9.1 1.2.1.2.2.3.5.3.2 0 .4-.1.5-.3.1-.2.1-.6.1-1.2zM70 77.7c0 .2 0 .4-.1.5-.1.2-.2.3-.3.4-.2.1-.3.2-.6.3-.2.1-.5.1-.8.1-.3 0-.6 0-.8-.1l-.6-.3c-.1-.1-.2-.3-.3-.4s-.1-.3-.1-.5c0-.3.1-.5.2-.6s.3-.3.6-.4c-.3-.1-.4-.3-.6-.5s-.2-.4-.2-.6c0-.2 0-.3.1-.5s.2-.3.3-.4c.1-.1.3-.2.5-.3s.4-.1.7-.1c.3 0 .5 0 .7.1.2.1.4.1.5.2.1.1.2.2.3.4s.1.3.1.5-.1.4-.2.6c-.1.2-.3.3-.6.4.3.1.5.3.7.5.4.2.5.5.5.7zm-1.1.1c0-.1 0-.3-.1-.3s-.2-.2-.4-.3c-.1 0-.1-.1-.3-.1-.1-.1-.2-.1-.2-.1-.1.1-.1.2-.2.3s-.1.2-.1.4.1.4.2.5c.1.1.3.2.5.2h.2c.1 0 .1 0 .2-.1.1 0 .1-.1.2-.2s0-.2 0-.3zm-.1-2.1c0-.2-.1-.3-.2-.4-.1-.1-.2-.1-.4-.1s-.3 0-.4.1-.2.2-.2.3c0 .1 0 .2.1.3.1.1.2.1.3.2.1 0 .1.1.2.1s.2.1.3.1c.1-.1.1-.2.2-.3s.1-.2.1-.3z"/><path d="M32.785 39.143a1.043 1.043 0 0 0-1.027 1.056v29.4a1.043 1.043 0 1 0 2.084 0V40.2a1.043 1.043 0 0 0-1.057-1.056zM36.885 39.143a1.043 1.043 0 0 0-1.028 1.056v29.4a1.043 1.043 0 1 0 2.086 0V40.2a1.043 1.043 0 0 0-1.058-1.056zM40.99 39.184a.608.608 0 0 0-.597.617V70.1a.608.608 0 1 0 1.214 0V39.8a.608.608 0 0 0-.617-.616zM45.094 39.354a.44.44 0 0 0-.436.447V70.1a.441.441 0 1 0 .883 0V39.8a.44.44 0 0 0-.447-.446zM49.184 39.143a1.043 1.043 0 0 0-1.026 1.056v29.4a1.043 1.043 0 1 0 2.084 0V40.2a1.043 1.043 0 0 0-1.058-1.056zM53.291 39.184a.608.608 0 0 0-.6.617V70.1a.608.608 0 1 0 1.217 0V39.8a.608.608 0 0 0-.617-.616zM57.484 39.143a1.043 1.043 0 0 0-1.027 1.056v29.4a1.043 1.043 0 1 0 2.086 0V40.2a1.043 1.043 0 0 0-1.059-1.056zM61.584 39.143a1.043 1.043 0 0 0-1.027 1.056v29.4a1.043 1.043 0 1 0 2.086 0V40.2a1.043 1.043 0 0 0-1.059-1.056zM65.691 39.184a.608.608 0 0 0-.6.617V70.1a.608.608 0 1 0 1.218 0V39.8a.608.608 0 0 0-.618-.616zM69.791 39.184a.608.608 0 0 0-.6.617V70.1a.608.608 0 1 0 1.217 0V39.8a.608.608 0 0 0-.617-.616zM37.277 5.422A1.457 1.457 0 0 0 35.842 6.9v.3c0 2.555 2.102 4.657 4.658 4.657h22c2.556 0 4.658-2.102 4.658-4.658V6.9a1.458 1.458 0 1 0-2.916 0v.3c0 1.044-.698 1.743-1.742 1.743h-22c-1.044 0-1.742-.7-1.742-1.744V6.9a1.457 1.457 0 0 0-1.48-1.478zM82.838 25.643c-2.266-.059-4.106.695-5.354 1.888-1.247 1.194-1.908 2.724-2.283 4.18-.374 1.456-.467 2.868-.482 3.947-.008.54.006.996.017 1.32l.012.37c.002.074-.088.307.04-.202-.158.628-.024.652.003.764.027.112.052.189.08.27.056.161.123.328.205.525.165.394.39.9.664 1.494a262.262 262.262 0 0 0 2.01 4.235c1.39 2.876 2.652 5.418 2.793 5.703V71.8a1.457 1.457 0 1 0 2.914 0v-22a1.457 1.457 0 0 0-.152-.649s-1.472-2.97-2.93-5.986a261.122 261.122 0 0 1-1.986-4.184 46.98 46.98 0 0 1-.623-1.4c-.053-.127-.08-.201-.106-.27l.002-.029c-.002-.118-.008-.248-.014-.402a24.23 24.23 0 0 1-.015-1.182c.013-.94.103-2.142.39-3.262.288-1.119.771-2.125 1.477-2.8.581-.556 1.411-.884 2.563-.985l11.32 17.692 9.26 26.107v36.25a1.457 1.457 0 0 0 .31.899l10.1 12.9a1.457 1.457 0 1 0 2.295-1.797l-9.791-12.504V72.2a1.457 1.457 0 0 0-.084-.486l-9.399-26.5a1.457 1.457 0 0 0-.146-.299l-11.9-18.6a1.457 1.457 0 0 0-1.19-.671zM47.117 103.027a1.457 1.457 0 0 0-1.164 2.371l13.7 17.5a1.457 1.457 0 1 0 2.294-1.796l-13.699-17.5a1.457 1.457 0 0 0-1.13-.575zM20.8 48.443c-3.384 0-6.157 2.772-6.157 6.157v2.5c0 3.384 2.773 6.158 6.158 6.158h1.1c3.384 0 6.156-2.774 6.156-6.158v-2.5c0-3.385-2.772-6.157-6.157-6.157zm0 2.914h1.1a3.211 3.211 0 0 1 3.243 3.243v2.5a3.211 3.211 0 0 1-3.243 3.242h-1.1a3.213 3.213 0 0 1-3.243-3.242v-2.5a3.213 3.213 0 0 1 3.244-3.243zM20.8 63.943c-3.384 0-6.157 2.772-6.157 6.157v2.5c0 3.384 2.773 6.158 6.158 6.158h1.1c3.384 0 6.156-2.774 6.156-6.158v-2.5c0-3.385-2.772-6.157-6.157-6.157zm0 2.914h1.1a3.211 3.211 0 0 1 3.243 3.243v2.5a3.211 3.211 0 0 1-3.243 3.242h-1.1a3.213 3.213 0 0 1-3.243-3.242v-2.5a3.213 3.213 0 0 1 3.244-3.243zM21.9 79.543c-2.994 0-5.457 2.462-5.457 5.457v2.4c0 2.995 2.462 5.457 5.457 5.457h.7c2.994 0 5.457-2.462 5.457-5.457V85c0-2.995-2.462-5.457-5.457-5.457zm0 2.914h.7A2.542 2.542 0 0 1 25.143 85v2.4a2.542 2.542 0 0 1-2.543 2.543h-.7a2.542 2.542 0 0 1-2.543-2.543V85a2.542 2.542 0 0 1 2.543-2.543zM20.621 29.88c-1.462-.046-2.998.02-4.404.423-1.406.402-2.831 1.252-3.389 2.804a1.457 1.457 0 0 0-.016.045c-.838 2.601-.43 4.998.688 6.827 1.118 1.828 2.835 3.121 4.576 4.074 1.742.952 3.53 1.563 4.926 1.926.698.18 1.294.299 1.766.363.236.032.432.053.656.053.112 0 .222.003.431-.041.105-.023.238-.05.45-.17.212-.12.578-.408.709-.93a1.457 1.457 0 0 0-1.754-1.79c-.044-.003-.042 0-.102-.009-.312-.042-.822-.14-1.424-.297-1.204-.312-2.8-.864-4.26-1.662-1.458-.798-2.756-1.84-3.488-3.037-.726-1.188-.996-2.499-.402-4.375.145-.393.524-.718 1.436-.979.918-.263 2.221-.351 3.51-.31 2.575.082 5.052.627 5.052.627a1.457 1.457 0 1 0 .635-2.844s-2.672-.604-5.596-.697z"/></svg>