<svg xmlns="http://www.w3.org/2000/svg" width="50" height="50" viewBox="0 0 50 50"><path d="M47.549 19.928q0 .625-.705 1.364l-9.838 10.06 2.331 14.208q.027.199.027.568 0 .597-.284 1.009-.285.412-.827.412-.515 0-1.084-.341L25 40.502l-12.169 6.706q-.596.341-1.084.341-.57 0-.854-.412-.284-.412-.284-1.009 0-.17.054-.568l2.33-14.209-9.864-10.06q-.678-.767-.678-1.363 0-1.052 1.518-1.308l13.605-2.074 6.098-12.93Q24.187 2.451 25 2.451q.813 0 1.328 1.165l6.098 12.93 13.605 2.074q1.518.256 1.518 1.308z"/></svg>