<svg xmlns="http://www.w3.org/2000/svg" viewBox="0 0 50 50"><path d="M35.2 9.8L37.4 6c.2-.2.1-.5-.1-.7-.2-.2-.5-.1-.7.1v.1l-2.2 3.8c-2.3-1.1-4.9-1.8-7.4-2v-3c.8.1 1.5 0 2.3-.3l.2-.3-.1-.1C29 1.6 27 0 24.7 0s-4.5 1.7-4.5 3.7v.4l.4.1s.9 0 2.2.1v3.1C11 8.6 2.5 19.1 3.7 30.9s11.8 20.3 23.5 19c11.7-1.2 20.3-11.8 19-23.5-.7-7-4.8-13.2-11-16.6zM24.7 1c1.5-.1 2.9.8 3.4 2.2h-6.8c.5-1.4 1.9-2.3 3.4-2.2zm-.9 3.2h2v3H25c-.3 0-.8 0-1.2.1V4.2zM25 49C13.7 49 4.6 39.9 4.6 28.6S13.7 8.3 25 8.3c11.2 0 20.4 9.1 20.4 20.4C45.4 39.9 36.2 49 25 49z"/><path d="M34.1 18.4L26.5 26c-.5-.4-1.1-.6-1.8-.6-1.7 0-3 1.3-3 3s1.3 3 3 3 3-1.3 3-3c0-.6-.2-1.1-.5-1.6l7.6-7.6c.2-.2.2-.5 0-.7-.2-.2-.4-.2-.7-.1zm-9.4 11.8c-1.1 0-1.9-.9-1.9-1.9 0-1.1.9-1.9 1.9-1.9 1.1 0 1.9.9 1.9 1.9 0 1.1-.8 1.9-1.9 1.9z"/><path d="M25 10.8c-9.8 0-17.8 8-17.8 17.8s8 17.8 17.8 17.8 17.8-8 17.8-17.8-8-17.8-17.8-17.8zm0 34.6c-9.3 0-16.8-7.5-16.8-16.8S15.7 11.8 25 11.8s16.8 7.5 16.8 16.8S34.3 45.4 25 45.4z"/></svg>