<svg xmlns="http://www.w3.org/2000/svg" viewBox="0 0 50 50" height="50" width="50"><g stroke-width=".2"><path d="M46 21.6v-4.8C46 6.3 38.1 0 25 0S4 6.3 4 16.8v4.8C2 22 .6 23.7.6 25.7v6.6c0 2.3 1.9 4.2 4.2 4.2.4-.1.7-.5.6-.9-.1-.3-.3-.6-.6-.6-1.5 0-2.6-1.2-2.6-2.6v-6.6c0-1.5 1.2-2.6 2.6-2.6.4 0 .8-.3.8-.8v-5.5C5.6 7.2 12.8 1.6 25 1.6s19.4 5.7 19.4 15.2v5.5c0 .4.3.8.8.8 1.5 0 2.6 1.2 2.6 2.6v6.6c0 1.5-1.2 2.6-2.6 2.7-.4 0-.8.3-.8.8v5.5c0 2.3-1.8 4.2-4.1 4.2H40c-.4-2-2.4-3.4-4.4-2.9S32.2 45 32.7 47c.4 2 2.4 3.4 4.4 2.9 1.5-.3 2.6-1.5 2.9-2.9h.2c3.2 0 5.8-2.6 5.8-5.8v-4.8c2-.4 3.4-2.1 3.4-4.1v-6.6c0-2-1.5-3.7-3.4-4.1zm-9.6 26.8c-1.2 0-2.2-1-2.2-2.2s1-2.2 2.2-2.2 2.2 1 2.2 2.2c0 1.2-1 2.2-2.2 2.2z"/><path d="M42.3 35V23.4c0-.4-.3-.8-.8-.8-.4 0-.8.3-.8.8V35c0 .4.3.8.8.8s.8-.4.8-.8zm-34-12.4c-.4 0-.7.4-.7.8V35c0 .4.3.8.8.8.4 0 .8-.3.8-.8V23.4c0-.4-.4-.8-.9-.8.1 0 .1 0 0 0z"/></g></svg>