<svg xmlns="http://www.w3.org/2000/svg" viewBox="0 0 50 50" height="50" width="50">&gt;<path d="M41.9 34.5V23.3c0-.9-.7-1.6-1.6-1.6-.9 0-1.6.7-1.6 1.6v11.2c0 .9.7 1.6 1.6 1.6.9-.1 1.5-.7 1.6-1.6z"/><path d="M46 20.8v-3.9C46 6.3 38.2 0 25 0S4 6.3 4 16.9v3.9c-1.9.7-3.1 2.5-3.2 4.5v6.6c0 2.6 2.2 4.8 4.8 4.8.9 0 1.6-.7 1.6-1.6 0-.9-.7-1.6-1.6-1.6-.9-.1-1.5-.7-1.6-1.6v-6.6c.1-.9.7-1.5 1.6-1.6.9 0 1.6-.7 1.6-1.6v-5.2C7.2 4.6 19.7 3.2 25 3.2s17.8 1.3 17.8 13.7v5.2c0 .9.7 1.6 1.6 1.6.9 0 1.6.7 1.6 1.6v6.6c0 .9-.7 1.6-1.6 1.6-.9 0-1.6.7-1.6 1.6v5.4c-.1 1.6-1.2 2.9-2.7 3.2-.7-1.8-2.4-2.9-4.3-2.9-2.5 0-4.6 2.1-4.6 4.6 0 2.5 2.1 4.6 4.6 4.6 1.9 0 3.6-1.2 4.3-3 3.3-.3 5.9-3.1 5.9-6.4v-4.2c1.9-.7 3.2-2.5 3.2-4.5v-6.6c-.1-2-1.3-3.8-3.2-4.5zm-10.2 26c-.8 0-1.4-.6-1.4-1.4S35 44 35.8 44c.8 0 1.4.6 1.4 1.4 0 .8-.6 1.4-1.4 1.4z"/><path d="M9.6 21.7c-.9 0-1.6.7-1.6 1.6v11.2c0 .9.7 1.6 1.6 1.6s1.6-.7 1.6-1.6V23.3c0-.9-.7-1.6-1.6-1.6z"/></svg>