<svg viewBox="0 0 32 32" xmlns="http://www.w3.org/2000/svg" height="32" width="32"><g data-name="44-Touch Gesture"><path d="M25 14h-2.25A1.91 1.91 0 0 0 21 13h-2V7a2 2 0 0 0-2-2h-2a2.09 2.09 0 0 0-1 .26A2 2 0 0 0 13 5h-2a2 2 0 0 0-2 2v7H7a2 2 0 0 0-2 2v9c0 1.08 1.29 3.21 2 4.3V32h2v-3a1 1 0 0 0-.17-.55A14.3 14.3 0 0 1 7 25v-9h2v4h2V7h2v11h2V7h2v14h2v-6h2.24a2 2 0 0 0-.24 1v6h2v-6h2v9a3.77 3.77 0 0 1-1.45 1.15A1 1 0 0 0 23 27v5h2v-4.41c.81-.49 2-1.42 2-2.59v-9a2 2 0 0 0-2-2z"/><path d="M14 2a7 7 0 0 1 7 7h2A9 9 0 0 0 5 9h2a7 7 0 0 1 7-7z"/></g></svg>