<svg xmlns="http://www.w3.org/2000/svg" viewBox="0 0 106 106" height="106" width="106"><switch><g><circle cx="53" cy="53" r="53"/><g><path d="M74.3 43.5c.3.5.3 1 .3 1.5v.9c0 2.8-5.1 5.1-11.2 5.1-2.5 0-4.8-.4-6.6-1-.2-.8-.5-1.5-.9-2.1v-.1c.7-1 1-2 1.1-2.7 2 .6 4.5 1 7 1 4.4 0 8-1 10.3-2.6zM64 39.1c-4.5 0-8.5-1.1-10.8-2.8-.4.5-.8 1.1-.8 1.6v.1c3.1 1.5 4.2 3.5 4.5 4.9 1.9.6 4.2 1 6.6 1 6.1 0 11.2-2.3 11.2-5.1v-.9c0-.5 0-1-.3-1.5-2.4 1.7-6 2.7-10.4 2.7zm-.5-13.2c-6.1 0-11.2 2.3-11.2 5.1v.9c0 2.8 5.1 5.1 11.2 5.1s11.2-2.3 11.2-5.1V31c-.1-2.8-5.1-5.1-11.2-5.1zM42.7 50c6.1 0 11.2-2.3 11.2-5.1V44c0-2.8-5.1-5.1-11.2-5.1S31.5 41.2 31.5 44v.9c.1 2.8 5.1 5.1 11.2 5.1zm0 7c6.1 0 11.2-2.3 11.2-5.1V51c0-.5 0-1-.3-1.5-2.3 1.7-5.9 2.7-10.3 2.7-4.5 0-8.5-1.1-10.8-2.8-.4.5-.8 1.1-.8 1.6v.9c-.1 2.8 4.9 5.1 11 5.1zM80.7 61.4L68.4 52v6.3H53l-6.2 6.3h21.5v6.3l12.4-9.5z"/><path d="M59.1 67.6H37.6v-6.3l-12.3 9.4 12.3 9.4v-6.3H53l6.1-6.2z"/></g></g></switch></svg>