<svg xmlns="http://www.w3.org/2000/svg" height="49.652" width="49.652" viewBox="0 0 49.652 49.652"><path fill="none" d="M-1-1h1026v1026H-1z"/><path d="M23.081.019C17.148.46 11.736 2.899 7.486 7.052a24.78 24.78 0 0 0-7.28 20.927c1.238 9.696 8.076 17.772 17.469 20.63 7.262 2.21 15.343.899 21.5-3.483 7.565-5.389 11.5-14.33 10.331-23.481-1.237-9.696-8.075-17.772-17.468-20.63C29.244.163 25.985-.198 23.081.02zm1.896 15.4c1.271.126 1.907.327 2.193.7.075.102.195.354.264.56.149.436.154.934.063 4.657-.057 2.325-.023 3.04.166 3.556.223.59.716.86 1.151.636.395-.206 1.317-1.22 1.919-2.12 1.391-2.06 2.239-3.659 3.258-6.127.207-.487.482-.808.768-.882.114-.035 1.735-.063 3.728-.069l3.523-.011.297.126c.384.171.533.395.533.801 0 .774-.808 2.36-2.194 4.302-.189.269-.904 1.22-1.586 2.119-1.506 1.981-1.833 2.445-2.062 2.926-.286.607-.217 1.106.235 1.695.132.167.796.837 1.478 1.49 1.907 1.826 2.772 2.789 3.476 3.842.504.762.699 1.323.619 1.805-.04.263-.304.578-.602.733-.355.177-.899.212-3.894.252l-2.835.04-.458-.155c-1.169-.39-1.948-1.037-3.717-3.087-.98-1.134-1.707-1.69-2.211-1.695-.464 0-1.054.618-1.306 1.386-.172.515-.235.91-.286 1.804-.063 1.054-.19 1.3-.836 1.57-.235.102-3.156.137-3.93.056-1.551-.171-2.989-.658-4.415-1.5-2.067-1.214-3.333-2.302-4.69-4.032-2.36-3.013-3.97-5.578-5.922-9.45-.756-1.506-1.644-3.453-1.787-3.917-.143-.481.063-.877.532-1.025.16-.052 1.054-.08 3.116-.11l2.892-.028.338.126c.533.206.756.47 1.117 1.346.31.739 1.976 4.083 2.497 5.017.533.945 1.1 1.735 1.586 2.205.602.59.87.733 1.295.699.36-.035.458-.115.681-.602.544-1.174.63-5.143.143-6.7-.28-.888-.698-1.226-1.855-1.472-.2-.046-.2-.115-.017-.384.446-.642 1.242-.95 2.76-1.077.83-.069 3.293-.074 3.975-.006z"/></svg>