<svg xmlns="http://www.w3.org/2000/svg" width="97.27877mm" height="7.7627797mm" viewBox="0 0 97.27877 7.7627797" version="1.1" id="svg3775" ><defs id="defs3769" /><g id="layer1" transform="translate(-5.0329414,-9.6367514)"><path d="m 93.437431,11.015891 c -0.33073,0 -0.59862,0.2712 -0.59862,0.60193 v 3.80007 c 0,0.33073 0.26789,0.60193 0.59862,0.60193 h 2.59953 c 0.33073,0 0.60192,-0.2712 0.60192,-0.60193 0,-0.33072 -0.27119,-0.59862 -0.60192,-0.59862 h -1.99761 v -0.70114 h 1.99761 c 0.33073,0 0.60192,-0.2712 0.60192,-0.59862 0,-0.33073 -0.27119,-0.60193 -0.60192,-0.60193 h -1.99761 v -0.69784 h 1.99761 c 0.33073,0 0.60192,-0.27119 0.60192,-0.60192 0,-0.33073 -0.27119,-0.60193 -0.60192,-0.60193 z m 7.672909,1.20385 v 0.69784 h -2.599529 v -0.69784 z m -3.800079,-0.60192 v 3.80007 c 0,0.33073 0.26789,0.60193 0.59862,0.60193 0.33073,0 0.60193,-0.2712 0.60193,-0.60193 v -1.29976 h 1.05172 l 1.723099,1.72641 c 0.23482,0.23481 0.61516,0.23151 0.84997,0 0.23482,-0.23482 0.23482,-0.61516 0,-0.84998 l -0.87643,-0.87643 h 0.46633 0.0298 l 0.0298,-0.003 0.0298,-0.003 0.0298,-0.007 0.0298,-0.01 0.0265,-0.007 0.0265,-0.01 0.0298,-0.0132 0.0231,-0.01 0.0265,-0.0165 0.0265,-0.0132 0.0232,-0.0165 0.0231,-0.0165 0.0231,-0.0198 0.0198,-0.0198 0.0198,-0.0198 0.0198,-0.0198 0.0198,-0.0232 0.0165,-0.0232 0.0165,-0.0232 0.0165,-0.0264 0.0132,-0.0265 0.0132,-0.0265 0.01,-0.0265 0.007,-0.0132 0.01,-0.0265 0.01,-0.043 0.007,-0.0298 0.003,-0.0298 0.003,-0.0298 0.003,-0.0298 v -1.91824 c 0,-0.33073 -0.2712,-0.59862 -0.60193,-0.59862 h -3.800079 c -0.33073,0 -0.59862,0.26789 -0.59862,0.59862 z m -14.17505,-0.59862 c -0.33073,0 -0.60192,0.26789 -0.60192,0.59862 v 3.80007 c 0,0.33073 0.27119,0.60193 0.60192,0.60193 0.33073,0 0.60193,-0.2712 0.60193,-0.60193 v -3.19815 h 2.59622 v 3.19815 c 0,0.33073 0.2712,0.60193 0.60193,0.60193 0.33073,0 0.60193,-0.2712 0.60193,-0.60193 v -3.80007 c 0,-0.33073 -0.2712,-0.59862 -0.60193,-0.59862 z m 8.43029,0 h -2.77151 c -0.33073,0 -0.60193,0.26789 -0.60193,0.59862 0,0.33073 0.2712,0.60192 0.60193,0.60192 h 0.78383 v 3.19815 c 0,0.33073 0.27119,0.60193 0.60192,0.60193 0.33073,0 0.60193,-0.2712 0.60193,-0.60193 v -3.19815 h 0.78383 c 0.33073,0 0.60193,-0.27119 0.60193,-0.60192 0,-0.33073 -0.2712,-0.59862 -0.60193,-0.59862 z m -14.08906,0 c -0.32743,0 -0.59862,0.26789 -0.59862,0.59862 v 3.80007 c 0,0.33073 0.27119,0.60193 0.59862,0.60193 h 3.80338 c 0.32742,0 0.59862,-0.2712 0.59862,-0.60193 v -3.80007 c 0,-0.33073 -0.2712,-0.59862 -0.60193,-0.59862 -0.32742,0 -0.59862,0.26789 -0.59862,0.59862 v 3.20145 h -2.59953 v -3.20145 c 0,-0.33073 -0.27119,-0.59862 -0.60192,-0.59862 z m -2.47055,1.20054 v 2.59953 h -2.59953 v -2.59953 z m -3.19815,-1.20054 c -0.33073,0 -0.60193,0.26789 -0.60193,0.59862 v 3.80007 c 0,0.33073 0.2712,0.60193 0.60193,0.60193 h 3.80008 c 0.33073,0 0.59862,-0.2712 0.59862,-0.60193 v -3.80007 c 0,-0.33073 -0.26789,-0.59862 -0.59862,-0.59862 z m -4.83195,0 c -0.33073,0 -0.60193,0.26789 -0.60193,0.59862 v 3.80007 c 0,0.33073 0.2712,0.60193 0.60193,0.60193 h 2.94348 c 0.32743,0 0.59862,-0.2712 0.59862,-0.60193 0,-0.33072 -0.27119,-0.59862 -0.59862,-0.59862 h -2.34156 v -2.59953 h 2.34156 c 0.32743,0 0.59862,-0.27119 0.59862,-0.60192 0,-0.33073 -0.27119,-0.59862 -0.59862,-0.59862 z m -6.26732,0.59862 0.003,1.93145 v 0.0132 l 0.003,0.0331 0.003,0.0264 0.007,0.0298 0.007,0.0298 0.01,0.0298 0.01,0.0265 0.01,0.0265 0.0132,0.0265 0.0132,0.0264 0.0165,0.0232 0.0165,0.0264 0.0165,0.0199 0.0198,0.0232 0.0165,0.0232 0.0231,0.0198 0.0198,0.0198 0.0231,0.0165 0.0231,0.0199 0.0231,0.0165 0.0265,0.0132 0.0231,0.0132 0.0265,0.0132 0.0265,0.0132 0.0298,0.01 0.0265,0.007 0.0298,0.01 0.0298,0.003 0.0298,0.007 0.0298,0.003 h 0.0298 3.21468 v 0.70115 h -3.19815 c -0.33073,0 -0.60192,0.2679 -0.60192,0.59862 0,0.33073 0.27119,0.60193 0.60192,0.60193 h 3.80008 c 0.33073,0 0.60193,-0.2712 0.60193,-0.60193 v -1.91492 l -0.003,-0.0298 -0.003,-0.0298 -0.003,-0.0298 -0.007,-0.0298 -0.007,-0.0298 -0.0132,-0.0397 -0.0165,-0.043 -0.0132,-0.0265 -0.0132,-0.0232 -0.0165,-0.0265 -0.0165,-0.0232 -0.0165,-0.0232 -0.0198,-0.0231 -0.0165,-0.0198 -0.0198,-0.0199 -0.0231,-0.0198 -0.0231,-0.0198 -0.0231,-0.0165 -0.0231,-0.0165 -0.0232,-0.0165 -0.0265,-0.0132 -0.0265,-0.0132 -0.0265,-0.01 -0.0265,-0.01 -0.0298,-0.01 -0.0298,-0.007 -0.0298,-0.007 -0.0298,-0.003 -0.0298,-0.003 -0.0298,-0.003 h -3.21463 v -0.69785 h 3.19815 c 0.33073,0 0.60193,-0.27119 0.60193,-0.60192 0,-0.33073 -0.2712,-0.59862 -0.60193,-0.59862 h -3.80008 c -0.33072,0 -0.60192,0.26789 -0.60192,0.59862 z m -1.2667,-0.59862 c -0.33072,0 -0.60192,0.26789 -0.60192,0.59862 v 3.80007 c 0,0.33073 0.2712,0.60193 0.60192,0.60193 0.33073,0 0.60193,-0.2712 0.60193,-0.60193 v -3.80007 c 0,-0.33073 -0.2712,-0.59862 -0.60193,-0.59862 z m -5.09322,1.17409 h 1.3196 c 0.72761,0 1.32623,0.59862 1.32623,1.32622 0,0.7276 -0.59862,1.32622 -1.32623,1.32622 h -1.3196 v -1.33284 c 0,-0.0331 0,-0.0661 0,-0.0992 0,-0.38365 0,-0.76399 0,-1.14763 z m -1.17409,1.14763 v 0.0728 c 0,0.0331 0,0.0661 0,0.0992 v 0.0761 c 0,0.59862 0,1.19724 0,1.79586 v 0.0331 c 0,0.33072 0.27119,0.60523 0.60192,0.60192 h 1.89177 c 1.37584,0 2.50032,-1.12448 2.50032,-2.50031 0,-1.37583 -1.12448,-2.50031 -2.50032,-2.50031 h -1.89177 c -0.33073,-0.003 -0.60192,0.2712 -0.60192,0.59862 v 0.0364 c 0,0.56224 0,1.12448 0,1.68672" style="fill:#dbc335;fill-opacity:1;fill-rule:evenodd;stroke:none;stroke-width:0.03307291" id="path50"/><path d="m 44.668101,11.015891 c -0.33073,0 -0.59862,0.2712 -0.59862,0.60193 v 3.80007 c 0,0.33073 0.2712,0.60193 0.59862,0.60193 h 2.59953 c 0.33073,0 0.60193,-0.2712 0.60193,-0.60193 0,-0.32742 -0.2712,-0.59862 -0.60193,-0.59862 h -1.9976 v -0.70114 h 1.9976 c 0.33073,0 0.60193,-0.2712 0.60193,-0.59862 0,-0.33073 -0.2712,-0.60193 -0.60193,-0.60193 h -1.9976 v -0.69784 h 1.9976 c 0.33073,0 0.60193,-0.27119 0.60193,-0.60192 0,-0.33073 -0.2712,-0.60193 -0.60193,-0.60193 z m 3.86292,0.60193 c 0,0.33073 0.2712,0.60192 0.60193,0.60192 h 0.78382 v 3.19815 c 0,0.33073 0.2712,0.60193 0.60193,0.60193 0.33073,0 0.59862,-0.2712 0.59862,-0.60193 v -3.19815 h 0.78714 c 0.33073,0 0.59862,-0.27119 0.59862,-0.60192 0,-0.33073 -0.26789,-0.60193 -0.59862,-0.60193 h -2.77151 c -0.33073,0 -0.60193,0.2712 -0.60193,0.60193 z m -6.32685,0.60192 v 0.69784 h -2.59622 v -0.69784 z m -3.80008,-0.60192 v 3.80007 c 0,0.33073 0.2712,0.60193 0.60193,0.60193 0.33073,0 0.60193,-0.2712 0.60193,-0.60193 v -1.29976 h 1.04841 l 1.7264,1.72641 c 0.23151,0.23481 0.61516,0.23481 0.84998,0 0.23151,-0.23482 0.23151,-0.61516 0,-0.84998 l -0.87643,-0.87643 h 0.46302 0.0331 l 0.0298,-0.003 0.0298,-0.003 0.0298,-0.007 0.0265,-0.007 0.043,-0.0165 0.0397,-0.0165 0.0265,-0.01 0.0265,-0.0165 0.0265,-0.0132 0.0231,-0.0165 0.0231,-0.0165 0.0232,-0.0198 0.0198,-0.0199 0.0198,-0.0198 0.0298,-0.0331 0.0165,-0.0232 0.0265,-0.0331 0.0165,-0.0265 0.0132,-0.0264 0.0132,-0.0232 0.01,-0.0298 0.01,-0.0265 0.01,-0.0298 0.007,-0.0264 0.007,-0.0298 0.003,-0.0298 0.003,-0.0298 0.003,-0.0298 v -1.91823 c 0,-0.33073 -0.2712,-0.60193 -0.60193,-0.60193 h -3.79997 c -0.33073,0 -0.60193,0.2712 -0.60193,0.60193 z m -4.20687,-0.60193 c -0.33073,0 -0.59862,0.2712 -0.59862,0.60193 v 3.80007 c 0,0.33073 0.26789,0.60193 0.59862,0.60193 h 2.94349 c 0.33073,0 0.60192,-0.2712 0.60192,-0.60193 0,-0.32742 -0.27119,-0.59862 -0.60192,-0.59862 h -2.34157 v -2.59953 h 2.34157 c 0.33073,0 0.60192,-0.27119 0.60192,-0.60192 0,-0.33073 -0.27119,-0.60193 -0.60192,-0.60193 z m -4.47146,0 c -0.33073,0 -0.59862,0.2712 -0.59862,0.60193 v 3.80007 c 0,0.33073 0.2712,0.60193 0.59862,0.60193 h 2.59953 c 0.33073,0 0.60193,-0.2712 0.60193,-0.60193 0,-0.32742 -0.2712,-0.59862 -0.60193,-0.59862 h -1.9976 v -0.70114 h 1.9976 c 0.33073,0 0.60193,-0.2712 0.60193,-0.59862 0,-0.33073 -0.2712,-0.60193 -0.60193,-0.60193 h -1.9976 v -0.69784 h 1.9976 c 0.33073,0 0.60193,-0.27119 0.60193,-0.60192 0,-0.33073 -0.2712,-0.60193 -0.60193,-0.60193 z m -6.26732,0.60193 v 1.91492 l 0.003,0.0298 v 0.0331 l 0.003,0.0132 0.007,0.0298 0.007,0.0298 0.007,0.0265 0.01,0.0298 0.0165,0.0397 0.0132,0.0265 0.0132,0.0265 0.0165,0.0232 0.0132,0.0232 0.0198,0.0265 0.0165,0.0198 0.0198,0.0232 0.0198,0.0198 0.0231,0.0198 0.0331,0.0265 0.0231,0.0165 0.0231,0.0165 0.0265,0.0132 0.0265,0.0132 0.0265,0.0132 0.0265,0.01 0.0265,0.01 0.0463,0.0132 0.0265,0.007 0.0298,0.003 0.0298,0.003 h 0.0331 3.21469 v 0.70114 h -3.19815 c -0.33073,0 -0.60193,0.2679 -0.60193,0.59862 0,0.33073 0.2712,0.60193 0.60193,0.60193 h 3.80008 c 0.33073,0 0.60192,-0.2712 0.60192,-0.60193 v -1.91492 l -0.003,-0.0298 -0.003,-0.0298 -0.003,-0.0298 -0.007,-0.0298 -0.007,-0.0298 -0.01,-0.0265 -0.01,-0.0264 -0.01,-0.0298 -0.0132,-0.0265 -0.0132,-0.0232 -0.0165,-0.0265 -0.0165,-0.0232 -0.0165,-0.0232 -0.0298,-0.0331 -0.0198,-0.0199 -0.0198,-0.0198 -0.0231,-0.0198 -0.0198,-0.0199 -0.0364,-0.0232 -0.0265,-0.0165 -0.0231,-0.0132 -0.0265,-0.0132 -0.0265,-0.01 -0.0298,-0.01 -0.0265,-0.01 -0.0298,-0.007 -0.0298,-0.007 -0.0298,-0.003 -0.0298,-0.003 -0.0298,-0.003 h -3.21809 v -0.69785 h 3.20146 c 0.33073,0 0.60192,-0.27119 0.60192,-0.60192 0,-0.33073 -0.27119,-0.60193 -0.60192,-0.60193 h -3.80008 c -0.33073,0 -0.60193,0.2712 -0.60193,0.60193" style="fill:#040307;fill-opacity:1;fill-rule:evenodd;stroke:none;stroke-width:0.03307291" id="path52"/><path d="m 14.356771,9.6367514 h 2.79467 c 2.13651,0 3.88276,1.7462496 3.88276,3.8827596 0,2.1332 -1.74625,3.87945 -3.88276,3.87945 h -2.79467 -0.0298 v 0 h -0.0232 -0.003 c -0.55893,0 -1.01534,-0.4564 -1.01534,-1.01534 v -2.4507 h 2.93026 c 0.15875,0.3638 0.52255,0.61516 0.94258,0.61516 0.56885,0 1.03187,-0.45972 1.03187,-1.02857 0,-0.56885 -0.46302,-1.03188 -1.03187,-1.03188 -0.42003,0 -0.78383,0.25467 -0.94258,0.61516 h -2.93026 v -2.4474 c 0,-0.55893 0.45641,-1.0186396 1.01534,-1.0186396 h 0.003 0.0232 v 0 h 0.0298" style="fill:#dbc335;fill-opacity:1;fill-rule:evenodd;stroke:none;stroke-width:0.03307291" id="path54"/> <path d="m 5.0335214,13.519511 v -2.86412 c 0,-0.55893 0.45641,-1.0186396 1.01534,-1.0186396 h 5.7282296 c 0.55893,0 1.01864,0.4597096 1.01864,1.0186396 v 0 c 0,0.55894 -0.45971,1.01534 -1.01864,1.01534 H 9.0419614 c -0.16206,-0.36049 -0.52256,-0.61515 -0.94589,-0.61515 -0.56885,0 -1.02857,0.46302 -1.02857,1.03187 0,0.56886 0.45972,1.03188 1.02857,1.03188 0.42333,0 0.78383,-0.25466 0.94589,-0.61847 h 2.7351296 v 0 h 0.0265 v 0 l 0.0264,0.003 v 0 h 0.0265 v 0 l 0.0231,0.003 v 0 l 0.0265,0.003 v 0 l 0.0265,0.003 v 0 l 0.0231,0.003 v 0 l 0.0265,0.003 v 0 l 0.0231,0.007 v 0 l 0.0265,0.007 v 0 l 0.0232,0.007 v 0 l 0.0231,0.007 v 0 l 0.0231,0.007 v 0 l 0.0265,0.01 v 0 l 0.0198,0.007 v 0.003 l 0.0231,0.007 v 0 l 0.0231,0.01 v 0 l 0.0231,0.0132 v 0 l 0.0232,0.01 v 0 l 0.0198,0.01 v 0 l 0.0231,0.0132 v 0 l 0.0198,0.0132 v 0 l 0.0199,0.0132 v 0 l 0.0231,0.0132 v 0 l 0.0198,0.0132 v 0 l 0.0198,0.0132 v 0 l 0.0198,0.0165 v 0 l 0.0165,0.0165 v 0 l 0.0198,0.0132 v 0 l 0.0199,0.0165 v 0 l 0.0165,0.0165 v 0 l 0.0165,0.0165 v 0.003 l 0.0165,0.0165 v 0 l 0.0165,0.0165 v 0 l 0.0165,0.0198 v 0 l 0.0165,0.0165 v 0 l 0.0165,0.0198 v 0 l 0.0132,0.0199 v 0 l 0.0165,0.0198 v 0 l 0.0132,0.0198 v 0 l 0.0132,0.0199 v 0 l 0.0132,0.0232 v 0 l 0.0132,0.0198 v 0 l 0.01,0.0198 v 0 l 0.0132,0.0232 v 0 l 0.01,0.0232 v 0 l 0.01,0.0198 v 0 l 0.01,0.0232 v 0 l 0.01,0.0232 v 0 l 0.01,0.0232 v 0 l 0.007,0.0231 v 0 l 0.01,0.0232 v 0 l 0.007,0.0265 v 0 l 0.007,0.0232 v 0 l 0.007,0.0232 v 0 l 0.003,0.0265 v 0 l 0.007,0.0232 v 0 l 0.003,0.0264 v 0 l 0.003,0.0265 v 0 l 0.003,0.0232 v 0 l 0.003,0.0265 v 0 0.0265 0 0.0265 0 l 0.003,0.0265 v 2.86413 c 0,0.55894 -0.45972,1.01534 -1.01865,1.01534 H 6.0486414 c -0.55893,0 -1.01534,-0.4564 -1.01534,-1.01534 v 0 c 0,-0.56224 0.45641,-1.01864 1.01534,-1.01864 h 2.73182 c 0.15544,0.37372 0.52255,0.63831 0.9525,0.63831 0.5688496,0 1.0318796,-0.46303 1.0318796,-1.03188 0,-0.56885 -0.46303,-1.03187 -1.0318796,-1.03187 -0.41341,0 -0.7706,0.24473 -0.93266,0.59531 h -2.75166 v 0 h -0.0265 v 0 h -0.0265 v 0 l -0.0265,-0.003 v 0 h -0.0232 v 0 l -0.0265,-0.003 v 0 l -0.0265,-0.003 v 0 l -0.0232,-0.007 v 0 l -0.0264,-0.003 v 0 l -0.0231,-0.007 v 0 l -0.0265,-0.003 v -0.003 l -0.0231,-0.003 v 0 l -0.0232,-0.01 v 0 l -0.0231,-0.007 v 0 l -0.0231,-0.007 v -0.003 l -0.0231,-0.007 v 0 l -0.0231,-0.01 v 0 l -0.0231,-0.01 v 0 l -0.0231,-0.01 v 0 l -0.0231,-0.01 v -0.003 l -0.0199,-0.01 v 0 l -0.0231,-0.0132 v 0 l -0.0198,-0.01 v 0 l -0.0199,-0.0132 v 0 l -0.0231,-0.0132 v -0.003 l -0.0198,-0.0132 v 0 l -0.0198,-0.0132 v 0 l -0.0199,-0.0132 v -0.003 l -0.0165,-0.0132 v 0 l -0.0199,-0.0165 v 0 l -0.0165,-0.0165 v 0 l -0.0199,-0.0165 v 0 l -0.0165,-0.0165 v 0 l -0.0165,-0.0165 v 0 l -0.0165,-0.0198 v 0 l -0.0165,-0.0165 v 0 l -0.0165,-0.0198 v 0 l -0.0165,-0.0198 v 0 l -0.0132,-0.0199 v 0 l -0.0165,-0.0198 v 0 l -0.0132,-0.0198 v 0 l -0.0132,-0.0199 v 0 l -0.0132,-0.0198 v 0 l -0.0132,-0.0198 v -0.003 l -0.01,-0.0198 v 0 l -0.0132,-0.0198 v -0.003 l -0.01,-0.0199 v 0 l -0.01,-0.0232 v 0 l -0.01,-0.0231 v 0 l -0.01,-0.0232 v 0 l -0.01,-0.0232 v 0 l -0.007,-0.0232 v 0 l -0.01,-0.0231 v 0 l -0.007,-0.0232 v 0 l -0.007,-0.0265 v 0 l -0.007,-0.0232 v 0 l -0.003,-0.0232 v -0.003 l -0.007,-0.0232 v 0 l -0.003,-0.0265 v 0 l -0.003,-0.0232 v 0 l -0.003,-0.0264 v 0 l -0.003,-0.0265 v 0 -0.0232 -0.003 -0.0232 0 -0.0265" style="fill:#040307;fill-opacity:1;fill-rule:evenodd;stroke:none;stroke-width:0.03307291" id="path56"/></g></svg>
