<svg xmlns="http://www.w3.org/2000/svg" width="78.09568mm" height="37.885021mm" viewBox="0 0 78.09568 37.885021" version="1.1" id="svg58"> <defs id="defs52"/> <g id="layer1" transform="translate(-0.02752488,0.01081357)"> <path d="m 45.533155,-0.01081357 h 13.64919 c 10.42127,0 18.94086,8.51957997 18.94086,18.94416057 0,10.42128 -8.51959,18.94086 -18.94086,18.94086 h -13.64919 -0.1323 -0.003 -0.12237 -0.003 c -2.72851,0 -4.96424,-2.23573 -4.96424,-4.96424 v -11.95256 h 14.30073 c 0.77721,1.76941 2.54992,3.00633 4.60706,3.00633 2.77812,0 5.03369,-2.25226 5.03369,-5.03039 0,-2.78143 -2.25557,-5.0337 -5.03369,-5.0337 -2.05714,0 -3.82985,1.23693 -4.60706,3.00633 H 40.308225 V 4.9534264 c 0,-2.72852 2.23573,-4.96423997 4.96425,-4.96423997 h 0.003 l 0.12237,0.003 h 0.003 l 0.13231,-0.003" style="fill:#dbc335;fill-opacity:1;fill-rule:evenodd;stroke:none;stroke-width:0.03307291" id="path26"/> <path d="M 0.02812488,18.933347 V 4.9534264 c 0,-2.73182 2.23242002,-4.96423997 4.96424002,-4.96423997 H 32.948905 c 2.72852,0 4.96425,2.23241997 4.96425,4.96423997 v 0 c 0,2.73182 -2.23573,4.9642399 -4.96425,4.9642399 h -13.35154 c -0.78052,-1.7693999 -2.54992,-3.0063199 -4.61036,-3.0063199 -2.77813,0 -5.0303898,2.25226 -5.0303898,5.0303906 0,2.78143 2.2522598,5.0337 5.0303898,5.0337 2.06044,0 3.82984,-1.23693 4.61036,-3.00964 h 13.35154 v 0.003 h 0.12899 v 0 l 0.12567,0.003 v 0.003 l 0.12568,0.007 v 0 l 0.12568,0.01 v 0.003 l 0.12567,0.01 v 0.003 l 0.12237,0.0165 v 0 l 0.12237,0.0198 v 0 l 0.12237,0.0232 v 0 l 0.11907,0.0265 v 0 l 0.11906,0.0298 v 0 l 0.11906,0.0331 v 0 l 0.11576,0.0331 v 0.003 l 0.11575,0.0364 v 0 l 0.11576,0.0397 v 0 l 0.11244,0.043 v 0 l 0.11245,0.0463 v 0 l 0.10914,0.0463 v 0.003 l 0.10914,0.0496 v 0 l 0.10914,0.0529 v 0.003 l 0.10584,0.0529 v 0.003 l 0.10252,0.0562 v 0 l 0.10584,0.0595 v 0.003 l 0.10252,0.0628 v 0 l 0.0992,0.0662 v 0 l 0.0959,0.0661 v 0 l 0.0992,0.0728 v 0 l 0.0926,0.0728 v 0 l 0.0926,0.0728 v 0.003 l 0.0926,0.0761 v 0 l 0.0893,0.0761 v 0.003 l 0.086,0.0794 v 0 l 0.086,0.0827 v 0.003 l 0.0827,0.0827 v 0 l 0.0827,0.086 v 0.003 l 0.0794,0.086 v 0.003 l 0.0761,0.0893 v 0 l 0.0761,0.0926 v 0.003 l 0.0728,0.0926 v 0 l 0.0694,0.0959 v 0 l 0.0661,0.0992 v 0 l 0.0661,0.0992 v 0 l 0.0661,0.10253 v 0 l 0.0595,0.10252 v 0 l 0.0595,0.10253 v 0.003 l 0.0562,0.10252 v 0.003 l 0.0529,0.10584 v 0 l 0.0529,0.10914 v 0.003 l 0.0463,0.10914 v 0 l 0.0496,0.10914 v 0.003 l 0.043,0.10914 v 0.003 l 0.0397,0.11245 v 0.003 l 0.0364,0.11245 v 0 l 0.0364,0.11906 v 0 l 0.0298,0.11575 v 0.003 l 0.0298,0.11576 v 0.003 l 0.0265,0.11906 v 0 l 0.0231,0.11906 v 0.003 l 0.0231,0.12237 v 0 l 0.0165,0.12237 v 0 l 0.0132,0.12237 v 0 l 0.01,0.12568 v 0 l 0.01,0.12568 v 0.003 l 0.003,0.12567 v 0 l 0.003,0.12568 v 13.97992 c 0,2.73183 -2.23573,4.96425 -4.96424,4.96425 H 4.9917649 c -2.73182,2.2e-4 -4.96424002,-2.2322 -4.96424002,-4.96402 v 0 c 0,-2.73183 2.23242002,-4.96425 4.96424002,-4.96425 H 18.323465 c 0.75737,1.82563 2.55323,3.10886 4.65336,3.10886 2.77812,0 5.03039,-2.25227 5.03039,-5.0337 0,-2.77813 -2.25227,-5.03039 -5.03039,-5.03039 -2.02076,0 -3.76039,1.19062 -4.56407,2.90711 H 4.9917649 v -0.003 h -0.12898 v 0 l -0.12568,-0.003 v -0.003 l -0.12567,-0.007 v 0 l -0.12568,-0.01 v -0.003 l -0.12568,-0.01 v -0.003 l -0.12237,-0.0166 v 0 l -0.12237,-0.0198 v 0 l -0.12237,-0.0232 v 0 l -0.11906,-0.0265 v 0 l -0.11906,-0.0298 v 0 l -0.11907,-0.0331 v 0 l -0.11575,-0.0331 v -0.003 l -0.11576,-0.0364 v 0 l -0.11575,-0.0397 v 0 l -0.11245,-0.043 v 0 l -0.11245,-0.0463 v 0 l -0.10914,-0.0463 v -0.003 l -0.10914,-0.0496 v 0 l -0.10914,-0.0529 v 0 l -0.10583,-0.0562 v -0.003 l -0.10584,-0.0562 v 0 l -0.10252,-0.0595 v -0.003 l -0.10253,-0.0628 v 0 l -0.0992,-0.0661 v 0 l -0.0959,-0.0662 v 0 l -0.0992,-0.0695 v -0.003 l -0.0926,-0.0728 v 0 l -0.0926,-0.0728 v -0.003 l -0.0926,-0.0761 v 0 l -0.0893,-0.0761 v -0.003 l -0.086,-0.0794 v 0 l -0.086,-0.0827 v -0.003 l -0.0827,-0.0827 v 0 l -0.0827,-0.086 v -0.003 l -0.0794,-0.086 v -0.003 l -0.0761,-0.0893 v 0 l -0.0761,-0.0926 v -0.003 l -0.0728,-0.0926 v 0 l -0.0694,-0.0959 v 0 l -0.0661,-0.0992 v 0 l -0.0661,-0.0992 v 0 l -0.0661,-0.10253 v 0 l -0.0595,-0.0992 v -0.003 l -0.0595,-0.10253 v -0.003 l -0.0562,-0.10252 v -0.003 l -0.0529,-0.10584 v 0 l -0.0529,-0.10914 v 0 l -0.0463,-0.11248 v 0 l -0.0496,-0.10914 v -0.003 l -0.0397,-0.10914 v -0.003 l -0.043,-0.11245 v -0.003 l -0.0364,-0.11245 v 0 l -0.0364,-0.11906 v 0 l -0.0298,-0.11578 v -0.003 l -0.0298,-0.11576 v -0.003 l -0.0265,-0.11906 v 0 l -0.0232,-0.11908 v -0.003 l -0.0231,-0.12237 v 0 l -0.0165,-0.12237 v 0 l -0.0132,-0.12237 v 0 l -0.01,-0.12568 v 0 l -0.01,-0.12568 v -0.003 l -0.003,-0.12568 v 0 l -0.003,-0.12568" style="fill:#040307;fill-opacity:1;fill-rule:evenodd;stroke:none;stroke-width:0.03307291" id="path28"/></g></svg>
