<svg xmlns="http://www.w3.org/2000/svg" viewBox="0 0 318.2 54"><style type="text/css">  
	.st0{fill-rule:evenodd;clip-rule:evenodd;fill:#E4C745;}
	.st1{fill-rule:evenodd;clip-rule:evenodd;fill:#FFFFFF;}
</style><path class="st0" d="M279.5 19.5c-1 0-1.8 0.8-1.8 1.8v11.5c0 1 0.8 1.8 1.8 1.8h7.9c1 0 1.8-0.8 1.8-1.8 0-1-0.8-1.8-1.8-1.8h-6v-2.1h6c1 0 1.8-0.8 1.8-1.8 0-1-0.8-1.8-1.8-1.8h-6v-2.1h6c1 0 1.8-0.8 1.8-1.8 0-1-0.8-1.8-1.8-1.8H279.5L279.5 19.5zM302.7 23.1v2.1h-7.9v-2.1H302.7L302.7 23.1zM291.3 21.3v11.5c0 1 0.8 1.8 1.8 1.8 1 0 1.8-0.8 1.8-1.8v-3.9h3.2l5.2 5.2c0.7 0.7 1.9 0.7 2.6 0 0.7-0.7 0.7-1.9 0-2.6l-2.6-2.6 1.4 0 0.1 0 0.1 0 0.1 0 0.1 0 0.1 0 0.1 0 0.1 0 0.1 0 0.1 0 0.1 0 0.1 0 0.1-0.1 0.1-0.1 0.1-0.1 0.1-0.1 0.1-0.1 0.1-0.1 0.1-0.1 0.1-0.1 0-0.1 0-0.1 0-0.1 0-0.1 0-0.1 0 0 0-0.1 0-0.1 0-0.1 0-0.1 0-0.1 0-0.1 0-5.8c0-1-0.8-1.8-1.8-1.8h-11.5C292.1 19.5 291.3 20.3 291.3 21.3L291.3 21.3zM248.4 19.5c-1 0-1.8 0.8-1.8 1.8v11.5c0 1 0.8 1.8 1.8 1.8 1 0 1.8-0.8 1.8-1.8v-9.7h7.9v9.7c0 1 0.8 1.8 1.8 1.8 1 0 1.8-0.8 1.8-1.8V21.3c0-1-0.8-1.8-1.8-1.8H248.4L248.4 19.5zM273.9 19.5h-8.4c-1 0-1.8 0.8-1.8 1.8 0 1 0.8 1.8 1.8 1.8h2.4v9.7c0 1 0.8 1.8 1.8 1.8 1 0 1.8-0.8 1.8-1.8v-9.7h2.4c1 0 1.8-0.8 1.8-1.8C275.7 20.3 274.9 19.5 273.9 19.5L273.9 19.5zM231.3 19.5c-1 0-1.8 0.8-1.8 1.8v11.5c0 1 0.8 1.8 1.8 1.8h11.5c1 0 1.8-0.8 1.8-1.8V21.3c0-1-0.8-1.8-1.8-1.8 -1 0-1.8 0.8-1.8 1.8V31h-7.9v-9.7C233.1 20.3 232.3 19.5 231.3 19.5L231.3 19.5zM223.8 23.1V31H216v-7.9H223.8L223.8 23.1zM214.1 19.5c-1 0-1.8 0.8-1.8 1.8v11.5c0 1 0.8 1.8 1.8 1.8h11.5c1 0 1.8-0.8 1.8-1.8V21.3c0-1-0.8-1.8-1.8-1.8H214.1L214.1 19.5zM199.5 19.5c-1 0-1.8 0.8-1.8 1.8v11.5c0 1 0.8 1.8 1.8 1.8h8.9c1 0 1.8-0.8 1.8-1.8 0-1-0.8-1.8-1.8-1.8h-7.1v-7.9h7.1c1 0 1.8-0.8 1.8-1.8 0-1-0.8-1.8-1.8-1.8H199.5L199.5 19.5zM180.6 21.3l0 5.8 0 0 0 0.1 0 0.1 0 0.1 0 0.1 0 0.1 0 0.1 0 0.1 0 0.1 0 0.1 0 0.1 0.1 0.1 0.1 0.1 0.1 0.1 0.1 0.1 0.1 0.1 0.1 0.1 0.1 0.1 0.1 0.1 0.1 0 0.1 0 0.1 0 0.1 0 0.1 0 0.1 0 0.1 0 0.1 0 0.1 0 0.1 0 0.1 0 0.1 0 9.7 0V31h-9.7c-1 0-1.8 0.8-1.8 1.8 0 1 0.8 1.8 1.8 1.8h11.5c1 0 1.8-0.8 1.8-1.8l0-5.8 0-0.1 0-0.1 0-0.1 0-0.1 0-0.1 0-0.1 -0.1-0.1 0-0.1 0-0.1 0-0.1 0-0.1 -0.1-0.1 -0.1-0.1 -0.1-0.1 -0.1-0.1 -0.1-0.1 -0.1-0.1 -0.1-0.1 -0.1-0.1 -0.1 0 -0.1 0 -0.1 0 -0.1 0 -0.1 0 -0.1 0 -0.1 0 -0.1 0 -0.1 0 -0.1 0 -0.1 0 -9.7 0v-2.1h9.7c1 0 1.8-0.8 1.8-1.8 0-1-0.8-1.8-1.8-1.8h-11.5C181.4 19.5 180.6 20.3 180.6 21.3L180.6 21.3zM176.8 19.5c-1 0-1.8 0.8-1.8 1.8v11.5c0 1 0.8 1.8 1.8 1.8 1 0 1.8-0.8 1.8-1.8V21.3C178.6 20.3 177.8 19.5 176.8 19.5L176.8 19.5zM161.4 23h4c2.2 0 4 1.8 4 4 0 2.2-1.8 4-4 4h-4v-4c0-0.1 0-0.2 0-0.3 0-1.2 0-2.3 0-3.5V23L161.4 23zM157.8 26.5v0.2c0 0.1 0 0.2 0 0.3v0.2c0 1.8 0 3.6 0 5.4v0.1c0 1 0.8 1.8 1.8 1.8h5.7c4.2 0 7.6-3.4 7.6-7.6 0-4.2-3.4-7.6-7.6-7.6h-5.7c-1 0-1.8 0.8-1.8 1.8v0.1C157.8 23.1 157.8 24.8 157.8 26.5L157.8 26.5z"/><path class="st1" d="M132.1 19.5c-1 0-1.8 0.8-1.8 1.8v11.5c0 1 0.8 1.8 1.8 1.8h7.9c1 0 1.8-0.8 1.8-1.8 0-1-0.8-1.8-1.8-1.8h-6v-2.1h6c1 0 1.8-0.8 1.8-1.8 0-1-0.8-1.8-1.8-1.8h-6v-2.1h6c1 0 1.8-0.8 1.8-1.8 0-1-0.8-1.8-1.8-1.8H132.1L132.1 19.5zM143.8 21.3c0 1 0.8 1.8 1.8 1.8h2.4v9.7c0 1 0.8 1.8 1.8 1.8 1 0 1.8-0.8 1.8-1.8v-9.7h2.4c1 0 1.8-0.8 1.8-1.8 0-1-0.8-1.8-1.8-1.8h-8.4C144.6 19.5 143.8 20.3 143.8 21.3L143.8 21.3zM124.6 23.1v2.1h-7.9v-2.1H124.6L124.6 23.1zM113.1 21.3v11.5c0 1 0.8 1.8 1.8 1.8 1 0 1.8-0.8 1.8-1.8v-3.9h3.2l5.2 5.2c0.7 0.7 1.9 0.7 2.6 0 0.7-0.7 0.7-1.9 0-2.6l-2.6-2.6 1.4 0 0.1 0 0.1 0 0.1 0 0.1 0 0.1 0 0.1 0 0.1-0.1 0.1 0 0.1 0 0.1 0 0.1 0 0.1-0.1 0.1-0.1 0.1-0.1 0.1-0.1 0.1-0.1 0.1-0.1L128 28l0-0.1 0-0.1 0-0.1 0-0.1 0-0.1 0-0.1 0-0.1 0-0.1 0-0.1 0-0.1 0-0.1 0-5.8c0-1-0.8-1.8-1.8-1.8H115C114 19.5 113.1 20.3 113.1 21.3L113.1 21.3zM100.4 19.5c-1 0-1.8 0.8-1.8 1.8v11.5c0 1 0.8 1.8 1.8 1.8h8.9c1 0 1.8-0.8 1.8-1.8 0-1-0.8-1.8-1.8-1.8h-7.1v-7.9h7.1c1 0 1.8-0.8 1.8-1.8 0-1-0.8-1.8-1.8-1.8H100.4L100.4 19.5zM86.9 19.5c-1 0-1.8 0.8-1.8 1.8v11.5c0 1 0.8 1.8 1.8 1.8h7.9c1 0 1.8-0.8 1.8-1.8 0-1-0.8-1.8-1.8-1.8h-6v-2.1h6c1 0 1.8-0.8 1.8-1.8 0-1-0.8-1.8-1.8-1.8h-6v-2.1h6c1 0 1.8-0.8 1.8-1.8 0-1-0.8-1.8-1.8-1.8H86.9L86.9 19.5zM68 21.3l0 5.8 0 0.1 0 0.1 0 0 0 0.1 0 0.1 0 0.1 0 0.1 0.1 0.1 0 0.1 0 0.1 0 0.1 0 0.1 0.1 0.1 0.1 0.1 0.1 0.1 0.1 0.1 0.1 0.1 0.1 0.1 0.1 0.1 0.1 0 0.1 0 0.1 0 0.1 0 0.1 0 0.1 0 0.1 0 0.1 0 0.1 0 0.1 0 0.1 0 9.7 0V31h-9.7c-1 0-1.8 0.8-1.8 1.8 0 1 0.8 1.8 1.8 1.8h11.5c1 0 1.8-0.8 1.8-1.8l0-5.8 0-0.1 0-0.1 0-0.1 0-0.1 0-0.1 0-0.1 0-0.1 0-0.1 0-0.1 0-0.1 0-0.1 0-0.1 -0.1-0.1 -0.1-0.1 -0.1-0.1 -0.1-0.1 -0.1-0.1 -0.1-0.1 -0.1-0.1 -0.1 0 -0.1 0 -0.1 0 -0.1 0 -0.1 0 -0.1 0 -0.1 0 -0.1 0 -0.1 0 -0.1 0 -0.1 0 -9.7 0v-2.1h9.7c1 0 1.8-0.8 1.8-1.8 0-1-0.8-1.8-1.8-1.8H69.8C68.8 19.5 68 20.3 68 21.3L68 21.3z"/><path class="st0" d="M40.4 15.3h8.5c6.5 0 11.7 5.3 11.7 11.7 0 6.5-5.3 11.7-11.7 11.7h-8.5l-0.1 0h0l-0.1 0h0c-1.7 0-3.1-1.4-3.1-3.1v-0.2 -7.2h8.9c0.5 1.1 1.6 1.9 2.9 1.9 1.7 0 3.1-1.4 3.1-3.1 0-1.7-1.4-3.1-3.1-3.1 -1.3 0-2.4 0.8-2.9 1.9h-8.9v-7.2 -0.2c0-1.7 1.4-3.1 3.1-3.1h0H40.4L40.4 15.3 40.4 15.3 40.4 15.3z"/><path class="st1" d="M12.2 27L12.2 27 12.2 27v-8.7 0c0-1.7 1.4-3.1 3.1-3.1h0 17.3c1.7 0 3.1 1.4 3.1 3.1v0c0 1.7-1.4 3.1-3.1 3.1h-8.3c-0.5-1.1-1.6-1.9-2.9-1.9 -1.7 0-3.1 1.4-3.1 3.1 0 1.7 1.4 3.1 3.1 3.1 1.3 0 2.4-0.8 2.9-1.9h8.3v0h0.1l0 0 0.1 0v0l0.1 0v0l0.1 0v0l0.1 0v0l0.1 0v0l0.1 0v0l0.1 0v0l0.1 0v0l0.1 0v0l0.1 0v0l0.1 0v0l0.1 0v0l0.1 0v0l0.1 0v0l0.1 0v0l0.1 0v0l0.1 0v0l0.1 0v0l0.1 0v0l0.1 0v0l0.1 0v0l0.1 0v0l0.1 0v0l0.1 0v0l0.1 0v0l0.1 0v0l0.1 0v0l0.1 0v0l0.1 0v0l0.1 0v0l0.1 0.1v0l0.1 0.1v0l0.1 0.1v0l0 0.1v0l0 0.1v0l0 0.1v0l0 0.1v0l0 0.1v0l0 0.1v0l0 0.1v0l0 0.1v0l0 0.1v0l0 0.1v0l0 0.1v0l0 0.1v0l0 0.1v0l0 0.1v0l0 0.1v0l0 0.1v0l0 0.1v0l0 0.1v0l0 0.1v0l0 0.1v0l0 0.1v0l0 0.1v0l0 0.1v0l0 0.1v0l0 0.1v0l0 0.1v0l0 0.1v0l0 0.1v0l0 0.1v0l0 0.1v0 0 8.7 0c0 1.7-1.4 3.1-3.1 3.1h0H15.3c-1.7 0-3.1-1.4-3.1-3.1v0c0-1.7 1.4-3.1 3.1-3.1h8.3c0.5 1.1 1.6 1.9 2.9 1.9 1.7 0 3.1-1.4 3.1-3.1 0-1.7-1.4-3.1-3.1-3.1 -1.3 0-2.3 0.7-2.8 1.8h-8.3v0h-0.1l0 0 -0.1 0v0l-0.1 0v0l-0.1 0v0l-0.1 0v0l-0.1 0v0l-0.1 0v0l-0.1 0v0l-0.1 0v0l-0.1 0v0l-0.1 0v0l-0.1 0v0l-0.1 0v0l-0.1 0v0l-0.1 0v0l-0.1 0v0l-0.1 0v0l-0.1 0v0l-0.1 0v0l-0.1 0v0l-0.1 0v0l-0.1 0v0l-0.1 0v0l-0.1 0v0l-0.1 0v0l-0.1 0v0l-0.1 0v0l-0.1 0v0l-0.1 0v0l-0.1 0v0l-0.1 0v0l-0.1-0.1v0l-0.1-0.1v0L13 29.1v0l0-0.1v0l0-0.1v0l0-0.1v0l0-0.1v0l0-0.1v0l0-0.1v0l0-0.1v0l0-0.1v0l0-0.1v0l0-0.1v0l0-0.1v0l0-0.1v0l0-0.1v0l0-0.1v0l0-0.1v0l0-0.1v0l0-0.1v0l0-0.1v0l0-0.1v0l0-0.1v0l0-0.1v0l0-0.1v0l0-0.1v0l0-0.1v0l0-0.1v0l0-0.1v0l0-0.1v0l0-0.1v0L12.2 27 12.2 27 12.2 27 12.2 27z"/></svg>