<?xml version="1.0" encoding="utf-8"?>
<!-- Generator: Adobe Illustrator 18.1.1, SVG Export Plug-In . SVG Version: 6.00 Build 0)  -->
<svg version="1.1" id="Слой_1" xmlns="http://www.w3.org/2000/svg" xmlns:xlink="http://www.w3.org/1999/xlink" x="0px" y="0px"
	 width="100px" height="100px" fe viewBox="0 -171.5 2304 2304" enable-background="new 0 -171.5 2304 2304" xml:space="preserve">
<path fill="#05389f" d="M2163.1,245.1H601.5L568.1,74.3C559.7,31.1,521.9,0,477.9,0h-383c-25.4,0-46,20.6-46,46v91.9
	c0,25.4,20.6,46,46,46h307.3l266.6,1362.4c-42.3,44-68.3,103.8-68.3,169.7c0,135.4,109.7,245.1,245.1,245.1s245.1-109.7,245.1-245.1
	c0-43-11.3-85.3-32.9-122.6h556c-21.6,37.2-32.9,79.5-32.9,122.6c0,135.4,109.7,245.1,245.1,245.1s245.1-109.7,245.1-245.1
	c0-69.5-28.9-132.1-75.4-176.7l4-18.2c12.5-57.3-31.2-111.5-89.8-111.5H829.4l-36-183.8h1196.5c43.2,0,80.6-30.1,89.8-72.4
	l173.2-796.7C2265.4,299.3,2221.7,245.1,2163.1,245.1z M845.6,1807.8c-50.7,0-91.9-41.2-91.9-91.9s41.2-91.9,91.9-91.9
	s91.9,41.2,91.9,91.9S896.3,1807.8,845.6,1807.8z M1826.1,1807.8c-50.7,0-91.9-41.2-91.9-91.9s41.2-91.9,91.9-91.9
	s91.9,41.2,91.9,91.9S1876.8,1807.8,1826.1,1807.8z M1915.9,1041.8H757.4L637.5,429h1411.6L1915.9,1041.8L1915.9,1041.8z"/>
</svg>
