<?xml version="1.0" encoding="utf-8"?>
<!-- Svg Vector Icons : http://www.onlinewebfonts.com/icon -->
<!DOCTYPE svg PUBLIC "-//W3C//DTD SVG 1.1//EN" "http://www.w3.org/Graphics/SVG/1.1/DTD/svg11.dtd">
<svg version="1.1" xmlns="http://www.w3.org/2000/svg" xmlns:xlink="http://www.w3.org/1999/xlink" x="0px" y="0px" viewBox="0 0 1000 1000" enable-background="new 0 0 1000 1000" xml:space="preserve">
<metadata> Svg Vector Icons : http://www.onlinewebfonts.com/icon </metadata>
<g><g transform="translate(0.000000,58.000000) scale(0.100000,-0.100000)"><path d="M1451.7,243.5c0-135.2,642-1250.3,1436.2-2450L4341-4420L2887.9-6565.9c-794.2-1182.8-1436.2-2297.9-1436.2-2450c0-287.3,270.4-304.1,3548.3-304.1h3548.3v1148.9L8531.4-7039L8125.9-7512c-405.6-456.3-422.4-456.3-2534.5-456.3c-1165.8,0-2112.1,33.8-2112.1,84.5c0,33.8,608.3,963.1,1351.7,2044.4c844.8,1233.6,1301.1,2044.6,1199.6,2162.8c-67.5,101.4-642.1,895.6-1267.2,1757.2L3648.3-364.8h1808H7281l625.2-709.7l625.2-726.5l16.8,1148.9V480H5000C2009.3,480,1451.7,446.2,1451.7,243.5z"/></g></g>
</svg>