<svg xmlns="http://www.w3.org/2000/svg" viewBox="0 0 16 16">
    <path style="line-height:normal;text-indent:0;text-align:start;text-decoration-line:none;text-decoration-style:solid;text-decoration-color:#000;text-transform:none;block-progression:tb;isolation:auto;mix-blend-mode:normal" d="M 8 1 C 5.2447116 1 3 3.2447116 3 6 C 3 6.7721554 3.3145531 7.6431949 3.75 8.5859375 C 4.1854469 9.5286801 4.7549845 10.527265 5.3242188 11.445312 C 6.4626871 13.28141 7.5996094 14.798828 7.5996094 14.798828 A 0.50005 0.50005 0 0 0 8.4003906 14.798828 C 8.4003906 14.798828 9.537313 13.281409 10.675781 11.445312 C 11.245015 10.527264 11.814553 9.5286801 12.25 8.5859375 C 12.685447 7.6431949 13 6.7721554 13 6 C 13 3.2447116 10.755288 1 8 1 z M 8 2 C 10.214712 2 12 3.7852884 12 6 C 12 6.4703446 11.752053 7.2820395 11.34375 8.1660156 C 10.935447 9.0499917 10.379985 10.021642 9.8242188 10.917969 C 8.912947 12.387647 8.2993503 13.200945 8 13.609375 C 7.7006497 13.200945 7.087053 12.387647 6.1757812 10.917969 C 5.6200155 10.021642 5.0645531 9.0499917 4.65625 8.1660156 C 4.2479469 7.2820395 4 6.4703446 4 6 C 4 3.7852884 5.7852884 2 8 2 z M 8.0019531 4.0019531 C 6.8979531 4.0019531 6.0019531 4.8979531 6.0019531 6.0019531 C 6.0019531 7.1059531 6.8979531 8 8.0019531 8 C 9.1059531 8 10 7.1059531 10 6.0019531 C 10 5.7959531 9.9603437 5.6010625 9.9023438 5.4140625 C 9.7443438 5.7550625 9.4039063 5.9941406 9.0039062 5.9941406 C 8.4529062 5.9941406 8.0058594 5.5480469 8.0058594 4.9980469 C 8.0058594 4.5980469 8.2459375 4.2586094 8.5859375 4.0996094 C 8.3999375 4.0426094 8.2059531 4.0019531 8.0019531 4.0019531 z" color="#000" font-weight="400" font-family="sans-serif" white-space="normal" overflow="visible"/>
</svg>
