<svg version="1.1" xmlns="http://www.w3.org/2000/svg" xmlns:xlink="http://www.w3.org/1999/xlink" x="0px" y="0px" viewBox="0 0 1000 1000" enable-background="new 0 0 1000 1000" xml:space="preserve">
<g><path d="M943.4,945c-0.1-1.4-0.3-2.8-0.5-4.3c0-3.1-0.4-6.1-1-9C921.7,773,817.9,640.3,676,579.2c82-56.2,135.8-150.5,135.8-257.4C811.9,149.6,672.2,10,500,10c-172.2,0-311.8,139.6-311.8,311.8c0,106.9,53.9,201.3,135.9,257.5C183.8,639.8,80.7,770.3,59,926.8c-1.6,4.6-2.5,9.5-2.5,14.6l0.3,3.4c0,0.1,0,0.1,0,0.2h0l0,0.5c0,24.6,19.9,44.5,44.5,44.5c24.5,0,44.5-19.9,44.5-44.5l0-0.5h0.8c20.7-169.8,161-302.7,334-312c6.4,0.4,12.9,0.6,19.4,0.6c6.5,0,13-0.2,19.4-0.6c173.1,9.3,313.4,142.2,334.1,312h0.9l0.1,0.5c0,24.6,19.9,44.5,44.5,44.5c24.6,0,44.5-19.9,44.5-44.5L943.4,945L943.4,945L943.4,945L943.4,945z M500,544.6c-123,0-222.7-99.7-222.7-222.7c0-123,99.7-222.7,222.7-222.7c123,0,222.7,99.7,222.7,222.7C722.7,444.9,623,544.6,500,544.6L500,544.6L500,544.6z"/></g>
</svg>