<svg id="Layer_1" data-name="Layer 1" xmlns="http://www.w3.org/2000/svg" viewBox="0 0 116.74 114.7"><defs><style>.cls-1{fill:#666;}</style></defs><title>Logo</title><path class="cls-1" d="M36,17.6c.79,0,1.51,0,2.23,0a.8.8,0,0,1,.83.74c0,.45.28.49.65.48H55c-.12.55-.22,1-.33,1.51-.29,1.27-.56,2.55-.87,3.81A1.66,1.66,0,0,1,52,25.51c-2.79,0-5.58,0-8.38,0a.49.49,0,0,1-.58-.42c-.11-.43-.27-.86-.45-1.4H50c.82,0,1-.12,1.13-.93q.2-.95.39-1.89a.46.46,0,0,0,0-.13H39.88l.93,3.09c.32,1,.65,2.09.95,3.15a.55.55,0,0,0,.64.47c3.32,0,6.65,0,10,0h.57a1.61,1.61,0,0,1-1.64,1.91c-3.71,0-7.42,0-11.13,0-.45,0-.62-.16-.75-.59-1.08-3.61-2.19-7.21-3.29-10.81C36.09,17.87,36.08,17.78,36,17.6Z"/><path class="cls-1" d="M13.88,29.2,14.94,26c1-3,2-6.06,2.95-9.1.15-.48.37-.67.89-.63a15.07,15.07,0,0,0,1.93,0c.4,0,.56.13.68.5q1.55,5.08,3.13,10.15c.2.66.4,1.32.62,2,.1.31,0,.46-.32.45H22.63A.57.57,0,0,1,22,28.8c-.12-.61-.31-1.21-.46-1.82a.41.41,0,0,0-.47-.37q-1.67,0-3.34,0a.43.43,0,0,0-.5.39c-.11.49-.26,1-.37,1.45a.87.87,0,0,1-.79.74C15.38,29.24,14.68,29.2,13.88,29.2Zm4-4.75c.88,0,1.65,0,2.41,0,.42,0,.54-.13.42-.55-.4-1.42-.76-2.85-1.14-4.28a2.93,2.93,0,0,0-.16-.39l-.13,0Z"/><path class="cls-1" d="M65.24,18.85h2.89l.07,1a2.77,2.77,0,0,1,2.8-1,3,3,0,0,1,2.48,2.46,7.53,7.53,0,0,1,0,3.88c-.65,2.41-3,3.3-5.27,2v2.17H65.24Zm2.85,4.58a15.21,15.21,0,0,0,.09,1.63,1.08,1.08,0,0,0,1.51,1,1.33,1.33,0,0,0,1-1.35c0-.9,0-1.8,0-2.71a2.24,2.24,0,0,0-.1-.57,1.23,1.23,0,0,0-1.23-1,1.18,1.18,0,0,0-1.12,1.13C68.11,22.06,68.12,22.65,68.09,23.43Z"/><path class="cls-1" d="M86.1,25.64l2.37.16a.59.59,0,0,1,.13,0A3.75,3.75,0,0,1,85,29.33a6.67,6.67,0,0,1-2.15-.25,3.82,3.82,0,0,1-2.71-3.49,8.82,8.82,0,0,1,.25-3.93,4.19,4.19,0,0,1,6-2.45,3.5,3.5,0,0,1,1.46,1.44,6.83,6.83,0,0,1,.74,3.85H83.15a3.83,3.83,0,0,0,.23,2.08,1.22,1.22,0,0,0,1.14.83,1.27,1.27,0,0,0,1.27-.8A8.69,8.69,0,0,0,86.1,25.64Zm-.2-2.77c0-.8,0-1.56-.68-2a1.19,1.19,0,0,0-1.41,0,2.08,2.08,0,0,0-.69,2Z"/><path class="cls-1" d="M59.72,26.23c-.47.82-.9,1.52-1.27,2.25a1.46,1.46,0,0,1-1.47.88c-.52,0-1,0-1.63,0,.11-.2.18-.35.27-.49.88-1.47,1.74-2.94,2.64-4.39a.84.84,0,0,0,0-1c-.76-1.4-1.49-2.82-2.22-4.24-.07-.14-.13-.29-.21-.46,1,0,2,0,3,0,.11,0,.25.18.31.3.31.63.6,1.28,1,2,.36-.63.7-1.14,1-1.7a1,1,0,0,1,1.15-.68c.57.06,1.15,0,1.81,0-.24.42-.43.75-.62,1.08C62.8,20.93,62.18,22,61.54,23a.66.66,0,0,0,0,.75c.9,1.67,1.78,3.36,2.66,5,.07.14.14.29.25.53a10.39,10.39,0,0,0-1.62,0,1.79,1.79,0,0,1-2.27-1.43A12,12,0,0,0,59.72,26.23Z"/><path class="cls-1" d="M89.15,26.37,91.49,26c.05.15.1.3.16.44a1.6,1.6,0,0,0,2.16.95.89.89,0,0,0,.1-1.63,6.34,6.34,0,0,0-1.22-.56c-.46-.18-1-.3-1.41-.5a2.79,2.79,0,0,1-1.77-2.93,2.94,2.94,0,0,1,2-2.7A4.61,4.61,0,0,1,94.61,19a3.18,3.18,0,0,1,2.19,2.42l-2.07.63c-.12-.25-.21-.47-.33-.68a1.32,1.32,0,0,0-1.32-.71c-.34,0-.67.12-.77.54a.85.85,0,0,0,.28,1,9.2,9.2,0,0,0,1.29.64c.6.26,1.26.43,1.83.74a2.94,2.94,0,0,1,.1,5,5.34,5.34,0,0,1-5.06.24A3,3,0,0,1,89.15,26.37Z"/><path class="cls-1" d="M103.27,22.05c-.14-.27-.24-.49-.36-.7a1.3,1.3,0,0,0-1.19-.69c-.38,0-.76.09-.88.53a.87.87,0,0,0,.34,1.11c.49.27,1,.47,1.53.7a14.71,14.71,0,0,1,1.83.84,2.2,2.2,0,0,1,1.06,2,3,3,0,0,1-2.68,3.32,6,6,0,0,1-2.92,0,2.93,2.93,0,0,1-2.26-2.76,1.14,1.14,0,0,1,.21-.08L100,26c.11.24.19.48.31.7a1.58,1.58,0,0,0,1.94.73.9.9,0,0,0,.19-1.65,8.4,8.4,0,0,0-1.53-.67c-.4-.16-.82-.28-1.21-.47a2.77,2.77,0,0,1-1.67-3,2.9,2.9,0,0,1,1.89-2.54,4.62,4.62,0,0,1,3.36-.08,3,3,0,0,1,1.92,2c0,.12,0,.37-.08.39C104.52,21.68,103.89,21.86,103.27,22.05Z"/><path class="cls-1" d="M79.93,18.84c0,.87,0,1.7,0,2.52,0,.11-.22.3-.35.31a2,2,0,0,0-2.07,1.78,9.22,9.22,0,0,0-.13,1.72c0,1.27,0,2.55,0,3.82a1.79,1.79,0,0,1-.07.34H74.46c0-.18,0-.34,0-.5,0-3.16,0-6.32,0-9.48,0-.46.14-.58.57-.56.77,0,1.54,0,2.35,0v1.25A2.61,2.61,0,0,1,79.93,18.84Z"/><path class="cls-1" d="M28.84,22.74c0,2,0,3.94,0,5.91,0,.51-.16.65-.64.61s-1.13,0-1.69,0c-.31,0-.43-.11-.43-.43q0-6.07,0-12.15c0-.35.14-.45.46-.44.6,0,1.19,0,1.79,0,.38,0,.5.12.5.5C28.83,18.73,28.84,20.73,28.84,22.74Z"/><path class="cls-1" d="M31,24.5c0-1.42,0-2.84,0-4.25,0-.39.11-.55.52-.54.61,0,1.22,0,1.84,0,.34,0,.49.09.49.46q0,4.35,0,8.7c0,.33-.1.47-.44.46-.64,0-1.29,0-1.93,0-.37,0-.47-.13-.47-.48C31,27.4,31,25.95,31,24.5Z"/><path class="cls-1" d="M51.24,29.84a1.52,1.52,0,0,1,1.58,1.59A1.55,1.55,0,0,1,51.17,33a1.59,1.59,0,1,1,.06-3.17Z"/><path class="cls-1" d="M42.24,31.42a1.59,1.59,0,1,1-1.58-1.58A1.52,1.52,0,0,1,42.24,31.42Z"/><path class="cls-1" d="M32.38,18.69h-.43c-.86,0-1-.13-1-1,0-1.43,0-1.45,1.45-1.45s1.4-.15,1.38,1.39c0,.08,0,.16,0,.24,0,.75-.08.82-.83.83Z"/><g id="Q3oJrf"><path class="cls-1" d="M96.87,76.38c-.33,0-.66,0-1,0a.82.82,0,0,1-.91-.94c0-1,0-2,0-3a3,3,0,0,0,0-.51.74.74,0,0,0-1.11-.63,1.77,1.77,0,0,0-1.1,1.7c-.06,1,0,2,0,3,0,.33-.1.41-.41.39a8.13,8.13,0,0,0-1.13,0c-.29,0-.39-.06-.39-.37,0-1.27,0-2.55,0-3.82a.89.89,0,0,0-.54-.94,1.07,1.07,0,0,0-1.16.4,2.5,2.5,0,0,0-.56,1.58q0,1.4,0,2.8c0,.3-.09.37-.37.35s-.82,0-1.24,0c-.19,0-.28,0-.28-.26,0-2.1,0-4.2,0-6.3,0-.11,0-.22.16-.22a5,5,0,0,1,1,0,.73.73,0,0,1,.63.49c.08.26.16.22.32.06a2.45,2.45,0,0,1,2.41-.65,1.92,1.92,0,0,1,1.27,1c.15-.15.26-.29.39-.41a2.7,2.7,0,0,1,2.88-.53,1.78,1.78,0,0,1,1.06,1.18c.06.15,0,.34.16.46Z"/><path class="cls-1" d="M22.61,67.64A1.26,1.26,0,0,1,23.9,67a26.25,26.25,0,0,1,2.72.08,2.35,2.35,0,0,1,2.14,2.13,2.28,2.28,0,0,1-.68,2l-.28.27a2.27,2.27,0,0,1,1.29,1.71A2.62,2.62,0,0,1,27,76.23a5.06,5.06,0,0,1-1.08.12c-1.09,0-2.18,0-3.27,0Zm1.83,6h0c0,.25,0,.51,0,.76s0,.3.28.29c.46,0,.92,0,1.38,0a1.12,1.12,0,0,0,1.16-1.11,1.19,1.19,0,0,0-.88-1.32,5.14,5.14,0,0,0-1.3-.05c-.41,0-.59.18-.62.6S24.43,73.39,24.43,73.67Zm0-3.84h0c0,.24,0,.48,0,.73s0,.21.18.2c.46,0,.92,0,1.38,0a1,1,0,0,0,.92-1.15,1,1,0,0,0-1-1,9.18,9.18,0,0,0-1,0,.5.5,0,0,0-.52.5C24.42,69.33,24.44,69.58,24.44,69.83Z"/><path class="cls-1" d="M66.79,75.79a3.07,3.07,0,0,1-3.64-.31,4.08,4.08,0,0,1-.6-4.59,3,3,0,0,1,4.2-1c.2.13.3.15.46,0a2.09,2.09,0,0,1,1.5-.23c.1.05.07.14.07.22,0,2.11,0,4.22,0,6.33a2.94,2.94,0,0,1-2.62,2.78,5.27,5.27,0,0,1-3.23-.42c-.22-.1-.26-.2-.16-.41s.16-.43.26-.64c.22-.49.39-.57.91-.42a3.6,3.6,0,0,0,1.82.16A1.24,1.24,0,0,0,66.79,75.79Zm.07-3c0-.2,0-.37-.06-.54A1.33,1.33,0,0,0,64.24,72a2.19,2.19,0,0,0,.16,1.82,1.24,1.24,0,0,0,1.28.64,1.16,1.16,0,0,0,1.07-.89A3.51,3.51,0,0,0,66.86,72.79Z"/><path class="cls-1" d="M51.43,69.6c-.69,1-1.33,2-2,2.89-.13.19-.1.27,0,.45.64,1.14,1.26,2.28,2,3.43-.69,0-1.3,0-1.91,0a.92.92,0,0,1-.76-.55l-1-1.89a1.29,1.29,0,0,0-.13-.22.44.44,0,0,0-.47-.11c-.17,0-.09.2-.09.31,0,.73,0,1.46,0,2.18,0,.24-.07.31-.31.3-.47,0-.95,0-1.42,0-.19,0-.28,0-.28-.25q0-4.44,0-8.88c0-.2.06-.28.27-.27s.53,0,.8,0c.65,0,.92.26.93.9,0,1.16,0,2.33,0,3.49,0,.15-.13.4.11.46a.58.58,0,0,0,.67-.24c.38-.59.77-1.17,1.15-1.77a.44.44,0,0,1,.43-.24C50.07,69.61,50.71,69.6,51.43,69.6Z"/><path class="cls-1" d="M56.94,70.31a2.79,2.79,0,0,1,2.34-.86,2.12,2.12,0,0,1,2.16,2.25c0,1.49,0,3,0,4.47,0,.16,0,.21-.2.21s-.56,0-.84,0a.87.87,0,0,1-1-1c0-.93,0-1.87,0-2.8,0-.15,0-.29,0-.44-.06-.76-.44-1-1.17-.85A1.78,1.78,0,0,0,57,73.19c0,1,0,1.92,0,2.88,0,.26-.06.33-.32.32-.47,0-.95,0-1.42,0-.18,0-.25,0-.25-.24q0-3.15,0-6.3c0-.21.07-.27.27-.26s.5,0,.76,0A.92.92,0,0,1,56.94,70.31Z"/><path class="cls-1" d="M40.82,69.45A3.52,3.52,0,1,1,37.25,73,3.43,3.43,0,0,1,40.82,69.45ZM39.21,73a1.83,1.83,0,0,0,.23,1,1.59,1.59,0,0,0,2.71.16,2.19,2.19,0,0,0-.09-2.42,1.61,1.61,0,0,0-1.78-.48A1.77,1.77,0,0,0,39.21,73Z"/><path class="cls-1" d="M29.66,73a3.39,3.39,0,0,1,3.57-3.51A3.52,3.52,0,1,1,29.66,73Zm5.19,0a1.71,1.71,0,0,0-1.43-1.85,1.86,1.86,0,0,0-.52,3.64A1.65,1.65,0,0,0,34.85,73Z"/><path class="cls-1" d="M86,73a3.57,3.57,0,1,1-7.15-.15A3.58,3.58,0,0,1,86,73ZM84,73a1.72,1.72,0,0,0-1.4-1.88,1.6,1.6,0,0,0-1.81,1.31,1.92,1.92,0,0,0,1,2.24A1.64,1.64,0,0,0,84,73Z"/><path class="cls-1" d="M72.1,73a3.48,3.48,0,0,1,3.74-3.53,3.83,3.83,0,0,1,1.55.34,1.44,1.44,0,0,1,.92,1.5c0,.66,0,.65-.68.67a1,1,0,0,1-1.12-.59c-.14-.31-.54-.3-.85-.27A1.82,1.82,0,0,0,74,73.28a1.84,1.84,0,0,0,2.21,1.53A2.85,2.85,0,0,0,77.69,74c.15-.14.22-.14.31,0s.38.65.59,1a.26.26,0,0,1,0,.38,4.12,4.12,0,0,1-4.26.84A3.36,3.36,0,0,1,72.1,73Z"/><path class="cls-1" d="M51.95,73c0-1,0-2,0-3,0-.28,0-.42.36-.39s.48,0,.72,0a.85.85,0,0,1,.89,1q0,2.51,0,5c0,.81,0,.81-.82.81-.36,0-.85.12-1.05-.06S52,75.62,52,75.25c0-.76,0-1.53,0-2.29Z"/><path class="cls-1" d="M71.81,75.3a1.13,1.13,0,0,1-1.14,1.16,1.15,1.15,0,0,1-1.16-1.15,1.18,1.18,0,0,1,1.17-1.15A1.17,1.17,0,0,1,71.81,75.3Z"/><path class="cls-1" d="M54,67.82A1.13,1.13,0,0,1,52.87,69a1.15,1.15,0,0,1-1.15-1.15,1.12,1.12,0,0,1,1.12-1.14A1.11,1.11,0,0,1,54,67.82Z"/></g><g id="H8eYYK"><path class="cls-1" d="M44.82,83.49h.89l.08,0c.23,0,.47.08.7.14a5.62,5.62,0,0,1,1.85.89l.12.05a.61.61,0,0,0,0-.14c0-.16,0-.32,0-.48a.17.17,0,0,1,.2-.18h2c.21,0,.26.06.26.27q0,.84,0,1.68s0,.06,0,.1h0l0-.06a2.79,2.79,0,0,1,1.35-1.63,5.29,5.29,0,0,1,2-.58l.54-.06h1.05l.09,0a5.91,5.91,0,0,1,1.21.21,3.61,3.61,0,0,1,2.72,2.73l0,.18c.2-.29.38-.59.59-.86a5.83,5.83,0,0,1,3.53-2.19l.62-.1h.89l.08,0c.21,0,.43,0,.64.09a5.87,5.87,0,0,1,4.08,3.07l0,.08,0-.31a2.75,2.75,0,0,1,1.31-2.21,5,5,0,0,1,2.14-.68l.56-.06h1l.12,0a5.87,5.87,0,0,1,1.4.27,3.59,3.59,0,0,1,2.58,3c0,.13,0,.2-.16.2L77.2,87a.18.18,0,0,1-.17-.12.69.69,0,0,1,0-.12,1.77,1.77,0,0,0-1.29-1.39,3.06,3.06,0,0,0-1-.1,2.22,2.22,0,0,0-.79.19,1.14,1.14,0,0,0-.34,1.88,2.23,2.23,0,0,0,.68.4A10.78,10.78,0,0,0,76,88.2a8.11,8.11,0,0,1,2,.67A3.67,3.67,0,0,1,79.43,90,3.09,3.09,0,0,1,80,92a2.8,2.8,0,0,1-.86,2,4.14,4.14,0,0,1-1.77,1,8.31,8.31,0,0,1-2.55.29,6.89,6.89,0,0,1-1.83-.27,3.63,3.63,0,0,1-2.49-2.25c-.06-.16-.11-.32-.17-.49a5.89,5.89,0,0,1-10,.43v.07A2.73,2.73,0,0,1,59.44,94a4.5,4.5,0,0,1-2,1,8.4,8.4,0,0,1-2.16.21A7.17,7.17,0,0,1,53.47,95,3.71,3.71,0,0,1,51,93l0-.05c0,.06,0,.09,0,.13q0,.81,0,1.63c0,.17-.07.24-.24.24h-2c-.16,0-.22-.07-.22-.22s0-.34,0-.52,0-.08,0-.1-.07,0-.1,0l-.09.07c-.28.18-.56.38-.86.53a5.14,5.14,0,0,1-4.14.15,5.88,5.88,0,0,1-3.68-4.48c0-.19-.05-.37-.08-.56v-.91s0-.08,0-.12a5.9,5.9,0,0,1,.33-1.54,5.79,5.79,0,0,1,1.91-2.55,5.49,5.49,0,0,1,2.54-1.14Zm17.13,6.06a4.63,4.63,0,0,0,.15,1,3.18,3.18,0,0,0,1.17,1.85A3.1,3.1,0,0,0,65.5,93,2.9,2.9,0,0,0,68,91.32a4.63,4.63,0,0,0,.29-3,3.24,3.24,0,0,0-1.06-1.84,3,3,0,0,0-2.29-.72,3,3,0,0,0-2.48,1.56A4.38,4.38,0,0,0,61.94,89.55Zm-13.49-.19A5.51,5.51,0,0,0,48.3,88a2.83,2.83,0,0,0-1.06-1.66,3.25,3.25,0,0,0-2.88-.47,3,3,0,0,0-1.94,1.77,4.37,4.37,0,0,0-.3,2.62,3.45,3.45,0,0,0,1,1.92A3,3,0,0,0,46,93a2.84,2.84,0,0,0,2.2-1.84A4.83,4.83,0,0,0,48.46,89.37Zm2.47-1.62V91.3H51l1.9,0c.21,0,.23,0,.27.23a2,2,0,0,0,1.21,1.54,3.26,3.26,0,0,0,2.14.1,1.39,1.39,0,0,0,1-.78A1.21,1.21,0,0,0,57,90.75a3.36,3.36,0,0,0-1-.4c-.52-.13-1.05-.25-1.58-.37a8.9,8.9,0,0,1-2-.61,2.92,2.92,0,0,1-1.3-1.08C51.1,88.12,51,87.93,50.93,87.75Zm20,.79a6.7,6.7,0,0,1,0,1.39,6.26,6.26,0,0,1-.28,1.38h.12l1.64,0c.31,0,.32,0,.39.31A1.94,1.94,0,0,0,74,93.08a3.26,3.26,0,0,0,2.14.15,1.41,1.41,0,0,0,1-.86A1.19,1.19,0,0,0,77,91a2,2,0,0,0-.49-.37,5.39,5.39,0,0,0-1.51-.5c-.58-.13-1.17-.24-1.75-.39a4.85,4.85,0,0,1-1.65-.7C71.36,88.91,71.15,88.71,70.94,88.54ZM59.79,87h-.12l-2,0c-.19,0-.23,0-.27-.22a1.74,1.74,0,0,0-1.06-1.33,2.75,2.75,0,0,0-1.94-.05,1.15,1.15,0,0,0-.27,2.1,4,4,0,0,0,1.25.48c.58.14,1.17.26,1.75.41a5.51,5.51,0,0,1,2,.92l.19.16c0-.41.07-.83.13-1.24A4.93,4.93,0,0,1,59.79,87Z"/><path class="cls-1" d="M40.31,98.46a1,1,0,0,1-.44-.26,1,1,0,0,1,0-1.33,1,1,0,0,1,1.34,0l0,0h0v-1h.26v2.5h-.25V98.2l-.45.26Zm-.4-.92a.67.67,0,0,0,.67.71.7.7,0,0,0,.71-.71.69.69,0,0,0-.71-.7A.66.66,0,0,0,39.9,97.54Z"/><path class="cls-1" d="M57.4,98.46a.9.9,0,0,1-.59-.52,1,1,0,0,1,.25-1.13,1,1,0,0,1,1.17-.07l.1.06v-.16h.26v1.79h-.25v-.15l-.34.17Zm1-.91a.67.67,0,1,0-.67.71A.67.67,0,0,0,58.36,97.55Z"/><path class="cls-1" d="M78.84,98.46a.95.95,0,0,1,.59-1.8.83.83,0,0,1,.51,1H78.49a.64.64,0,0,0,.37.57.69.69,0,0,0,.86-.24l.19.16a1.09,1.09,0,0,1-.47.35Zm.84-1.07a.54.54,0,0,0-.58-.56.63.63,0,0,0-.62.56Z"/><path class="cls-1" d="M51.51,98.46l-.13-.06a1,1,0,0,1-.42-1.3.9.9,0,0,1,1.2-.42.88.88,0,0,1,.46.93H51.16a.67.67,0,0,0,.39.59.69.69,0,0,0,.83-.25l.19.16a1.09,1.09,0,0,1-.47.35Zm.83-1.07a.53.53,0,0,0-.58-.56.61.61,0,0,0-.61.56Z"/><path class="cls-1" d="M64.82,98.46a.92.92,0,0,1-.54-.38,1,1,0,0,1,0-1.08,1,1,0,0,1,1-.38.89.89,0,0,1,.71.73.92.92,0,0,1-.63,1.1l0,0Zm.27-1.62a.66.66,0,0,0-.68.71.67.67,0,1,0,1.34,0A.66.66,0,0,0,65.1,96.84Z"/><path class="cls-1" d="M47.51,98.46a1,1,0,0,1-.48-.34A1,1,0,0,1,47,97a1,1,0,0,1,1.06-.36.9.9,0,0,1,.69.87.92.92,0,0,1-.59.93l-.07,0Zm.29-1.63a.71.71,0,1,0,.67.72A.67.67,0,0,0,47.8,96.83Z"/><path class="cls-1" d="M70.14,98.46a1,1,0,0,1-.32-1.67,1,1,0,0,1,1.05-.09.87.87,0,0,1,.5.82.89.89,0,0,1-.64.92l0,0Zm1-.92a.73.73,0,0,0-.27-.58.69.69,0,0,0-.91.09.79.79,0,0,0,0,1,.67.67,0,0,0,1.15-.51Z"/><path class="cls-1" d="M43.5,98.46a.81.81,0,0,1-.41-.32l.22-.15a.62.62,0,0,0,.39.26.51.51,0,0,0,.38-.07.23.23,0,0,0,0-.42,2.87,2.87,0,0,0-.39-.12,1.63,1.63,0,0,1-.26-.09.47.47,0,0,1-.06-.82.76.76,0,0,1,1.06.19l-.22.15L44.14,97a.46.46,0,0,0-.59-.09.22.22,0,0,0,0,.39,2.45,2.45,0,0,0,.34.1l.22.06a.48.48,0,0,1,.36.46.5.5,0,0,1-.35.5l-.07,0Z"/><path class="cls-1" d="M59.54,98.46a.8.8,0,0,1-.44-.33l.22-.15a.57.57,0,0,0,.58.26.32.32,0,0,0,.3-.22.2.2,0,0,0-.12-.27c-.12-.05-.25-.08-.37-.12a1.73,1.73,0,0,1-.33-.13.46.46,0,0,1-.12-.67.76.76,0,0,1,1.18.09l-.22.15a.47.47,0,0,0-.5-.23.27.27,0,0,0-.26.25.19.19,0,0,0,.12.2l.36.11.21.06a.48.48,0,0,1,.35.48.5.5,0,0,1-.36.49l-.07,0Z"/><path class="cls-1" d="M45.55,98.46A1,1,0,0,1,45.06,97a.93.93,0,0,1,1.46-.08l-.2.16a.59.59,0,0,0-.53-.23.64.64,0,0,0-.58.56.81.81,0,0,0,.08.51.61.61,0,0,0,1,.13l0,0,.2.16a1,1,0,0,1-.41.28Z"/><path class="cls-1" d="M61.29,98.44H61v-2.5h.25v1l.08-.08a.77.77,0,0,1,.79-.2.51.51,0,0,1,.4.47c0,.21,0,.43,0,.65s0,.46,0,.69h-.26v-.11c0-.28,0-.55,0-.83a2,2,0,0,0,0-.24c0-.24-.12-.36-.31-.41a.55.55,0,0,0-.56.19.8.8,0,0,0-.14.49c0,.26,0,.53,0,.79C61.29,98.36,61.29,98.39,61.29,98.44Z"/><path class="cls-1" d="M73.47,98.44H73.2s0-.08,0-.12c0-.34,0-.68,0-1s-.13-.41-.34-.45a.51.51,0,0,0-.57.28,1.23,1.23,0,0,0-.09.42c0,.26,0,.53,0,.79,0,0,0,.07,0,.11h-.26V96.65h.25v.25l.07-.06a.78.78,0,0,1,.86-.17.5.5,0,0,1,.33.44C73.45,97.54,73.45,98,73.47,98.44Z"/><path class="cls-1" d="M66.87,98.44h-.26V96.65h.25v.25l.08-.07a.76.76,0,0,1,.77-.19.57.57,0,0,1,.43.59c0,.4,0,.8,0,1.21H67.9v-.11c0-.29,0-.57,0-.86a1.72,1.72,0,0,0,0-.22.4.4,0,0,0-.29-.39.53.53,0,0,0-.54.14.59.59,0,0,0-.17.41c0,.29,0,.58,0,.87C66.87,98.33,66.87,98.38,66.87,98.44Z"/><path class="cls-1" d="M77.65,98.44H77.4s0-.08,0-.12c0-.34,0-.68,0-1a.42.42,0,0,0-.45-.46.51.51,0,0,0-.5.34,1.31,1.31,0,0,0-.07.39c0,.28,0,.56,0,.84v0H76.1V96.65h.25l0,.25.05,0a.78.78,0,0,1,.86-.19.55.55,0,0,1,.35.54C77.66,97.6,77.65,98,77.65,98.44Z"/><path class="cls-1" d="M48.92,96.64a1.71,1.71,0,0,1,.26,0,.15.15,0,0,1,.09.09L49.75,98l.06.14.1-.25c.14-.38.29-.76.43-1.14,0-.08.07-.12.16-.11h.18l0,.09L50,98.35a.12.12,0,0,1-.13.09c-.2,0-.2,0-.28-.19L49,96.75Z"/><path class="cls-1" d="M56.09,96.64h.41v.24h-.41v1.55h-.26V96.89h-.38v-.24h.37a.66.66,0,0,1,.24-.62.8.8,0,0,1,.58-.07l0,.23C56.17,96.16,56.05,96.27,56.09,96.64Z"/><path class="cls-1" d="M53.2,96.65h.24v.26a.7.7,0,0,1,.76-.29,1.26,1.26,0,0,1,0,.21s-.06,0-.1,0a.52.52,0,0,0-.55.31.73.73,0,0,0-.06.28c0,.32,0,.65,0,1H53.2Z"/><path class="cls-1" d="M74.41,98.44h-.25V96h.25Z"/><path class="cls-1" d="M75.15,96.64h.24v1.79h-.24Z"/><path class="cls-1" d="M63.54,98.44h-.25V96.65h.25Z"/><path class="cls-1" d="M42.28,96.64h.25v1.79h-.25Z"/><path class="cls-1" d="M75.27,96.3a.18.18,0,0,1-.18-.19.19.19,0,1,1,.18.19Z"/><path class="cls-1" d="M42.22,96.11a.18.18,0,0,1,.19-.18.19.19,0,1,1,0,.37A.18.18,0,0,1,42.22,96.11Z"/><path class="cls-1" d="M63.41,96.3a.18.18,0,0,1-.18-.17.19.19,0,0,1,.18-.2.18.18,0,0,1,.19.18A.18.18,0,0,1,63.41,96.3Z"/></g><g id="MkVarL"><path class="cls-1" d="M53.57,54.15v.63h-5v-.62l.53-.11a.56.56,0,0,0,.48-.51,3.71,3.71,0,0,0,0-.47q0-2.25,0-4.5a2.34,2.34,0,0,0,0-.41,1.47,1.47,0,0,0-2.1-1.24l-.2.08a1,1,0,0,0-.73,1.1c.06,1.53,0,3.06,0,4.59,0,.06,0,.13,0,.19,0,.94.07,1,1,1.28v.63H42.33v-.62l.79-.14a.63.63,0,0,0,.54-.57,5,5,0,0,0,0-.56q0-2.58,0-5.16a3.5,3.5,0,0,0,0-.38.72.72,0,0,0-.63-.75c-.46-.13-.46-.13-.42-.62l3.89-.78v1.47c.34-.23.63-.43.93-.62a5,5,0,0,1,1.9-.85,2.61,2.61,0,0,1,2.75,1.35l.12.2,1.49-1a3.29,3.29,0,0,1,2.19-.62,2.52,2.52,0,0,1,2.38,2.31,6.84,6.84,0,0,1,.07,1c0,1.45,0,2.89,0,4.34,0,.1,0,.21,0,.31.06.72.18.85.9,1,.35.06.35.07.29.68H54.47v-.62l.13,0c.81-.1.9-.31.91-1.11,0-1.47,0-2.93,0-4.4a2.89,2.89,0,0,0-.07-.59,1.43,1.43,0,0,0-1.92-1.15,2.14,2.14,0,0,0-.33.11c-.68.29-.73.4-.73,1.13,0,1.5,0,3,0,4.5,0,.24,0,.48,0,.72,0,.48.2.66.69.75Z"/><path class="cls-1" d="M77.61,45.16c0-.25,0-.58,0-.91,0-.6,0-1.19,0-1.79s-.17-.79-.77-.9l-.59-.09v-.57l4.25-.73v12q0,.11,0,.22c0,.91.08,1,1,1.11l.39.06c0,.11,0,.21,0,.31s0,.21,0,.31L77.62,55V54c-.39.24-.73.41-1,.64a2.58,2.58,0,0,1-2.3.35,4.48,4.48,0,0,1-3.36-4.14,5.33,5.33,0,0,1,4.6-5.51A19.22,19.22,0,0,1,77.61,45.16Zm0,5q0-1.38,0-2.76a1.41,1.41,0,0,0-1.81-1.29,2.14,2.14,0,0,0-1.27,1.27,6.17,6.17,0,0,0-.34,3.48,3.55,3.55,0,0,0,.86,1.85,2,2,0,0,0,2.3.61.36.36,0,0,0,.26-.4C77.61,52,77.61,51.11,77.61,50.18Z"/><path class="cls-1" d="M64.78,55.06a4.68,4.68,0,0,1-5.14-4.56,4.92,4.92,0,0,1,4.88-5.32A4.65,4.65,0,0,1,69.6,49.6,4.8,4.8,0,0,1,64.78,55.06Zm1.73-4.43c-.09-.81-.13-1.53-.25-2.24a3.41,3.41,0,0,0-.92-2,1.15,1.15,0,0,0-1.84.16,2.71,2.71,0,0,0-.42.87,9.17,9.17,0,0,0,.25,5.52,2.18,2.18,0,0,0,.8,1.1,1.18,1.18,0,0,0,1.72-.34,2.3,2.3,0,0,0,.34-.8C66.34,52.11,66.43,51.33,66.52,50.63Z"/><path class="cls-1" d="M91.64,53.27a2.67,2.67,0,0,1,.15.48.31.31,0,0,1-.12.26c-.71.35-1.42.71-2.16,1a1.41,1.41,0,0,1-.85-.07,1.93,1.93,0,0,1-1.11-1c-.43.26-.87.5-1.29.78a2.77,2.77,0,0,1-3.9-1.64,2,2,0,0,1,1.16-2.6c.82-.36,1.69-.61,2.53-.93.4-.15.79-.34,1.17-.53.08,0,.18-.15.18-.22a9.48,9.48,0,0,0-.14-1.68,1.08,1.08,0,0,0-1.36-.89,1.36,1.36,0,0,0-.68.54,4.61,4.61,0,0,0-.44,1.13c-.2.68-.56.92-1.24.72a2.42,2.42,0,0,1-.82-.42.69.69,0,0,1-.06-1.08,1.71,1.71,0,0,1,.32-.29,9.78,9.78,0,0,1,3.81-1.64,2.93,2.93,0,0,1,3.39,2.72c0,1.37,0,2.75,0,4.12a3.8,3.8,0,0,0,.06.69.72.72,0,0,0,.93.63Zm-4.22-3.5c-.55.31-1,.58-1.53.87a1.56,1.56,0,0,0,0,2.54,1.25,1.25,0,0,0,1.19.2.49.49,0,0,0,.39-.55c0-.5,0-1,0-1.5Z"/><path class="cls-1" d="M38.22,51.39c-.76.79-1.53,1.64-2.35,2.42a6.74,6.74,0,0,1-1.48,1.05c-1,.52-1.63.21-2-.86a5.41,5.41,0,0,1,0-2.64,7.18,7.18,0,0,1,4.84-5.8,5.16,5.16,0,0,1,2.91-.12l.43.09c.42.07.41.06.32.5q-.72,3.44-1.43,6.88a1.9,1.9,0,0,0,0,.54,2.17,2.17,0,0,0,.48-.19c.37-.26.73-.55,1.09-.83.32.44.32.44,0,.85a6.93,6.93,0,0,1-2.18,1.67c-.82.38-1.18.17-1.11-.72s.26-1.61.4-2.41C38.16,51.64,38.2,51.48,38.22,51.39Zm1-4.88a3.52,3.52,0,0,0-1.9-.26,2.85,2.85,0,0,0-2,1.4A8.21,8.21,0,0,0,34.06,52a4.52,4.52,0,0,0,.14,1.27c.12.45.38.54.78.31a3.44,3.44,0,0,0,.54-.37A13.34,13.34,0,0,0,38.32,50a3.42,3.42,0,0,0,.37-1C38.9,48.2,39.07,47.36,39.27,46.51Z"/><path class="cls-1" d="M31.18,52.39a1,1,0,0,1,.18.27.39.39,0,0,1,0,.31,7.68,7.68,0,0,1-2.45,1.93c-.86.41-1.27.18-1.2-.76a22.81,22.81,0,0,1,.45-2.78c.66-3.2,1.34-6.39,2-9.58.12-.58,0-.75-.59-.79l-.87,0c0-.49,0-.48.43-.57.8-.18,1.58-.38,2.37-.6.56-.15.65-.09.54.48q-.74,3.55-1.5,7.09c-.4,1.87-.79,3.75-1.18,5.62a1.89,1.89,0,0,0,0,.54,1.94,1.94,0,0,0,.49-.16C30.32,53,30.73,52.72,31.18,52.39Z"/></g></svg>