<svg xmlns="http://www.w3.org/2000/svg" width="50" height="30"><rect id="backgroundrect" width="100%" height="100%" fill="none"/><style>.st0{fill:#e5c845}.st1{fill:#fff}</style><g class="currentLayer"><g id="Layer_2" class="selected"><g id="Layer_1-2"><path class="st0" d="M29.1 2.9h8.7C44.6 2.9 50 8.3 50 15s-5.4 12.1-12.1 12.1H29c-1.8 0-3.2-1.4-3.2-3.2v-7.7H35c.7 1.6 2.6 2.4 4.2 1.7s2.4-2.6 1.7-4.2-2.6-2.4-4.2-1.7c-.7.3-1.3.9-1.7 1.7h-9.2V6.1c0-1.8 1.4-3.2 3.2-3.2h.1z" id="svg_1"/><path class="st1" d="M0 15V6c0-1.8 1.4-3.2 3.2-3.2h17.9c1.8 0 3.2 1.4 3.2 3.2 0 1.8-1.4 3.2-3.2 3.2h-8.6c-.7-1.6-2.6-2.4-4.2-1.7s-2.4 2.6-1.7 4.2 2.6 2.4 4.2 1.7c.7-.3 1.3-.9 1.7-1.7H23.3 23h.4V13.3l.5.9v.1-.3V15.1 15v9c0 1.8-1.4 3.2-3.2 3.2H3.2C1.4 27.1 0 25.7 0 24c0-1.8 1.4-3.2 3.2-3.2h8.5c.7 1.6 2.6 2.4 4.2 1.8 1.6-.7 2.4-2.6 1.8-4.2-.7-1.6-2.6-2.4-4.2-1.8-.7.3-1.3.9-1.7 1.6H1.9l-.1-.3H1v-.6H.9l-.1-.1-.1-.1-.1-.1v-1.3.3-.5H0v-.6.1z" id="svg_2"/></g></g></g></svg>