<?xml version="1.0" encoding="utf-8"?>
<!-- Generator: Adobe Illustrator 21.0.0, SVG Export Plug-In . SVG Version: 6.00 Build 0)  -->
<svg version="1.1" id="Layer_1" xmlns="http://www.w3.org/2000/svg" xmlns:xlink="http://www.w3.org/1999/xlink" x="0px" y="0px"
	 viewBox="0 0 50 50" style="enable-background:new 0 0 50 50;" xml:space="preserve">
<style type="text/css">
	.st0{fill:#E5C845;}
	.st1{fill:#FFFFFF;}
</style>
<title>SD-logo-A</title>
<g id="Layer_2">
	<g id="Layer_1-2">
		<path class="st0" d="M29.1,12.9h8.7C44.6,12.9,50,18.3,50,25s-5.4,12.1-12.1,12.1H29c-1.8,0-3.2-1.4-3.2-3.2v-7.7H35
			c0.7,1.6,2.6,2.4,4.2,1.7c1.6-0.7,2.4-2.6,1.7-4.2c-0.7-1.6-2.6-2.4-4.2-1.7c-0.7,0.3-1.3,0.9-1.7,1.7h-9.2v-7.6
			c0-1.8,1.4-3.2,3.2-3.2c0,0,0,0,0,0H29.1L29.1,12.9z"/>
		<path class="st1" d="M0,25L0,25v-9l0,0c0-1.8,1.4-3.2,3.2-3.2h17.9c1.8,0,3.2,1.4,3.2,3.2l0,0c0,1.8-1.4,3.2-3.2,3.2h-8.6
			c-0.7-1.6-2.6-2.4-4.2-1.7s-2.4,2.6-1.7,4.2s2.6,2.4,4.2,1.7c0.7-0.3,1.3-0.9,1.7-1.7h9.2h0.1l0,0h0.1l0,0H22l0,0H22l0,0h0.1l0,0
			h0.1l0,0h0.1l0,0h0.1l0,0h0.1l0,0h0.1l0,0h0.1l0,0h0.1l0,0h0.1l0,0h0.1l0,0h0.1l0,0h0.1l0,0h0.1l0,0H23l0,0H23l0,0h0.1l0,0h0.1
			l0,0h0.1l0,0l0.1,0l0,0l0,0.1l0,0l0,0l0,0l0,0.1l0,0l0,0.1l0,0v0.1l0,0v0.1l0,0v0.1l0,0v0.1l0,0v0.1l0,0v0.1l0,0v0.1l0,0v0.1l0,0
			v0.1l0,0v0.1l0,0v0.1l0,0v0.1l0,0v0.1l0,0l0.5,0.9l0,0v0.1l0,0V24l0,0v0.1l0,0v0.1l0,0v0.1l0,0v0.1l0,0v0.1l0,0v0.1l0,0v0.1l0,0
			v0.1l0,0v0.1l0,0v0.1l0,0v0.1l0,0l0,0l0,0V25l0,0v9l0,0c0,1.8-1.4,3.2-3.2,3.2H3.2C1.4,37.1,0,35.7,0,34l0,0
			c0-1.8,1.4-3.2,3.2-3.2h8.5c0.7,1.6,2.6,2.4,4.2,1.8c1.6-0.7,2.4-2.6,1.8-4.2c-0.7-1.6-2.6-2.4-4.2-1.8c-0.7,0.3-1.3,0.9-1.7,1.6
			H2.5H2.5l0,0H2.4l0,0H2.3l0,0H2.2l0,0H2.2l0,0H2.1l0,0H2h0H1.9l0,0H1.9l0,0l-0.1-0.3l0,0H1.7l0,0H1.7l0,0H1.6l0,0H1.5l0,0H1.4l0,0
			H1.4l0,0H1.3l0,0H1.3l0,0H1.2l0,0H1.1l0,0H1.1l0,0H1h0v-0.6l0,0l-0.1,0l0,0l-0.1-0.1l0,0l-0.1-0.1l0,0l-0.1-0.1l0,0V27l0,0V27l0,0
			v-0.1l0,0v-0.1l0,0v-0.1l0,0v-0.1l0,0v-0.1l0,0v-0.1l0,0v-0.1l0,0v-0.1l0,0v-0.1l0,0v-0.1l0,0v-0.1l0,0v-0.1l0,0v-0.1l0,0V26l0,0
			V26l0,0v-0.1l0,0v-0.1l0,0v-0.1l0,0v-0.1l0,0v-0.1H0v-0.1l0,0v-0.1l0,0v-0.1l0,0v-0.1l0,0v-0.1l0,0v-0.1l0,0V25L0,25z"/>
	</g>
</g>
</svg>
