<?xml version="1.0" encoding="UTF-8" standalone="no"?>
<!-- Created with Inkscape (http://www.inkscape.org/) -->

<svg
   xmlns:dc="http://purl.org/dc/elements/1.1/"
   xmlns:cc="http://creativecommons.org/ns#"
   xmlns:rdf="http://www.w3.org/1999/02/22-rdf-syntax-ns#"
   xmlns:svg="http://www.w3.org/2000/svg"
   xmlns="http://www.w3.org/2000/svg"
   xmlns:sodipodi="http://sodipodi.sourceforge.net/DTD/sodipodi-0.dtd"
   xmlns:inkscape="http://www.inkscape.org/namespaces/inkscape"
   width="78.095596mm"
   height="37.885029mm"
   viewBox="0 0 78.095596 37.885029"
   version="1.1"
   id="svg5182"
   inkscape:version="0.92.2 (5c3e80d, 2017-08-06)"
   sodipodi:docname="mini-logo-2.svg">
  <defs
     id="defs5176" />
  <sodipodi:namedview
     id="base"
     pagecolor="#ffffff"
     bordercolor="#666666"
     borderopacity="1.0"
     inkscape:pageopacity="0.0"
     inkscape:pageshadow="2"
     inkscape:zoom="1.1402918"
     inkscape:cx="463.92331"
     inkscape:cy="-94.562968"
     inkscape:document-units="mm"
     inkscape:current-layer="layer1"
     showgrid="false"
     fit-margin-top="0"
     fit-margin-left="0"
     fit-margin-right="0"
     fit-margin-bottom="0"
     inkscape:window-width="1554"
     inkscape:window-height="809"
     inkscape:window-x="130"
     inkscape:window-y="79"
     inkscape:window-maximized="0" />
  <metadata
     id="metadata5179">
    <rdf:RDF>
      <cc:Work
         rdf:about="">
        <dc:format>image/svg+xml</dc:format>
        <dc:type
           rdf:resource="http://purl.org/dc/dcmitype/StillImage" />
        <dc:title></dc:title>
      </cc:Work>
    </rdf:RDF>
  </metadata>
  <g
     inkscape:label="Layer 1"
     inkscape:groupmode="layer"
     id="layer1"
     transform="translate(-0.65843761,-0.57710382)">
    <path
       d="m 46.160677,0.57710382 h 13.6525 c 10.42127,0 18.94086,8.51958998 18.94086,18.94416918 0,10.42128 -8.51959,18.94086 -18.94086,18.94086 h -13.6525 -0.12899 -0.003 -0.12237 -0.003 c -2.72851,0 -4.96424,-2.23573 -4.96424,-4.96425 v -11.95255 h 14.29742 c 0.78052,1.7694 2.55323,3.00633 4.61036,3.00633 2.77813,0 5.0337,-2.25226 5.0337,-5.03039 0,-2.78143 -2.25557,-5.0337 -5.0337,-5.0337 -2.05713,0 -3.82984,1.23693 -4.60705,3.00633 H 40.939057 V 5.5413538 c 0,-2.72852 2.23573,-4.96424998 4.96425,-4.96424998 h 0.003 l 0.12237,0.003 h 0.003 l 0.129,-0.003"
       style="fill:#dbc335;fill-opacity:1;fill-rule:evenodd;stroke:none;stroke-width:0.03307291"
       id="path18"
       inkscape:connector-curvature="0" />
    <path
       d="M 0.65895761,19.521273 V 5.5413538 c 0,-2.73182 2.23373999,-4.96424998 4.96423999,-4.96424998 H 33.579737 c 2.72851,0 4.96424,2.23242998 4.96424,4.96424998 v 0 c 0,2.73182 -2.23573,4.9642392 -4.96424,4.9642392 h -13.35485 c -0.77721,-1.7693992 -2.54661,-3.0063292 -4.60705,-3.0063292 -2.77813,0 -5.03039,2.2522696 -5.03039,5.0303992 0,2.78143 2.25226,5.03369 5.03039,5.03369 2.06044,0 3.82984,-1.23692 4.61036,-3.00963 h 13.35154 v 0.003 h 0.12898 v 0 l 0.12568,0.003 v 0.003 l 0.12568,0.007 v 0 l 0.12567,0.01 v 0.003 l 0.12237,0.01 v 0.003 l 0.12568,0.0165 v 0 l 0.12237,0.0198 v 0 l 0.12237,0.0232 v 0 l 0.11906,0.0265 v 0 l 0.11907,0.0298 v 0 l 0.11906,0.0331 v 0 l 0.11575,0.0331 v 0.003 l 0.11576,0.0364 v 0 l 0.11575,0.0397 v 0 l 0.11245,0.043 v 0 l 0.10914,0.0463 v 0 l 0.11245,0.0463 v 0.003 l 0.10914,0.0496 v 0 l 0.10914,0.0529 v 0.003 l 0.10583,0.0529 v 0.003 l 0.10253,0.0562 v 0 l 0.10583,0.0595 v 0.003 l 0.0992,0.0628 v 0 l 0.0992,0.0661 v 0 l 0.0992,0.0661 v 0 l 0.0992,0.0728 v 0 l 0.0926,0.0728 v 0 l 0.0926,0.0728 v 0.003 l 0.0926,0.0761 v 0 l 0.0893,0.0761 v 0.003 l 0.086,0.0794 v 0 l 0.086,0.0827 v 0.003 l 0.0827,0.0827 v 0 l 0.0827,0.086 v 0.003 l 0.0761,0.086 v 0.003 l 0.0794,0.0893 v 0 l 0.0761,0.0926 v 0.003 l 0.0728,0.0926 v 0 l 0.0694,0.0959 v 0 l 0.0661,0.0992 v 0 l 0.0661,0.0992 v 0 l 0.0661,0.10252 v 0 l 0.0595,0.10253 v 0 l 0.0595,0.10253 v 0.003 l 0.0562,0.10252 v 0.003 l 0.0529,0.10584 v 0 l 0.0529,0.10914 v 0.003 l 0.0463,0.10914 v 0 l 0.0463,0.10914 v 0.003 l 0.043,0.10914 v 0.003 l 0.0397,0.11245 v 0.003 l 0.0397,0.11244 v 0 l 0.0331,0.11907 v 0 l 0.0331,0.11575 v 0.003 l 0.0298,0.11576 v 0.003 l 0.0265,0.11906 v 0 l 0.0232,0.11906 v 0.003 l 0.0198,0.12237 v 0 l 0.0198,0.12237 v 0 l 0.0132,0.12237 v 0 l 0.01,0.12568 v 0 l 0.01,0.12567 v 0.003 l 0.003,0.12568 v 0 l 0.003,0.12568 v 13.97992 c 0,2.73182 -2.23572,4.96425 -4.96424,4.96425 H 5.6226776 c -2.7305,2.2e-4 -4.96423999,-2.2322 -4.96423999,-4.96403 v 0 c 0,-2.73182 2.23373999,-4.96424 4.96423999,-4.96424 H 18.954367 c 0.75737,1.82562 2.55323,3.10885 4.65336,3.10885 2.77813,0 5.03039,-2.25226 5.03039,-5.03369 0,-2.77813 -2.25226,-5.03039 -5.03039,-5.03039 -2.02075,0 -3.76039,1.19062 -4.56406,2.9071 H 5.6226776 v -0.003 h -0.12898 v 0 l -0.12568,-0.003 v -0.003 l -0.12568,-0.007 v 0 l -0.12567,-0.01 v -0.003 l -0.12568,-0.01 v -0.003 l -0.12237,-0.0166 v 0 l -0.12237,-0.0198 v 0 l -0.12237,-0.0231 v 0 l -0.11906,-0.0265 v 0 l -0.11906,-0.0298 v 0 l -0.11841,-0.0331 v 0 l -0.11707,-0.0331 v -0.003 l -0.1151,-0.0364 v 0 l -0.11509,-0.0397 v 0 l -0.11278,-0.043 v 0 l -0.11179,-0.0463 v 0 l -0.11112,-0.0463 v -0.003 l -0.10881,-0.0496 v 0 l -0.10881,-0.0529 v 0 l -0.1055,-0.0562 v -0.003 l -0.10451,-0.0562 v 0 l -0.10286,-0.0595 v -0.003 l -0.10253,-0.0628 v 0 l -0.0992,-0.0661 v 0 l -0.0979,-0.0661 v 0 l -0.0969,-0.0695 v -0.003 l -0.0946,-0.0728 v 0 l -0.0936,-0.0728 v -0.003 l -0.091,-0.0761 v 0 l -0.089,-0.0761 v -0.003 l -0.0876,-0.0794 v 0 l -0.0847,-0.0827 v -0.003 l -0.084,-0.0827 v 0 l -0.0807,-0.086 v -0.003 l -0.079,-0.086 v -0.003 l -0.0771,-0.0893 v 0 l -0.0754,-0.0926 v -0.003 l -0.0728,-0.0926 v 0 l -0.0704,-0.0959 v 0 l -0.0675,-0.0993 v 0 l -0.0661,-0.0992 v 0 l -0.0642,-0.10252 v 0 l -0.0612,-0.0992 v -0.003 l -0.0579,-0.10253 v -0.003 l -0.0572,-0.10254 v -0.003 l -0.0533,-0.10583 v 0 l -0.0516,-0.10914 v 0 l -0.0476,-0.11245 v 0 l -0.0473,-0.10914 v -0.003 l -0.043,-0.10914 v -0.003 l -0.0397,-0.11245 v -0.003 l -0.038,-0.11248 v 0 l -0.0351,-0.11906 v 0 l -0.0324,-0.11575 v -0.003 l -0.0291,-0.11576 v -0.003 l -0.0261,-0.11906 v 0 l -0.0241,-0.11908 v -0.003 l -0.0205,-0.12237 v 0 l -0.0165,-0.12237 v 0 l -0.0145,-0.12237 v 0 l -0.0109,-0.12568 v 0 l -0.008,-0.12568 v -0.003 l -0.006,-0.12568 v 0 l -0.001,-0.12568"
       style="fill:#ffffff;fill-opacity:1;fill-rule:evenodd;stroke:none;stroke-width:0.03307291"
       id="path20"
       inkscape:connector-curvature="0" />
  </g>
</svg>
