<svg xmlns:svg="http://www.w3.org/2000/svg"
   xmlns="http://www.w3.org/2000/svg"
   width="64.293747mm"
   height="6.3764582mm"
   viewBox="0 0 64.293747 6.3764582"
   version="1.1"
   id="svg8"
>
  <defs
     id="defs2" />

  <g
     id="layer1"
     transform="translate(-8.6745502,-73.829629)">
    <g
       id="g33"
       transform="matrix(0.26458333,0,0,0.26458333,4.4147586,69.331712)">
      <path
         id="path12"
         d="m 117.9,26.5 v 3.2 h -8.2 v -3.2 z m -10,-0.9 v 10.1 c 0,0.5 0.4,0.9 0.9,0.9 0.5,0 0.9,-0.4 0.9,-0.9 v -4.1 h 3.7 l 4.8,4.8 c 0.4,0.4 0.9,0.4 1.3,0 0.4,-0.4 0.4,-0.9 0,-1.3 L 116,31.6 h 2.8 0.1 0.1 0.1 0.1 v 0 h 0.1 v 0 h 0.1 0.1 v 0 l 0.1,-0.1 v -0.1 -0.1 -0.1 -0.1 -0.1 -0.1 0 -0.1 -5.1 c 0,-0.5 -0.4,-0.9 -0.9,-0.9 h -10.1 c -0.3,-0.1 -0.7,0.3 -0.7,0.8 z M 97.5,24.7 c -0.5,0 -0.9,0.4 -0.9,0.9 v 10.1 c 0,0.5 0.4,0.9 0.9,0.9 h 7.8 c 0.5,0 0.9,-0.4 0.9,-0.9 0,-0.5 -0.4,-0.9 -0.9,-0.9 h -6.9 v -8.2 h 6.9 c 0.5,0 0.9,-0.4 0.9,-0.9 0,-0.5 -0.4,-0.9 -0.9,-0.9 h -7.8 z m -10.5,0 c -0.5,0 -0.9,0.4 -0.9,0.9 v 10.1 c 0,0.5 0.4,0.9 0.9,0.9 h 6.9 c 0.5,0 0.9,-0.4 0.9,-0.9 0,-0.5 -0.4,-0.9 -0.9,-0.9 h -6 v -3.2 h 6 c 0.5,0 0.9,-0.4 0.9,-0.9 0,-0.5 -0.4,-0.9 -0.9,-0.9 h -6 v -3.2 h 6 c 0.5,0 0.9,-0.4 0.9,-0.9 0,-0.5 -0.4,-0.9 -0.9,-0.9 H 87 Z m -14.5,0.9 v 5.1 0.1 0.1 0.1 0 0.1 0.1 0.1 0.1 0 l 0.1,0.1 v 0 h 0.1 0.1 0.1 0.1 v 0 h 0.1 0.1 v 0 h 0.1 0.1 9.2 v 3.2 h -9.2 c -0.5,0 -0.9,0.4 -0.9,0.9 0,0.5 0.4,0.9 0.9,0.9 h 10.1 c 0.5,0 0.9,-0.4 0.9,-0.9 v -5 -0.1 -0.1 -0.1 -0.1 0 -0.1 0 0 L 84.3,30 H 84.2 L 84.1,29.9 H 84 83.9 83.8 83.7 83.6 83.5 83.4 83.3 74.1 v -3.2 h 9.2 c 0.5,0 0.9,-0.4 0.9,-0.9 0,-0.5 -0.4,-0.9 -0.9,-0.9 h -9.9 c -0.5,-0.2 -0.9,0.2 -0.9,0.7 z m 59.7,0 c 0,0.5 0.4,0.9 0.9,0.9 h 2.8 v 9.2 c 0,0.5 0.4,0.9 0.9,0.9 0.5,0 0.9,-0.4 0.9,-0.9 v -9.2 h 2.8 c 0.5,0 0.9,-0.4 0.9,-0.9 0,-0.5 -0.4,-0.9 -0.9,-0.9 h -7.3 c -0.6,0 -1,0.4 -1,0.9 z m -9.5,-0.9 c -0.5,0 -0.9,0.4 -0.9,0.9 v 10.1 c 0,0.5 0.4,0.9 0.9,0.9 h 6.9 c 0.5,0 0.9,-0.4 0.9,-0.9 0,-0.5 -0.4,-0.9 -0.9,-0.9 h -6 v -3.2 h 6 c 0.5,0 0.9,-0.4 0.9,-0.9 0,-0.5 -0.4,-0.9 -0.9,-0.9 h -6 v -3.2 h 6 c 0.5,0 0.9,-0.4 0.9,-0.9 0,-0.5 -0.4,-0.9 -0.9,-0.9 h -6.9 z"
         class="st0"
         style="clip-rule:evenodd;fill:#ffffff;fill-rule:evenodd" />
      <path
         id="path14"
         d="m 213.2,24.7 c -0.5,0 -0.9,0.4 -0.9,0.9 v 10.1 c 0,0.5 0.4,0.9 0.9,0.9 0.5,0 0.9,-0.4 0.9,-0.9 v -9.1 h 8.2 v 9.1 c 0,0.5 0.4,0.9 0.9,0.9 0.5,0 0.9,-0.4 0.9,-0.9 V 25.6 c 0,-0.5 -0.4,-0.9 -0.9,-0.9 z m 21,0 h -7.3 c -0.5,0 -0.9,0.4 -0.9,0.9 0,0.5 0.4,0.9 0.9,0.9 h 2.8 v 9.1 c 0,0.5 0.4,0.9 0.9,0.9 0.5,0 0.9,-0.4 0.9,-0.9 v -9.1 h 2.8 c 0.5,0 0.9,-0.4 0.9,-0.9 -0.1,-0.5 -0.5,-0.9 -1,-0.9 z m -34.5,0 c -0.5,0 -0.9,0.4 -0.9,0.9 v 10.1 c 0,0.5 0.4,0.9 0.9,0.9 h 10.1 c 0.5,0 0.9,-0.4 0.9,-0.9 V 25.6 c 0,-0.5 -0.4,-0.9 -0.9,-0.9 -0.5,0 -0.9,0.4 -0.9,0.9 v 9.1 h -8.2 v -9.1 c -0.1,-0.5 -0.5,-0.9 -1,-0.9 z m -4.5,1.8 v 8.2 H 187 v -8.2 z m -9.1,-1.8 c -0.5,0 -0.9,0.4 -0.9,0.9 v 10.1 c 0,0.5 0.4,0.9 0.9,0.9 h 10.1 c 0.5,0 0.9,-0.4 0.9,-0.9 V 25.6 c 0,-0.5 -0.4,-0.9 -0.9,-0.9 z m -11.4,0 c -0.5,0 -0.9,0.4 -0.9,0.9 v 10.1 c 0,0.5 0.4,0.9 0.9,0.9 h 7.8 c 0.5,0 0.9,-0.4 0.9,-0.9 0,-0.5 -0.4,-0.9 -0.9,-0.9 h -6.9 v -8.2 h 6.9 c 0.5,0 0.9,-0.4 0.9,-0.9 0,-0.5 -0.4,-0.9 -0.9,-0.9 h -7.8 z m -14.5,0.9 v 5.1 0.1 0.1 0.1 0 0.1 0.1 0.1 l 0.1,0.1 v 0 l 0.1,0.1 0.1,0.1 h 0.1 0.1 0.1 0.1 0.1 v 0 h 0.1 9.2 v 3.2 h -9.1 c -0.5,0 -0.9,0.4 -0.9,0.9 0,0.5 0.4,0.9 0.9,0.9 h 10.1 c 0.5,0 0.9,-0.4 0.9,-0.9 v -5 -0.1 -0.1 0 -0.1 -0.1 -0.1 -0.1 -0.1 -0.1 0 h -0.1 -0.1 -0.1 -0.1 -0.1 -0.1 -0.1 -0.1 -0.1 -9.3 v -3.2 h 9.1 c 0.5,0 0.9,-0.4 0.9,-0.9 0,-0.5 -0.4,-0.9 -0.9,-0.9 H 161 c -0.4,-0.2 -0.8,0.2 -0.8,0.7 z m -2.6,-0.9 c -0.5,0 -0.9,0.4 -0.9,0.9 v 10.1 c 0,0.5 0.4,0.9 0.9,0.9 0.5,0 0.9,-0.4 0.9,-0.9 V 25.6 c 0,-0.5 -0.4,-0.9 -0.9,-0.9 z m -12.8,1.7 h 4.2 c 2.3,0 4.2,1.9 4.2,4.2 0,2.3 -1.9,4.2 -4.2,4.2 h -4.2 v -4.2 c 0,-0.1 0,-0.2 0,-0.3 0,-1 0,-2 0,-3 z m -1.7,3.1 v 0.9 c 0,0.1 0,0.2 0,0.3 v 0.9 c 0,1.4 0,2.7 0,4.1 v 0.1 c 0,0.5 0.4,0.9 0.9,0.9 h 5 c 3.3,0 5.9,-2.7 5.9,-5.9 0,-3.3 -2.7,-5.9 -5.9,-5.9 h -5 c -0.5,0 -0.9,0.4 -0.9,0.9 v 0.1 c 0,1 0,2.3 0,3.6 z m 114.2,-3 v 3.2 H 249 v -3.2 z m -10.1,-0.9 v 10.1 c 0,0.5 0.4,0.9 0.9,0.9 0.5,0 0.9,-0.4 0.9,-0.9 v -4.1 h 3.7 l 4.8,4.8 c 0.4,0.4 0.9,0.4 1.3,0 0.4,-0.4 0.4,-0.9 0,-1.3 l -3.5,-3.5 h 2.8 v 0 h 0.1 v 0 h 0.1 0.1 0.1 0.1 l 0.1,-0.1 0.1,-0.1 v 0 -0.1 l 0.1,-0.1 v -0.1 -0.1 -0.1 -0.1 0 -0.1 -0.1 -0.1 -5 c 0,-0.5 -0.4,-0.9 -0.9,-0.9 h -10.1 c -0.3,0.1 -0.7,0.5 -0.7,1 z m -9.5,-0.9 c -0.5,0 -0.9,0.4 -0.9,0.9 v 10.1 c 0,0.5 0.4,0.9 0.9,0.9 h 6.9 c 0.5,0 0.9,-0.4 0.9,-0.9 0,-0.5 -0.4,-0.9 -0.9,-0.9 h -6 v -3.2 h 6 c 0.5,0 0.9,-0.4 0.9,-0.9 0,-0.5 -0.4,-0.9 -0.9,-0.9 h -6 v -3.2 h 6 c 0.5,0 0.9,-0.4 0.9,-0.9 0,-0.5 -0.4,-0.9 -0.9,-0.9 h -6.9 z"
         class="st1"
         style="clip-rule:evenodd;fill:#e4c745;fill-rule:evenodd" />
      <path
         id="path16"
         d="m 44.6,17 h 8.6 c 6.5,0 11.9,5.3 11.9,11.9 0,6.5 -5.3,11.9 -11.9,11.9 h -8.6 -0.1 v 0 h -0.1 v 0 c -1.7,0 -3.1,-1.4 -3.1,-3.1 v -0.2 -7.3 h 9 c 0.5,1.1 1.6,1.9 2.9,1.9 1.7,0 3.2,-1.4 3.2,-3.2 0,-1.7 -1.4,-3.2 -3.2,-3.2 -1.3,0 -2.4,0.8 -2.9,1.9 h -9 v -7.3 -0.2 c 0,-1.7 1.4,-3.1 3.1,-3.1 v 0 z"
         class="st1"
         style="clip-rule:evenodd;fill:#e4c745;fill-rule:evenodd" />
      <path
         id="path18"
         d="m 16.1,20.1 v 0 c 0,-1.7 1.4,-3.1 3.1,-3.1 v 0 h 17.5 c 1.7,0 3.1,1.4 3.1,3.1 v 0 c 0,1.7 -1.4,3.1 -3.1,3.1 h -8.4 c -0.5,-1.1 -1.6,-1.9 -2.9,-1.9 -1.7,0 -3.2,1.4 -3.2,3.2 0,1.7 1.4,3.2 3.2,3.2 1.3,0 2.4,-0.8 2.9,-1.9 h 8.4 v 0 h 0.1 v 0 h 0.1 v 0 H 37 v 0 h 0.1 v 0 h 0.1 v 0 h 0.1 v 0 h 0.1 v 0 h 0.1 v 0 h 0.1 v 0 h 0.1 v 0 h 0.1 v 0 h 0.1 v 0 H 38 v 0 h 0.1 v 0 h 0.1 v 0 h 0.1 v 0 h 0.1 v 0 h 0.1 v 0 h 0.1 v 0 h 0.1 v 0 h 0.1 v 0 h 0.1 v 0 H 39 v 0 h 0.1 v 0 h 0.1 v 0 h 0.1 v 0 h 0.1 v 0 h 0.1 v 0 h 0.1 v 0 h 0.1 v 0 l 0.1,0.1 v 0 l 0.1,0.1 v 0 l 0.1,0.1 v 0 l 0.1,0.1 v 0 0.1 0 0.1 0 0.1 0 0.1 0 0.1 0 0.1 0 0.1 0 0.1 0 0.1 0 0.1 0 0.1 0 0.1 0 0.1 0 0.1 0 0.1 0 0.1 0 0.1 0 0.1 0 0.1 0 0.1 0 0.1 0 0.1 0 0.1 0 0.1 0 0.1 0 0.1 0 0.1 0 0.1 0 0.1 0 0.1 0 0 8.8 0 c 0,1.7 -1.4,3.1 -3.1,3.1 v 0 H 19.2 c -1.7,0 -3.1,-1.4 -3.1,-3.1 v 0 c 0,-1.7 1.4,-3.1 3.1,-3.1 h 8.4 c 0.5,1.1 1.6,2 2.9,2 1.7,0 3.2,-1.4 3.2,-3.2 0,-1.7 -1.4,-3.2 -3.2,-3.2 -1.3,0 -2.4,0.7 -2.9,1.8 0,0 -5.3,0 -8.4,0 -1.6,0 -3.1,-1.2 -3.1,-3.1 0,-1.2 0,-9.1 0,-9.1 z"
         class="st0"
         style="clip-rule:evenodd;fill:#ffffff;fill-rule:evenodd" />
    </g>
  </g>
</svg>
