<svg width="200" height="200" viewBox="0 0 200 200"><g transform="matrix(1 0 0 -1 72.381 90.172)"><path d="M87.2 0 87.2 17.1 75 17.1 75 0 57.9 0 57.9-12.2 75-12.2 75-29.3 87.2-29.3 87.2-12.2 104.3-12.2 104.3 0 87.2 0Z"/><path d="M0 0 0-19.6 26.2-19.6C25.4-23.7 23.8-27.5 20.8-30.6 10.3-42.1-9.3-42-20.5-30.4-31.7-18.9-31.6-0.3-20.2 11.1-9.4 21.9 8 22.4 18.6 12.1L18.5 12.1 32.8 26.4C13.7 43.8-15.8 43.5-34.5 25.1-53.8 6.1-54-25-34.9-44.3-15.9-63.5 17.1-63.7 34.9-44.6 45.6-33 48.7-16.4 46.2 0L0 0Z"/></g></svg>
