<svg width="200" height="200" viewBox="0 0 200 200"><g transform="matrix(0.42623 0 0 0.42623 34.999 35)"><path d="M160.7 19.5c-18.9 0-37.3 3.7-54.7 10.9L76.4 0.7c-0.8-0.8-2.1-1-3.1-0.4C44.4 18.2 19.8 42.9 1.9 71.7c-0.6 1-0.5 2.3 0.4 3.1l28.4 28.4c-8.5 18.6-12.8 38.5-12.8 59.1 0 78.7 64 142.8 142.8 142.8 78.7 0 142.8-64 142.8-142.8C303.4 83.5 239.4 19.5 160.7 19.5zM217.2 148.7l9.9 42.1 9.5 44.4 -44.3-9.5 -42.1-9.9L36.7 102.1c14.3-29.3 38.3-52.6 68.1-65.8L217.2 148.7z"/><path d="M221.8 187.4l-7.5-33c-25.9 11.9-46.4 32.4-58.3 58.3l33 7.5C196 206.2 207.7 194.4 221.8 187.4z"/></g></svg>
