<svg width="200" height="200" viewBox="0 0 200 200"><path transform="matrix(1,0,0,-1,97.676,62.411)" d="M0 0C10.2 0 19.9-4.5 26.9-11.6L26.9-11.6C26.9-8.2 29.2-5.7 32.4-5.7L33.2-5.7C38.2-5.7 39.2-10.4 39.2-11.9L39.2-64.8C38.9-68.2 42.8-70 45-67.8 53.5-59.1 63.6-22.9 39.7-2 17.4 17.6-12.5 14.3-28.5 3.4-45.4-8.3-56.2-34.1-45.7-58.4-34.2-84.9-1.4-92.8 18.1-84.9 28-80.9 32.5-94.3 22.3-98.6 6.8-105.2-36.4-104.5-56.5-69.6-70.1-46.1-69.4-4.6-33.3 16.9-5.7 33.3 30.7 28.8 52.7 5.8 75.6-18.2 74.3-63 51.9-80.5 41.8-88.4 26.7-80.7 26.8-69.2L26.7-65.4C19.6-72.4 10.2-76.5 0-76.5-20.2-76.5-38-58.7-38-38.4-38-18-20.2 0 0 0M25.5-37C24.7-22.2 13.7-13.3 0.4-13.3L-0.1-13.3C-15.4-13.3-23.9-25.3-23.9-39-23.9-54.3-13.6-64-0.1-64 14.9-64 24.8-53 25.5-40L25.5-37Z"/></svg>
