<svg version="1.1" width="200" height="200" viewBox="0 0 200 200"><g transform="translate(106.88,183.61)"><g transform="translate(-6.8805,-100)" style="stroke:none;stroke-opacity:1"><path d="M 0,0 C 8.146,0 14.769,-6.625 14.769,-14.77 14.769,-22.907 8.146,-29.533 0,-29.533 -8.136,-29.533 -14.769,-22.907 -14.769,-14.77 -14.769,-6.625 -8.136,0 0,0 M 0,-50.429 C 19.676,-50.429 35.67,-34.435 35.67,-14.77 35.67,4.903 19.676,20.903 0,20.903 -19.671,20.903 -35.669,4.903 -35.669,-14.77 -35.669,-34.435 -19.671,-50.429 0,-50.429" style="fill-opacity:1;fill-rule:nonzero;stroke:none;stroke-opacity:1"/></g><g transform="matrix(1,0,0,-1,7.5516,-54.577)" style="stroke:none;stroke-opacity:1"><path d="M 0,0 C 7.262,1.655 14.264,4.526 20.714,8.578 25.595,11.654 27.066,18.108 23.99,22.989 20.917,27.881 14.469,29.352 9.579,26.275 -5.032,17.086 -23.843,17.092 -38.446,26.275 -43.336,29.352 -49.784,27.881 -52.852,22.989 -55.928,18.104 -54.461,11.654 -49.58,8.578 -43.132,4.531 -36.128,1.655 -28.867,0 L -48.809,-19.941 C -52.886,-24.022 -52.886,-30.639 -48.805,-34.72 -46.762,-36.758 -44.09,-37.779 -41.418,-37.779 -38.742,-37.779 -36.065,-36.758 -34.023,-34.72 L -14.436,-15.123 5.169,-34.72 C 9.246,-38.801 15.862,-38.801 19.943,-34.72 24.028,-30.639 24.028,-24.019 19.943,-19.941 L 0,0 Z" style="fill-opacity:1;fill-rule:nonzero;stroke:none;stroke-opacity:1"/></g></g></svg>
