<svg width="200" height="200" viewBox="0 0 200 200"><path transform="matrix(1,0,0,-1,169.76,56.727)" d="M0 0C-5.1-2.3-10.6-3.8-16.4-4.5-10.5-1-6 4.6-3.9 11.3-9.4 8-15.5 5.7-22 4.4-27.3 9.9-34.7 13.4-42.9 13.4-58.7 13.4-71.6 0.6-71.6-15.2-71.6-17.4-71.3-19.6-70.8-21.7-94.6-20.5-115.7-9.1-129.8 8.2-132.3 4-133.7-1-133.7-6.2-133.7-16.1-128.6-24.9-120.9-30-125.6-29.9-130.1-28.6-133.9-26.5-133.9-26.6-133.9-26.7-133.9-26.8-133.9-40.7-124-52.3-111-54.9-113.4-55.5-115.9-55.9-118.5-55.9-120.3-55.9-122.1-55.7-123.9-55.4-120.2-66.7-109.7-75-97.1-75.3-106.9-82.9-119.3-87.5-132.7-87.5-135-87.5-137.3-87.4-139.5-87.1-126.8-95.2-111.8-100-95.6-100-43-100-14.2-56.3-14.2-18.5-14.2-17.3-14.2-16-14.3-14.8-8.7-10.8-3.8-5.7 0 0"/></svg>
