<svg width="200" height="200" viewBox="0 0 200 200">
  <path transform="matrix(1,0,0,-1,130.84,112.7)"
        d="M0 0C-1.6 0.9-9.4 5.1-10.8 5.7-12.3 6.3-13.4 6.6-14.5 5-15.6 3.4-18.9-0.1-19.9-1.1-20.8-2.2-21.8-2.3-23.4-1.4-25-0.5-30.1 1.4-36.1 7.1-40.7 11.5-43.7 17-44.6 18.6-45.5 20.3-44.6 21.1-43.8 21.9-43 22.6-42.1 23.7-41.3 24.6-40.4 25.5-40.1 26.2-39.5 27.2-39 28.3-39.2 29.3-39.6 30.1-39.9 30.9-42.9 39-44.1 42.3-45.3 45.5-46.7 45-47.6 45.1-48.6 45.1-49.6 45.3-50.7 45.3-51.8 45.4-53.6 45-55.1 43.5-56.6 41.9-61 38.2-61.3 30.2-61.6 22.3-56.1 14.4-55.3 13.3-54.5 12.2-44.8-5.1-28.6-12.1-12.4-19.2-12.4-17.1-9.4-16.9-6.4-16.8 0.3-13.4 1.8-9.6 3.3-5.9 3.4-2.7 3-2 2.6-1.3 1.6-0.9 0 0M-29.7-38.3C-40.4-38.3-50.3-35.1-58.6-29.6L-78.9-36.1-72.3-16.5C-78.6-7.8-82.3 2.8-82.3 14.4-82.3 43.4-58.7 67.1-29.7 67.1-0.6 67.1 23 43.4 23 14.4 23-14.7-0.6-38.3-29.7-38.3M-29.7 77.6C-64.6 77.6-92.9 49.3-92.9 14.4-92.9 2.4-89.6-8.8-83.9-18.3L-95.3-52.2-60.2-41C-51.2-46-40.8-48.9-29.7-48.9 5.3-48.9 33.6-20.6 33.6 14.4 33.6 49.3 5.3 77.6-29.7 77.6"/>
</svg>
