<svg width="200" height="200" viewBox="0 0 200 200"><path transform="matrix(1,0,0,-1,98.274,145.52)" d="M0 0 9.6 0C9.6 0 12.5 0.3 14 1.9 15.4 3.4 15.3 6.1 15.3 6.1 15.3 6.1 15.1 19 21.1 21 27 22.8 34.6 8.5 42.7 3 48.7-1.2 53.3-0.3 53.3-0.3L74.8 0C74.8 0 86.1 0.7 80.7 9.5 80.3 10.3 77.6 16.1 64.8 28 51.3 40.5 53.1 38.5 69.3 60.1 79.2 73.3 83.2 81.4 81.9 84.8 80.8 88.1 73.5 87.2 73.5 87.2L49.3 87.1C49.3 87.1 47.5 87.3 46.2 86.5 44.9 85.7 44 83.9 44 83.9 44 83.9 40.2 73.7 35.1 65.1 24.3 46.8 20 45.8 18.3 46.9 14.2 49.6 15.2 57.6 15.2 63.2 15.2 81 17.9 88.4 9.9 90.3 7.3 90.9 5.4 91.3-1.4 91.4-10 91.5-17.3 91.4-21.4 89.3-24.2 88-26.3 85-25 84.8-23.4 84.6-19.8 83.8-17.9 81.2-15.4 77.9-15.5 70.3-15.5 70.3-15.5 70.3-14.1 49.4-18.8 46.8-22.1 45-26.5 48.7-36.1 65.3-41.1 73.8-44.8 83.2-44.8 83.2-44.8 83.2-45.5 84.9-46.8 85.9-48.3 87-50.5 87.4-50.5 87.4L-73.5 87.2C-73.5 87.2-76.9 87.1-78.2 85.6-79.3 84.3-78.3 81.5-78.3 81.5-78.3 81.5-60.3 39.4-39.9 18.2-21.2-1.3 0 0 0 0"/></svg>
