<svg width="200" height="200" viewBox="0 0 200 200"><path transform="matrix(1,0,0,-1,135.33,119.85)" d="M0 0C-2.4-5.4-6.5-9-12.2-10.6-14.3-11.2-16.3-10.7-18.2-9.9-44.4 1.2-63.3 19.6-74 46.2-74.8 48.1-75.3 50.1-75.2 51.9-75.2 58.7-69.2 65-62.6 65.4-60.8 65.5-59.2 64.9-57.9 63.7-53.3 59.3-49.6 54.3-46.9 48.6-45.4 45.5-46 43.3-48.7 41.1-49.1 40.7-49.5 40.4-50 40.1-53.5 37.5-54.3 34.9-52.6 30.8-49.8 24.2-45.4 19-39.3 15.1-37 13.6-34.7 12.2-32 11.5-29.6 10.8-27.7 11.5-26.1 13.4-25.9 13.6-25.8 13.9-25.6 14.1-22.3 18.8-18.6 19.6-13.7 16.5-9.6 13.9-5.6 11-1.8 7.8 0.7 5.6 1.3 3 0 0M-18.2 36.7C-18.3 35.9-18.3 35.4-18.4 34.9-18.6 34-19.2 33.4-20.2 33.4-21.3 33.4-21.9 34-22.2 34.9-22.3 35.5-22.4 36.2-22.5 36.9-23.2 40.3-25.2 42.6-28.6 43.6-29.1 43.7-29.5 43.7-29.9 43.8-31 44.1-32.4 44.2-32.4 45.8-32.5 47.1-31.5 47.9-29.6 48-28.4 48.1-26.5 47.5-25.4 46.9-20.9 44.7-18.7 41.6-18.2 36.7M-25.5 51.2C-28 52.1-30.5 52.8-33.2 53.2-34.5 53.4-35.4 54.1-35.1 55.6-34.9 57-34 57.5-32.6 57.4-24 56.6-17.3 53.4-12.6 46-10.5 42.5-9.2 37.5-9.4 33.8-9.5 31.2-9.9 30.5-11.4 30.5-13.6 30.6-13.3 32.4-13.5 33.7-13.7 35.7-14.2 37.7-14.7 39.7-16.3 45.4-19.9 49.3-25.5 51.2M-38 64.4C-37.9 65.9-37 66.5-35.5 66.4-23.2 65.8-13.9 62.2-6.7 52.5-2.5 46.9-0.2 39.2 0 32.2 0 31.1 0 30 0 29-0.1 27.8-0.6 26.9-1.9 26.9-3.2 26.9-3.9 27.6-4 29-4.3 34.2-5.3 39.3-7.3 44.1-11.2 53.5-18.6 58.6-28.1 61.1-30.7 61.7-33.2 62.2-35.8 62.5-37 62.5-38 62.8-38 64.4M11.5 74.1C6.6 78.3 0.9 80.8-5.3 82.4-20.8 86.5-36.5 87.5-52.4 85.3-60.5 84.2-68.3 82.1-75.4 78.1-83.8 73.4-89.6 66.6-92.2 57.1-94 50.4-94.9 43.6-95.2 36.6-95.7 26.4-95.4 16.3-92.8 6.3-89.8-5.3-83.2-13.8-71.9-18.3-70.7-18.8-69.5-19.5-68.3-20-67.2-20.4-66.8-21.2-66.8-22.4-66.9-30.4-66.8-38.4-66.8-46.7-63.9-43.9-61.8-41.8-60.3-40.1-55.9-35.1-51.7-30.9-47.1-26.1-44.7-23.7-45.7-23.8-42.1-23.8-37.8-23.9-31-24.1-26.8-23.8-18.6-23.1-10.6-22.1-2.7-19.7 7.2-16.7 15.2-11.4 19.2-1.3 20.3 1.3 21.4 4 22 6.8 25.9 22.9 25.4 38.9 22.2 55 20.6 62.4 17.5 69 11.5 74.1"/></svg>
