<?xml version="1.0" encoding="UTF-8" standalone="no"?>
<!-- Generator: Adobe Illustrator 21.0.0, SVG Export Plug-In . SVG Version: 6.00 Build 0)  -->

<svg
   xmlns:dc="http://purl.org/dc/elements/1.1/"
   xmlns:cc="http://creativecommons.org/ns#"
   xmlns:rdf="http://www.w3.org/1999/02/22-rdf-syntax-ns#"
   xmlns:svg="http://www.w3.org/2000/svg"
   xmlns="http://www.w3.org/2000/svg"
   xmlns:sodipodi="http://sodipodi.sourceforge.net/DTD/sodipodi-0.dtd"
   xmlns:inkscape="http://www.inkscape.org/namespaces/inkscape"
   version="1.1"
   id="Layer_1"
   x="0px"
   y="0px"
   viewBox="0 0 128 128"
   style="enable-background:new 0 0 128 128;"
   xml:space="preserve"
   sodipodi:docname="uEA02-barcode.svg"
   inkscape:version="0.92.2 (5c3e80d, 2017-08-06)"><metadata
     id="metadata41"><rdf:RDF><cc:Work
         rdf:about=""><dc:format>image/svg+xml</dc:format><dc:type
           rdf:resource="http://purl.org/dc/dcmitype/StillImage" /><dc:title></dc:title></cc:Work></rdf:RDF></metadata><defs
     id="defs39" /><sodipodi:namedview
     pagecolor="#ffffff"
     bordercolor="#666666"
     borderopacity="1"
     objecttolerance="10"
     gridtolerance="10"
     guidetolerance="10"
     inkscape:pageopacity="0"
     inkscape:pageshadow="2"
     inkscape:window-width="1366"
     inkscape:window-height="692"
     id="namedview37"
     showgrid="false"
     inkscape:zoom="1.84375"
     inkscape:cx="63.747099"
     inkscape:cy="22.485086"
     inkscape:window-x="1366"
     inkscape:window-y="25"
     inkscape:window-maximized="1"
     inkscape:current-layer="g34" /><style
     type="text/css"
     id="style2">
	.st0{fill:none;stroke:#E5AD2A;stroke-width:2.9146;stroke-linecap:round;stroke-linejoin:round;stroke-miterlimit:10;}
	.st1{fill:#E5AD2A;}
	.st2{font-family:'Tahoma-Bold';}
	.st3{font-size:7.6861px;}
	.st4{fill:none;stroke:#E5AD2A;stroke-width:2.5961;stroke-linecap:round;stroke-miterlimit:10;}
	.st5{fill:none;stroke:#E5AD2A;stroke-width:1.5136;stroke-linecap:round;stroke-miterlimit:10;}
	.st6{fill:none;stroke:#E5AD2A;stroke-width:1.098;stroke-linecap:round;stroke-miterlimit:10;}
</style><g
     id="g34"><path
       style="color:#000000;font-style:normal;font-variant:normal;font-weight:normal;font-stretch:normal;font-size:medium;line-height:normal;font-family:sans-serif;font-variant-ligatures:normal;font-variant-position:normal;font-variant-caps:normal;font-variant-numeric:normal;font-variant-alternates:normal;font-feature-settings:normal;text-indent:0;text-align:start;text-decoration:none;text-decoration-line:none;text-decoration-style:solid;text-decoration-color:#000000;letter-spacing:normal;word-spacing:normal;text-transform:none;writing-mode:lr-tb;direction:ltr;text-orientation:mixed;dominant-baseline:auto;baseline-shift:baseline;text-anchor:start;white-space:normal;shape-padding:0;clip-rule:nonzero;display:inline;overflow:visible;visibility:visible;opacity:1;isolation:auto;mix-blend-mode:normal;color-interpolation:sRGB;color-interpolation-filters:linearRGB;solid-color:#000000;solid-opacity:1;vector-effect:none;fill:#e5ad2a;fill-opacity:1;fill-rule:nonzero;stroke:none;stroke-width:2.9145999;stroke-linecap:round;stroke-linejoin:round;stroke-miterlimit:10;stroke-dasharray:none;stroke-dashoffset:0;stroke-opacity:1;color-rendering:auto;image-rendering:auto;shape-rendering:auto;text-rendering:auto;enable-background:accumulate"
       d="m 40.400391,1.2421875 c -4.697156,0 -8.558594,3.8614382 -8.558594,8.5585937 V 118.30078 c 0,4.69716 3.861438,8.55664 8.558594,8.55664 h 47.199218 c 4.697156,0 8.577975,-3.87891 8.457032,-8.5957 V 9.8007812 c 0,-4.6971555 -3.859485,-8.5585937 -8.556641,-8.5585937 z m 0,2.9160156 H 87.5 c 3.102844,0 5.642578,2.5397337 5.642578,5.6425781 V 118.30078 a 1.4574457,1.4574457 0 0 0 0,0.0371 c 0.07906,3.08321 -2.440124,5.60547 -5.542969,5.60547 H 40.400391 c -3.102845,0 -5.642579,-2.53973 -5.642579,-5.64258 V 9.8007812 c 0,-3.1028444 2.539734,-5.6425781 5.642579,-5.6425781 z"
       id="path4"
       inkscape:connector-curvature="0" /><g
       id="g10"><g
         aria-label="SD"
         transform="matrix(1 0 0 1 40.443 93.5349)"
         style="font-size:7.68610001px;font-family:Tahoma-Bold;fill:#e5ad2a"
         id="text6"><path
           id="path890"
           style="font-size:7.68610001px;font-family:Tahoma-Bold;fill:#e5ad2a"
           d="m 6.3913223,-4.9802025 v 4.35720807 H 7.307049 q 1.1596704,0 1.6963463,-0.52541697 0.5404289,-0.525417 0.5404289,-1.6588165 0,-1.1258936 -0.5404289,-1.6475576 -0.5366759,-0.525417 -1.6963463,-0.525417 z M 5.6332206,-5.6031969 h 1.5574861 q 1.6287927,0 2.3906473,0.6792891 0.761855,0.6755361 0.761855,2.1166799 0,1.4486497 -0.765608,2.12793879 Q 8.8119934,0 7.1907067,0 H 5.6332206 Z M 4.1132645,-5.419301 v 0.7393368 Q 3.6816719,-4.886378 3.2988681,-4.9877085 2.9160643,-5.0890389 2.5595313,-5.0890389 q -0.6192414,0 -0.9570095,0.2401907 -0.3340151,0.2401906 -0.3340151,0.683042 0,0.3715449 0.2214258,0.5629468 0.2251787,0.1876489 0.8481731,0.3039913 l 0.4578634,0.093824 q 0.8481731,0.1613781 1.2497418,0.5704528 0.4053217,0.4053217 0.4053217,1.0883638 0,0.81439629 -0.5479348,1.23472988 -0.5441819,0.4203336 -1.5987689,0.4203336 -0.3978157,0 -0.8481731,-0.09007149 Q 1.0095512,-0.07130659 0.52916997,-0.24769658 V -1.0283161 q 0.46161636,0.2589555 0.90446783,0.39030975 0.4428515,0.13135425 0.870691,0.13135425 0.6492653,0 1.0020453,-0.25520254 0.35278,-0.25520256 0.35278,-0.72807786 0,-0.4128276 -0.2552026,-0.6455123 Q 3.152502,-2.3681294 2.5745433,-2.4844718 L 2.1129269,-2.5745433 Q 1.2647538,-2.7434273 0.88570293,-3.1037132 0.5066521,-3.4639992 0.5066521,-4.1057585 q 0,-0.7430897 0.521664,-1.1709293 0.525417,-0.4278395 1.4448967,-0.4278395 0.3940628,0 0.8031374,0.071306 0.4090747,0.071307 0.8369143,0.2139203 z" /></g><g
         aria-label="0000008"
         transform="matrix(1 0 0 1 53.2994 93.5349)"
         style="font-size:7.68610001px;font-family:Tahoma-Bold;fill:#e5ad2a"
         id="text8"><path
           id="path884"
           style="font-size:7.68610001px;font-family:Tahoma-Bold;fill:#e5ad2a"
           d="m 31.806493,-2.6608618 q -0.540429,0 -0.851926,0.2889794 -0.307744,0.2889793 -0.307744,0.7956314 0,0.5066521 0.307744,0.79563147 0.311497,0.28897934 0.851926,0.28897934 0.540429,0 0.851926,-0.28897934 0.311497,-0.29273237 0.311497,-0.79563147 0,-0.5066521 -0.311497,-0.7956314 -0.307744,-0.2889794 -0.851926,-0.2889794 z m -0.758102,-0.3227561 q -0.487887,-0.1200953 -0.761854,-0.4541104 -0.270215,-0.3340151 -0.270215,-0.8143964 0,-0.6717831 0.476629,-1.0620929 0.480381,-0.3903097 1.313542,-0.3903097 0.836914,0 1.313543,0.3903097 0.476628,0.3903098 0.476628,1.0620929 0,0.4803813 -0.273968,0.8143964 -0.270214,0.3340151 -0.754348,0.4541104 0.547935,0.1276012 0.851926,0.4991461 0.307744,0.3715449 0.307744,0.9082208 0,0.81439636 -0.499146,1.24974187 -0.495393,0.43534551 -1.422379,0.43534551 -0.926986,0 -1.426132,-0.43534551 -0.495393,-0.43534551 -0.495393,-1.24974187 0,-0.5366759 0.307744,-0.9082208 0.307745,-0.3715449 0.855679,-0.4991461 z m -0.27772,-1.1972002 q 0,0.4353455 0.270215,0.6792891 0.273967,0.2439436 0.765607,0.2439436 0.487887,0 0.761855,-0.2439436 0.27772,-0.2439436 0.27772,-0.6792891 0,-0.4353455 -0.27772,-0.6792891 -0.273968,-0.2439436 -0.761855,-0.2439436 -0.49164,0 -0.765607,0.2439436 -0.270215,0.2439436 -0.270215,0.6792891 z M 26.91261,-5.1040508 q -0.585464,0 -0.88195,0.5779587 -0.292732,0.5742057 -0.292732,1.7301231 0,1.1521644 0.292732,1.7301231 0.296486,0.57420571 0.88195,0.57420571 0.589218,0 0.88195,-0.57420571 0.296486,-0.5779587 0.296486,-1.7301231 0,-1.1559174 -0.296486,-1.7301231 -0.292732,-0.5779587 -0.88195,-0.5779587 z m 0,-0.6004765 q 0.941998,0 1.437391,0.7468427 0.499146,0.7430897 0.499146,2.1617156 0,1.4148729 -0.499146,2.16171563 -0.495393,0.74308975 -1.437391,0.74308975 -0.941997,0 -1.441143,-0.74308975 -0.495394,-0.74684273 -0.495394,-2.16171563 0,-1.4186259 0.495394,-2.1617156 0.499146,-0.7468427 1.441143,-0.7468427 z m -4.893884,0.6004765 q -0.585465,0 -0.88195,0.5779587 -0.292733,0.5742057 -0.292733,1.7301231 0,1.1521644 0.292733,1.7301231 0.296485,0.57420571 0.88195,0.57420571 0.589217,0 0.88195,-0.57420571 0.296485,-0.5779587 0.296485,-1.7301231 0,-1.1559174 -0.296485,-1.7301231 -0.292733,-0.5779587 -0.88195,-0.5779587 z m 0,-0.6004765 q 0.941997,0 1.437391,0.7468427 0.499146,0.7430897 0.499146,2.1617156 0,1.4148729 -0.499146,2.16171563 -0.495394,0.74308975 -1.437391,0.74308975 -0.941998,0 -1.441144,-0.74308975 -0.495393,-0.74684273 -0.495393,-2.16171563 0,-1.4186259 0.495393,-2.1617156 0.499146,-0.7468427 1.441144,-0.7468427 z m -4.893885,0.6004765 q -0.585465,0 -0.88195,0.5779587 -0.292732,0.5742057 -0.292732,1.7301231 0,1.1521644 0.292732,1.7301231 0.296485,0.57420571 0.88195,0.57420571 0.589218,0 0.88195,-0.57420571 0.296485,-0.5779587 0.296485,-1.7301231 0,-1.1559174 -0.296485,-1.7301231 -0.292732,-0.5779587 -0.88195,-0.5779587 z m 0,-0.6004765 q 0.941998,0 1.437391,0.7468427 0.499146,0.7430897 0.499146,2.1617156 0,1.4148729 -0.499146,2.16171563 -0.495393,0.74308975 -1.437391,0.74308975 -0.941998,0 -1.441144,-0.74308975 -0.495393,-0.74684273 -0.495393,-2.16171563 0,-1.4186259 0.495393,-2.1617156 0.499146,-0.7468427 1.441144,-0.7468427 z m -4.893884,0.6004765 q -0.585464,0 -0.88195,0.5779587 -0.292732,0.5742057 -0.292732,1.7301231 0,1.1521644 0.292732,1.7301231 0.296486,0.57420571 0.88195,0.57420571 0.589218,0 0.88195,-0.57420571 0.296486,-0.5779587 0.296486,-1.7301231 0,-1.1559174 -0.296486,-1.7301231 -0.292732,-0.5779587 -0.88195,-0.5779587 z m 0,-0.6004765 q 0.941998,0 1.437391,0.7468427 0.499146,0.7430897 0.499146,2.1617156 0,1.4148729 -0.499146,2.16171563 -0.495393,0.74308975 -1.437391,0.74308975 -0.941997,0 -1.441143,-0.74308975 Q 10.29442,-1.3810961 10.29442,-2.795969 q 0,-1.4186259 0.495394,-2.1617156 0.499146,-0.7468427 1.441143,-0.7468427 z m -4.8938838,0.6004765 q -0.5854647,0 -0.88195,0.5779587 -0.2927323,0.5742057 -0.2927323,1.7301231 0,1.1521644 0.2927323,1.7301231 0.2964853,0.57420571 0.88195,0.57420571 0.5892176,0 0.8819499,-0.57420571 0.2964854,-0.5779587 0.2964854,-1.7301231 0,-1.1559174 -0.2964854,-1.7301231 -0.2927323,-0.5779587 -0.8819499,-0.5779587 z m 0,-0.6004765 q 0.9419976,0 1.4373908,0.7468427 0.4991461,0.7430897 0.4991461,2.1617156 0,1.4148729 -0.4991461,2.16171563 -0.4953932,0.74308975 -1.4373908,0.74308975 -0.9419976,0 -1.4411438,-0.74308975 Q 5.4005363,-1.3810961 5.4005363,-2.795969 q 0,-1.4186259 0.4953931,-2.1617156 0.4991462,-0.7468427 1.4411438,-0.7468427 z M 2.443189,-5.1040508 q -0.5854646,0 -0.8819499,0.5779587 -0.2927324,0.5742057 -0.2927324,1.7301231 0,1.1521644 0.2927324,1.7301231 0.2964853,0.57420571 0.8819499,0.57420571 0.5892176,0 0.88195,-0.57420571 0.2964853,-0.5779587 0.2964853,-1.7301231 0,-1.1559174 -0.2964853,-1.7301231 -0.2927324,-0.5779587 -0.88195,-0.5779587 z m 0,-0.6004765 q 0.9419976,0 1.4373908,0.7468427 0.4991461,0.7430897 0.4991461,2.1617156 0,1.4148729 -0.4991461,2.16171563 -0.4953932,0.74308975 -1.4373908,0.74308975 -0.9419976,0 -1.4411437,-0.74308975 Q 0.5066521,-1.3810961 0.5066521,-2.795969 q 0,-1.4186259 0.4953932,-2.1617156 0.4991461,-0.7468427 1.4411437,-0.7468427 z" /></g></g><path
       style="color:#000000;font-style:normal;font-variant:normal;font-weight:normal;font-stretch:normal;font-size:medium;line-height:normal;font-family:sans-serif;font-variant-ligatures:normal;font-variant-position:normal;font-variant-caps:normal;font-variant-numeric:normal;font-variant-alternates:normal;font-feature-settings:normal;text-indent:0;text-align:start;text-decoration:none;text-decoration-line:none;text-decoration-style:solid;text-decoration-color:#000000;letter-spacing:normal;word-spacing:normal;text-transform:none;writing-mode:lr-tb;direction:ltr;text-orientation:mixed;dominant-baseline:auto;baseline-shift:baseline;text-anchor:start;white-space:normal;shape-padding:0;clip-rule:nonzero;display:inline;overflow:visible;visibility:visible;opacity:1;isolation:auto;mix-blend-mode:normal;color-interpolation:sRGB;color-interpolation-filters:linearRGB;solid-color:#000000;solid-opacity:1;vector-effect:none;fill:#e5ad2a;fill-opacity:1;fill-rule:nonzero;stroke:none;stroke-width:2.59610009;stroke-linecap:round;stroke-linejoin:miter;stroke-miterlimit:10;stroke-dasharray:none;stroke-dashoffset:0;stroke-opacity:1;color-rendering:auto;image-rendering:auto;shape-rendering:auto;text-rendering:auto;enable-background:accumulate"
       d="m 40.980469,43.882812 a 1.2981799,1.2981799 0 0 0 -1.279297,1.316407 v 36.601562 a 1.298828,1.298828 0 1 0 2.597656,0 V 45.199219 a 1.2981799,1.2981799 0 0 0 -1.318359,-1.316407 z"
       id="line12"
       inkscape:connector-curvature="0" /><path
       style="color:#000000;font-style:normal;font-variant:normal;font-weight:normal;font-stretch:normal;font-size:medium;line-height:normal;font-family:sans-serif;font-variant-ligatures:normal;font-variant-position:normal;font-variant-caps:normal;font-variant-numeric:normal;font-variant-alternates:normal;font-feature-settings:normal;text-indent:0;text-align:start;text-decoration:none;text-decoration-line:none;text-decoration-style:solid;text-decoration-color:#000000;letter-spacing:normal;word-spacing:normal;text-transform:none;writing-mode:lr-tb;direction:ltr;text-orientation:mixed;dominant-baseline:auto;baseline-shift:baseline;text-anchor:start;white-space:normal;shape-padding:0;clip-rule:nonzero;display:inline;overflow:visible;visibility:visible;opacity:1;isolation:auto;mix-blend-mode:normal;color-interpolation:sRGB;color-interpolation-filters:linearRGB;solid-color:#000000;solid-opacity:1;vector-effect:none;fill:#e5ad2a;fill-opacity:1;fill-rule:nonzero;stroke:none;stroke-width:2.59610009;stroke-linecap:round;stroke-linejoin:miter;stroke-miterlimit:10;stroke-dasharray:none;stroke-dashoffset:0;stroke-opacity:1;color-rendering:auto;image-rendering:auto;shape-rendering:auto;text-rendering:auto;enable-background:accumulate"
       d="m 46.080078,43.882812 a 1.2981799,1.2981799 0 0 0 -1.277344,1.316407 v 36.601562 a 1.2981799,1.2981799 0 1 0 2.595704,0 V 45.199219 a 1.2981799,1.2981799 0 0 0 -1.31836,-1.316407 z"
       id="line14"
       inkscape:connector-curvature="0" /><path
       style="color:#000000;font-style:normal;font-variant:normal;font-weight:normal;font-stretch:normal;font-size:medium;line-height:normal;font-family:sans-serif;font-variant-ligatures:normal;font-variant-position:normal;font-variant-caps:normal;font-variant-numeric:normal;font-variant-alternates:normal;font-feature-settings:normal;text-indent:0;text-align:start;text-decoration:none;text-decoration-line:none;text-decoration-style:solid;text-decoration-color:#000000;letter-spacing:normal;word-spacing:normal;text-transform:none;writing-mode:lr-tb;direction:ltr;text-orientation:mixed;dominant-baseline:auto;baseline-shift:baseline;text-anchor:start;white-space:normal;shape-padding:0;clip-rule:nonzero;display:inline;overflow:visible;visibility:visible;opacity:1;isolation:auto;mix-blend-mode:normal;color-interpolation:sRGB;color-interpolation-filters:linearRGB;solid-color:#000000;solid-opacity:1;vector-effect:none;fill:#e5ad2a;fill-opacity:1;fill-rule:nonzero;stroke:none;stroke-width:1.51359999;stroke-linecap:round;stroke-linejoin:miter;stroke-miterlimit:10;stroke-dasharray:none;stroke-dashoffset:0;stroke-opacity:1;color-rendering:auto;image-rendering:auto;shape-rendering:auto;text-rendering:auto;enable-background:accumulate"
       d="m 51.189453,44.033203 a 0.75687568,0.75687568 0 0 0 -0.746094,0.767578 v 37.59961 a 0.75687568,0.75687568 0 1 0 1.513672,0 v -37.59961 a 0.75687568,0.75687568 0 0 0 -0.767578,-0.767578 z"
       id="line16"
       inkscape:connector-curvature="0" /><path
       style="color:#000000;font-style:normal;font-variant:normal;font-weight:normal;font-stretch:normal;font-size:medium;line-height:normal;font-family:sans-serif;font-variant-ligatures:normal;font-variant-position:normal;font-variant-caps:normal;font-variant-numeric:normal;font-variant-alternates:normal;font-feature-settings:normal;text-indent:0;text-align:start;text-decoration:none;text-decoration-line:none;text-decoration-style:solid;text-decoration-color:#000000;letter-spacing:normal;word-spacing:normal;text-transform:none;writing-mode:lr-tb;direction:ltr;text-orientation:mixed;dominant-baseline:auto;baseline-shift:baseline;text-anchor:start;white-space:normal;shape-padding:0;clip-rule:nonzero;display:inline;overflow:visible;visibility:visible;opacity:1;isolation:auto;mix-blend-mode:normal;color-interpolation:sRGB;color-interpolation-filters:linearRGB;solid-color:#000000;solid-opacity:1;vector-effect:none;fill:#e5ad2a;fill-opacity:1;fill-rule:nonzero;stroke:none;stroke-width:1.09800005;stroke-linecap:round;stroke-linejoin:miter;stroke-miterlimit:10;stroke-dasharray:none;stroke-dashoffset:0;stroke-opacity:1;color-rendering:auto;image-rendering:auto;shape-rendering:auto;text-rendering:auto;enable-background:accumulate"
       d="m 56.291016,44.244141 a 0.54905492,0.54905492 0 0 0 -0.539063,0.55664 v 37.59961 a 0.54905492,0.54905492 0 1 0 1.097656,0 v -37.59961 a 0.54905492,0.54905492 0 0 0 -0.558593,-0.55664 z"
       id="line18"
       inkscape:connector-curvature="0" /><path
       style="color:#000000;font-style:normal;font-variant:normal;font-weight:normal;font-stretch:normal;font-size:medium;line-height:normal;font-family:sans-serif;font-variant-ligatures:normal;font-variant-position:normal;font-variant-caps:normal;font-variant-numeric:normal;font-variant-alternates:normal;font-feature-settings:normal;text-indent:0;text-align:start;text-decoration:none;text-decoration-line:none;text-decoration-style:solid;text-decoration-color:#000000;letter-spacing:normal;word-spacing:normal;text-transform:none;writing-mode:lr-tb;direction:ltr;text-orientation:mixed;dominant-baseline:auto;baseline-shift:baseline;text-anchor:start;white-space:normal;shape-padding:0;clip-rule:nonzero;display:inline;overflow:visible;visibility:visible;opacity:1;isolation:auto;mix-blend-mode:normal;color-interpolation:sRGB;color-interpolation-filters:linearRGB;solid-color:#000000;solid-opacity:1;vector-effect:none;fill:#e5ad2a;fill-opacity:1;fill-rule:nonzero;stroke:none;stroke-width:2.59610009;stroke-linecap:round;stroke-linejoin:miter;stroke-miterlimit:10;stroke-dasharray:none;stroke-dashoffset:0;stroke-opacity:1;color-rendering:auto;image-rendering:auto;shape-rendering:auto;text-rendering:auto;enable-background:accumulate"
       d="m 61.380859,43.882812 a 1.2981799,1.2981799 0 0 0 -1.279297,1.316407 v 36.601562 a 1.2981799,1.2981799 0 1 0 2.595704,0 V 45.199219 a 1.2981799,1.2981799 0 0 0 -1.316407,-1.316407 z"
       id="line20"
       inkscape:connector-curvature="0" /><path
       style="color:#000000;font-style:normal;font-variant:normal;font-weight:normal;font-stretch:normal;font-size:medium;line-height:normal;font-family:sans-serif;font-variant-ligatures:normal;font-variant-position:normal;font-variant-caps:normal;font-variant-numeric:normal;font-variant-alternates:normal;font-feature-settings:normal;text-indent:0;text-align:start;text-decoration:none;text-decoration-line:none;text-decoration-style:solid;text-decoration-color:#000000;letter-spacing:normal;word-spacing:normal;text-transform:none;writing-mode:lr-tb;direction:ltr;text-orientation:mixed;dominant-baseline:auto;baseline-shift:baseline;text-anchor:start;white-space:normal;shape-padding:0;clip-rule:nonzero;display:inline;overflow:visible;visibility:visible;opacity:1;isolation:auto;mix-blend-mode:normal;color-interpolation:sRGB;color-interpolation-filters:linearRGB;solid-color:#000000;solid-opacity:1;vector-effect:none;fill:#e5ad2a;fill-opacity:1;fill-rule:nonzero;stroke:none;stroke-width:1.51359999;stroke-linecap:round;stroke-linejoin:miter;stroke-miterlimit:10;stroke-dasharray:none;stroke-dashoffset:0;stroke-opacity:1;color-rendering:auto;image-rendering:auto;shape-rendering:auto;text-rendering:auto;enable-background:accumulate"
       d="m 66.587891,44.033203 a 0.75687568,0.75687568 0 0 0 -0.744141,0.767578 v 37.59961 a 0.75687568,0.75687568 0 1 0 1.513672,0 v -37.59961 a 0.75687568,0.75687568 0 0 0 -0.769531,-0.767578 z"
       id="line22"
       inkscape:connector-curvature="0" /><path
       style="color:#000000;font-style:normal;font-variant:normal;font-weight:normal;font-stretch:normal;font-size:medium;line-height:normal;font-family:sans-serif;font-variant-ligatures:normal;font-variant-position:normal;font-variant-caps:normal;font-variant-numeric:normal;font-variant-alternates:normal;font-feature-settings:normal;text-indent:0;text-align:start;text-decoration:none;text-decoration-line:none;text-decoration-style:solid;text-decoration-color:#000000;letter-spacing:normal;word-spacing:normal;text-transform:none;writing-mode:lr-tb;direction:ltr;text-orientation:mixed;dominant-baseline:auto;baseline-shift:baseline;text-anchor:start;white-space:normal;shape-padding:0;clip-rule:nonzero;display:inline;overflow:visible;visibility:visible;opacity:1;isolation:auto;mix-blend-mode:normal;color-interpolation:sRGB;color-interpolation-filters:linearRGB;solid-color:#000000;solid-opacity:1;vector-effect:none;fill:#e5ad2a;fill-opacity:1;fill-rule:nonzero;stroke:none;stroke-width:2.59610009;stroke-linecap:round;stroke-linejoin:miter;stroke-miterlimit:10;stroke-dasharray:none;stroke-dashoffset:0;stroke-opacity:1;color-rendering:auto;image-rendering:auto;shape-rendering:auto;text-rendering:auto;enable-background:accumulate"
       d="m 71.679688,43.882812 a 1.2981799,1.2981799 0 0 0 -1.277344,1.316407 v 36.601562 a 1.2981799,1.2981799 0 1 0 2.595703,0 V 45.199219 a 1.2981799,1.2981799 0 0 0 -1.318359,-1.316407 z"
       id="line24"
       inkscape:connector-curvature="0" /><path
       style="color:#000000;font-style:normal;font-variant:normal;font-weight:normal;font-stretch:normal;font-size:medium;line-height:normal;font-family:sans-serif;font-variant-ligatures:normal;font-variant-position:normal;font-variant-caps:normal;font-variant-numeric:normal;font-variant-alternates:normal;font-feature-settings:normal;text-indent:0;text-align:start;text-decoration:none;text-decoration-line:none;text-decoration-style:solid;text-decoration-color:#000000;letter-spacing:normal;word-spacing:normal;text-transform:none;writing-mode:lr-tb;direction:ltr;text-orientation:mixed;dominant-baseline:auto;baseline-shift:baseline;text-anchor:start;white-space:normal;shape-padding:0;clip-rule:nonzero;display:inline;overflow:visible;visibility:visible;opacity:1;isolation:auto;mix-blend-mode:normal;color-interpolation:sRGB;color-interpolation-filters:linearRGB;solid-color:#000000;solid-opacity:1;vector-effect:none;fill:#e5ad2a;fill-opacity:1;fill-rule:nonzero;stroke:none;stroke-width:2.59610009;stroke-linecap:round;stroke-linejoin:miter;stroke-miterlimit:10;stroke-dasharray:none;stroke-dashoffset:0;stroke-opacity:1;color-rendering:auto;image-rendering:auto;shape-rendering:auto;text-rendering:auto;enable-background:accumulate"
       d="m 76.78125,43.882812 a 1.2981799,1.2981799 0 0 0 -1.279297,1.316407 v 36.601562 a 1.2981799,1.2981799 0 1 0 2.595703,0 V 45.199219 A 1.2981799,1.2981799 0 0 0 76.78125,43.882812 Z"
       id="line26"
       inkscape:connector-curvature="0" /><path
       style="color:#000000;font-style:normal;font-variant:normal;font-weight:normal;font-stretch:normal;font-size:medium;line-height:normal;font-family:sans-serif;font-variant-ligatures:normal;font-variant-position:normal;font-variant-caps:normal;font-variant-numeric:normal;font-variant-alternates:normal;font-feature-settings:normal;text-indent:0;text-align:start;text-decoration:none;text-decoration-line:none;text-decoration-style:solid;text-decoration-color:#000000;letter-spacing:normal;word-spacing:normal;text-transform:none;writing-mode:lr-tb;direction:ltr;text-orientation:mixed;dominant-baseline:auto;baseline-shift:baseline;text-anchor:start;white-space:normal;shape-padding:0;clip-rule:nonzero;display:inline;overflow:visible;visibility:visible;opacity:1;isolation:auto;mix-blend-mode:normal;color-interpolation:sRGB;color-interpolation-filters:linearRGB;solid-color:#000000;solid-opacity:1;vector-effect:none;fill:#e5ad2a;fill-opacity:1;fill-rule:nonzero;stroke:none;stroke-width:1.51359999;stroke-linecap:round;stroke-linejoin:miter;stroke-miterlimit:10;stroke-dasharray:none;stroke-dashoffset:0;stroke-opacity:1;color-rendering:auto;image-rendering:auto;shape-rendering:auto;text-rendering:auto;enable-background:accumulate"
       d="m 81.888672,44.033203 a 0.75687568,0.75687568 0 0 0 -0.746094,0.767578 v 37.59961 a 0.75687568,0.75687568 0 1 0 1.513672,0 v -37.59961 a 0.75687568,0.75687568 0 0 0 -0.767578,-0.767578 z"
       id="line28"
       inkscape:connector-curvature="0" /><path
       style="color:#000000;font-style:normal;font-variant:normal;font-weight:normal;font-stretch:normal;font-size:medium;line-height:normal;font-family:sans-serif;font-variant-ligatures:normal;font-variant-position:normal;font-variant-caps:normal;font-variant-numeric:normal;font-variant-alternates:normal;font-feature-settings:normal;text-indent:0;text-align:start;text-decoration:none;text-decoration-line:none;text-decoration-style:solid;text-decoration-color:#000000;letter-spacing:normal;word-spacing:normal;text-transform:none;writing-mode:lr-tb;direction:ltr;text-orientation:mixed;dominant-baseline:auto;baseline-shift:baseline;text-anchor:start;white-space:normal;shape-padding:0;clip-rule:nonzero;display:inline;overflow:visible;visibility:visible;opacity:1;isolation:auto;mix-blend-mode:normal;color-interpolation:sRGB;color-interpolation-filters:linearRGB;solid-color:#000000;solid-opacity:1;vector-effect:none;fill:#e5ad2a;fill-opacity:1;fill-rule:nonzero;stroke:none;stroke-width:1.51359999;stroke-linecap:round;stroke-linejoin:miter;stroke-miterlimit:10;stroke-dasharray:none;stroke-dashoffset:0;stroke-opacity:1;color-rendering:auto;image-rendering:auto;shape-rendering:auto;text-rendering:auto;enable-background:accumulate"
       d="m 86.988281,44.033203 a 0.75687568,0.75687568 0 0 0 -0.74414,0.767578 v 37.59961 a 0.75687568,0.75687568 0 1 0 1.511718,0 v -37.59961 a 0.75687568,0.75687568 0 0 0 -0.767578,-0.767578 z"
       id="line30"
       inkscape:connector-curvature="0" /><path
       style="color:#000000;font-style:normal;font-variant:normal;font-weight:normal;font-stretch:normal;font-size:medium;line-height:normal;font-family:sans-serif;font-variant-ligatures:normal;font-variant-position:normal;font-variant-caps:normal;font-variant-numeric:normal;font-variant-alternates:normal;font-feature-settings:normal;text-indent:0;text-align:start;text-decoration:none;text-decoration-line:none;text-decoration-style:solid;text-decoration-color:#000000;letter-spacing:normal;word-spacing:normal;text-transform:none;writing-mode:lr-tb;direction:ltr;text-orientation:mixed;dominant-baseline:auto;baseline-shift:baseline;text-anchor:start;white-space:normal;shape-padding:0;clip-rule:nonzero;display:inline;overflow:visible;visibility:visible;opacity:1;isolation:auto;mix-blend-mode:normal;color-interpolation:sRGB;color-interpolation-filters:linearRGB;solid-color:#000000;solid-opacity:1;vector-effect:none;fill:#e5ad2a;fill-opacity:1;fill-rule:nonzero;stroke:none;stroke-width:2.9145999;stroke-linecap:round;stroke-linejoin:round;stroke-miterlimit:10;stroke-dasharray:none;stroke-dashoffset:0;stroke-opacity:1;color-rendering:auto;image-rendering:auto;shape-rendering:auto;text-rendering:auto;enable-background:accumulate"
       d="m 46.578125,1.921875 a 1.4574457,1.4574457 0 0 0 -1.435547,1.4785156 v 0.6992188 c 0,2.9948909 2.46214,5.4570312 5.457031,5.4570312 H 78 c 2.994891,0 5.457031,-2.4621403 5.457031,-5.4570312 V 3.4003906 a 1.4574457,1.4574457 0 1 0 -2.914062,0 v 0.6992188 c 0,1.4051091 -1.13786,2.5429687 -2.542969,2.5429687 H 50.599609 c -1.405109,0 -2.542968,-1.1378596 -2.542968,-2.5429687 V 3.4003906 A 1.4574457,1.4574457 0 0 0 46.578125,1.921875 Z"
       id="path32"
       inkscape:connector-curvature="0" /></g></svg>