<?xml version="1.0" encoding="UTF-8" standalone="no"?>
<!-- Generator: Adobe Illustrator 21.0.0, SVG Export Plug-In . SVG Version: 6.00 Build 0)  -->

<svg
   xmlns:dc="http://purl.org/dc/elements/1.1/"
   xmlns:cc="http://creativecommons.org/ns#"
   xmlns:rdf="http://www.w3.org/1999/02/22-rdf-syntax-ns#"
   xmlns:svg="http://www.w3.org/2000/svg"
   xmlns="http://www.w3.org/2000/svg"
   xmlns:sodipodi="http://sodipodi.sourceforge.net/DTD/sodipodi-0.dtd"
   xmlns:inkscape="http://www.inkscape.org/namespaces/inkscape"
   version="1.1"
   id="Layer_1"
   x="0px"
   y="0px"
   viewBox="0 0 128 128"
   style="enable-background:new 0 0 128 128;"
   xml:space="preserve"
   sodipodi:docname="uEA06-confirm_check.svg"
   inkscape:version="0.92.2 (5c3e80d, 2017-08-06)"><metadata
     id="metadata21"><rdf:RDF><cc:Work
         rdf:about=""><dc:format>image/svg+xml</dc:format><dc:type
           rdf:resource="http://purl.org/dc/dcmitype/StillImage" /><dc:title></dc:title></cc:Work></rdf:RDF></metadata><defs
     id="defs19" /><sodipodi:namedview
     pagecolor="#ffffff"
     bordercolor="#666666"
     borderopacity="1"
     objecttolerance="10"
     gridtolerance="10"
     guidetolerance="10"
     inkscape:pageopacity="0"
     inkscape:pageshadow="2"
     inkscape:window-width="1366"
     inkscape:window-height="692"
     id="namedview17"
     showgrid="false"
     inkscape:zoom="1.84375"
     inkscape:cx="65.084746"
     inkscape:cy="59.932203"
     inkscape:window-x="1366"
     inkscape:window-y="25"
     inkscape:window-maximized="1"
     inkscape:current-layer="g14" /><style
     type="text/css"
     id="style2">
	.st0{fill:none;stroke:#E5AD2A;stroke-width:2.9146;stroke-linecap:round;stroke-linejoin:round;stroke-miterlimit:10;}
</style><g
     id="g14"><path
       style="color:#000000;font-style:normal;font-variant:normal;font-weight:normal;font-stretch:normal;font-size:medium;line-height:normal;font-family:sans-serif;font-variant-ligatures:normal;font-variant-position:normal;font-variant-caps:normal;font-variant-numeric:normal;font-variant-alternates:normal;font-feature-settings:normal;text-indent:0;text-align:start;text-decoration:none;text-decoration-line:none;text-decoration-style:solid;text-decoration-color:#000000;letter-spacing:normal;word-spacing:normal;text-transform:none;writing-mode:lr-tb;direction:ltr;text-orientation:mixed;dominant-baseline:auto;baseline-shift:baseline;text-anchor:start;white-space:normal;shape-padding:0;clip-rule:nonzero;display:inline;overflow:visible;visibility:visible;opacity:1;isolation:auto;mix-blend-mode:normal;color-interpolation:sRGB;color-interpolation-filters:linearRGB;solid-color:#000000;solid-opacity:1;vector-effect:none;fill:#e5ad2a;fill-opacity:1;fill-rule:nonzero;stroke:none;stroke-width:2.9145999;stroke-linecap:round;stroke-linejoin:round;stroke-miterlimit:10;stroke-dasharray:none;stroke-dashoffset:0;stroke-opacity:1;color-rendering:auto;image-rendering:auto;shape-rendering:auto;text-rendering:auto;enable-background:accumulate"
       d="m 30.400391,10.341797 c -3.102571,0 -5.658204,2.555632 -5.658203,5.658203 v 96 l 0.002,-0.0625 c -0.136309,3.1351 2.487119,5.7207 5.65625,5.7207 h 1 a 1.4574457,1.4574457 0 0 0 1.457031,-1.45898 c 0,-1.90838 1.506316,-3.44141 3.542969,-3.44141 1.90838,0 3.471144,1.55683 3.542968,3.4961 a 1.4574457,1.4574457 0 0 0 1.457032,1.40429 h 8.5 a 1.4574457,1.4574457 0 0 0 1.457031,-1.45898 c 0,-1.90838 1.506316,-3.44141 3.542969,-3.44141 1.90838,0 3.471144,1.55683 3.542968,3.4961 a 1.4574457,1.4574457 0 0 0 1.457032,1.40429 h 8.5 a 1.4574457,1.4574457 0 0 0 1.457031,-1.45898 c 0,-1.90838 1.506316,-3.44141 3.542969,-3.44141 1.90838,0 3.471144,1.55683 3.542968,3.4961 a 1.4574457,1.4574457 0 0 0 1.457032,1.40429 h 8.5 a 1.4574457,1.4574457 0 0 0 1.457031,-1.45898 c 0,-1.90838 1.506316,-3.44141 3.542969,-3.44141 1.90838,0 3.471144,1.55683 3.542968,3.4961 a 1.4574457,1.4574457 0 0 0 1.457032,1.40429 h 1 c 3.102569,0 5.656249,-2.55563 5.656249,-5.6582 V 16 c 0,-3.102571 -2.55368,-5.658203 -5.656249,-5.658203 z m 0,2.916015 h 67.5 c 1.497429,0 2.742189,1.244759 2.742189,2.742188 v 96 c 0,1.45204 -1.188673,2.62104 -2.625002,2.69336 -0.755638,-2.74854 -3.14421,-4.85156 -6.117187,-4.85156 -3.036709,0 -5.46867,2.12417 -6.15625,4.90039 h -6.216797 c -0.739594,-2.77254 -3.136674,-4.90039 -6.126953,-4.90039 -3.036709,0 -5.46867,2.12417 -6.15625,4.90039 h -6.216797 c -0.739594,-2.77254 -3.136674,-4.90039 -6.126953,-4.90039 -3.036709,0 -5.46867,2.12417 -6.15625,4.90039 h -6.216797 c -0.739594,-2.77254 -3.136674,-4.90039 -6.126953,-4.90039 -3.016235,0 -5.436698,2.09562 -6.144532,4.84375 -1.53972,-0.0831 -2.661009,-1.21085 -2.599609,-2.62305 A 1.4574457,1.4574457 0 0 0 27.658203,112 V 16 c 0,-1.497429 1.244759,-2.742187 2.742188,-2.742188 z m 2.298828,7.384766 a 1.4574457,1.4574457 0 1 0 0,2.914063 h 62.601562 a 1.4574457,1.4574457 0 1 0 0,-2.914063 z m 58.65039,19.884766 a 1.4574457,1.4574457 0 0 0 -1.089843,0.564453 l -8.466797,10.640625 c -4.08502,-5.962493 -10.933637,-9.890625 -18.69336,-9.890625 -12.49602,0 -22.65625,10.162183 -22.65625,22.658203 0,12.49602 10.16023,22.658203 22.65625,22.658203 12.496021,0 22.658203,-10.162182 22.658203,-22.658203 0,-3.609963 -0.926232,-6.978199 -2.433593,-10.009766 l 9.216797,-11.582031 a 1.4574457,1.4574457 0 0 0 -1.191407,-2.380859 z m -28.25,4.230468 c 7.11468,10e-7 13.285684,3.776755 16.759766,9.40625 L 61.830078,76.822266 51.761719,63.521484 A 1.4574457,1.4574457 0 1 0 49.4375,65.279297 l 11.201172,14.800781 a 1.4574457,1.4574457 0 0 0 2.300781,0.02734 l 18.40625,-23.13086 c 0.955217,2.319621 1.496094,4.855151 1.496094,7.523438 0,10.920854 -8.821334,19.742187 -19.742188,19.742188 C 52.178756,84.242187 43.357422,75.420854 43.357422,64.5 c 0,-10.920854 8.821334,-19.742187 19.742187,-19.742188 z m -30.40039,56.185548 a 1.4574457,1.4574457 0 1 0 0,2.91406 h 62.601562 a 1.4574457,1.4574457 0 1 0 0,-2.91406 z"
       id="circle12"
       inkscape:connector-curvature="0" /></g></svg>