<?xml version="1.0" encoding="UTF-8" standalone="no"?>
<!-- Generator: Adobe Illustrator 21.0.0, SVG Export Plug-In . SVG Version: 6.00 Build 0)  -->

<svg
   xmlns:dc="http://purl.org/dc/elements/1.1/"
   xmlns:cc="http://creativecommons.org/ns#"
   xmlns:rdf="http://www.w3.org/1999/02/22-rdf-syntax-ns#"
   xmlns:svg="http://www.w3.org/2000/svg"
   xmlns="http://www.w3.org/2000/svg"
   xmlns:sodipodi="http://sodipodi.sourceforge.net/DTD/sodipodi-0.dtd"
   xmlns:inkscape="http://www.inkscape.org/namespaces/inkscape"
   version="1.1"
   id="Layer_1"
   x="0px"
   y="0px"
   viewBox="0 0 128 128"
   style="enable-background:new 0 0 128 128;"
   xml:space="preserve"
   sodipodi:docname="user_card.svg"
   inkscape:version="0.92.2 (5c3e80d, 2017-08-06)"><metadata
     id="metadata37"><rdf:RDF><cc:Work
         rdf:about=""><dc:format>image/svg+xml</dc:format><dc:type
           rdf:resource="http://purl.org/dc/dcmitype/StillImage" /></cc:Work></rdf:RDF></metadata><defs
     id="defs35" /><sodipodi:namedview
     pagecolor="#ffffff"
     bordercolor="#666666"
     borderopacity="1"
     objecttolerance="10"
     gridtolerance="10"
     guidetolerance="10"
     inkscape:pageopacity="0"
     inkscape:pageshadow="2"
     inkscape:window-width="790"
     inkscape:window-height="504"
     id="namedview33"
     showgrid="false"
     inkscape:zoom="1.84375"
     inkscape:cx="-15.728814"
     inkscape:cy="62.915254"
     inkscape:window-x="0"
     inkscape:window-y="26"
     inkscape:window-maximized="0"
     inkscape:current-layer="Layer_1" /><style
     type="text/css"
     id="style2">
	.st0{fill:none;stroke:#E5AD2A;stroke-width:2.9146;stroke-linecap:round;stroke-linejoin:round;stroke-miterlimit:10;}
</style><g
     id="g30"><path
       style="color:#000000;font-style:normal;font-variant:normal;font-weight:normal;font-stretch:normal;font-size:medium;line-height:normal;font-family:sans-serif;font-variant-ligatures:normal;font-variant-position:normal;font-variant-caps:normal;font-variant-numeric:normal;font-variant-alternates:normal;font-feature-settings:normal;text-indent:0;text-align:start;text-decoration:none;text-decoration-line:none;text-decoration-style:solid;text-decoration-color:#000000;letter-spacing:normal;word-spacing:normal;text-transform:none;writing-mode:lr-tb;direction:ltr;text-orientation:mixed;dominant-baseline:auto;baseline-shift:baseline;text-anchor:start;white-space:normal;shape-padding:0;clip-rule:nonzero;display:inline;overflow:visible;visibility:visible;opacity:1;isolation:auto;mix-blend-mode:normal;color-interpolation:sRGB;color-interpolation-filters:linearRGB;solid-color:#000000;solid-opacity:1;vector-effect:none;fill:#e5ad2a;fill-opacity:1;fill-rule:nonzero;stroke:none;stroke-width:2.9145999;stroke-linecap:round;stroke-linejoin:round;stroke-miterlimit:10;stroke-dasharray:none;stroke-dashoffset:0;stroke-opacity:1;color-rendering:auto;image-rendering:auto;shape-rendering:auto;text-rendering:auto;enable-background:accumulate"
       d="m 10,17.642578 c -4.7772266,0 -8.6582031,3.880977 -8.6582031,8.658203 v 9 a 1.4574457,1.4574457 0 0 0 1.4589843,1.457031 H 125.30078 a 1.4574457,1.4574457 0 0 0 1.45703,-1.457031 v -9 a 1.4574457,1.4574457 0 0 0 0,-0.03711 C 126.63889,21.506586 122.77723,17.642578 118,17.642578 Z m 0,2.914063 h 108 c 3.21932,0 5.75555,2.531604 5.8418,5.769531 v 7.515625 H 4.2578125 v -7.541016 c 0,-3.222773 2.5194141,-5.74414 5.7421875,-5.74414 z m 3.099609,2.185547 c -2.610122,0 -4.7578121,2.147689 -4.7578121,4.757812 0,2.610123 2.1476901,4.757812 4.7578121,4.757812 2.610123,0 4.757813,-2.147689 4.757813,-4.757812 0,-2.610123 -2.14769,-4.757812 -4.757813,-4.757812 z m 12.900391,0 c -2.610123,0 -4.757812,2.147689 -4.757812,4.757812 0,2.610123 2.147689,4.757812 4.757812,4.757812 2.610123,0 4.757812,-2.147689 4.757812,-4.757812 0,-2.610123 -2.147689,-4.757812 -4.757812,-4.757812 z m 12.800781,0 c -2.610123,0 -4.757812,2.147689 -4.757812,4.757812 0,2.610123 2.147689,4.757812 4.757812,4.757812 2.610123,0 4.75586,-2.147689 4.75586,-4.757812 0,-2.610123 -2.145737,-4.757812 -4.75586,-4.757812 z m -25.701172,2.916015 c 1.034957,0 1.84375,0.806841 1.84375,1.841797 0,1.034956 -0.808793,1.841797 -1.84375,1.841797 -1.034956,0 -1.841797,-0.806841 -1.841797,-1.841797 0,-1.034956 0.806841,-1.841797 1.841797,-1.841797 z m 12.900391,0 c 1.034956,0 1.841797,0.806841 1.841797,1.841797 0,1.034956 -0.806841,1.841797 -1.841797,1.841797 -1.034956,0 -1.841797,-0.806841 -1.841797,-1.841797 0,-1.034956 0.806841,-1.841797 1.841797,-1.841797 z m 12.800781,0 c 1.034957,0 1.841797,0.806841 1.841797,1.841797 0,1.034956 -0.80684,1.841797 -1.841797,1.841797 -1.034956,0 -1.84375,-0.806841 -1.84375,-1.841797 0,-1.034956 0.808794,-1.841797 1.84375,-1.841797 z M 2.7773438,41.623047 a 1.4574457,1.4574457 0 0 0 -1.4355469,1.476562 v 58.300781 c 0,4.77723 3.8809765,8.65625 8.6582031,8.65625 h 102.81641 a 1.4574457,1.4574457 0 0 0 1.76562,0 H 118 c 4.77723,0 8.6582,-3.87902 8.6582,-8.65625 V 43.099609 a 1.458005,1.458005 0 1 0 -2.91601,0 v 58.300781 c 0,3.22277 -2.51942,5.74219 -5.74219,5.74219 h -0.48242 l 0.8125,-0.8125 a 1.4574457,1.4574457 0 0 0 0,-2.06055 l -9.66992,-9.669921 6.59179,-3.296875 a 1.4574457,1.4574457 0 0 0 -0.22656,-2.697265 l -23.300781,-7.09961 a 1.4574457,1.4574457 0 0 0 -1.818359,1.81836 L 97.005859,106.625 a 1.4574457,1.4574457 0 0 0 0.283203,0.51758 H 10 c -3.2227734,0 -5.7421875,-2.51942 -5.7421875,-5.74219 V 43.099609 A 1.4574457,1.4574457 0 0 0 2.7773438,41.623047 Z m 27.9218752,6.919922 c -6.255203,-10e-7 -11.357422,5.102219 -11.357422,11.357422 0,4.613649 2.79896,8.567261 6.765625,10.341797 H 24.5 c -6.484044,0 -11.757812,5.273768 -11.757812,11.757812 v 13.599609 a 1.4580075,1.4580075 0 1 0 2.916015,0 V 82 c 0,-4.915956 3.925841,-8.841797 8.841797,-8.841797 h 12.900391 c 4.915955,0 8.841796,3.925841 8.841797,8.841797 a 1.4580075,1.4580075 0 1 0 2.916015,0 c 0,-6.484044 -5.273768,-11.757813 -11.757812,-11.757812 h -2.107422 c 3.966664,-1.774536 6.763671,-5.728148 6.763672,-10.341797 0,-6.255202 -5.10222,-11.357422 -11.357422,-11.357422 z m 0,2.914062 c 4.680035,10e-7 8.443359,3.763324 8.443359,8.44336 0,4.680035 -3.763324,8.441406 -8.443359,8.441406 -4.680036,0 -8.441406,-3.761371 -8.441407,-8.441406 0,-4.680036 3.761371,-8.44336 8.441407,-8.44336 z m 30.201172,3.986328 a 1.4574457,1.4574457 0 1 0 0,2.914063 h 48.699219 a 1.4574457,1.4574457 0 1 0 0,-2.914063 z m 0,8.699219 a 1.4574457,1.4574457 0 1 0 0,2.914063 h 48.699219 a 1.4574457,1.4574457 0 1 0 0,-2.914063 z m 0,8.699219 a 1.4580075,1.4580075 0 1 0 0,2.916015 h 48.699219 a 1.4580075,1.4580075 0 1 0 0,-2.916015 z m -13.222657,11.78125 a 1.4574457,1.4574457 0 0 0 -1.435546,1.476562 v 3.94336 h -3.941407 a 1.4574457,1.4574457 0 1 0 0,2.914062 h 3.941407 v 3.94336 a 1.4580075,1.4580075 0 1 0 2.916015,0 v -3.94336 h 3.941406 a 1.4574457,1.4574457 0 1 0 0,-2.914062 h -3.941406 v -3.94336 a 1.4574457,1.4574457 0 0 0 -1.480469,-1.476562 z m 45.8125,0.46875 17.193356,5.238281 -5.13476,2.566406 a 1.4574457,1.4574457 0 0 0 -0.37891,2.333985 l 10.06836,10.070311 -1.53516,1.53516 -10.06835,-10.162112 a 1.4574457,1.4574457 0 0 0 -2.3418,0.38086 l -2.570314,5.203122 z m 9.511716,15.083983 6.9043,6.9668 H 99.507812 a 1.4574457,1.4574457 0 0 0 0.199219,-0.29688 z"
       id="circle28"
       inkscape:connector-curvature="0" /></g></svg>