<?xml version="1.0" encoding="UTF-8" standalone="no"?>
<!-- Generator: Adobe Illustrator 16.0.0, SVG Export Plug-In . SVG Version: 6.00 Build 0)  -->

<svg
   xmlns:dc="http://purl.org/dc/elements/1.1/"
   xmlns:cc="http://creativecommons.org/ns#"
   xmlns:rdf="http://www.w3.org/1999/02/22-rdf-syntax-ns#"
   xmlns:svg="http://www.w3.org/2000/svg"
   xmlns="http://www.w3.org/2000/svg"
   xmlns:sodipodi="http://sodipodi.sourceforge.net/DTD/sodipodi-0.dtd"
   xmlns:inkscape="http://www.inkscape.org/namespaces/inkscape"
   version="1.1"
   id="Capa_1"
   x="0px"
   y="0px"
   width="49.652px"
   height="49.652px"
   viewBox="0 0 49.652 49.652"
   style="enable-background:new 0 0 49.652 49.652;"
   xml:space="preserve"
   sodipodi:docname="uEA0E-odnoklassniki-round.svg"
   inkscape:version="0.92.2 (5c3e80d, 2017-08-06)"><metadata
     id="metadata45"><rdf:RDF><cc:Work
         rdf:about=""><dc:format>image/svg+xml</dc:format><dc:type
           rdf:resource="http://purl.org/dc/dcmitype/StillImage" /></cc:Work></rdf:RDF></metadata><defs
     id="defs43" /><sodipodi:namedview
     pagecolor="#ffffff"
     bordercolor="#666666"
     borderopacity="1"
     objecttolerance="10"
     gridtolerance="10"
     guidetolerance="10"
     inkscape:pageopacity="0"
     inkscape:pageshadow="2"
     inkscape:window-width="1366"
     inkscape:window-height="691"
     id="namedview41"
     showgrid="false"
     inkscape:zoom="19.012326"
     inkscape:cx="31.104824"
     inkscape:cy="0.6396397"
     inkscape:window-x="0"
     inkscape:window-y="26"
     inkscape:window-maximized="1"
     inkscape:current-layer="Capa_1" /><g
     id="g8"
     transform="scale(0.50819359)"><g
       id="g6"><path
         d="m 48.921,40.507 c 4.667,-0.017 8.384,-3.766 8.367,-8.443 -0.017,-4.679 -3.742,-8.402 -8.411,-8.406 -4.708,-0.005 -8.468,3.787 -8.432,8.508 0.035,4.66 3.794,8.358 8.476,8.341 z"
         id="path2"
         inkscape:connector-curvature="0" /><path
         d="M 48.875,0 C 21.882,0 0,21.883 0,48.875 0,75.867 21.882,97.75 48.875,97.75 75.868,97.75 97.75,75.867 97.75,48.875 97.75,21.883 75.868,0 48.875,0 Z m 0.07,14.863 c 9.52,0.026 17.161,7.813 17.112,17.438 C 66.009,41.704 58.243,49.325 48.739,49.293 39.332,49.261 31.617,41.462 31.673,32.04 31.726,22.515 39.445,14.837 48.945,14.863 Z m 19.282,41.194 c -2.105,2.161 -4.639,3.725 -7.453,4.816 -2.66,1.031 -5.575,1.55 -8.461,1.896 0.437,0.474 0.642,0.707 0.914,0.979 3.916,3.937 7.851,7.854 11.754,11.802 1.33,1.346 1.607,3.014 0.875,4.577 -0.799,1.71 -2.592,2.834 -4.351,2.713 -1.114,-0.077 -1.983,-0.63 -2.754,-1.407 -2.956,-2.974 -5.968,-5.895 -8.862,-8.925 -0.845,-0.882 -1.249,-0.714 -1.994,0.052 -2.973,3.062 -5.995,6.075 -9.034,9.072 -1.365,1.346 -2.989,1.59 -4.573,0.82 -1.683,-0.814 -2.753,-2.533 -2.671,-4.262 0.058,-1.166 0.632,-2.06 1.434,-2.858 3.877,-3.869 7.742,-7.75 11.608,-11.628 0.257,-0.257 0.495,-0.53 0.868,-0.93 -5.273,-0.551 -10.028,-1.849 -14.099,-5.032 -0.506,-0.396 -1.027,-0.778 -1.487,-1.222 -1.783,-1.711 -1.962,-3.672 -0.553,-5.69 1.207,-1.728 3.231,-2.19 5.336,-1.197 0.408,0.191 0.796,0.433 1.168,0.689 7.586,5.213 18.008,5.356 25.624,0.233 0.754,-0.576 1.561,-1.05 2.496,-1.289 1.816,-0.468 3.512,0.201 4.486,1.791 1.115,1.817 1.102,3.589 -0.271,5 z"
         id="path4"
         inkscape:connector-curvature="0" /></g></g><g
     id="g10"
     transform="scale(0.50819359)" /><g
     id="g12"
     transform="scale(0.50819359)" /><g
     id="g14"
     transform="scale(0.50819359)" /><g
     id="g16"
     transform="scale(0.50819359)" /><g
     id="g18"
     transform="scale(0.50819359)" /><g
     id="g20"
     transform="scale(0.50819359)" /><g
     id="g22"
     transform="scale(0.50819359)" /><g
     id="g24"
     transform="scale(0.50819359)" /><g
     id="g26"
     transform="scale(0.50819359)" /><g
     id="g28"
     transform="scale(0.50819359)" /><g
     id="g30"
     transform="scale(0.50819359)" /><g
     id="g32"
     transform="scale(0.50819359)" /><g
     id="g34"
     transform="scale(0.50819359)" /><g
     id="g36"
     transform="scale(0.50819359)" /><g
     id="g38"
     transform="scale(0.50819359)" /></svg>