<?xml version="1.0" encoding="utf-8"?>
<!-- Generator: Adobe Illustrator 21.0.0, SVG Export Plug-In . SVG Version: 6.00 Build 0)  -->
<svg version="1.1" id="Layer_1" xmlns="http://www.w3.org/2000/svg" xmlns:xlink="http://www.w3.org/1999/xlink" x="0px" y="0px"
	 viewBox="0 0 128 128" style="enable-background:new 0 0 128 128;" xml:space="preserve">
<style type="text/css">
	.st0{fill:none;stroke:#E5AD2A;stroke-width:2.9146;stroke-linecap:round;stroke-linejoin:round;stroke-miterlimit:10;}
</style>
<g>
	<polyline class="st0" points="50.6,64.4 61.8,79.2 91.4,42 	"/>
	<path class="st0" d="M30.4,116.2h1c0-2.7,2.2-4.9,5-4.9c2.7,0,4.9,2.2,5,4.9h8.5c0-2.7,2.2-4.9,5-4.9c2.7,0,4.9,2.2,5,4.9h8.5
		c0-2.7,2.2-4.9,5-4.9c2.7,0,4.9,2.2,5,4.9h8.5c0-2.7,2.2-4.9,5-4.9c2.7,0,4.9,2.2,5,4.9h1c2.3,0,4.2-1.9,4.2-4.2V16
		c0-2.3-1.9-4.2-4.2-4.2H30.4c-2.3,0-4.2,1.9-4.2,4.2v96C26.1,114.3,28,116.2,30.4,116.2z"/>
	<line class="st0" x1="32.7" y1="102.4" x2="95.3" y2="102.4"/>
	<line class="st0" x1="32.7" y1="22.1" x2="95.3" y2="22.1"/>
	<circle class="st0" cx="63.1" cy="64.5" r="21.2"/>
</g>
</svg>
