<?xml version="1.0" encoding="UTF-8" standalone="no"?>
<!-- Generator: Adobe Illustrator 21.0.0, SVG Export Plug-In . SVG Version: 6.00 Build 0)  -->

<svg
   xmlns:dc="http://purl.org/dc/elements/1.1/"
   xmlns:cc="http://creativecommons.org/ns#"
   xmlns:rdf="http://www.w3.org/1999/02/22-rdf-syntax-ns#"
   xmlns:svg="http://www.w3.org/2000/svg"
   xmlns="http://www.w3.org/2000/svg"
   xmlns:sodipodi="http://sodipodi.sourceforge.net/DTD/sodipodi-0.dtd"
   xmlns:inkscape="http://www.inkscape.org/namespaces/inkscape"
   version="1.1"
   id="Layer_1"
   x="0px"
   y="0px"
   viewBox="0 0 128 128"
   style="enable-background:new 0 0 128 128;"
   xml:space="preserve"
   sodipodi:docname="uEA0A-show_barcode.svg"
   inkscape:version="0.92.2 (5c3e80d, 2017-08-06)"><metadata
     id="metadata71"><rdf:RDF><cc:Work
         rdf:about=""><dc:format>image/svg+xml</dc:format><dc:type
           rdf:resource="http://purl.org/dc/dcmitype/StillImage" /><dc:title></dc:title></cc:Work></rdf:RDF></metadata><defs
     id="defs69" /><sodipodi:namedview
     pagecolor="#ffffff"
     bordercolor="#666666"
     borderopacity="1"
     objecttolerance="10"
     gridtolerance="10"
     guidetolerance="10"
     inkscape:pageopacity="0"
     inkscape:pageshadow="2"
     inkscape:window-width="1366"
     inkscape:window-height="692"
     id="namedview67"
     showgrid="false"
     inkscape:zoom="7.375"
     inkscape:cx="50.990515"
     inkscape:cy="63.644875"
     inkscape:window-x="1366"
     inkscape:window-y="25"
     inkscape:window-maximized="1"
     inkscape:current-layer="g64" /><style
     type="text/css"
     id="style2">
	.st0{fill:none;stroke:#E5AD2A;stroke-width:2.9146;stroke-linecap:round;stroke-linejoin:round;stroke-miterlimit:10;}
	.st1{fill:#E5AD2A;}
	.st2{fill:none;stroke:#E5AD2A;stroke-width:2.0848;stroke-linecap:round;stroke-miterlimit:10;}
	.st3{fill:none;stroke:#E5AD2A;stroke-width:1.2155;stroke-linecap:round;stroke-miterlimit:10;}
	.st4{fill:none;stroke:#E5AD2A;stroke-width:0.8818;stroke-linecap:round;stroke-miterlimit:10;}
</style><g
     id="g64"><path
       style="color:#000000;font-style:normal;font-variant:normal;font-weight:normal;font-stretch:normal;font-size:medium;line-height:normal;font-family:sans-serif;font-variant-ligatures:normal;font-variant-position:normal;font-variant-caps:normal;font-variant-numeric:normal;font-variant-alternates:normal;font-feature-settings:normal;text-indent:0;text-align:start;text-decoration:none;text-decoration-line:none;text-decoration-style:solid;text-decoration-color:#000000;letter-spacing:normal;word-spacing:normal;text-transform:none;writing-mode:lr-tb;direction:ltr;text-orientation:mixed;dominant-baseline:auto;baseline-shift:baseline;text-anchor:start;white-space:normal;shape-padding:0;clip-rule:nonzero;display:inline;overflow:visible;visibility:visible;opacity:1;isolation:auto;mix-blend-mode:normal;color-interpolation:sRGB;color-interpolation-filters:linearRGB;solid-color:#000000;solid-opacity:1;vector-effect:none;fill:#e5ad2a;fill-opacity:1;fill-rule:nonzero;stroke:none;stroke-width:2.9145999;stroke-linecap:round;stroke-linejoin:round;stroke-miterlimit:10;stroke-dasharray:none;stroke-dashoffset:0;stroke-opacity:1;color-rendering:auto;image-rendering:auto;shape-rendering:auto;text-rendering:auto;enable-background:accumulate"
       d="m 32.400391,4.5429688 c -3.883495,0 -7.158204,3.1668791 -7.158203,7.1562502 v 87.101562 c -10e-7,3.883499 3.168832,7.156249 7.158203,7.156249 h 37.798828 c 3.95901,0 7.158203,-3.19724 7.158203,-7.156249 V 11.699219 c 0,-3.8834948 -3.168832,-7.1562503 -7.158203,-7.1562502 z m 0,2.9140624 h 37.798828 c 2.410629,0 4.24414,1.9256821 4.24414,4.2421878 v 87.101562 c 0,2.440989 -1.803151,4.242189 -4.24414,4.242189 H 32.400391 c -2.41063,0 -4.242188,-1.92568 -4.242188,-4.242189 V 11.699219 c 0,-2.4106294 1.925682,-4.2421878 4.242188,-4.2421878 z"
       id="path4"
       inkscape:connector-curvature="0" /><g
       id="g28"><g
         id="g10"><path
           class="st1"
           d="M34.2,79.1c-0.3,0-0.6,0-0.9-0.1c-0.3-0.1-0.5-0.1-0.7-0.2v-1.1h0.1c0.2,0.2,0.5,0.3,0.7,0.4     c0.3,0.1,0.5,0.2,0.8,0.2c0.1,0,0.1,0,0.3,0c0.1,0,0.2,0,0.3-0.1c0.1,0,0.1-0.1,0.2-0.1s0.1-0.1,0.1-0.2c0-0.1,0-0.2-0.1-0.3     c-0.1-0.1-0.2-0.1-0.3-0.2c-0.2,0-0.3-0.1-0.5-0.1s-0.3-0.1-0.5-0.1c-0.3-0.1-0.6-0.3-0.7-0.5s-0.2-0.5-0.2-0.8     c0-0.4,0.2-0.8,0.5-1c0.4-0.3,0.8-0.4,1.3-0.4c0.3,0,0.5,0,0.8,0.1c0.3,0.1,0.5,0.1,0.7,0.2v1h-0.1c-0.2-0.1-0.4-0.3-0.6-0.4     c-0.2-0.1-0.5-0.1-0.7-0.1c-0.1,0-0.2,0-0.3,0c-0.1,0-0.2,0-0.2,0.1c-0.1,0-0.1,0.1-0.2,0.1s-0.1,0.1-0.1,0.2     c0,0.1,0,0.2,0.1,0.3s0.2,0.1,0.5,0.2c0.2,0,0.3,0.1,0.4,0.1s0.3,0.1,0.4,0.1c0.3,0.1,0.5,0.3,0.7,0.5c0.2,0.2,0.2,0.4,0.2,0.8     c0,0.4-0.2,0.8-0.5,1.1C35.3,78.9,34.8,79.1,34.2,79.1z"
           id="path6" /><path
           class="st1"
           d="M40.7,76.7c0,0.4-0.1,0.8-0.3,1.1c-0.2,0.3-0.4,0.6-0.7,0.8c-0.2,0.2-0.5,0.2-0.8,0.3     c-0.3,0-0.6,0.1-0.9,0.1h-1.4v-4.5h1.4c0.3,0,0.6,0,0.9,0.1c0.3,0,0.5,0.1,0.8,0.3c0.3,0.2,0.5,0.4,0.7,0.8S40.7,76.3,40.7,76.7z      M39.6,76.7c0-0.3-0.1-0.5-0.2-0.8s-0.3-0.4-0.5-0.5c-0.2-0.1-0.3-0.1-0.5-0.1c-0.2,0-0.4,0-0.6,0h0v2.8h0c0.3,0,0.5,0,0.6,0     s0.3-0.1,0.5-0.2c0.2-0.1,0.3-0.3,0.4-0.5C39.5,77.3,39.6,77,39.6,76.7z"
           id="path8" /></g><g
         id="g26"><path
           class="st1"
           d="M46.4,76.7c0,0.4,0,0.7-0.1,1s-0.2,0.5-0.3,0.7c-0.1,0.2-0.3,0.3-0.5,0.4c-0.2,0.1-0.5,0.1-0.8,0.1     c-0.3,0-0.6,0-0.8-0.1c-0.2-0.1-0.4-0.2-0.5-0.4c-0.1-0.2-0.2-0.4-0.3-0.7c-0.1-0.3-0.1-0.6-0.1-1c0-0.4,0-0.7,0.1-1     c0.1-0.3,0.2-0.5,0.3-0.7c0.1-0.2,0.3-0.3,0.5-0.4c0.2-0.1,0.5-0.1,0.8-0.1c0.3,0,0.6,0.1,0.8,0.2c0.2,0.1,0.4,0.3,0.5,0.5     c0.1,0.2,0.2,0.4,0.3,0.7C46.4,76,46.4,76.4,46.4,76.7z M45.3,76.7c0-0.6,0-0.9-0.1-1.2c-0.1-0.2-0.2-0.3-0.5-0.3     c-0.2,0-0.4,0.1-0.5,0.3c-0.1,0.2-0.1,0.6-0.1,1.2c0,0.5,0,0.9,0.1,1.2c0.1,0.2,0.2,0.3,0.5,0.3c0.2,0,0.4-0.1,0.5-0.3     C45.2,77.7,45.3,77.3,45.3,76.7z"
           id="path12" /><path
           class="st1"
           d="M50.3,76.7c0,0.4,0,0.7-0.1,1s-0.2,0.5-0.3,0.7c-0.1,0.2-0.3,0.3-0.5,0.4c-0.2,0.1-0.5,0.1-0.8,0.1     c-0.3,0-0.6,0-0.8-0.1c-0.2-0.1-0.4-0.2-0.5-0.4C47.1,78.3,47,78,47,77.8c-0.1-0.3-0.1-0.6-0.1-1c0-0.4,0-0.7,0.1-1     c0.1-0.3,0.2-0.5,0.3-0.7c0.1-0.2,0.3-0.3,0.5-0.4c0.2-0.1,0.5-0.1,0.8-0.1c0.3,0,0.6,0.1,0.8,0.2c0.2,0.1,0.4,0.3,0.5,0.5     c0.1,0.2,0.2,0.4,0.3,0.7C50.3,76,50.3,76.4,50.3,76.7z M49.2,76.7c0-0.6,0-0.9-0.1-1.2c-0.1-0.2-0.2-0.3-0.5-0.3     c-0.2,0-0.4,0.1-0.5,0.3C48,75.8,48,76.2,48,76.7c0,0.5,0,0.9,0.1,1.2c0.1,0.2,0.2,0.3,0.5,0.3c0.2,0,0.4-0.1,0.5-0.3     C49.1,77.7,49.2,77.3,49.2,76.7z"
           id="path14" /><path
           class="st1"
           d="M54.2,76.7c0,0.4,0,0.7-0.1,1s-0.2,0.5-0.3,0.7c-0.1,0.2-0.3,0.3-0.5,0.4c-0.2,0.1-0.5,0.1-0.8,0.1     c-0.3,0-0.6,0-0.8-0.1c-0.2-0.1-0.4-0.2-0.5-0.4c-0.1-0.2-0.2-0.4-0.3-0.7c-0.1-0.3-0.1-0.6-0.1-1c0-0.4,0-0.7,0.1-1     c0.1-0.3,0.2-0.5,0.3-0.7c0.1-0.2,0.3-0.3,0.5-0.4c0.2-0.1,0.5-0.1,0.8-0.1c0.3,0,0.6,0.1,0.8,0.2c0.2,0.1,0.4,0.3,0.5,0.5     c0.1,0.2,0.2,0.4,0.3,0.7C54.2,76,54.2,76.4,54.2,76.7z M53.1,76.7c0-0.6,0-0.9-0.1-1.2c-0.1-0.2-0.2-0.3-0.5-0.3     c-0.2,0-0.4,0.1-0.5,0.3c-0.1,0.2-0.1,0.6-0.1,1.2c0,0.5,0,0.9,0.1,1.2c0.1,0.2,0.2,0.3,0.5,0.3c0.2,0,0.4-0.1,0.5-0.3     C53.1,77.7,53.1,77.3,53.1,76.7z"
           id="path16" /><path
           class="st1"
           d="M58.2,76.7c0,0.4,0,0.7-0.1,1s-0.2,0.5-0.3,0.7c-0.1,0.2-0.3,0.3-0.5,0.4c-0.2,0.1-0.5,0.1-0.8,0.1     c-0.3,0-0.6,0-0.8-0.1c-0.2-0.1-0.4-0.2-0.5-0.4c-0.1-0.2-0.2-0.4-0.3-0.7c-0.1-0.3-0.1-0.6-0.1-1c0-0.4,0-0.7,0.1-1     c0.1-0.3,0.2-0.5,0.3-0.7c0.1-0.2,0.3-0.3,0.5-0.4c0.2-0.1,0.5-0.1,0.8-0.1c0.3,0,0.6,0.1,0.8,0.2c0.2,0.1,0.4,0.3,0.5,0.5     c0.1,0.2,0.2,0.4,0.3,0.7C58.1,76,58.2,76.4,58.2,76.7z M57,76.7c0-0.6,0-0.9-0.1-1.2c-0.1-0.2-0.2-0.3-0.5-0.3     c-0.2,0-0.4,0.1-0.5,0.3c-0.1,0.2-0.1,0.6-0.1,1.2c0,0.5,0,0.9,0.1,1.2c0.1,0.2,0.2,0.3,0.5,0.3c0.2,0,0.4-0.1,0.5-0.3     C57,77.7,57,77.3,57,76.7z"
           id="path18" /><path
           class="st1"
           d="M62.1,76.7c0,0.4,0,0.7-0.1,1s-0.2,0.5-0.3,0.7c-0.1,0.2-0.3,0.3-0.5,0.4c-0.2,0.1-0.5,0.1-0.8,0.1     c-0.3,0-0.6,0-0.8-0.1c-0.2-0.1-0.4-0.2-0.5-0.4c-0.1-0.2-0.2-0.4-0.3-0.7c-0.1-0.3-0.1-0.6-0.1-1c0-0.4,0-0.7,0.1-1     c0.1-0.3,0.2-0.5,0.3-0.7c0.1-0.2,0.3-0.3,0.5-0.4c0.2-0.1,0.5-0.1,0.8-0.1c0.3,0,0.6,0.1,0.8,0.2c0.2,0.1,0.4,0.3,0.5,0.5     c0.1,0.2,0.2,0.4,0.3,0.7C62.1,76,62.1,76.4,62.1,76.7z M61,76.7c0-0.6,0-0.9-0.1-1.2c-0.1-0.2-0.2-0.3-0.5-0.3     c-0.2,0-0.4,0.1-0.5,0.3c-0.1,0.2-0.1,0.6-0.1,1.2c0,0.5,0,0.9,0.1,1.2c0.1,0.2,0.2,0.3,0.5,0.3c0.2,0,0.4-0.1,0.5-0.3     C60.9,77.7,61,77.3,61,76.7z"
           id="path20" /><path
           class="st1"
           d="M66,76.7c0,0.4,0,0.7-0.1,1s-0.2,0.5-0.3,0.7c-0.1,0.2-0.3,0.3-0.5,0.4c-0.2,0.1-0.5,0.1-0.8,0.1     c-0.3,0-0.6,0-0.8-0.1c-0.2-0.1-0.4-0.2-0.5-0.4c-0.1-0.2-0.2-0.4-0.3-0.7c-0.1-0.3-0.1-0.6-0.1-1c0-0.4,0-0.7,0.1-1     c0.1-0.3,0.2-0.5,0.3-0.7c0.1-0.2,0.3-0.3,0.5-0.4c0.2-0.1,0.5-0.1,0.8-0.1c0.3,0,0.6,0.1,0.8,0.2c0.2,0.1,0.4,0.3,0.5,0.5     c0.1,0.2,0.2,0.4,0.3,0.7C66,76,66,76.4,66,76.7z M64.9,76.7c0-0.6,0-0.9-0.1-1.2c-0.1-0.2-0.2-0.3-0.5-0.3     c-0.2,0-0.4,0.1-0.5,0.3c-0.1,0.2-0.1,0.6-0.1,1.2c0,0.5,0,0.9,0.1,1.2c0.1,0.2,0.2,0.3,0.5,0.3c0.2,0,0.4-0.1,0.5-0.3     C64.9,77.7,64.9,77.3,64.9,76.7z"
           id="path22" /><path
           class="st1"
           d="M70,77.7c0,0.2,0,0.4-0.1,0.5c-0.1,0.2-0.2,0.3-0.3,0.4c-0.2,0.1-0.3,0.2-0.6,0.3c-0.2,0.1-0.5,0.1-0.8,0.1     c-0.3,0-0.6,0-0.8-0.1s-0.4-0.2-0.6-0.3c-0.1-0.1-0.2-0.3-0.3-0.4s-0.1-0.3-0.1-0.5c0-0.3,0.1-0.5,0.2-0.6s0.3-0.3,0.6-0.4v0     c-0.3-0.1-0.4-0.3-0.6-0.5s-0.2-0.4-0.2-0.6c0-0.2,0-0.3,0.1-0.5s0.2-0.3,0.3-0.4c0.1-0.1,0.3-0.2,0.5-0.3s0.4-0.1,0.7-0.1     c0.3,0,0.5,0,0.7,0.1c0.2,0.1,0.4,0.1,0.5,0.2c0.1,0.1,0.2,0.2,0.3,0.4s0.1,0.3,0.1,0.5c0,0.2-0.1,0.4-0.2,0.6     c-0.1,0.2-0.3,0.3-0.6,0.4v0c0.3,0.1,0.5,0.3,0.7,0.5C69.9,77.2,70,77.5,70,77.7z M68.9,77.8c0-0.1,0-0.3-0.1-0.3     s-0.2-0.2-0.4-0.3c-0.1,0-0.1-0.1-0.3-0.1C68,77,67.9,77,67.9,77c-0.1,0.1-0.1,0.2-0.2,0.3s-0.1,0.2-0.1,0.4     c0,0.2,0.1,0.4,0.2,0.5c0.1,0.1,0.3,0.2,0.5,0.2c0.1,0,0.1,0,0.2,0c0.1,0,0.1,0,0.2-0.1c0.1,0,0.1-0.1,0.2-0.2     S68.9,77.9,68.9,77.8z M68.8,75.7c0-0.2-0.1-0.3-0.2-0.4c-0.1-0.1-0.2-0.1-0.4-0.1c-0.2,0-0.3,0-0.4,0.1s-0.2,0.2-0.2,0.3     c0,0.1,0,0.2,0.1,0.3c0.1,0.1,0.2,0.1,0.3,0.2c0.1,0,0.1,0.1,0.2,0.1c0.1,0,0.2,0.1,0.3,0.1c0.1-0.1,0.1-0.2,0.2-0.3     S68.8,75.8,68.8,75.7z"
           id="path24" /></g></g><path
       style="color:#000000;font-style:normal;font-variant:normal;font-weight:normal;font-stretch:normal;font-size:medium;line-height:normal;font-family:sans-serif;font-variant-ligatures:normal;font-variant-position:normal;font-variant-caps:normal;font-variant-numeric:normal;font-variant-alternates:normal;font-feature-settings:normal;text-indent:0;text-align:start;text-decoration:none;text-decoration-line:none;text-decoration-style:solid;text-decoration-color:#000000;letter-spacing:normal;word-spacing:normal;text-transform:none;writing-mode:lr-tb;direction:ltr;text-orientation:mixed;dominant-baseline:auto;baseline-shift:baseline;text-anchor:start;white-space:normal;shape-padding:0;clip-rule:nonzero;display:inline;overflow:visible;visibility:visible;opacity:1;isolation:auto;mix-blend-mode:normal;color-interpolation:sRGB;color-interpolation-filters:linearRGB;solid-color:#000000;solid-opacity:1;vector-effect:none;fill:#e5ad2a;fill-opacity:1;fill-rule:nonzero;stroke:none;stroke-width:2.0848;stroke-linecap:round;stroke-linejoin:miter;stroke-miterlimit:10;stroke-dasharray:none;stroke-dashoffset:0;stroke-opacity:1;color-rendering:auto;image-rendering:auto;shape-rendering:auto;text-rendering:auto;enable-background:accumulate"
       d="m 32.785156,39.142578 a 1.0425042,1.0425042 0 0 0 -1.027344,1.056641 v 29.40039 a 1.0425042,1.0425042 0 1 0 2.083985,0 v -29.40039 a 1.0425042,1.0425042 0 0 0 -1.056641,-1.056641 z"
       id="line30"
       inkscape:connector-curvature="0" /><path
       style="color:#000000;font-style:normal;font-variant:normal;font-weight:normal;font-stretch:normal;font-size:medium;line-height:normal;font-family:sans-serif;font-variant-ligatures:normal;font-variant-position:normal;font-variant-caps:normal;font-variant-numeric:normal;font-variant-alternates:normal;font-feature-settings:normal;text-indent:0;text-align:start;text-decoration:none;text-decoration-line:none;text-decoration-style:solid;text-decoration-color:#000000;letter-spacing:normal;word-spacing:normal;text-transform:none;writing-mode:lr-tb;direction:ltr;text-orientation:mixed;dominant-baseline:auto;baseline-shift:baseline;text-anchor:start;white-space:normal;shape-padding:0;clip-rule:nonzero;display:inline;overflow:visible;visibility:visible;opacity:1;isolation:auto;mix-blend-mode:normal;color-interpolation:sRGB;color-interpolation-filters:linearRGB;solid-color:#000000;solid-opacity:1;vector-effect:none;fill:#e5ad2a;fill-opacity:1;fill-rule:nonzero;stroke:none;stroke-width:2.0848;stroke-linecap:round;stroke-linejoin:miter;stroke-miterlimit:10;stroke-dasharray:none;stroke-dashoffset:0;stroke-opacity:1;color-rendering:auto;image-rendering:auto;shape-rendering:auto;text-rendering:auto;enable-background:accumulate"
       d="m 36.884766,39.142578 a 1.0425042,1.0425042 0 0 0 -1.027344,1.056641 v 29.40039 a 1.0429685,1.0429685 0 1 0 2.085937,0 v -29.40039 a 1.0425042,1.0425042 0 0 0 -1.058593,-1.056641 z"
       id="line32"
       inkscape:connector-curvature="0" /><path
       style="color:#000000;font-style:normal;font-variant:normal;font-weight:normal;font-stretch:normal;font-size:medium;line-height:normal;font-family:sans-serif;font-variant-ligatures:normal;font-variant-position:normal;font-variant-caps:normal;font-variant-numeric:normal;font-variant-alternates:normal;font-feature-settings:normal;text-indent:0;text-align:start;text-decoration:none;text-decoration-line:none;text-decoration-style:solid;text-decoration-color:#000000;letter-spacing:normal;word-spacing:normal;text-transform:none;writing-mode:lr-tb;direction:ltr;text-orientation:mixed;dominant-baseline:auto;baseline-shift:baseline;text-anchor:start;white-space:normal;shape-padding:0;clip-rule:nonzero;display:inline;overflow:visible;visibility:visible;opacity:1;isolation:auto;mix-blend-mode:normal;color-interpolation:sRGB;color-interpolation-filters:linearRGB;solid-color:#000000;solid-opacity:1;vector-effect:none;fill:#e5ad2a;fill-opacity:1;fill-rule:nonzero;stroke:none;stroke-width:1.2155;stroke-linecap:round;stroke-linejoin:miter;stroke-miterlimit:10;stroke-dasharray:none;stroke-dashoffset:0;stroke-opacity:1;color-rendering:auto;image-rendering:auto;shape-rendering:auto;text-rendering:auto;enable-background:accumulate"
       d="m 40.990234,39.183594 a 0.60781077,0.60781077 0 0 0 -0.597656,0.617187 v 30.298828 a 0.60781077,0.60781077 0 1 0 1.214844,0 V 39.800781 a 0.60781077,0.60781077 0 0 0 -0.617188,-0.617187 z"
       id="line34"
       inkscape:connector-curvature="0" /><path
       style="color:#000000;font-style:normal;font-variant:normal;font-weight:normal;font-stretch:normal;font-size:medium;line-height:normal;font-family:sans-serif;font-variant-ligatures:normal;font-variant-position:normal;font-variant-caps:normal;font-variant-numeric:normal;font-variant-alternates:normal;font-feature-settings:normal;text-indent:0;text-align:start;text-decoration:none;text-decoration-line:none;text-decoration-style:solid;text-decoration-color:#000000;letter-spacing:normal;word-spacing:normal;text-transform:none;writing-mode:lr-tb;direction:ltr;text-orientation:mixed;dominant-baseline:auto;baseline-shift:baseline;text-anchor:start;white-space:normal;shape-padding:0;clip-rule:nonzero;display:inline;overflow:visible;visibility:visible;opacity:1;isolation:auto;mix-blend-mode:normal;color-interpolation:sRGB;color-interpolation-filters:linearRGB;solid-color:#000000;solid-opacity:1;vector-effect:none;fill:#e5ad2a;fill-opacity:1;fill-rule:nonzero;stroke:none;stroke-width:0.8818;stroke-linecap:round;stroke-linejoin:miter;stroke-miterlimit:10;stroke-dasharray:none;stroke-dashoffset:0;stroke-opacity:1;color-rendering:auto;image-rendering:auto;shape-rendering:auto;text-rendering:auto;enable-background:accumulate"
       d="m 45.09375,39.353516 a 0.44094409,0.44094409 0 0 0 -0.435547,0.447265 v 30.298828 a 0.4414065,0.4414065 0 1 0 0.882813,0 V 39.800781 A 0.44094409,0.44094409 0 0 0 45.09375,39.353516 Z"
       id="line36"
       inkscape:connector-curvature="0" /><path
       style="color:#000000;font-style:normal;font-variant:normal;font-weight:normal;font-stretch:normal;font-size:medium;line-height:normal;font-family:sans-serif;font-variant-ligatures:normal;font-variant-position:normal;font-variant-caps:normal;font-variant-numeric:normal;font-variant-alternates:normal;font-feature-settings:normal;text-indent:0;text-align:start;text-decoration:none;text-decoration-line:none;text-decoration-style:solid;text-decoration-color:#000000;letter-spacing:normal;word-spacing:normal;text-transform:none;writing-mode:lr-tb;direction:ltr;text-orientation:mixed;dominant-baseline:auto;baseline-shift:baseline;text-anchor:start;white-space:normal;shape-padding:0;clip-rule:nonzero;display:inline;overflow:visible;visibility:visible;opacity:1;isolation:auto;mix-blend-mode:normal;color-interpolation:sRGB;color-interpolation-filters:linearRGB;solid-color:#000000;solid-opacity:1;vector-effect:none;fill:#e5ad2a;fill-opacity:1;fill-rule:nonzero;stroke:none;stroke-width:2.0848;stroke-linecap:round;stroke-linejoin:miter;stroke-miterlimit:10;stroke-dasharray:none;stroke-dashoffset:0;stroke-opacity:1;color-rendering:auto;image-rendering:auto;shape-rendering:auto;text-rendering:auto;enable-background:accumulate"
       d="m 49.183594,39.142578 a 1.0425042,1.0425042 0 0 0 -1.025391,1.056641 v 29.40039 a 1.0425042,1.0425042 0 1 0 2.083985,0 v -29.40039 a 1.0425042,1.0425042 0 0 0 -1.058594,-1.056641 z"
       id="line38"
       inkscape:connector-curvature="0" /><path
       style="color:#000000;font-style:normal;font-variant:normal;font-weight:normal;font-stretch:normal;font-size:medium;line-height:normal;font-family:sans-serif;font-variant-ligatures:normal;font-variant-position:normal;font-variant-caps:normal;font-variant-numeric:normal;font-variant-alternates:normal;font-feature-settings:normal;text-indent:0;text-align:start;text-decoration:none;text-decoration-line:none;text-decoration-style:solid;text-decoration-color:#000000;letter-spacing:normal;word-spacing:normal;text-transform:none;writing-mode:lr-tb;direction:ltr;text-orientation:mixed;dominant-baseline:auto;baseline-shift:baseline;text-anchor:start;white-space:normal;shape-padding:0;clip-rule:nonzero;display:inline;overflow:visible;visibility:visible;opacity:1;isolation:auto;mix-blend-mode:normal;color-interpolation:sRGB;color-interpolation-filters:linearRGB;solid-color:#000000;solid-opacity:1;vector-effect:none;fill:#e5ad2a;fill-opacity:1;fill-rule:nonzero;stroke:none;stroke-width:1.2155;stroke-linecap:round;stroke-linejoin:miter;stroke-miterlimit:10;stroke-dasharray:none;stroke-dashoffset:0;stroke-opacity:1;color-rendering:auto;image-rendering:auto;shape-rendering:auto;text-rendering:auto;enable-background:accumulate"
       d="m 53.291016,39.183594 a 0.60781077,0.60781077 0 0 0 -0.59961,0.617187 v 30.298828 a 0.6083985,0.6083985 0 1 0 1.216797,0 V 39.800781 a 0.60781077,0.60781077 0 0 0 -0.617187,-0.617187 z"
       id="line40"
       inkscape:connector-curvature="0" /><path
       style="color:#000000;font-style:normal;font-variant:normal;font-weight:normal;font-stretch:normal;font-size:medium;line-height:normal;font-family:sans-serif;font-variant-ligatures:normal;font-variant-position:normal;font-variant-caps:normal;font-variant-numeric:normal;font-variant-alternates:normal;font-feature-settings:normal;text-indent:0;text-align:start;text-decoration:none;text-decoration-line:none;text-decoration-style:solid;text-decoration-color:#000000;letter-spacing:normal;word-spacing:normal;text-transform:none;writing-mode:lr-tb;direction:ltr;text-orientation:mixed;dominant-baseline:auto;baseline-shift:baseline;text-anchor:start;white-space:normal;shape-padding:0;clip-rule:nonzero;display:inline;overflow:visible;visibility:visible;opacity:1;isolation:auto;mix-blend-mode:normal;color-interpolation:sRGB;color-interpolation-filters:linearRGB;solid-color:#000000;solid-opacity:1;vector-effect:none;fill:#e5ad2a;fill-opacity:1;fill-rule:nonzero;stroke:none;stroke-width:2.0848;stroke-linecap:round;stroke-linejoin:miter;stroke-miterlimit:10;stroke-dasharray:none;stroke-dashoffset:0;stroke-opacity:1;color-rendering:auto;image-rendering:auto;shape-rendering:auto;text-rendering:auto;enable-background:accumulate"
       d="m 57.484375,39.142578 a 1.0425042,1.0425042 0 0 0 -1.027344,1.056641 v 29.40039 a 1.042969,1.042969 0 1 0 2.085938,0 v -29.40039 a 1.0425042,1.0425042 0 0 0 -1.058594,-1.056641 z"
       id="line42"
       inkscape:connector-curvature="0" /><path
       style="color:#000000;font-style:normal;font-variant:normal;font-weight:normal;font-stretch:normal;font-size:medium;line-height:normal;font-family:sans-serif;font-variant-ligatures:normal;font-variant-position:normal;font-variant-caps:normal;font-variant-numeric:normal;font-variant-alternates:normal;font-feature-settings:normal;text-indent:0;text-align:start;text-decoration:none;text-decoration-line:none;text-decoration-style:solid;text-decoration-color:#000000;letter-spacing:normal;word-spacing:normal;text-transform:none;writing-mode:lr-tb;direction:ltr;text-orientation:mixed;dominant-baseline:auto;baseline-shift:baseline;text-anchor:start;white-space:normal;shape-padding:0;clip-rule:nonzero;display:inline;overflow:visible;visibility:visible;opacity:1;isolation:auto;mix-blend-mode:normal;color-interpolation:sRGB;color-interpolation-filters:linearRGB;solid-color:#000000;solid-opacity:1;vector-effect:none;fill:#e5ad2a;fill-opacity:1;fill-rule:nonzero;stroke:none;stroke-width:2.0848;stroke-linecap:round;stroke-linejoin:miter;stroke-miterlimit:10;stroke-dasharray:none;stroke-dashoffset:0;stroke-opacity:1;color-rendering:auto;image-rendering:auto;shape-rendering:auto;text-rendering:auto;enable-background:accumulate"
       d="m 61.583984,39.142578 a 1.0425042,1.0425042 0 0 0 -1.027343,1.056641 v 29.40039 a 1.0429685,1.0429685 0 1 0 2.085937,0 v -29.40039 a 1.0425042,1.0425042 0 0 0 -1.058594,-1.056641 z"
       id="line44"
       inkscape:connector-curvature="0" /><path
       style="color:#000000;font-style:normal;font-variant:normal;font-weight:normal;font-stretch:normal;font-size:medium;line-height:normal;font-family:sans-serif;font-variant-ligatures:normal;font-variant-position:normal;font-variant-caps:normal;font-variant-numeric:normal;font-variant-alternates:normal;font-feature-settings:normal;text-indent:0;text-align:start;text-decoration:none;text-decoration-line:none;text-decoration-style:solid;text-decoration-color:#000000;letter-spacing:normal;word-spacing:normal;text-transform:none;writing-mode:lr-tb;direction:ltr;text-orientation:mixed;dominant-baseline:auto;baseline-shift:baseline;text-anchor:start;white-space:normal;shape-padding:0;clip-rule:nonzero;display:inline;overflow:visible;visibility:visible;opacity:1;isolation:auto;mix-blend-mode:normal;color-interpolation:sRGB;color-interpolation-filters:linearRGB;solid-color:#000000;solid-opacity:1;vector-effect:none;fill:#e5ad2a;fill-opacity:1;fill-rule:nonzero;stroke:none;stroke-width:1.2155;stroke-linecap:round;stroke-linejoin:miter;stroke-miterlimit:10;stroke-dasharray:none;stroke-dashoffset:0;stroke-opacity:1;color-rendering:auto;image-rendering:auto;shape-rendering:auto;text-rendering:auto;enable-background:accumulate"
       d="m 65.691406,39.183594 a 0.60781077,0.60781077 0 0 0 -0.599609,0.617187 v 30.298828 a 0.6083985,0.6083985 0 1 0 1.216797,0 V 39.800781 a 0.60781077,0.60781077 0 0 0 -0.617188,-0.617187 z"
       id="line46"
       inkscape:connector-curvature="0" /><path
       style="color:#000000;font-style:normal;font-variant:normal;font-weight:normal;font-stretch:normal;font-size:medium;line-height:normal;font-family:sans-serif;font-variant-ligatures:normal;font-variant-position:normal;font-variant-caps:normal;font-variant-numeric:normal;font-variant-alternates:normal;font-feature-settings:normal;text-indent:0;text-align:start;text-decoration:none;text-decoration-line:none;text-decoration-style:solid;text-decoration-color:#000000;letter-spacing:normal;word-spacing:normal;text-transform:none;writing-mode:lr-tb;direction:ltr;text-orientation:mixed;dominant-baseline:auto;baseline-shift:baseline;text-anchor:start;white-space:normal;shape-padding:0;clip-rule:nonzero;display:inline;overflow:visible;visibility:visible;opacity:1;isolation:auto;mix-blend-mode:normal;color-interpolation:sRGB;color-interpolation-filters:linearRGB;solid-color:#000000;solid-opacity:1;vector-effect:none;fill:#e5ad2a;fill-opacity:1;fill-rule:nonzero;stroke:none;stroke-width:1.2155;stroke-linecap:round;stroke-linejoin:miter;stroke-miterlimit:10;stroke-dasharray:none;stroke-dashoffset:0;stroke-opacity:1;color-rendering:auto;image-rendering:auto;shape-rendering:auto;text-rendering:auto;enable-background:accumulate"
       d="m 69.791016,39.183594 a 0.60781077,0.60781077 0 0 0 -0.59961,0.617187 v 30.298828 a 0.6083985,0.6083985 0 1 0 1.216797,0 V 39.800781 a 0.60781077,0.60781077 0 0 0 -0.617187,-0.617187 z"
       id="line48"
       inkscape:connector-curvature="0" /><path
       style="color:#000000;font-style:normal;font-variant:normal;font-weight:normal;font-stretch:normal;font-size:medium;line-height:normal;font-family:sans-serif;font-variant-ligatures:normal;font-variant-position:normal;font-variant-caps:normal;font-variant-numeric:normal;font-variant-alternates:normal;font-feature-settings:normal;text-indent:0;text-align:start;text-decoration:none;text-decoration-line:none;text-decoration-style:solid;text-decoration-color:#000000;letter-spacing:normal;word-spacing:normal;text-transform:none;writing-mode:lr-tb;direction:ltr;text-orientation:mixed;dominant-baseline:auto;baseline-shift:baseline;text-anchor:start;white-space:normal;shape-padding:0;clip-rule:nonzero;display:inline;overflow:visible;visibility:visible;opacity:1;isolation:auto;mix-blend-mode:normal;color-interpolation:sRGB;color-interpolation-filters:linearRGB;solid-color:#000000;solid-opacity:1;vector-effect:none;fill:#e5ad2a;fill-opacity:1;fill-rule:nonzero;stroke:none;stroke-width:2.9145999;stroke-linecap:round;stroke-linejoin:round;stroke-miterlimit:10;stroke-dasharray:none;stroke-dashoffset:0;stroke-opacity:1;color-rendering:auto;image-rendering:auto;shape-rendering:auto;text-rendering:auto;enable-background:accumulate"
       d="m 37.277344,5.421875 a 1.4574457,1.4574457 0 0 0 -1.435547,1.4785156 v 0.2988282 c 0,2.555637 2.102566,4.6582032 4.658203,4.6582032 h 22 c 2.555637,0 4.658203,-2.1025662 4.658203,-4.6582032 V 6.9003906 a 1.4580075,1.4580075 0 1 0 -2.916015,0 v 0.2988282 c 0,1.0443629 -0.697825,1.7441406 -1.742188,1.7441406 h -22 c -1.044363,0 -1.742188,-0.6997777 -1.742188,-1.7441406 V 6.9003906 A 1.4574457,1.4574457 0 0 0 37.277344,5.421875 Z"
       id="path50"
       inkscape:connector-curvature="0" /><path
       style="color:#000000;font-style:normal;font-variant:normal;font-weight:normal;font-stretch:normal;font-size:medium;line-height:normal;font-family:sans-serif;font-variant-ligatures:normal;font-variant-position:normal;font-variant-caps:normal;font-variant-numeric:normal;font-variant-alternates:normal;font-feature-settings:normal;text-indent:0;text-align:start;text-decoration:none;text-decoration-line:none;text-decoration-style:solid;text-decoration-color:#000000;letter-spacing:normal;word-spacing:normal;text-transform:none;writing-mode:lr-tb;direction:ltr;text-orientation:mixed;dominant-baseline:auto;baseline-shift:baseline;text-anchor:start;white-space:normal;shape-padding:0;clip-rule:nonzero;display:inline;overflow:visible;visibility:visible;opacity:1;isolation:auto;mix-blend-mode:normal;color-interpolation:sRGB;color-interpolation-filters:linearRGB;solid-color:#000000;solid-opacity:1;vector-effect:none;fill:#e5ad2a;fill-opacity:1;fill-rule:nonzero;stroke:none;stroke-width:2.9145999;stroke-linecap:round;stroke-linejoin:round;stroke-miterlimit:10;stroke-dasharray:none;stroke-dashoffset:0;stroke-opacity:1;color-rendering:auto;image-rendering:auto;shape-rendering:auto;text-rendering:auto;enable-background:accumulate"
       d="m 82.837891,25.642578 c -2.266267,-0.05811 -4.106165,0.695206 -5.353516,1.888672 -1.247351,1.193466 -1.908669,2.723952 -2.283203,4.179688 -0.374534,1.455735 -0.467389,2.868199 -0.482422,3.947265 -0.0075,0.539533 0.0066,0.995901 0.01758,1.320313 0.0055,0.162205 0.01008,0.294333 0.01172,0.36914 0.0016,0.07481 -0.0881,0.307464 0.03906,-0.201172 -0.156891,0.627568 -0.02293,0.652008 0.0039,0.763672 0.02684,0.111664 0.05215,0.188734 0.08008,0.269532 0.05585,0.161594 0.122804,0.328229 0.205078,0.52539 0.164548,0.394322 0.390724,0.899928 0.664062,1.494141 0.546676,1.188426 1.276438,2.717577 2.009766,4.234375 1.390893,2.87689 2.652002,5.418616 2.792969,5.703125 v 21.664062 a 1.4574457,1.4574457 0 1 0 2.914062,0 v -22 a 1.4574457,1.4574457 0 0 0 -0.152343,-0.648437 c 0,0 -1.471343,-2.969923 -2.929688,-5.986328 -0.729172,-1.508203 -1.454879,-3.02827 -1.986328,-4.183594 -0.265725,-0.577662 -0.484079,-1.067369 -0.623047,-1.400391 -0.05296,-0.126911 -0.07989,-0.201074 -0.105469,-0.269531 -5.45e-4,-0.005 0.0021,-0.02322 0.002,-0.0293 -0.0026,-0.118455 -0.0084,-0.247753 -0.01367,-0.402344 -0.01048,-0.309182 -0.02217,-0.711798 -0.01563,-1.18164 0.01309,-0.939684 0.102659,-2.142454 0.390626,-3.261719 0.287966,-1.119265 0.770788,-2.125497 1.476562,-2.800781 0.581067,-0.555966 1.411425,-0.883293 2.5625,-0.984375 l 11.320312,17.691406 9.259768,26.107422 v 36.248048 a 1.4574457,1.4574457 0 0 0 0.31054,0.89844 l 10.09961,12.90039 a 1.4574457,1.4574457 0 1 0 2.29493,-1.79688 l -9.79102,-12.5039 V 72.199219 a 1.4574457,1.4574457 0 0 0 -0.084,-0.486328 l -9.398441,-26.5 A 1.4574457,1.4574457 0 0 0 95.927734,44.914062 L 84.027344,26.314453 a 1.4574457,1.4574457 0 0 0 -1.189453,-0.671875 z"
       id="path52"
       inkscape:connector-curvature="0" /><path
       style="color:#000000;font-style:normal;font-variant:normal;font-weight:normal;font-stretch:normal;font-size:medium;line-height:normal;font-family:sans-serif;font-variant-ligatures:normal;font-variant-position:normal;font-variant-caps:normal;font-variant-numeric:normal;font-variant-alternates:normal;font-feature-settings:normal;text-indent:0;text-align:start;text-decoration:none;text-decoration-line:none;text-decoration-style:solid;text-decoration-color:#000000;letter-spacing:normal;word-spacing:normal;text-transform:none;writing-mode:lr-tb;direction:ltr;text-orientation:mixed;dominant-baseline:auto;baseline-shift:baseline;text-anchor:start;white-space:normal;shape-padding:0;clip-rule:nonzero;display:inline;overflow:visible;visibility:visible;opacity:1;isolation:auto;mix-blend-mode:normal;color-interpolation:sRGB;color-interpolation-filters:linearRGB;solid-color:#000000;solid-opacity:1;vector-effect:none;fill:#e5ad2a;fill-opacity:1;fill-rule:nonzero;stroke:none;stroke-width:2.9145999;stroke-linecap:round;stroke-linejoin:round;stroke-miterlimit:10;stroke-dasharray:none;stroke-dashoffset:0;stroke-opacity:1;color-rendering:auto;image-rendering:auto;shape-rendering:auto;text-rendering:auto;enable-background:accumulate"
       d="m 47.117188,103.02734 a 1.4574457,1.4574457 0 0 0 -1.164063,2.3711 l 13.699219,17.5 a 1.4574457,1.4574457 0 1 0 2.294922,-1.79688 l -13.699219,-17.5 a 1.4574457,1.4574457 0 0 0 -1.130859,-0.57422 z"
       id="line54"
       inkscape:connector-curvature="0" /><path
       style="color:#000000;font-style:normal;font-variant:normal;font-weight:normal;font-stretch:normal;font-size:medium;line-height:normal;font-family:sans-serif;font-variant-ligatures:normal;font-variant-position:normal;font-variant-caps:normal;font-variant-numeric:normal;font-variant-alternates:normal;font-feature-settings:normal;text-indent:0;text-align:start;text-decoration:none;text-decoration-line:none;text-decoration-style:solid;text-decoration-color:#000000;letter-spacing:normal;word-spacing:normal;text-transform:none;writing-mode:lr-tb;direction:ltr;text-orientation:mixed;dominant-baseline:auto;baseline-shift:baseline;text-anchor:start;white-space:normal;shape-padding:0;clip-rule:nonzero;display:inline;overflow:visible;visibility:visible;opacity:1;isolation:auto;mix-blend-mode:normal;color-interpolation:sRGB;color-interpolation-filters:linearRGB;solid-color:#000000;solid-opacity:1;vector-effect:none;fill:#e5ad2a;fill-opacity:1;fill-rule:nonzero;stroke:none;stroke-width:2.9145999;stroke-linecap:round;stroke-linejoin:round;stroke-miterlimit:10;stroke-dasharray:none;stroke-dashoffset:0;stroke-opacity:1;color-rendering:auto;image-rendering:auto;shape-rendering:auto;text-rendering:auto;enable-background:accumulate"
       d="m 20.800781,48.443359 c -3.3847,0 -6.158203,2.77155 -6.158203,6.15625 v 2.5 c 0,3.3847 2.773503,6.158204 6.158203,6.158203 h 1.09961 c 3.3847,0 6.15625,-2.773503 6.15625,-6.158203 v -2.5 c 0,-3.3847 -2.77155,-6.15625 -6.15625,-6.15625 z m 0,2.914063 h 1.09961 c 1.8153,0 3.242187,1.426887 3.242187,3.242187 v 2.5 c 0,1.8153 -1.426887,3.242188 -3.242187,3.242188 h -1.09961 c -1.8153,0 -3.24414,-1.426888 -3.24414,-3.242188 v -2.5 c 0,-1.8153 1.42884,-3.242187 3.24414,-3.242187 z"
       id="path56"
       inkscape:connector-curvature="0" /><path
       style="color:#000000;font-style:normal;font-variant:normal;font-weight:normal;font-stretch:normal;font-size:medium;line-height:normal;font-family:sans-serif;font-variant-ligatures:normal;font-variant-position:normal;font-variant-caps:normal;font-variant-numeric:normal;font-variant-alternates:normal;font-feature-settings:normal;text-indent:0;text-align:start;text-decoration:none;text-decoration-line:none;text-decoration-style:solid;text-decoration-color:#000000;letter-spacing:normal;word-spacing:normal;text-transform:none;writing-mode:lr-tb;direction:ltr;text-orientation:mixed;dominant-baseline:auto;baseline-shift:baseline;text-anchor:start;white-space:normal;shape-padding:0;clip-rule:nonzero;display:inline;overflow:visible;visibility:visible;opacity:1;isolation:auto;mix-blend-mode:normal;color-interpolation:sRGB;color-interpolation-filters:linearRGB;solid-color:#000000;solid-opacity:1;vector-effect:none;fill:#e5ad2a;fill-opacity:1;fill-rule:nonzero;stroke:none;stroke-width:2.9145999;stroke-linecap:round;stroke-linejoin:round;stroke-miterlimit:10;stroke-dasharray:none;stroke-dashoffset:0;stroke-opacity:1;color-rendering:auto;image-rendering:auto;shape-rendering:auto;text-rendering:auto;enable-background:accumulate"
       d="m 20.800781,63.943359 c -3.3847,0 -6.158203,2.77155 -6.158203,6.15625 v 2.5 c 0,3.3847 2.773503,6.158203 6.158203,6.158203 h 1.09961 c 3.3847,10e-7 6.15625,-2.773503 6.15625,-6.158203 v -2.5 c 0,-3.3847 -2.77155,-6.15625 -6.15625,-6.15625 z m 0,2.914063 h 1.09961 c 1.8153,0 3.242187,1.426887 3.242187,3.242187 v 2.5 c 0,1.8153 -1.426887,3.242188 -3.242187,3.242188 h -1.09961 c -1.8153,0 -3.24414,-1.426888 -3.24414,-3.242188 v -2.5 c 0,-1.8153 1.42884,-3.242187 3.24414,-3.242187 z"
       id="path58"
       inkscape:connector-curvature="0" /><path
       style="color:#000000;font-style:normal;font-variant:normal;font-weight:normal;font-stretch:normal;font-size:medium;line-height:normal;font-family:sans-serif;font-variant-ligatures:normal;font-variant-position:normal;font-variant-caps:normal;font-variant-numeric:normal;font-variant-alternates:normal;font-feature-settings:normal;text-indent:0;text-align:start;text-decoration:none;text-decoration-line:none;text-decoration-style:solid;text-decoration-color:#000000;letter-spacing:normal;word-spacing:normal;text-transform:none;writing-mode:lr-tb;direction:ltr;text-orientation:mixed;dominant-baseline:auto;baseline-shift:baseline;text-anchor:start;white-space:normal;shape-padding:0;clip-rule:nonzero;display:inline;overflow:visible;visibility:visible;opacity:1;isolation:auto;mix-blend-mode:normal;color-interpolation:sRGB;color-interpolation-filters:linearRGB;solid-color:#000000;solid-opacity:1;vector-effect:none;fill:#e5ad2a;fill-opacity:1;fill-rule:nonzero;stroke:none;stroke-width:2.9145999;stroke-linecap:round;stroke-linejoin:round;stroke-miterlimit:10;stroke-dasharray:none;stroke-dashoffset:0;stroke-opacity:1;color-rendering:auto;image-rendering:auto;shape-rendering:auto;text-rendering:auto;enable-background:accumulate"
       d="m 21.900391,79.542969 c -2.994891,0 -5.457032,2.46214 -5.457032,5.457031 v 2.400391 c 0,2.994891 2.462141,5.457031 5.457032,5.457031 h 0.699218 c 2.994891,0 5.457032,-2.46214 5.457032,-5.457031 V 85 c 0,-2.994891 -2.462141,-5.457031 -5.457032,-5.457031 z m 0,2.914062 h 0.699218 c 1.405109,0 2.542969,1.13786 2.542969,2.542969 v 2.400391 c 0,1.405109 -1.13786,2.542968 -2.542969,2.542968 h -0.699218 c -1.405109,0 -2.542969,-1.137859 -2.542969,-2.542968 V 85 c 0,-1.405109 1.13786,-2.542969 2.542969,-2.542969 z"
       id="path60"
       inkscape:connector-curvature="0" /><path
       style="color:#000000;font-style:normal;font-variant:normal;font-weight:normal;font-stretch:normal;font-size:medium;line-height:normal;font-family:sans-serif;font-variant-ligatures:normal;font-variant-position:normal;font-variant-caps:normal;font-variant-numeric:normal;font-variant-alternates:normal;font-feature-settings:normal;text-indent:0;text-align:start;text-decoration:none;text-decoration-line:none;text-decoration-style:solid;text-decoration-color:#000000;letter-spacing:normal;word-spacing:normal;text-transform:none;writing-mode:lr-tb;direction:ltr;text-orientation:mixed;dominant-baseline:auto;baseline-shift:baseline;text-anchor:start;white-space:normal;shape-padding:0;clip-rule:nonzero;display:inline;overflow:visible;visibility:visible;opacity:1;isolation:auto;mix-blend-mode:normal;color-interpolation:sRGB;color-interpolation-filters:linearRGB;solid-color:#000000;solid-opacity:1;vector-effect:none;fill:#e5ad2a;fill-opacity:1;fill-rule:nonzero;stroke:none;stroke-width:2.9145999;stroke-linecap:round;stroke-linejoin:round;stroke-miterlimit:10;stroke-dasharray:none;stroke-dashoffset:0;stroke-opacity:1;color-rendering:auto;image-rendering:auto;shape-rendering:auto;text-rendering:auto;enable-background:accumulate"
       d="m 20.621094,29.880859 c -1.461965,-0.04652 -2.998192,0.01932 -4.404297,0.421875 -1.406105,0.402555 -2.831295,1.251996 -3.388672,2.804688 a 1.4574457,1.4574457 0 0 0 -0.01563,0.04492 c -0.837998,2.600684 -0.430545,4.998017 0.6875,6.826172 1.118045,1.828154 2.83468,3.12184 4.576172,4.074218 1.741492,0.952379 3.529872,1.563382 4.925781,1.925782 0.697955,0.181199 1.293651,0.299348 1.765625,0.363281 0.235987,0.03197 0.432342,0.05273 0.65625,0.05273 0.111954,0 0.222623,0.0036 0.431641,-0.04102 0.104509,-0.02233 0.237136,-0.04962 0.449219,-0.169922 0.212082,-0.120302 0.57856,-0.407994 0.708984,-0.929688 a 1.4574457,1.4574457 0 0 0 -1.753906,-1.789062 c -0.04332,-0.004 -0.04184,-0.0017 -0.101563,-0.0098 -0.3124,-0.04232 -0.821783,-0.140575 -1.423828,-0.296875 -1.204091,-0.3126 -2.801257,-0.864488 -4.259766,-1.662109 -1.458508,-0.797622 -2.756326,-1.840264 -3.488281,-3.03711 -0.726466,-1.18787 -0.996502,-2.498595 -0.402344,-4.375 0.145389,-0.39298 0.524041,-0.71756 1.435547,-0.978515 0.918895,-0.263071 2.221731,-0.35153 3.509766,-0.310547 2.576071,0.08197 5.052734,0.626953 5.052734,0.626953 a 1.4574457,1.4574457 0 1 0 0.634766,-2.84375 c 0,0 -2.671774,-0.604232 -5.595703,-0.697266 z"
       id="path62"
       inkscape:connector-curvature="0" /></g></svg>