<?xml version="1.0" encoding="UTF-8" standalone="no"?>
<!-- Generator: Adobe Illustrator 21.0.0, SVG Export Plug-In . SVG Version: 6.00 Build 0)  -->

<svg
   xmlns:dc="http://purl.org/dc/elements/1.1/"
   xmlns:cc="http://creativecommons.org/ns#"
   xmlns:rdf="http://www.w3.org/1999/02/22-rdf-syntax-ns#"
   xmlns:svg="http://www.w3.org/2000/svg"
   xmlns="http://www.w3.org/2000/svg"
   xmlns:sodipodi="http://sodipodi.sourceforge.net/DTD/sodipodi-0.dtd"
   xmlns:inkscape="http://www.inkscape.org/namespaces/inkscape"
   version="1.1"
   id="Layer_1"
   x="0px"
   y="0px"
   viewBox="0 0 128 128"
   style="enable-background:new 0 0 128 128;"
   xml:space="preserve"
   sodipodi:docname="shop.svg"
   inkscape:version="0.92.2 (5c3e80d, 2017-08-06)"><metadata
     id="metadata31"><rdf:RDF><cc:Work
         rdf:about=""><dc:format>image/svg+xml</dc:format><dc:type
           rdf:resource="http://purl.org/dc/dcmitype/StillImage" /></cc:Work></rdf:RDF></metadata><defs
     id="defs29" /><sodipodi:namedview
     pagecolor="#ffffff"
     bordercolor="#666666"
     borderopacity="1"
     objecttolerance="10"
     gridtolerance="10"
     guidetolerance="10"
     inkscape:pageopacity="0"
     inkscape:pageshadow="2"
     inkscape:window-width="790"
     inkscape:window-height="504"
     id="namedview27"
     showgrid="false"
     inkscape:zoom="1.84375"
     inkscape:cx="-15.728814"
     inkscape:cy="62.915254"
     inkscape:window-x="0"
     inkscape:window-y="26"
     inkscape:window-maximized="0"
     inkscape:current-layer="Layer_1" /><style
     type="text/css"
     id="style2">
	.st0{fill:none;stroke:#E5AD2A;stroke-width:2.9146;stroke-linecap:round;stroke-linejoin:round;stroke-miterlimit:10;}
</style><g
     id="g24"><path
       style="color:#000000;font-style:normal;font-variant:normal;font-weight:normal;font-stretch:normal;font-size:medium;line-height:normal;font-family:sans-serif;font-variant-ligatures:normal;font-variant-position:normal;font-variant-caps:normal;font-variant-numeric:normal;font-variant-alternates:normal;font-feature-settings:normal;text-indent:0;text-align:start;text-decoration:none;text-decoration-line:none;text-decoration-style:solid;text-decoration-color:#000000;letter-spacing:normal;word-spacing:normal;text-transform:none;writing-mode:lr-tb;direction:ltr;text-orientation:mixed;dominant-baseline:auto;baseline-shift:baseline;text-anchor:start;white-space:normal;shape-padding:0;clip-rule:nonzero;display:inline;overflow:visible;visibility:visible;opacity:1;isolation:auto;mix-blend-mode:normal;color-interpolation:sRGB;color-interpolation-filters:linearRGB;solid-color:#000000;solid-opacity:1;vector-effect:none;fill:#e5ad2a;fill-opacity:1;fill-rule:nonzero;stroke:none;stroke-width:2.9145999;stroke-linecap:round;stroke-linejoin:round;stroke-miterlimit:10;stroke-dasharray:none;stroke-dashoffset:0;stroke-opacity:1;color-rendering:auto;image-rendering:auto;shape-rendering:auto;text-rendering:auto;enable-background:accumulate"
       d="m 17.800781,19.142578 c -4.171511,0 -7.558593,3.385129 -7.558593,7.556641 v 1.74414 H 2.1992188 a 1.4574457,1.4574457 0 1 0 0,2.914063 h 9.2617192 a 1.4574457,1.4574457 0 0 0 0.472656,0 H 115.06055 a 1.4574457,1.4574457 0 0 0 0.47265,0 h 10.26758 a 1.4574457,1.4574457 0 1 0 0,-2.914063 h -9.04297 v -1.74414 c 0,-4.171512 -3.38708,-7.556641 -7.55859,-7.556641 z m 0,2.914063 h 91.398439 c 2.62849,0 4.64258,2.014089 4.64258,4.642578 v 1.74414 H 13.158203 v -1.74414 c 0,-2.628489 2.01409,-4.642578 4.642578,-4.642578 z M 2.8007812,34.642578 A 1.4574457,1.4574457 0 0 0 1.3417969,36.099609 V 53 c 0,6.398045 5.2601579,11.658203 11.6582031,11.658203 6.398045,0 11.658203,-5.260158 11.658203,-11.658203 V 36.099609 a 1.4574457,1.4574457 0 0 0 -1.458984,-1.457031 z m 25.5996098,0 a 1.4574457,1.4574457 0 0 0 -1.457032,1.457031 V 53 c 0,6.398045 5.258205,11.658203 11.65625,11.658203 6.484045,0 11.658204,-5.277507 11.658203,-11.658203 V 36.099609 a 1.4574457,1.4574457 0 0 0 -1.457031,-1.457031 z m 25.699218,0 a 1.4574457,1.4574457 0 0 0 -1.457031,1.457031 V 53 c 0,6.398045 5.260158,11.658203 11.658203,11.658203 6.398045,0 11.65625,-5.260158 11.65625,-11.658203 V 36.099609 A 1.4574457,1.4574457 0 0 0 74.5,34.642578 Z m 25.59961,0 a 1.4574457,1.4574457 0 0 0 -1.457031,1.457031 V 53 c 0,6.398045 5.260157,11.658203 11.658203,11.658203 6.398045,0 11.656249,-5.260158 11.656249,-11.658203 V 36.099609 a 1.4574457,1.4574457 0 0 0 -1.45703,-1.457031 z m 25.701171,0 a 1.4574457,1.4574457 0 0 0 -1.45703,1.457031 V 53 c 0,6.398045 5.2582,11.658203 11.65625,11.658203 6.39804,0 11.6582,-5.260158 11.6582,-11.658203 V 36.099609 a 1.4574457,1.4574457 0 0 0 -1.45703,-1.457031 z M 4.2578125,37.556641 H 21.742188 V 53 c 0,4.801955 -3.940233,8.742188 -8.742188,8.742188 -4.8019548,0 -8.7421875,-3.940233 -8.7421875,-8.742188 z m 25.5996095,0 H 47.341797 V 53 c 0,4.819304 -3.826232,8.742187 -8.742188,8.742188 -4.801954,0 -8.742187,-3.940233 -8.742187,-8.742188 z m 25.699219,0 H 73.042969 V 53 c 0,4.801955 -3.940233,8.742188 -8.742188,8.742188 -4.801955,0 -8.74414,-3.940233 -8.74414,-8.742188 z m 25.601562,0 H 98.642578 V 53 c 0,4.801955 -3.940233,8.742188 -8.742187,8.742188 -4.801955,0 -8.742188,-3.940233 -8.742188,-8.742188 z m 25.699217,0 H 124.3418 V 53 c 0,4.801955 -3.94024,8.742188 -8.74219,8.742188 -4.80196,0 -8.74219,-3.940233 -8.74219,-8.742188 z M 11.677734,67.322266 a 1.4574457,1.4574457 0 0 0 -1.435546,1.478515 v 32.499999 c 0,4.17151 3.387082,7.55664 7.558593,7.55664 h 91.398439 c 4.17151,0 7.55859,-3.38513 7.55859,-7.55664 V 68.800781 a 1.458005,1.458005 0 1 0 -2.91601,0 v 32.499999 c 0,2.62849 -2.01409,4.64258 -4.64258,4.64258 h -7.64258 V 73 c 0,-2.609611 -2.146248,-4.757813 -4.755859,-4.757812 H 76.900391 C 74.29078,68.242187 72.142578,70.390389 72.142578,73 v 32.94336 H 17.800781 c -2.628488,0 -4.642578,-2.01409 -4.642578,-4.64258 V 68.800781 a 1.4574457,1.4574457 0 0 0 -1.480469,-1.478515 z m 20.921875,0.919922 c -2.277226,0 -4.15625,1.880976 -4.15625,4.158203 v 14.5 c 0,2.277226 1.879024,4.15625 4.15625,4.15625 h 21.201172 a 1.4574457,1.4574457 0 0 0 0.0957,-0.002 c 2.220603,-0.148041 4.060547,-1.97668 4.060547,-4.253907 v -14.40039 c 0,-2.277227 -1.879023,-4.158203 -4.15625,-4.158203 z m 0,2.916015 h 21.201172 c 0.722774,0 1.242188,0.519414 1.242188,1.242188 v 14.40039 c 0,0.71916 -0.556767,1.28494 -1.330078,1.341797 H 32.599609 c -0.722773,0 -1.242187,-0.519414 -1.242187,-1.242187 v -14.5 c 0,-0.722774 0.519414,-1.242188 1.242187,-1.242188 z m 44.300782,0 h 19.90039 c 0.990389,0 1.841797,0.851408 1.841797,1.841797 v 32.94336 H 75.056641 V 73 c 0,-0.990389 0.853361,-1.841797 1.84375,-1.841797 z"
       id="line22"
       inkscape:connector-curvature="0" /></g></svg>