<?xml version="1.0" encoding="utf-8"?>
<!-- Generator: Adobe Illustrator 21.0.0, SVG Export Plug-In . SVG Version: 6.00 Build 0)  -->
<svg version="1.1" id="Layer_1" xmlns="http://www.w3.org/2000/svg" xmlns:xlink="http://www.w3.org/1999/xlink" x="0px" y="0px"
	 viewBox="0 0 128 128" style="enable-background:new 0 0 128 128;" xml:space="preserve">
<style type="text/css">
	.st0{fill:none;stroke:#E5AD2A;stroke-width:2.9146;stroke-linecap:round;stroke-linejoin:round;stroke-miterlimit:10;}
</style>
<g>
	<path class="st0" d="M11.7,68.8v32.5c0,3.4,2.7,6.1,6.1,6.1h91.4c3.4,0,6.1-2.7,6.1-6.1V68.8"/>
	<path class="st0" d="M115.3,29.9v-3.2c0-3.4-2.7-6.1-6.1-6.1H17.8c-3.4,0-6.1,2.7-6.1,6.1v3.2"/>
	<path class="st0" d="M13,63.2L13,63.2C7.4,63.2,2.8,58.6,2.8,53V36.1h20.4V53C23.2,58.6,18.6,63.2,13,63.2z"/>
	<path class="st0" d="M38.6,63.2L38.6,63.2c-5.6,0-10.2-4.6-10.2-10.2V36.1h20.4V53C48.8,58.6,44.3,63.2,38.6,63.2z"/>
	<path class="st0" d="M64.3,63.2L64.3,63.2c-5.6,0-10.2-4.6-10.2-10.2V36.1h20.4V53C74.5,58.6,69.9,63.2,64.3,63.2z"/>
	<path class="st0" d="M89.9,63.2L89.9,63.2c-5.6,0-10.2-4.6-10.2-10.2V36.1h20.4V53C100.1,58.6,95.5,63.2,89.9,63.2z"/>
	<path class="st0" d="M115.6,63.2L115.6,63.2c-5.6,0-10.2-4.6-10.2-10.2V36.1h20.4V53C125.8,58.6,121.2,63.2,115.6,63.2z"/>
	<path class="st0" d="M73.6,107.1V73c0-1.8,1.5-3.3,3.3-3.3h19.9c1.8,0,3.3,1.5,3.3,3.3v34.1"/>
	<path class="st0" d="M56.5,86.8V72.4c0-1.5-1.2-2.7-2.7-2.7H32.6c-1.5,0-2.7,1.2-2.7,2.7v14.5c0,1.5,1.2,2.7,2.7,2.7h21.2
		C55.3,89.5,56.5,88.3,56.5,86.8z"/>
	<line class="st0" x1="2.2" y1="29.9" x2="125.8" y2="29.9"/>
</g>
</svg>
