<?xml version="1.0" encoding="UTF-8" standalone="no"?>
<!-- Generator: Adobe Illustrator 21.0.0, SVG Export Plug-In . SVG Version: 6.00 Build 0)  -->

<svg
   xmlns:dc="http://purl.org/dc/elements/1.1/"
   xmlns:cc="http://creativecommons.org/ns#"
   xmlns:rdf="http://www.w3.org/1999/02/22-rdf-syntax-ns#"
   xmlns:svg="http://www.w3.org/2000/svg"
   xmlns="http://www.w3.org/2000/svg"
   xmlns:sodipodi="http://sodipodi.sourceforge.net/DTD/sodipodi-0.dtd"
   xmlns:inkscape="http://www.inkscape.org/namespaces/inkscape"
   version="1.1"
   id="Layer_1"
   x="0px"
   y="0px"
   viewBox="0 0 128 128"
   style="enable-background:new 0 0 128 128;"
   xml:space="preserve"
   sodipodi:docname="chart_click.svg"
   inkscape:version="0.92.2 (5c3e80d, 2017-08-06)"><metadata
     id="metadata37"><rdf:RDF><cc:Work
         rdf:about=""><dc:format>image/svg+xml</dc:format><dc:type
           rdf:resource="http://purl.org/dc/dcmitype/StillImage" /></cc:Work></rdf:RDF></metadata><defs
     id="defs35" /><sodipodi:namedview
     pagecolor="#ffffff"
     bordercolor="#666666"
     borderopacity="1"
     objecttolerance="10"
     gridtolerance="10"
     guidetolerance="10"
     inkscape:pageopacity="0"
     inkscape:pageshadow="2"
     inkscape:window-width="790"
     inkscape:window-height="716"
     id="namedview33"
     showgrid="false"
     inkscape:zoom="1.84375"
     inkscape:cx="-15.728814"
     inkscape:cy="62.915254"
     inkscape:window-x="683"
     inkscape:window-y="26"
     inkscape:window-maximized="0"
     inkscape:current-layer="Layer_1" /><style
     type="text/css"
     id="style2">
	.st0{fill:none;stroke:#E5AD2A;stroke-width:2.9146;stroke-linecap:round;stroke-linejoin:round;stroke-miterlimit:10;}
</style><g
     id="g30"><g
       id="g26"><g
         id="g12" /></g><path
       style="color:#000000;font-style:normal;font-variant:normal;font-weight:normal;font-stretch:normal;font-size:medium;line-height:normal;font-family:sans-serif;font-variant-ligatures:normal;font-variant-position:normal;font-variant-caps:normal;font-variant-numeric:normal;font-variant-alternates:normal;font-feature-settings:normal;text-indent:0;text-align:start;text-decoration:none;text-decoration-line:none;text-decoration-style:solid;text-decoration-color:#000000;letter-spacing:normal;word-spacing:normal;text-transform:none;writing-mode:lr-tb;direction:ltr;text-orientation:mixed;dominant-baseline:auto;baseline-shift:baseline;text-anchor:start;white-space:normal;shape-padding:0;clip-rule:nonzero;display:inline;overflow:visible;visibility:visible;opacity:1;isolation:auto;mix-blend-mode:normal;color-interpolation:sRGB;color-interpolation-filters:linearRGB;solid-color:#000000;solid-opacity:1;vector-effect:none;fill:#e5ad2a;fill-opacity:1;fill-rule:nonzero;stroke:none;stroke-width:2.9145999;stroke-linecap:round;stroke-linejoin:round;stroke-miterlimit:10;stroke-dasharray:none;stroke-dashoffset:0;stroke-opacity:1;color-rendering:auto;image-rendering:auto;shape-rendering:auto;text-rendering:auto;enable-background:accumulate"
       d="m 6.3007812,12.042969 a 1.4574457,1.4574457 0 1 0 0,2.914062 h 9.0996098 c 2.286921,0 4.312318,1.711185 4.773437,3.935547 1.25e-4,6.04e-4 -1.25e-4,0.0013 0,0.002 l 14.09375,72.576172 c 1.17e-4,6.19e-4 -1.17e-4,0.0013 0,0.002 l 0.002,0.0059 c 0.830833,4.370273 4.668892,7.478515 9.13086,7.478515 h 40.90039 a 1.4574457,1.4574457 0 1 0 0,-2.914062 h -40.90039 c -3.135267,0 -5.695196,-2.087829 -6.267579,-5.113281 a 1.4574457,1.4574457 0 0 0 -0.002,-0.0078 l -1.794921,-9.240234 c 1.019878,0.568927 2.134174,0.976562 3.363281,0.976562 h 68.500001 c 3.38219,0 6.30649,-2.424933 6.93164,-5.789062 l 8.19922,-41.587891 a 1.4574457,1.4574457 0 0 0 -1.42969,-1.738281 H 25.986328 l -0.714844,-3.685547 h 96.427736 a 1.4574457,1.4574457 0 1 0 0,-2.914063 H 24.705078 L 23.03125,18.322266 a 1.4574457,1.4574457 0 0 0 -0.0039,-0.01758 C 22.287739,14.729932 19.112848,12.042969 15.400391,12.042969 Z M 26.771484,36.457031 h 92.357426 l -7.85938,39.861328 a 1.4574457,1.4574457 0 0 0 -0.002,0.01563 c -0.37659,2.033577 -2.05203,3.408204 -4.06836,3.408204 H 38.699219 c -2.016329,0 -3.689818,-1.374627 -4.066407,-3.408204 a 1.4574457,1.4574457 0 0 0 -0.0039,-0.01563 z m 27.910157,5.964844 A 1.4574457,1.4574457 0 0 0 53.25,44.041016 l 2.900391,30 a 1.4574457,1.4574457 0 1 0 2.90039,-0.28125 l -2.90039,-30 a 1.4574457,1.4574457 0 0 0 -1.46875,-1.337891 z m 18.996093,0 a 1.4574457,1.4574457 0 0 0 -1.435546,1.478516 v 29.699218 a 1.4580075,1.4580075 0 1 0 2.916015,0 V 43.900391 a 1.4574457,1.4574457 0 0 0 -1.480469,-1.478516 z m 19.091797,0 a 1.4574457,1.4574457 0 0 0 -1.419922,1.341797 l -2.800781,30 a 1.4575068,1.4575068 0 1 0 2.902344,0.271484 l 2.800781,-30 A 1.4574457,1.4574457 0 0 0 92.769531,42.421875 Z M 39.611328,53.123047 a 1.4574457,1.4574457 0 0 0 -1.447266,1.730469 l 3.400391,19.298828 a 1.4576587,1.4576587 0 1 0 2.871094,-0.50586 L 41.035156,54.347656 a 1.4574457,1.4574457 0 0 0 -1.423828,-1.224609 z m 68.033202,0 a 1.4574457,1.4574457 0 0 0 -1.37891,1.224609 l -3.40039,19.298828 a 1.4574457,1.4574457 0 1 0 2.86915,0.50586 l 3.40039,-19.298828 a 1.4574457,1.4574457 0 0 0 -1.49024,-1.730469 z M 95.298828,86.943359 a 1.4574457,1.4574457 0 0 0 -1.392578,1.878907 l 7.09961,23.400394 a 1.4574457,1.4574457 0 0 0 2.70117,0.22265 l 3.29883,-6.67969 9.76367,9.76563 a 1.4574457,1.4574457 0 0 0 2.07617,-0.0156 l 3.5,-3.5996 a 1.4574457,1.4574457 0 0 0 -0.0156,-2.04688 l -9.66992,-9.66992 6.59179,-3.294923 A 1.4574457,1.4574457 0 0 0 119.0293,94.207031 L 95.730469,87.007812 a 1.4574457,1.4574457 0 0 0 -0.431641,-0.06445 z m 2.19336,3.660157 17.208982,5.316406 -5.15234,2.576172 a 1.4574457,1.4574457 0 0 0 -0.37891,2.333986 l 10.08399,10.08398 -1.46875,1.50977 -10.1543,-10.1543 a 1.4574457,1.4574457 0 0 0 -2.33789,0.38477 l -2.56836,5.19726 z M 41.699219,102.74219 c -2.610123,0 -4.75586,2.14769 -4.75586,4.75781 0,2.61012 2.145737,4.75781 4.75586,4.75781 2.610123,0 4.757812,-2.14769 4.757812,-4.75781 0,-2.61012 -2.147689,-4.75781 -4.757812,-4.75781 z m 42.300781,0 c -2.610123,0 -4.757812,2.14769 -4.757812,4.75781 -10e-7,2.61012 2.147689,4.75781 4.757812,4.75781 2.610123,0 4.757813,-2.14769 4.757812,-4.75781 0,-2.61012 -2.147689,-4.75781 -4.757812,-4.75781 z m -42.300781,2.91601 c 1.034956,0 1.84375,0.80684 1.84375,1.8418 0,1.03496 -0.808794,1.8418 -1.84375,1.8418 -1.034957,0 -1.841797,-0.80684 -1.841797,-1.8418 0,-1.03496 0.80684,-1.8418 1.841797,-1.8418 z m 42.300781,0 c 1.034956,0 1.841797,0.80684 1.841797,1.8418 0,1.03496 -0.806841,1.8418 -1.841797,1.8418 -1.034956,0 -1.841797,-0.80684 -1.841797,-1.8418 0,-1.03496 0.806841,-1.8418 1.841797,-1.8418 z"
       id="polygon28"
       inkscape:connector-curvature="0" /></g></svg>