<svg xmlns="http://www.w3.org/2000/svg" xmlns:xlink="http://www.w3.org/1999/xlink" width="18" height="18" viewBox="0 0 18 18">
    <defs>
        <linearGradient id="a" x1="50%" x2="50%" y1="91.642%" y2="100%">
            <stop offset="0%" stop-color="#F2F2F2"/>
            <stop offset="100%" stop-color="#EDEDED"/>
        </linearGradient>
        <path id="b" d="M.01 3.716L.633.176h8.855L7.62 10.78H.01V3.716z"/>
    </defs>
    <g fill="none" fill-rule="evenodd">
        <path fill="url(#a)" d="M179 126h324v141H179z" transform="translate(-200 -176)"/>
        <g>
            <rect width="18" height="18" fill="#FFF" rx="2"/>
            <path fill="#0A0B09" d="M10.091 17.879H5.989L9.137 0h4.102l-3.148 17.879"/>
            <g transform="translate(3.375 1.96)">
                <mask id="c" fill="#fff">
                    <use xlink:href="#b"/>
                </mask>
                <path fill="#F4C400" d="M5.312.176a5.302 5.302 0 1 0 0 10.604 5.302 5.302 0 0 0 0-10.604" mask="url(#c)"/>
                <path fill="#FFD60D" d="M5.312 1.649a3.83 3.83 0 1 0 0 7.659 3.83 3.83 0 0 0 0-7.66" mask="url(#c)"/>
            </g>
            <g fill="#D9AF00">
                <path d="M10.54 12.408l.32-1.816c.22-.151.422-.325.605-.517l-.367 2.088c-.18.092-.367.174-.558.245m1.659-6.5a3.831 3.831 0 0 0-.391-.69l.32-1.815c.154.132.3.272.438.42l-.367 2.084"/>
                <path d="M10.86 10.592l.948-5.374c.153.214.284.445.39.69l-.733 4.167a3.854 3.854 0 0 1-.605.517"/>
            </g>
        </g>
    </g>
</svg>
