<?xml version="1.0" encoding="UTF-8" standalone="no"?>
<!-- Created with Inkscape (http://www.inkscape.org/) -->

<svg
   xmlns:dc="http://purl.org/dc/elements/1.1/"
   xmlns:cc="http://creativecommons.org/ns#"
   xmlns:rdf="http://www.w3.org/1999/02/22-rdf-syntax-ns#"
   xmlns:svg="http://www.w3.org/2000/svg"
   xmlns="http://www.w3.org/2000/svg"
   xmlns:sodipodi="http://sodipodi.sourceforge.net/DTD/sodipodi-0.dtd"
   xmlns:inkscape="http://www.inkscape.org/namespaces/inkscape"
   id="svg2"
   version="1.1"
   inkscape:version="0.91 r13725"
   xml:space="preserve"
   width="2535.7"
   height="2089.2"
   viewBox="0 0 2535.7 2089.2"
   sodipodi:docname="round.svg"><metadata
     id="metadata8"><rdf:RDF><cc:Work
         rdf:about=""><dc:format>image/svg+xml</dc:format><dc:type
           rdf:resource="http://purl.org/dc/dcmitype/StillImage" /><dc:title></dc:title></cc:Work></rdf:RDF></metadata><defs
     id="defs6"><clipPath
       clipPathUnits="userSpaceOnUse"
       id="clipPath16"><path
         d="M 0,1671.4 2028.5,1671.4 2028.5,0 0,0 0,1671.4 Z"
         id="path18"
         inkscape:connector-curvature="0" /></clipPath></defs><sodipodi:namedview
     pagecolor="#ffffff"
     bordercolor="#666666"
     borderopacity="1"
     objecttolerance="10"
     gridtolerance="10"
     guidetolerance="10"
     inkscape:pageopacity="0"
     inkscape:pageshadow="2"
     inkscape:window-width="1366"
     inkscape:window-height="687"
     id="namedview4"
     showgrid="false"
     inkscape:zoom="0.15975"
     inkscape:cx="447.5"
     inkscape:cy="992.63"
     inkscape:window-x="0"
     inkscape:window-y="27"
     inkscape:window-maximized="1"
     inkscape:current-layer="g12" /><g
     id="g10"
     inkscape:groupmode="layer"
     inkscape:label="social_icons_v2_(graphicsland.ru)"
     transform="matrix(1.25,0,0,-1.25,0,2089.2)"><g
       id="g12"><g
         id="g14"
         clip-path="url(#clipPath16)"
         transform="translate(7.082,-7.082)"
         style="stroke:none;stroke-opacity:1"><g
           id="g20"
           transform="translate(126.79,1417.6)"
           style="stroke:none;stroke-opacity:1"><path
             d="M 0,0 0.124,0 C 70.16,0 126.94,56.776 126.94,126.81 L 126.94,126.87 C 126.94,196.95 70.133,253.75 0.062,253.75 -70.01,253.75 -126.81,196.95 -126.81,126.87 L -126.81,126.81 C -126.81,56.776 -70.037,0 0,0"
             style="fill:#2665af;fill-opacity:1;fill-rule:nonzero;stroke:none;stroke-opacity:1"
             id="path22"
             inkscape:connector-curvature="0" /></g><g
           id="g24"
           transform="translate(483.54,1417.6)"
           style="stroke:none;stroke-opacity:1"><path
             d="M 0,0 0.124,0 C 70.16,0 126.94,56.776 126.94,126.81 L 126.94,126.87 C 126.94,196.95 70.133,253.75 0.062,253.75 -70.01,253.75 -126.81,196.95 -126.81,126.87 L -126.81,126.81 C -126.81,56.776 -70.037,0 0,0"
             style="fill:#2665af;fill-opacity:1;fill-rule:nonzero;stroke:none;stroke-opacity:1"
             id="path26"
             inkscape:connector-curvature="0" /></g><g
           id="g28"
           transform="translate(841.29,1417.6)"
           style="stroke:none;stroke-opacity:1"><path
             d="M 0,0 0.124,0 C 70.161,0 126.94,56.776 126.94,126.81 L 126.94,126.87 C 126.94,196.95 70.133,253.75 0.062,253.75 -70.009,253.75 -126.81,196.95 -126.81,126.87 L -126.81,126.81 C -126.81,56.776 -70.037,0 0,0"
             style="fill:#2665af;fill-opacity:1;fill-rule:nonzero;stroke:none;stroke-opacity:1"
             id="path30"
             inkscape:connector-curvature="0" /></g><g
           id="g32"
           transform="translate(1198,1417.6)"
           style="stroke:none;stroke-opacity:1"><path
             d="M 0,0 0.124,0 C 70.161,0 126.94,56.776 126.94,126.81 L 126.94,126.87 C 126.94,196.95 70.133,253.75 0.062,253.75 -70.009,253.75 -126.81,196.95 -126.81,126.87 L -126.81,126.81 C -126.81,56.776 -70.037,0 0,0"
             style="fill:#2665af;fill-opacity:1;fill-rule:nonzero;stroke:none;stroke-opacity:1"
             id="path34"
             inkscape:connector-curvature="0" /></g><g
           id="g36"
           transform="translate(1549.8,1417.6)"
           style="stroke:none;stroke-opacity:1"><path
             d="M 0,0 0.124,0 C 70.161,0 126.94,56.776 126.94,126.81 L 126.94,126.87 C 126.94,196.95 70.133,253.75 0.062,253.75 -70.009,253.75 -126.81,196.95 -126.81,126.87 L -126.81,126.81 C -126.81,56.776 -70.037,0 0,0"
             style="fill:#2665af;fill-opacity:1;fill-rule:nonzero;stroke:none;stroke-opacity:1"
             id="path38"
             inkscape:connector-curvature="0" /></g><g
           id="g40"
           transform="translate(1901.5,1417.6)"
           style="stroke:none;stroke-opacity:1"><path
             d="M 0,0 0.123,0 C 70.16,0 126.94,56.776 126.94,126.81 L 126.94,126.87 C 126.94,196.95 70.133,253.75 0.062,253.75 -70.01,253.75 -126.81,196.95 -126.81,126.87 L -126.81,126.81 C -126.81,56.776 -70.037,0 0,0"
             style="fill:#2665af;fill-opacity:1;fill-rule:nonzero;stroke:none;stroke-opacity:1"
             id="path42"
             inkscape:connector-curvature="0" /></g><g
           id="g44"
           transform="translate(126.79,1063.2)"
           style="stroke:none;stroke-opacity:1"><path
             d="M 0,0 0.124,0 C 70.16,0 126.94,56.776 126.94,126.81 L 126.94,126.87 C 126.94,196.95 70.133,253.75 0.062,253.75 -70.01,253.75 -126.81,196.95 -126.81,126.87 L -126.81,126.81 C -126.81,56.776 -70.037,0 0,0"
             style="fill:#2665af;fill-opacity:1;fill-rule:nonzero;stroke:none;stroke-opacity:1"
             id="path46"
             inkscape:connector-curvature="0" /></g><g
           id="g48"
           transform="translate(483.54,1063.2)"
           style="stroke:none;stroke-opacity:1"><path
             d="M 0,0 0.124,0 C 70.16,0 126.94,56.776 126.94,126.81 L 126.94,126.87 C 126.94,196.95 70.133,253.75 0.062,253.75 -70.01,253.75 -126.81,196.95 -126.81,126.87 L -126.81,126.81 C -126.81,56.776 -70.037,0 0,0"
             style="fill:#2665af;fill-opacity:1;fill-rule:nonzero;stroke:none;stroke-opacity:1"
             id="path50"
             inkscape:connector-curvature="0" /></g><g
           id="g52"
           transform="translate(841.29,1063.2)"
           style="stroke:none;stroke-opacity:1"><path
             d="M 0,0 0.124,0 C 70.161,0 126.94,56.776 126.94,126.81 L 126.94,126.87 C 126.94,196.95 70.133,253.75 0.062,253.75 -70.009,253.75 -126.81,196.95 -126.81,126.87 L -126.81,126.81 C -126.81,56.776 -70.037,0 0,0"
             style="fill:#2665af;fill-opacity:1;fill-rule:nonzero;stroke:none;stroke-opacity:1"
             id="path54"
             inkscape:connector-curvature="0" /></g><g
           id="g56"
           transform="translate(1198,1063.2)"
           style="stroke:none;stroke-opacity:1"><path
             d="M 0,0 0.124,0 C 70.161,0 126.94,56.776 126.94,126.81 L 126.94,126.87 C 126.94,196.95 70.133,253.75 0.062,253.75 -70.009,253.75 -126.81,196.95 -126.81,126.87 L -126.81,126.81 C -126.81,56.776 -70.037,0 0,0"
             style="fill:#2665af;fill-opacity:1;fill-rule:nonzero;stroke:none;stroke-opacity:1"
             id="path58"
             inkscape:connector-curvature="0" /></g><g
           id="g60"
           transform="translate(1549.8,1063.2)"
           style="stroke:none;stroke-opacity:1"><path
             d="M 0,0 0.124,0 C 70.161,0 126.94,56.776 126.94,126.81 L 126.94,126.87 C 126.94,196.95 70.133,253.75 0.062,253.75 -70.009,253.75 -126.81,196.95 -126.81,126.87 L -126.81,126.81 C -126.81,56.776 -70.037,0 0,0"
             style="fill:#2665af;fill-opacity:1;fill-rule:nonzero;stroke:none;stroke-opacity:1"
             id="path62"
             inkscape:connector-curvature="0" /></g><g
           id="g64"
           transform="translate(1901.5,1063.2)"
           style="stroke:none;stroke-opacity:1"><path
             d="M 0,0 0.123,0 C 70.16,0 126.94,56.776 126.94,126.81 L 126.94,126.87 C 126.94,196.95 70.133,253.75 0.062,253.75 -70.01,253.75 -126.81,196.95 -126.81,126.87 L -126.81,126.81 C -126.81,56.776 -70.037,0 0,0"
             style="fill:#2665af;fill-opacity:1;fill-rule:nonzero;stroke:none;stroke-opacity:1"
             id="path66"
             inkscape:connector-curvature="0" /></g><g
           id="g68"
           transform="translate(126.81,708.86)"
           style="stroke:none;stroke-opacity:1"><path
             d="M 0,0 0.124,0 C 70.161,0 126.94,56.776 126.94,126.81 126.94,196.89 70.133,253.69 0.062,253.69 L 0.062,253.69 C -70.009,253.69 -126.81,196.89 -126.81,126.81 -126.81,56.776 -70.037,0 0,0"
             style="fill:#2665af;fill-opacity:1;fill-rule:nonzero;stroke:none;stroke-opacity:1"
             id="path70"
             inkscape:connector-curvature="0" /></g><g
           id="g72"
           transform="translate(483.56,708.86)"
           style="stroke:none;stroke-opacity:1"><path
             d="M 0,0 0.124,0 C 70.161,0 126.94,56.776 126.94,126.81 126.94,196.89 70.133,253.69 0.062,253.69 L 0.062,253.69 C -70.009,253.69 -126.81,196.89 -126.81,126.81 -126.81,56.776 -70.037,0 0,0"
             style="fill:#2665af;fill-opacity:1;fill-rule:nonzero;stroke:none;stroke-opacity:1"
             id="path74"
             inkscape:connector-curvature="0" /></g><g
           id="g76"
           transform="translate(841.31,708.86)"
           style="stroke:none;stroke-opacity:1"><path
             d="M 0,0 0.124,0 C 70.161,0 126.94,56.776 126.94,126.81 126.94,196.89 70.133,253.69 0.062,253.69 -70.009,253.69 -126.81,196.89 -126.81,126.81 -126.81,56.776 -70.037,0 0,0"
             style="fill:#2665af;fill-opacity:1;fill-rule:nonzero;stroke:none;stroke-opacity:1"
             id="path78"
             inkscape:connector-curvature="0" /></g><g
           id="g80"
           transform="translate(1198.1,708.86)"
           style="stroke:none;stroke-opacity:1"><path
             d="M 0,0 0.124,0 C 70.161,0 126.94,56.776 126.94,126.81 126.94,196.89 70.133,253.69 0.062,253.69 -70.009,253.69 -126.81,196.89 -126.81,126.81 -126.81,56.776 -70.037,0 0,0"
             style="fill:#2665af;fill-opacity:1;fill-rule:nonzero;stroke:none;stroke-opacity:1"
             id="path82"
             inkscape:connector-curvature="0" /></g><g
           id="g84"
           transform="translate(1549.8,708.86)"
           style="stroke:none;stroke-opacity:1"><path
             d="M 0,0 0.124,0 C 70.161,0 126.94,56.776 126.94,126.81 126.94,196.89 70.133,253.69 0.062,253.69 -70.009,253.69 -126.81,196.89 -126.81,126.81 -126.81,56.776 -70.037,0 0,0"
             style="fill:#2665af;fill-opacity:1;fill-rule:nonzero;stroke:none;stroke-opacity:1"
             id="path86"
             inkscape:connector-curvature="0" /></g><g
           id="g88"
           transform="translate(1901.6,708.86)"
           style="stroke:none;stroke-opacity:1"><path
             d="M 0,0 0.123,0 C 70.16,0 126.94,56.776 126.94,126.81 126.94,196.89 70.133,253.69 0.062,253.69 -70.01,253.69 -126.81,196.89 -126.81,126.81 -126.81,56.776 -70.037,0 0,0"
             style="fill:#2665af;fill-opacity:1;fill-rule:nonzero;stroke:none;stroke-opacity:1"
             id="path90"
             inkscape:connector-curvature="0" /></g><g
           id="g92"
           transform="translate(126.89,608.12)"
           style="stroke:none;stroke-opacity:1"><path
             d="M 0,0 0,0 C -70.071,0 -126.87,-56.804 -126.87,-126.87 -126.87,-196.91 -70.099,-253.69 -0.062,-253.69 L 0.062,-253.69 C 70.099,-253.69 126.87,-196.91 126.87,-126.87 126.87,-56.804 70.071,0 0,0"
             style="fill:#2665af;fill-opacity:1;fill-rule:nonzero;stroke:none;stroke-opacity:1"
             id="path94"
             inkscape:connector-curvature="0" /></g><g
           id="g96"
           transform="translate(483.64,608.12)"
           style="stroke:none;stroke-opacity:1"><path
             d="M 0,0 0,0 C -70.071,0 -126.87,-56.804 -126.87,-126.87 -126.87,-196.91 -70.099,-253.69 -0.062,-253.69 L 0.062,-253.69 C 70.099,-253.69 126.87,-196.91 126.87,-126.87 126.87,-56.804 70.071,0 0,0"
             style="fill:#2665af;fill-opacity:1;fill-rule:nonzero;stroke:none;stroke-opacity:1"
             id="path98"
             inkscape:connector-curvature="0" /></g><g
           id="g100"
           transform="translate(841.39,608.12)"
           style="stroke:none;stroke-opacity:1"><path
             d="M 0,0 0,0 C -70.071,0 -126.87,-56.804 -126.87,-126.87 -126.87,-196.91 -70.099,-253.69 -0.062,-253.69 L 0.062,-253.69 C 70.099,-253.69 126.87,-196.91 126.87,-126.87 126.87,-56.804 70.071,0 0,0"
             style="fill:#2665af;fill-opacity:1;fill-rule:nonzero;stroke:none;stroke-opacity:1"
             id="path102"
             inkscape:connector-curvature="0" /></g><g
           id="g104"
           transform="translate(1198.1,608.12)"
           style="stroke:none;stroke-opacity:1"><path
             d="M 0,0 0,0 C -70.071,0 -126.87,-56.804 -126.87,-126.87 -126.87,-196.91 -70.099,-253.69 -0.062,-253.69 L 0.062,-253.69 C 70.099,-253.69 126.87,-196.91 126.87,-126.87 126.87,-56.804 70.071,0 0,0"
             style="fill:#2665af;fill-opacity:1;fill-rule:nonzero;stroke:none;stroke-opacity:1"
             id="path106"
             inkscape:connector-curvature="0" /></g><g
           id="g108"
           transform="translate(1549.9,608.12)"
           style="stroke:none;stroke-opacity:1"><path
             d="M 0,0 0,0 C -70.071,0 -126.87,-56.804 -126.87,-126.87 -126.87,-196.91 -70.099,-253.69 -0.062,-253.69 L 0.062,-253.69 C 70.099,-253.69 126.87,-196.91 126.87,-126.87 126.87,-56.804 70.071,0 0,0"
             style="fill:#2665af;fill-opacity:1;fill-rule:nonzero;stroke:none;stroke-opacity:1"
             id="path110"
             inkscape:connector-curvature="0" /></g><g
           id="g112"
           transform="translate(1901.6,608.12)"
           style="stroke:none;stroke-opacity:1"><path
             d="M 0,0 0,0 C -70.071,0 -126.87,-56.804 -126.87,-126.87 -126.87,-196.91 -70.099,-253.69 -0.062,-253.69 L 0.062,-253.69 C 70.099,-253.69 126.87,-196.91 126.87,-126.87 126.87,-56.804 70.071,0 0,0"
             style="fill:#2665af;fill-opacity:1;fill-rule:nonzero;stroke:none;stroke-opacity:1"
             id="path114"
             inkscape:connector-curvature="0" /></g><g
           id="g116"
           transform="translate(126.91,253.69)"
           style="stroke:none;stroke-opacity:1"><path
             d="M 0,0 0,0 C -70.071,0 -126.87,-56.804 -126.87,-126.87 -126.87,-196.91 -70.099,-253.69 -0.062,-253.69 L 0.062,-253.69 C 70.099,-253.69 126.87,-196.91 126.87,-126.87 126.87,-56.804 70.071,0 0,0"
             style="fill:#2665af;fill-opacity:1;fill-rule:nonzero;stroke:none;stroke-opacity:1"
             id="path118"
             inkscape:connector-curvature="0" /></g><g
           id="g120"
           transform="translate(483.66,253.69)"
           style="stroke:none;stroke-opacity:1"><path
             d="M 0,0 0,0 C -70.071,0 -126.87,-56.804 -126.87,-126.87 -126.87,-196.91 -70.099,-253.69 -0.062,-253.69 L 0.062,-253.69 C 70.099,-253.69 126.87,-196.91 126.87,-126.87 126.87,-56.804 70.071,0 0,0"
             style="fill:#2665af;fill-opacity:1;fill-rule:nonzero;stroke:none;stroke-opacity:1"
             id="path122"
             inkscape:connector-curvature="0" /></g><g
           id="g124"
           transform="translate(841.41,253.69)"
           style="stroke:none;stroke-opacity:1"><path
             d="M 0,0 0,0 C -70.071,0 -126.87,-56.804 -126.87,-126.87 -126.87,-196.91 -70.099,-253.69 -0.062,-253.69 L 0.062,-253.69 C 70.099,-253.69 126.87,-196.91 126.87,-126.87 126.87,-56.804 70.071,0 0,0"
             style="fill:#2665af;fill-opacity:1;fill-rule:nonzero;stroke:none;stroke-opacity:1"
             id="path126"
             inkscape:connector-curvature="0" /></g><g
           id="g128"
           transform="translate(1198.2,253.69)"
           style="stroke:none;stroke-opacity:1"><path
             d="M 0,0 0,0 C -70.071,0 -126.87,-56.804 -126.87,-126.87 -126.87,-196.91 -70.099,-253.69 -0.062,-253.69 L 0.062,-253.69 C 70.099,-253.69 126.87,-196.91 126.87,-126.87 126.87,-56.804 70.071,0 0,0"
             style="fill:#2665af;fill-opacity:1;fill-rule:nonzero;stroke:none;stroke-opacity:1"
             id="path130"
             inkscape:connector-curvature="0" /></g><g
           id="g132"
           transform="translate(1549.9,253.69)"
           style="stroke:none;stroke-opacity:1"><path
             d="M 0,0 0,0 C -70.071,0 -126.87,-56.804 -126.87,-126.87 -126.87,-196.91 -70.099,-253.69 -0.062,-253.69 L 0.062,-253.69 C 70.099,-253.69 126.87,-196.91 126.87,-126.87 126.87,-56.804 70.071,0 0,0"
             style="fill:#2665af;fill-opacity:1;fill-rule:nonzero;stroke:none;stroke-opacity:1"
             id="path134"
             inkscape:connector-curvature="0" /></g><g
           id="g136"
           transform="translate(1901.7,253.69)"
           style="stroke:none;stroke-opacity:1"><path
             d="M 0,0 0,0 C -70.071,0 -126.87,-56.804 -126.87,-126.87 -126.87,-196.91 -70.099,-253.69 -0.062,-253.69 L 0.062,-253.69 C 70.099,-253.69 126.87,-196.91 126.87,-126.87 126.87,-56.804 70.071,0 0,0"
             style="fill:#2665af;fill-opacity:1;fill-rule:nonzero;stroke:none;stroke-opacity:1"
             id="path138"
             inkscape:connector-curvature="0" /></g><g
           id="g140"
           transform="translate(146.99,1512.8)"
           style="stroke:none;stroke-opacity:1"><path
             d="M 0,0 C -1.328,-2.402 -3.43,-4.221 -6.31,-5.464 -9.584,-6.875 -12.803,-8.057 -15.963,-8.17 -19.126,-8.283 -24.828,-8.76 -33.07,-8.76 L -35.584,-8.76 -35.584,23.791 -28.92,23.791 C -23.275,23.791 -18.773,23.687 -15.413,23.602 -12.055,23.518 -9.416,23.077 -7.495,22.344 -4.334,21.214 -1.963,19.535 -0.382,17.333 1.199,15.131 1.99,12.074 1.99,8.178 1.99,5.131 1.325,2.399 0,0 M -35.584,72.091 -32.562,72.091 C -26.917,72.091 -22.669,71.972 -19.817,71.888 -16.967,71.803 -14.496,71.271 -12.407,70.368 -10.206,69.406 -8.583,67.836 -7.538,65.691 -6.493,63.545 -5.971,61.447 -5.971,59.415 -5.971,56.648 -6.451,54.215 -7.411,52.127 -8.371,50.038 -10.121,48.399 -12.661,47.214 -14.977,46.14 -17.221,45.31 -19.394,45.198 -21.567,45.084 -25.364,44.791 -30.784,44.791 L -35.584,44.791 -35.584,72.091 Z M 27.399,28.029 C 22.712,33.081 15.866,36.428 8.516,38.064 L 8.516,38.743 C 13.766,40.999 18.35,44.528 21.428,49.327 24.504,54.126 26.126,59.602 26.126,65.756 26.126,71.063 25.053,75.749 22.824,79.814 20.592,83.879 17.24,87.125 12.723,89.553 8.544,91.811 4.083,93.359 -0.687,94.065 -5.46,94.771 -12.464,95.19 -21.722,95.19 L -67.084,95.19 -67.084,-31.859 -15.794,-31.859 C -7.043,-31.859 0.168,-30.658 5.842,-29.077 11.517,-27.497 16.725,-24.638 21.466,-20.912 25.475,-17.808 28.665,-13.779 31.036,-9.037 33.408,-4.295 34.509,1.261 34.509,7.526 34.509,16.108 32.083,22.977 27.399,28.029"
             style="fill:#ffffff;fill-opacity:1;fill-rule:nonzero;stroke:none;stroke-opacity:1"
             id="path142"
             inkscape:connector-curvature="0" /></g><g
           id="g144"
           transform="translate(478.88,1494.5)"
           style="stroke:none;stroke-opacity:1"><path
             d="M 0,0 9.617,0 C 9.617,0 12.522,0.32 14.007,1.919 15.372,3.387 15.329,6.144 15.329,6.144 15.329,6.144 15.141,19.048 21.129,20.95 27.035,22.822 34.618,8.478 42.653,2.959 48.73,-1.214 53.348,-0.301 53.348,-0.301 L 74.838,0 C 74.838,0 86.08,0.694 80.749,9.531 80.311,10.254 77.644,16.069 64.77,28.019 51.294,40.524 53.101,38.503 69.332,60.136 79.217,73.312 83.168,81.354 81.934,84.798 80.757,88.08 73.486,87.214 73.486,87.214 L 49.29,87.063 C 49.29,87.063 47.496,87.307 46.166,86.513 44.866,85.733 44.032,83.916 44.032,83.916 44.032,83.916 40.201,73.722 35.095,65.051 24.321,46.757 20.012,45.788 18.251,46.925 14.154,49.574 15.178,57.561 15.178,63.236 15.178,80.968 17.867,88.36 9.941,90.273 7.312,90.908 5.374,91.326 -1.353,91.396 -9.986,91.483 -17.292,91.369 -21.43,89.342 -24.182,87.994 -26.307,84.99 -25.012,84.817 -23.413,84.606 -19.792,83.841 -17.872,81.229 -15.391,77.854 -15.479,70.279 -15.479,70.279 -15.479,70.279 -14.053,49.408 -18.806,46.816 -22.067,45.038 -26.541,48.668 -36.146,65.268 -41.067,73.769 -44.783,83.166 -44.783,83.166 -44.783,83.166 -45.5,84.923 -46.778,85.863 -48.328,87.002 -50.494,87.363 -50.494,87.363 L -73.488,87.214 C -73.488,87.214 -76.938,87.117 -78.206,85.615 -79.334,84.28 -78.296,81.52 -78.296,81.52 -78.296,81.52 -60.296,39.406 -39.914,18.184 -21.222,-1.276 0,0 0,0"
             style="fill:#ffffff;fill-opacity:1;fill-rule:evenodd;stroke:none;stroke-opacity:1"
             id="path146"
             inkscape:connector-curvature="0" /></g><g
           id="g148"
           transform="translate(853.29,1464)"
           style="stroke:none;stroke-opacity:1"><path
             d="M 0,0 0,70.322 23.604,70.322 27.139,97.729 0,97.729 0,115.23 C 0,123.16 2.203,128.57 13.581,128.57 L 28.095,128.57 28.095,153.09 C 25.584,153.42 16.969,154.17 6.947,154.17 -13.977,154.17 -28.302,141.4 -28.302,117.94 L -28.302,97.729 -51.967,97.729 -51.967,70.322 -28.302,70.322 -28.302,0 0,0 Z"
             style="fill:#ffffff;fill-opacity:1;fill-rule:nonzero;stroke:none;stroke-opacity:1"
             id="path150"
             inkscape:connector-curvature="0" /></g><g
           id="g152"
           transform="translate(1272.2,1586.4)"
           style="stroke:none;stroke-opacity:1"><path
             d="M 0,0 C -5.132,-2.276 -10.649,-3.816 -16.44,-4.509 -10.531,-0.965 -5.991,4.643 -3.854,11.329 -9.385,8.047 -15.511,5.666 -22.031,4.382 -27.252,9.946 -34.693,13.421 -42.925,13.421 -58.734,13.421 -71.551,0.604 -71.551,-15.203 -71.551,-17.447 -71.297,-19.632 -70.809,-21.726 -94.599,-20.532 -115.69,-9.137 -129.81,8.182 -132.27,3.955 -133.68,-0.962 -133.68,-6.208 -133.68,-16.139 -128.63,-24.901 -120.95,-30.034 -125.64,-29.886 -130.06,-28.6 -133.92,-26.453 -133.92,-26.573 -133.92,-26.694 -133.92,-26.814 -133.92,-40.683 -124.05,-52.252 -110.96,-54.882 -113.36,-55.536 -115.89,-55.886 -118.5,-55.886 -120.34,-55.886 -122.14,-55.707 -123.88,-55.373 -120.24,-66.744 -109.67,-75.021 -97.145,-75.251 -106.94,-82.93 -119.28,-87.506 -132.69,-87.506 -135,-87.506 -137.28,-87.37 -139.52,-87.104 -126.85,-95.229 -111.81,-99.967 -95.644,-99.967 -42.993,-99.967 -14.2,-56.348 -14.2,-18.521 -14.2,-17.281 -14.228,-16.048 -14.283,-14.819 -8.69,-10.782 -3.837,-5.741 0,0"
             style="fill:#ffffff;fill-opacity:1;fill-rule:nonzero;stroke:none;stroke-opacity:1"
             id="path154"
             inkscape:connector-curvature="0" /></g><g
           id="g156"
           transform="translate(1609.9,1551.7)"
           style="stroke:none;stroke-opacity:1"><path
             d="M 0,0 0,17.113 -12.202,17.113 -12.202,0 -29.315,0 -29.315,-12.202 -12.202,-12.202 -12.202,-29.314 0,-29.314 0,-12.202 17.113,-12.202 17.113,0 0,0 Z"
             style="fill:#ffffff;fill-opacity:1;fill-rule:evenodd;stroke:none;stroke-opacity:1"
             id="path158"
             inkscape:connector-curvature="0" /></g><g
           id="g160"
           transform="translate(1521.8,1553)"
           style="stroke:none;stroke-opacity:1"><path
             d="M 0,0 0.001,-19.567 26.217,-19.567 C 25.406,-23.681 23.76,-27.453 20.842,-30.637 10.332,-42.106 -9.26,-41.991 -20.474,-30.446 -31.689,-18.902 -31.566,-0.288 -20.2,11.104 -9.389,21.937 8.028,22.402 18.558,12.103 L 18.537,12.08 32.827,26.37 C 13.688,43.784 -15.839,43.515 -34.477,25.125 -53.757,6.103 -53.965,-24.983 -34.943,-44.263 -15.92,-63.543 17.062,-63.734 34.888,-44.581 45.647,-33.02 48.743,-16.438 46.176,0 L 0,0 Z"
             style="fill:#ffffff;fill-opacity:1;fill-rule:evenodd;stroke:none;stroke-opacity:1"
             id="path162"
             inkscape:connector-curvature="0" /></g><g
           id="g164"
           transform="translate(1901.6,1609.6)"
           style="stroke:none;stroke-opacity:1"><path
             d="M 0,0 C -17.67,0 -19.885,-0.075 -26.824,-0.392 -33.75,-0.707 -38.479,-1.808 -42.617,-3.416 -46.896,-5.078 -50.524,-7.303 -54.142,-10.92 -57.758,-14.537 -59.982,-18.165 -61.646,-22.443 -63.254,-26.582 -64.354,-31.312 -64.67,-38.236 -64.986,-45.176 -65.062,-47.392 -65.062,-65.061 -65.062,-82.73 -64.986,-84.946 -64.67,-91.886 -64.354,-98.811 -63.254,-103.54 -61.646,-107.68 -59.982,-111.96 -57.758,-115.58 -54.142,-119.2 -50.524,-122.82 -46.896,-125.04 -42.617,-126.71 -38.479,-128.31 -33.75,-129.41 -26.824,-129.73 -19.885,-130.05 -17.67,-130.12 0,-130.12 17.67,-130.12 19.885,-130.05 26.824,-129.73 33.75,-129.41 38.479,-128.31 42.617,-126.71 46.896,-125.04 50.524,-122.82 54.141,-119.2 57.758,-115.58 59.982,-111.96 61.646,-107.68 63.254,-103.54 64.354,-98.811 64.67,-91.886 64.986,-84.946 65.061,-82.73 65.061,-65.061 65.061,-47.392 64.986,-45.176 64.67,-38.236 64.354,-31.312 63.254,-26.582 61.646,-22.443 59.982,-18.165 57.758,-14.537 54.141,-10.92 50.524,-7.303 46.896,-5.078 42.617,-3.416 38.479,-1.808 33.75,-0.707 26.824,-0.392 19.885,-0.075 17.67,0 0,0 M 0,-11.723 C 17.372,-11.723 19.43,-11.789 26.29,-12.102 32.634,-12.392 36.078,-13.451 38.371,-14.342 41.408,-15.522 43.575,-16.933 45.852,-19.209 48.129,-21.485 49.538,-23.653 50.719,-26.689 51.609,-28.982 52.67,-32.428 52.959,-38.771 53.271,-45.631 53.338,-47.688 53.338,-65.061 53.338,-82.433 53.271,-84.49 52.959,-91.352 52.67,-97.694 51.609,-101.14 50.719,-103.43 49.538,-106.47 48.129,-108.64 45.852,-110.91 43.575,-113.19 41.408,-114.6 38.371,-115.78 36.078,-116.67 32.634,-117.73 26.29,-118.02 19.431,-118.33 17.373,-118.4 0,-118.4 -17.373,-118.4 -19.431,-118.33 -26.29,-118.02 -32.634,-117.73 -36.078,-116.67 -38.371,-115.78 -41.408,-114.6 -43.575,-113.19 -45.852,-110.91 -48.129,-108.64 -49.539,-106.47 -50.719,-103.43 -51.609,-101.14 -52.67,-97.694 -52.959,-91.352 -53.272,-84.49 -53.338,-82.433 -53.338,-65.061 -53.338,-47.688 -53.272,-45.631 -52.959,-38.771 -52.67,-32.428 -51.609,-28.982 -50.719,-26.689 -49.539,-23.653 -48.129,-21.485 -45.852,-19.209 -43.575,-16.933 -41.408,-15.522 -38.371,-14.342 -36.078,-13.451 -32.634,-12.392 -26.29,-12.102 -19.43,-11.789 -17.372,-11.723 0,-11.723"
             style="fill:#ffffff;fill-opacity:1;fill-rule:nonzero;stroke:none;stroke-opacity:1"
             id="path166"
             inkscape:connector-curvature="0" /></g><g
           id="g168"
           transform="translate(1901.6,1522.8)"
           style="stroke:none;stroke-opacity:1"><path
             d="M 0,0 C -11.978,0 -21.687,9.71 -21.687,21.687 -21.687,33.665 -11.978,43.374 0,43.374 11.978,43.374 21.687,33.665 21.687,21.687 21.687,9.71 11.978,0 0,0 M 0,55.097 C -18.452,55.097 -33.41,40.139 -33.41,21.687 -33.41,3.235 -18.452,-11.723 0,-11.723 18.452,-11.723 33.409,3.235 33.409,21.687 33.409,40.139 18.452,55.097 0,55.097"
             style="fill:#ffffff;fill-opacity:1;fill-rule:nonzero;stroke:none;stroke-opacity:1"
             id="path170"
             inkscape:connector-curvature="0" /></g><g
           id="g172"
           transform="translate(1944.1,1579.2)"
           style="stroke:none;stroke-opacity:1"><path
             d="M 0,0 C 0,-4.312 -3.495,-7.808 -7.808,-7.808 -12.119,-7.808 -15.615,-4.312 -15.615,0 -15.615,4.312 -12.119,7.808 -7.808,7.808 -3.495,7.808 0,4.312 0,0"
             style="fill:#ffffff;fill-opacity:1;fill-rule:nonzero;stroke:none;stroke-opacity:1"
             id="path174"
             inkscape:connector-curvature="0" /></g><g
           id="g176"
           transform="translate(99.865,1246)"
           style="stroke:none;stroke-opacity:1"><path
             d="M 0,0 -36.786,-24.018 -11.35,-44.387 25.74,-21.484 0,0 Z"
             style="fill:#ffffff;fill-opacity:1;fill-rule:nonzero;stroke:none;stroke-opacity:1"
             id="path178"
             inkscape:connector-curvature="0" /></g><g
           id="g180"
           transform="translate(63.08,1181.3)"
           style="stroke:none;stroke-opacity:1"><path
             d="M 0,0 36.786,-24.018 62.526,-2.532 25.436,20.37 0,0 Z"
             style="fill:#ffffff;fill-opacity:1;fill-rule:nonzero;stroke:none;stroke-opacity:1"
             id="path182"
             inkscape:connector-curvature="0" /></g><g
           id="g184"
           transform="translate(125.61,1178.8)"
           style="stroke:none;stroke-opacity:1"><path
             d="M 0,0 25.742,-21.485 62.527,2.532 37.091,22.902 0,0 Z"
             style="fill:#ffffff;fill-opacity:1;fill-rule:nonzero;stroke:none;stroke-opacity:1"
             id="path186"
             inkscape:connector-curvature="0" /></g><g
           id="g188"
           transform="translate(188.13,1222)"
           style="stroke:none;stroke-opacity:1"><path
             d="M 0,0 -36.786,24.018 -62.527,2.533 -25.437,-20.369 0,0 Z"
             style="fill:#ffffff;fill-opacity:1;fill-rule:nonzero;stroke:none;stroke-opacity:1"
             id="path190"
             inkscape:connector-curvature="0" /></g><g
           id="g192"
           transform="translate(125.68,1174.1)"
           style="stroke:none;stroke-opacity:1"><path
             d="M 0,0 -25.816,-21.422 -36.864,-14.208 -36.864,-22.295 0,-44.4 36.862,-22.295 36.862,-14.208 25.816,-21.422 0,0 Z"
             style="fill:#ffffff;fill-opacity:1;fill-rule:nonzero;stroke:none;stroke-opacity:1"
             id="path194"
             inkscape:connector-curvature="0" /></g><g
           id="g196"
           transform="translate(487.02,1260.6)"
           style="stroke:none;stroke-opacity:1"><path
             d="M 0,0 C -39.786,0 -59.847,-28.526 -59.847,-52.314 -59.847,-66.716 -54.394,-79.53 -42.698,-84.307 -40.782,-85.091 -39.063,-84.333 -38.505,-82.211 -38.119,-80.739 -37.204,-77.032 -36.795,-75.49 -36.234,-73.39 -36.453,-72.653 -38,-70.822 -41.371,-66.844 -43.528,-61.692 -43.528,-54.399 -43.528,-33.237 -27.693,-14.292 -2.297,-14.292 20.193,-14.292 32.546,-28.033 32.546,-46.384 32.546,-70.529 21.861,-90.908 5.997,-90.908 -2.764,-90.908 -9.322,-83.663 -7.219,-74.778 -4.704,-64.168 0.173,-52.721 0.173,-45.062 0.173,-38.206 -3.506,-32.489 -11.12,-32.489 -20.077,-32.489 -27.27,-41.755 -27.27,-54.167 -27.27,-62.069 -24.6,-67.417 -24.6,-67.417 -24.6,-67.417 -33.764,-106.25 -35.371,-113.05 -38.57,-126.59 -35.852,-143.2 -35.623,-144.87 -35.489,-145.87 -34.21,-146.1 -33.633,-145.35 -32.806,-144.27 -22.139,-131.1 -18.514,-117.95 -17.488,-114.22 -12.623,-94.929 -12.623,-94.929 -9.712,-100.48 -1.209,-105.37 7.833,-105.37 34.752,-105.37 53.017,-80.824 53.017,-47.974 53.017,-23.133 31.977,0 0,0"
             style="fill:#ffffff;fill-opacity:1;fill-rule:nonzero;stroke:none;stroke-opacity:1"
             id="path198"
             inkscape:connector-curvature="0" /></g><g
           id="g200"
           transform="translate(794.23,1255.4)"
           style="stroke:none;stroke-opacity:1"><path
             d="M 0,0 C 8.219,0 14.9,-6.681 14.9,-14.904 14.9,-23.137 8.219,-29.817 0,-29.817 -8.242,-29.817 -14.904,-23.137 -14.904,-14.904 -14.904,-6.681 -8.242,0 0,0 M -12.862,-41.129 12.86,-41.129 12.86,-123.85 -12.862,-123.85 -12.862,-41.129 Z"
             style="fill:#ffffff;fill-opacity:1;fill-rule:nonzero;stroke:none;stroke-opacity:1"
             id="path202"
             inkscape:connector-curvature="0" /></g><g
           id="g204"
           transform="translate(823.21,1214.3)"
           style="stroke:none;stroke-opacity:1"><path
             d="M 0,0 24.667,0 24.667,-11.298 25.017,-11.298 C 28.45,-4.795 36.84,2.064 49.348,2.064 75.365,2.064 80.171,-15.065 80.171,-37.35 L 80.171,-82.725 54.489,-82.725 54.489,-42.497 C 54.489,-32.898 54.301,-20.559 41.125,-20.559 27.745,-20.559 25.705,-31.012 25.705,-41.801 L 25.705,-82.725 0,-82.725 0,0 Z"
             style="fill:#ffffff;fill-opacity:1;fill-rule:nonzero;stroke:none;stroke-opacity:1"
             id="path206"
             inkscape:connector-curvature="0" /></g><g
           id="g208"
           transform="translate(1234.2,1167.7)"
           style="stroke:none;stroke-opacity:1"><path
             d="M 0,0 C -2.312,0 -3.467,-1.765 -3.467,-5.295 L -3.467,-8.83 3.449,-8.83 3.449,-5.295 C 3.449,-1.765 2.292,0 0,0"
             style="fill:#ffffff;fill-opacity:1;fill-rule:nonzero;stroke:none;stroke-opacity:1"
             id="path210"
             inkscape:connector-curvature="0" /></g><g
           id="g212"
           transform="translate(1244.6,1153.1)"
           style="stroke:none;stroke-opacity:1"><path
             d="M 0,0 -13.833,0 -13.833,-6.768 C -13.833,-10.302 -12.678,-12.067 -10.302,-12.067 -8.599,-12.067 -7.606,-11.142 -7.211,-9.291 -7.148,-8.914 -7.059,-7.378 -7.059,-4.604 L 0,-4.604 0,-5.614 C 0,-7.843 -0.085,-9.379 -0.146,-10.071 -0.379,-11.604 -0.924,-12.992 -1.765,-14.216 -3.677,-16.987 -6.518,-18.354 -10.131,-18.354 -13.75,-18.354 -16.503,-17.053 -18.503,-14.444 -19.974,-12.532 -20.728,-9.522 -20.728,-5.465 L -20.728,7.906 C -20.728,11.987 -20.058,14.973 -18.588,16.903 -16.589,19.517 -13.833,20.817 -10.302,20.817 -6.833,20.817 -4.079,19.517 -2.14,16.903 -0.692,14.973 0,11.987 0,7.906 L 0,0 Z M -26.111,-6.37 C -26.111,-9.901 -26.346,-12.446 -26.808,-14.064 -27.732,-16.903 -29.583,-18.354 -32.338,-18.354 -34.797,-18.354 -37.177,-16.987 -39.487,-14.128 L -39.487,-17.829 -46.404,-17.829 -46.404,33.412 -39.487,33.412 -39.487,16.678 C -37.253,19.427 -34.881,20.817 -32.338,20.817 -29.583,20.817 -27.732,19.367 -26.808,16.509 -26.346,14.973 -26.111,12.449 -26.111,8.832 L -26.111,-6.37 Z M -52.393,-17.829 -59.315,-17.829 -59.315,-13.664 C -62.066,-16.819 -64.677,-18.354 -67.22,-18.354 -69.45,-18.354 -70.984,-17.449 -71.676,-15.516 -72.057,-14.36 -72.287,-12.532 -72.287,-9.838 L -72.287,20.353 -65.372,20.353 -65.372,-7.758 C -65.372,-9.379 -65.372,-10.223 -65.307,-10.448 -65.139,-11.521 -64.613,-12.067 -63.689,-12.067 -62.3,-12.067 -60.85,-10.997 -59.315,-8.83 L -59.315,20.353 -52.393,20.353 -52.393,-17.829 Z M -73.296,26.199 -81.582,26.199 -81.582,-17.829 -89.277,-17.829 -89.277,26.199 -97.414,26.199 -97.414,33.412 -73.296,33.412 -73.296,26.199 Z M 6.55,34 C 5.148,40.087 0.168,44.577 -5.824,45.247 -20.02,46.832 -34.387,46.84 -48.691,46.832 -62.997,46.84 -77.366,46.832 -91.56,45.247 -97.554,44.577 -102.53,40.087 -103.93,34 -105.92,25.328 -105.95,15.865 -105.95,6.937 -105.95,-1.99 -105.95,-11.454 -103.95,-20.125 -102.56,-26.214 -97.577,-30.703 -91.583,-31.372 -77.388,-32.958 -63.02,-32.965 -48.715,-32.958 -34.41,-32.965 -20.042,-32.958 -5.848,-31.372 0.146,-30.703 5.126,-26.214 6.526,-20.125 8.52,-11.454 8.532,-1.99 8.532,6.937 8.532,15.865 8.542,25.328 6.55,34"
             style="fill:#ffffff;fill-opacity:1;fill-rule:nonzero;stroke:none;stroke-opacity:1"
             id="path214"
             inkscape:connector-curvature="0" /></g><g
           id="g216"
           transform="translate(1208.5,1167.7)"
           style="stroke:none;stroke-opacity:1"><path
             d="M 0,0 C -1.138,0 -2.293,-0.541 -3.448,-1.682 L -3.448,-24.953 C -2.293,-26.11 -1.138,-26.657 0,-26.657 1.996,-26.657 3.011,-24.953 3.011,-21.505 L 3.011,-5.211 C 3.011,-1.765 1.996,0 0,0"
             style="fill:#ffffff;fill-opacity:1;fill-rule:nonzero;stroke:none;stroke-opacity:1"
             id="path218"
             inkscape:connector-curvature="0" /></g><g
           id="g220"
           transform="translate(1230.4,1206.9)"
           style="stroke:none;stroke-opacity:1"><path
             d="M 0,0 0,38.563 -6.991,38.563 -6.991,9.088 C -8.54,6.899 -10.008,5.815 -11.405,5.815 -12.343,5.815 -12.888,6.368 -13.043,7.451 -13.126,7.677 -13.126,8.529 -13.126,10.171 L -13.126,38.563 -20.094,38.563 -20.094,8.067 C -20.094,5.347 -19.86,3.5 -19.475,2.334 -18.778,0.379 -17.225,-0.535 -14.973,-0.535 -12.426,-0.535 -9.772,1.016 -6.991,4.207 L -6.991,0 0,0 Z M -32.834,11.169 C -32.834,7.602 -33.915,5.815 -36.167,5.815 -38.421,5.815 -39.503,7.602 -39.503,11.169 L -39.503,27.395 C -39.503,30.962 -38.421,32.736 -36.167,32.736 -33.915,32.736 -32.834,30.962 -32.834,27.395 L -32.834,11.169 Z M -25.845,12.482 -25.845,25.992 C -25.845,30.113 -26.551,33.126 -28.013,35.078 -29.949,37.71 -32.663,39.029 -36.167,39.029 -39.648,39.029 -42.371,37.71 -44.303,35.078 -45.789,33.126 -46.491,30.113 -46.491,25.992 L -46.491,12.482 C -46.491,8.387 -45.789,5.347 -44.303,3.414 -42.371,0.783 -39.648,-0.535 -36.167,-0.535 -32.663,-0.535 -29.949,0.783 -28.013,3.414 -26.551,5.347 -25.845,8.387 -25.845,12.482 M -46.557,51.75 -54.392,51.75 -59.676,31.427 -65.178,51.75 -73.332,51.75 C -71.701,46.954 -69.998,42.13 -68.363,37.329 -65.878,30.113 -64.33,24.673 -63.629,20.956 L -63.629,0 -55.878,0 -55.878,20.956 -46.557,51.75 Z"
             style="fill:#ffffff;fill-opacity:1;fill-rule:evenodd;stroke:none;stroke-opacity:1"
             id="path222"
             inkscape:connector-curvature="0" /></g><g
           id="g224"
           transform="translate(1536.3,1169.9)"
           style="stroke:none;stroke-opacity:1"><path
             d="M 0,0 0,38.776 36.974,19.39 0,0 Z M 82.172,52.124 C 80.459,59.562 74.375,65.047 67.055,65.864 49.714,67.801 32.163,67.81 14.689,67.801 -2.788,67.81 -20.342,67.801 -37.682,65.864 -45.004,65.047 -51.085,59.562 -52.795,52.124 -55.23,41.531 -55.257,29.972 -55.257,19.064 -55.257,8.158 -55.257,-3.401 -52.824,-13.996 -51.114,-21.433 -45.033,-26.918 -37.709,-27.736 -20.37,-29.672 -2.816,-29.683 14.659,-29.672 32.134,-29.683 49.686,-29.672 67.026,-27.734 74.348,-26.918 80.432,-21.433 82.144,-13.995 84.579,-3.401 84.593,8.158 84.593,19.064 84.593,29.972 84.605,41.531 82.172,52.124"
             style="fill:#ffffff;fill-opacity:1;fill-rule:nonzero;stroke:none;stroke-opacity:1"
             id="path226"
             inkscape:connector-curvature="0" /></g><g
           id="g228"
           transform="translate(1969.8,1225.3)"
           style="stroke:none;stroke-opacity:1"><path
             d="M 0,0 C 0.198,-7.048 -1.237,-13.577 -3.688,-19.915 -7.934,-30.883 -14.118,-40.764 -20.937,-50.263 -30.354,-63.389 -40.196,-76.166 -52.663,-86.633 -58.775,-91.761 -65.338,-96.042 -73.359,-97.702 -78.935,-98.854 -83.632,-97.356 -87.556,-93.478 -93.161,-87.935 -96.445,-80.979 -98.574,-73.54 -102.56,-59.621 -106.25,-45.62 -110.1,-31.662 -111.38,-27.053 -112.94,-22.539 -115.18,-18.295 -115.66,-17.396 -116.16,-16.506 -116.73,-15.664 -120.06,-10.706 -122.31,-10.213 -127.35,-13.359 -129.15,-14.476 -130.92,-15.639 -132.64,-16.871 -133.58,-17.55 -134.2,-17.587 -134.95,-16.574 -136.47,-14.49 -138.09,-12.473 -139.7,-10.455 -140.34,-9.659 -140.49,-9.013 -139.6,-8.265 -129.68,0.12 -120.71,9.629 -109.95,17.012 -106.05,19.678 -101.98,21.957 -96.951,21.781 -91.875,21.605 -87.909,19.521 -84.97,15.449 -81.625,10.818 -80.195,5.459 -79.271,-0.063 -77.14,-12.795 -75.455,-25.609 -72.241,-38.14 -71.17,-42.313 -69.951,-46.45 -67.82,-50.237 -65.212,-54.875 -62.364,-55.477 -58.775,-51.64 -50.987,-43.313 -45.142,-33.729 -41.358,-22.939 -40.519,-20.547 -40.437,-18.024 -40.566,-15.506 -40.813,-10.697 -43.589,-7.855 -48.393,-7.481 -51.721,-7.221 -54.949,-7.712 -58.102,-8.785 -59.545,-9.274 -60.245,-9.035 -59.659,-7.306 -56.581,1.734 -52.307,10.049 -44.585,16.027 -35.507,23.054 -25.125,24.803 -14.144,22.24 -5.725,20.275 -2.184,13.772 -0.735,5.85 -0.369,3.855 -0.222,1.819 0,0"
             style="fill:#ffffff;fill-opacity:1;fill-rule:nonzero;stroke:none;stroke-opacity:1"
             id="path230"
             inkscape:connector-curvature="0" /></g><g
           id="g232"
           transform="translate(140.82,827.94)"
           style="stroke:none;stroke-opacity:1"><path
             d="M 0,0 -7.94,0 C -20.411,0 -32.503,9.097 -32.503,31.844 -32.503,55.541 -21.166,65.206 -9.641,65.206 L 0,65.206 0,0 Z M 12.471,77.335 -9.075,77.335 C -30.234,77.335 -48.187,61.224 -48.187,29.947 -48.187,11.183 -39.492,-2.653 -24.001,-9.479 L -52.908,-61.793 C -53.854,-63.501 -52.908,-64.824 -51.401,-64.824 L -37.984,-64.824 C -36.851,-64.824 -36.095,-64.446 -35.716,-63.501 L -9.452,-12.131 0,-12.131 0,-63.501 C 0,-64.067 0.568,-64.824 1.316,-64.824 L 13.038,-64.824 C 14.172,-64.824 14.55,-64.258 14.55,-63.313 L 14.55,75.438 C 14.55,76.769 13.793,77.335 12.471,77.335"
             style="fill:#ffffff;fill-opacity:1;fill-rule:nonzero;stroke:none;stroke-opacity:1"
             id="path234"
             inkscape:connector-curvature="0" /></g><g
           id="g236"
           transform="translate(480.01,871.79)"
           style="stroke:none;stroke-opacity:1"><path
             d="M 0,0 C 10.24,0 19.87,-4.526 26.937,-11.613 L 26.937,-11.639 C 26.937,-8.238 29.228,-5.672 32.406,-5.672 L 33.21,-5.667 C 38.182,-5.667 39.203,-10.371 39.203,-11.86 L 39.228,-64.762 C 38.876,-68.226 42.802,-70.014 44.978,-67.792 53.473,-59.062 63.631,-22.915 39.697,-1.973 17.389,17.553 -12.547,14.336 -28.465,3.362 -45.388,-8.309 -56.217,-34.144 -45.697,-58.407 -34.229,-84.872 -1.418,-92.766 18.083,-84.889 27.958,-80.906 32.519,-94.255 22.263,-98.615 6.766,-105.21 -36.365,-104.55 -56.514,-69.649 -70.127,-46.08 -69.405,-4.616 -33.299,16.869 -5.679,33.306 30.737,28.758 52.695,5.824 75.647,-18.151 74.309,-63.046 51.92,-80.495 41.777,-88.426 26.711,-80.709 26.808,-69.154 L 26.703,-65.377 C 19.639,-72.384 10.24,-76.474 0,-76.474 -20.233,-76.474 -38.035,-58.676 -38.035,-38.442 -38.035,-18.01 -20.233,0 0,0 M 25.464,-36.979 C 24.702,-22.165 13.705,-13.255 0.427,-13.255 L -0.076,-13.255 C -15.399,-13.255 -23.9,-25.308 -23.9,-38.998 -23.9,-54.324 -13.617,-64.008 -0.133,-64.008 14.897,-64.008 24.782,-52.997 25.497,-39.972 L 25.464,-36.979 Z"
             style="fill:#ffffff;fill-opacity:1;fill-rule:nonzero;stroke:none;stroke-opacity:1"
             id="path238"
             inkscape:connector-curvature="0" /></g><g
           id="g240"
           transform="translate(840.87,882.4)"
           style="stroke:none;stroke-opacity:1"><path
             d="M 0,0 C 8.146,0 14.769,-6.625 14.769,-14.77 14.769,-22.907 8.146,-29.533 0,-29.533 -8.136,-29.533 -14.769,-22.907 -14.769,-14.77 -14.769,-6.625 -8.136,0 0,0 M 0,-50.429 C 19.676,-50.429 35.67,-34.435 35.67,-14.77 35.67,4.903 19.676,20.903 0,20.903 -19.671,20.903 -35.669,4.903 -35.669,-14.77 -35.669,-34.435 -19.671,-50.429 0,-50.429"
             style="fill:#ffffff;fill-opacity:1;fill-rule:nonzero;stroke:none;stroke-opacity:1"
             id="path242"
             inkscape:connector-curvature="0" /></g><g
           id="g244"
           transform="translate(855.31,802.87)"
           style="stroke:none;stroke-opacity:1"><path
             d="M 0,0 C 7.262,1.655 14.264,4.526 20.714,8.578 25.595,11.654 27.066,18.108 23.99,22.989 20.917,27.881 14.469,29.352 9.579,26.275 -5.032,17.086 -23.843,17.092 -38.446,26.275 -43.336,29.352 -49.784,27.881 -52.852,22.989 -55.928,18.104 -54.461,11.654 -49.58,8.578 -43.132,4.531 -36.128,1.655 -28.867,0 L -48.809,-19.941 C -52.886,-24.022 -52.886,-30.639 -48.805,-34.72 -46.762,-36.758 -44.09,-37.779 -41.418,-37.779 -38.742,-37.779 -36.065,-36.758 -34.023,-34.72 L -14.436,-15.123 5.169,-34.72 C 9.246,-38.801 15.862,-38.801 19.943,-34.72 24.028,-30.639 24.028,-24.019 19.943,-19.941 L 0,0 Z"
             style="fill:#ffffff;fill-opacity:1;fill-rule:nonzero;stroke:none;stroke-opacity:1"
             id="path246"
             inkscape:connector-curvature="0" /></g><g
           id="g248"
           transform="translate(1178.5,794.42)"
           style="stroke:none;stroke-opacity:1"><path
             d="M 0,0 C 3.582,-0.019 6.855,0.374 10.114,0.873 16.824,1.9 23.414,3.471 29.931,5.352 36.908,7.365 43.785,9.659 50.279,12.957 52.781,14.228 55.237,15.603 57.125,17.751 58.867,19.731 58.466,21.546 56.078,22.631 55.58,22.857 55.054,23.039 54.524,23.175 52.869,23.598 51.172,23.761 49.473,23.811 45.194,23.937 40.951,23.491 36.734,22.83 29.715,21.73 22.829,20.046 16.075,17.844 9.741,15.778 3.532,13.408 -2.184,9.918 -4.02,8.797 -5.81,7.592 -7.171,5.888 -9.139,3.424 -8.52,1.516 -5.479,0.61 -3.603,0.052 -1.668,-0.033 0,0 M -4.341,-6.048 C -6.915,-6.15 -9.685,-5.711 -12.462,-5.907 -16.074,-6.163 -19.692,-6.131 -23.302,-6.014 -30.41,-5.782 -37.462,-5.071 -44.278,-2.87 -47.185,-1.931 -49.958,-0.714 -52.305,1.318 -55.242,3.86 -55.945,7.064 -54.31,10.577 -52.904,13.6 -50.609,15.899 -48.144,18.033 -43.279,22.243 -37.778,25.495 -32.097,28.455 -20.606,34.442 -8.538,39.006 3.788,42.919 13.078,45.869 22.492,48.363 32.022,50.409 39.625,52.042 47.276,53.398 55.006,54.289 59.922,54.855 64.846,55.254 69.796,55.402 75.732,55.579 81.625,55.353 87.444,54.097 90.094,53.525 92.661,52.693 94.914,51.117 97.237,49.492 98.598,47.355 98.344,44.403 98.223,43.001 97.793,41.688 97.18,40.431 95.496,36.984 92.99,34.173 90.248,31.559 84.575,26.151 78.143,21.773 71.302,18.025 65.996,15.117 60.867,11.896 55.513,9.084 45.836,4.003 35.561,0.507 24.975,-2.124 19.099,-3.585 13.158,-4.691 7.144,-5.375 3.399,-5.801 -0.361,-6.092 -4.341,-6.048"
             style="fill:#ffffff;fill-opacity:1;fill-rule:nonzero;stroke:none;stroke-opacity:1"
             id="path250"
             inkscape:connector-curvature="0" /></g><g
           id="g252"
           transform="translate(1172.4,861.25)"
           style="stroke:none;stroke-opacity:1"><path
             d="M 0,0 C 0.06,3.345 -2.364,4.919 -5.42,3.514 -7.021,2.776 -8.337,1.673 -9.432,0.305 -11.263,-1.984 -12.494,-4.512 -12.361,-7.53 -12.254,-9.953 -10.662,-11.175 -8.287,-10.701 -8.031,-10.649 -7.775,-10.589 -7.527,-10.509 -3.566,-9.226 -0.077,-4.351 0,0 M 34.456,14.06 C 34.246,14.06 34.036,14.073 33.828,14.058 30.068,13.773 28.581,10.899 30.809,7.881 33.545,4.175 37.291,2.352 41.969,2.863 44.462,3.136 45.708,4.615 45.408,6.731 45.312,7.415 45.042,8.042 44.652,8.608 42.193,12.18 38.636,13.709 34.456,14.06 M 14.488,-1.711 C 17.237,-1.711 19.859,-0.375 21.354,1.788 23.392,4.736 22.457,8.432 19.264,10.053 15.905,11.759 11.334,10.654 9.119,7.61 8.097,6.207 7.642,4.664 8.018,2.949 8.629,0.162 11.254,-1.71 14.488,-1.711 M -46.549,-42.655 C -45.871,-41.712 -44.708,-40.511 -44.604,-40.405 -41.353,-37.098 -39.687,-35.663 -36.36,-32.432 -31.963,-28.158 -27.58,-23.876 -23.771,-19.043 -21.13,-15.691 -19.547,-11.831 -18.115,-7.879 -16.615,-3.741 -15.092,0.386 -12.921,4.24 -9.061,11.096 -3.448,15.965 3.755,19.037 8.337,20.991 13.108,22.271 18.064,22.787 26.829,23.7 34.773,21.464 41.988,16.468 44.772,14.54 47.448,12.463 49.934,10.179 54.88,5.634 60.737,2.877 67.08,0.95 74.831,-1.404 82.762,-3.028 90.604,-5.016 91.409,-5.22 92.206,-5.46 92.973,-5.824 91.584,-5.538 90.201,-5.22 88.804,-4.973 85.607,-4.407 82.389,-4.021 79.146,-3.815 75.955,-3.612 72.764,-3.477 69.569,-3.549 64.413,-3.665 59.272,-4.011 54.145,-4.594 43.432,-5.81 32.895,-7.933 22.465,-10.616 11.115,-13.538 -0.048,-17.041 -10.896,-21.503 -20.418,-25.421 -29.596,-29.995 -38.068,-35.896 -40.823,-37.813 -43.469,-39.872 -45.938,-42.151 -46.108,-42.308 -46.294,-42.446 -46.549,-42.655"
             style="fill:#ffffff;fill-opacity:1;fill-rule:nonzero;stroke:none;stroke-opacity:1"
             id="path254"
             inkscape:connector-curvature="0" /></g><g
           id="g256"
           transform="translate(1570.5,825.13)"
           style="stroke:none;stroke-opacity:1"><path
             d="M 0,0 C 6.346,0 11.448,-5.102 11.448,-11.449 11.448,-17.795 6.346,-22.897 0,-22.897 -4.416,-22.897 -8.227,-20.437 -10.138,-16.797 -8.255,-17.557 -6.371,-18.309 -4.489,-19.073 0.177,-20.949 5.492,-18.694 7.367,-14.026 9.243,-9.36 6.965,-4.066 2.298,-2.19 L -2.47,-0.279 C -1.676,-0.106 -0.849,0 0,0 M -82.01,33.723 C -77.612,33.723 -73.813,31.266 -71.892,27.645 L -77.585,29.922 -77.585,29.9 C -82.171,31.547 -87.266,29.306 -89.098,24.744 -90.931,20.185 -88.823,15.022 -84.373,13.038 L -84.373,13.017 -79.54,11.083 C -80.334,10.911 -81.161,10.804 -82.01,10.804 -88.356,10.804 -93.458,15.907 -93.458,22.253 -93.458,28.599 -88.356,33.723 -82.01,33.723 M 35.463,36.451 C 43.177,36.451 49.446,30.183 49.446,22.468 49.446,14.753 43.177,8.506 35.463,8.506 27.748,8.506 21.48,14.753 21.48,22.468 21.48,30.183 27.748,36.451 35.463,36.451 M 35.463,43.324 C 24.011,43.324 14.71,34.089 14.605,22.661 L 1.611,4.038 C 1.082,4.093 0.543,4.124 0,4.124 -2.904,4.124 -5.617,3.326 -7.948,1.934 L -66.802,25.604 C -68.34,32.587 -74.581,37.847 -82.01,37.847 -90.587,37.847 -97.583,30.831 -97.583,22.253 -97.583,13.675 -90.587,6.68 -82.01,6.68 -79.107,6.68 -76.393,7.478 -74.062,8.871 L -15.208,-14.757 C -13.686,-21.755 -7.444,-27.021 0,-27.021 8.063,-27.021 14.716,-20.841 15.486,-12.974 L 35.463,1.632 C 46.976,1.632 56.319,10.957 56.319,22.468 56.319,33.985 46.977,43.324 35.463,43.324 M 46.688,22.532 C 46.688,16.366 41.684,11.363 35.519,11.363 29.353,11.363 24.349,16.366 24.349,22.532 24.349,28.698 29.353,33.701 35.519,33.701 41.684,33.701 46.688,28.698 46.688,22.532"
             style="fill:#ffffff;fill-opacity:1;fill-rule:nonzero;stroke:none;stroke-opacity:1"
             id="path258"
             inkscape:connector-curvature="0" /></g><g
           id="g260"
           transform="translate(1891.3,800.69)"
           style="stroke:none;stroke-opacity:1"><path
             d="M 0,0 -5.841,15.877 C -5.841,15.877 -15.332,5.292 -29.564,5.292 -42.158,5.292 -51.1,16.242 -51.1,33.762 -51.1,56.209 -39.786,64.238 -28.652,64.238 -12.594,64.238 -7.484,53.836 -3.104,40.514 L 2.737,22.264 C 8.576,4.562 19.526,-9.672 51.098,-9.672 73.729,-9.672 89.059,-2.737 89.059,15.511 89.059,30.293 80.662,37.959 64.967,41.609 L 53.288,44.164 C 45.259,45.989 42.887,49.273 42.887,54.749 42.887,60.954 47.813,64.604 55.844,64.604 64.604,64.604 69.348,61.318 70.079,53.472 L 88.327,55.661 C 86.868,72.086 75.554,78.838 56.938,78.838 40.515,78.838 24.454,72.634 24.454,52.741 24.454,40.331 30.477,32.483 45.622,28.834 L 58.034,25.914 C 67.341,23.724 70.442,19.892 70.442,14.599 70.442,7.848 63.873,5.11 51.463,5.11 33.03,5.11 25.367,14.782 20.986,28.104 L 14.964,46.354 C 7.3,70.078 -4.929,78.838 -29.201,78.838 -56.027,78.838 -70.263,61.866 -70.263,33.032 -70.263,5.292 -56.027,-9.672 -30.478,-9.672 -9.856,-9.672 0,0 0,0"
             style="fill:#ffffff;fill-opacity:1;fill-rule:nonzero;stroke:none;stroke-opacity:1"
             id="path262"
             inkscape:connector-curvature="0" /></g><g
           id="g264"
           transform="translate(160.94,457.41)"
           style="stroke:none;stroke-opacity:1"><path
             d="M 0,0 C -2.397,-5.43 -6.5,-9.012 -12.239,-10.635 -14.319,-11.224 -16.337,-10.718 -18.237,-9.908 -44.411,1.233 -63.325,19.616 -74.035,46.152 -74.808,48.067 -75.259,50.063 -75.187,51.889 -75.174,58.722 -69.178,65.04 -62.608,65.403 -60.791,65.504 -59.219,64.887 -57.909,63.659 -53.289,59.329 -49.574,54.313 -46.86,48.598 -45.388,45.497 -46.005,43.312 -48.655,41.091 -49.079,40.735 -49.539,40.422 -49.985,40.095 -53.505,37.52 -54.292,34.89 -52.609,30.832 -49.848,24.178 -45.355,18.956 -39.292,15.09 -37.003,13.63 -34.664,12.246 -32.027,11.478 -29.613,10.773 -27.674,11.526 -26.124,13.435 -25.949,13.649 -25.788,13.876 -25.625,14.101 -22.251,18.772 -18.639,19.582 -13.748,16.547 -9.552,13.943 -5.602,10.975 -1.845,7.769 0.696,5.601 1.345,3.046 0,0 M -18.174,36.658 C -18.256,35.927 -18.263,35.422 -18.378,34.943 -18.609,33.982 -19.199,33.4 -20.247,33.383 -21.308,33.366 -21.88,33.996 -22.158,34.91 -22.35,35.541 -22.4,36.214 -22.525,36.866 -23.197,40.345 -25.186,42.623 -28.643,43.552 -29.069,43.666 -29.509,43.727 -29.934,43.845 -31.025,44.146 -32.383,44.17 -32.429,45.767 -32.466,47.088 -31.461,47.875 -29.646,47.986 -28.413,48.062 -26.504,47.454 -25.398,46.915 -20.854,44.7 -18.733,41.583 -18.174,36.658 M -25.481,51.218 C -27.996,52.099 -30.543,52.806 -33.187,53.189 -34.468,53.375 -35.382,54.053 -35.146,55.551 -34.924,56.96 -34.002,57.52 -32.648,57.392 -24.016,56.571 -17.272,53.431 -12.629,45.952 -10.458,42.455 -9.181,37.501 -9.373,33.785 -9.509,31.151 -9.91,30.472 -11.416,30.513 -13.607,30.573 -13.284,32.376 -13.452,33.701 -13.71,35.743 -14.154,37.734 -14.708,39.707 -16.306,45.405 -19.877,49.255 -25.481,51.218 M -37.96,64.354 C -37.875,65.898 -36.993,66.493 -35.539,66.424 -23.169,65.833 -13.857,62.156 -6.696,52.516 -2.5,46.865 -0.234,39.239 -0.006,32.152 -0.006,31.101 0.041,30.046 -0.018,28.996 -0.083,27.824 -0.596,26.93 -1.914,26.916 -3.245,26.901 -3.897,27.622 -3.987,28.974 -4.335,34.195 -5.344,39.278 -7.34,44.138 -11.204,53.544 -18.613,58.613 -28.134,61.061 -30.652,61.707 -33.197,62.24 -35.799,62.451 -36.973,62.546 -38.046,62.796 -37.96,64.354 M 11.548,74.072 C 6.644,78.262 0.892,80.792 -5.284,82.407 -20.801,86.464 -36.531,87.476 -52.421,85.32 -60.478,84.228 -68.261,82.099 -75.42,78.081 -83.83,73.364 -89.614,66.569 -92.174,57.141 -93.999,50.42 -94.882,43.575 -95.229,36.645 -95.74,26.419 -95.407,16.261 -92.79,6.284 -89.762,-5.259 -83.176,-13.763 -71.894,-18.289 -70.663,-18.782 -69.506,-19.46 -68.281,-19.971 -67.151,-20.44 -66.805,-21.188 -66.813,-22.412 -66.868,-30.396 -66.841,-38.379 -66.841,-46.72 -63.878,-43.86 -61.832,-41.756 -60.343,-40.073 -55.9,-35.051 -51.696,-30.87 -47.062,-26.094 -44.714,-23.672 -45.701,-23.79 -42.058,-23.85 -37.771,-23.92 -31.037,-24.088 -26.776,-23.755 -18.647,-23.118 -10.585,-22.084 -2.743,-19.729 7.218,-16.737 15.198,-11.403 19.247,-1.332 20.322,1.344 21.353,4.03 22.033,6.832 25.923,22.861 25.402,38.92 22.151,54.957 20.641,62.407 17.456,69.026 11.548,74.072"
             style="fill:#ffffff;fill-opacity:1;fill-rule:nonzero;stroke:none;stroke-opacity:1"
             id="path266"
             inkscape:connector-curvature="0" /></g><g
           id="g268"
           transform="translate(514.48,468.57)"
           style="stroke:none;stroke-opacity:1"><path
             d="M 0,0 C -1.586,0.869 -9.376,5.073 -10.838,5.668 -12.299,6.261 -13.365,6.569 -14.503,4.993 -15.641,3.421 -18.873,-0.102 -19.853,-1.145 -20.836,-2.188 -21.783,-2.285 -23.37,-1.414 -24.952,-0.548 -30.094,1.354 -36.056,7.086 -40.696,11.546 -43.739,16.955 -44.622,18.605 -45.505,20.258 -44.628,21.1 -43.79,21.873 -43.036,22.571 -42.103,23.701 -41.26,24.613 -40.419,25.524 -40.123,26.187 -39.544,27.245 -38.966,28.303 -39.199,29.257 -39.573,30.079 -39.948,30.9 -42.88,38.971 -44.104,42.253 -45.329,45.536 -46.693,45.048 -47.636,45.085 -48.578,45.118 -49.65,45.295 -50.727,45.334 -51.804,45.375 -53.569,45.036 -55.109,43.477 -56.649,41.916 -60.969,38.166 -61.266,30.217 -61.563,22.272 -56.065,14.376 -55.298,13.271 -54.531,12.162 -44.798,-5.063 -28.624,-12.147 -12.447,-19.229 -12.362,-17.07 -9.394,-16.912 -6.425,-16.755 0.307,-13.36 1.795,-9.643 3.283,-5.923 3.402,-2.689 3.024,-2.001 2.645,-1.312 1.585,-0.866 0,0 M -29.666,-38.294 C -40.363,-38.294 -50.325,-35.085 -58.643,-29.585 L -78.883,-36.064 -72.305,-16.506 C -78.61,-7.821 -82.335,2.848 -82.335,14.376 -82.335,43.421 -58.707,67.05 -29.666,67.05 -0.621,67.05 23.006,43.421 23.006,14.376 23.006,-14.666 -0.621,-38.294 -29.666,-38.294 M -29.666,77.647 C -64.607,77.647 -92.934,49.321 -92.934,14.376 -92.934,2.423 -89.617,-8.758 -83.856,-18.294 L -95.275,-52.239 -60.247,-41.024 C -51.181,-46.036 -40.758,-48.895 -29.666,-48.895 5.28,-48.895 33.605,-20.565 33.605,14.376 33.605,49.321 5.28,77.647 -29.666,77.647"
             style="fill:#ffffff;fill-opacity:1;fill-rule:evenodd;stroke:none;stroke-opacity:1"
             id="path270"
             inkscape:connector-curvature="0" /></g><g
           id="g272"
           transform="translate(807.37,470.34)"
           style="stroke:none;stroke-opacity:1"><path
             d="M 0,0 68.647,43.069 C 72.028,45.338 73.088,42.808 71.562,41.059 L 14.59,-10.19 11.667,-35.769 0,0 Z M 87.08,62.866 -33.427,17.237 C -40.018,15.334 -39.808,8.824 -34.933,7.259 L -4.739,-2.166 6.814,-37.587 C 8.219,-41.463 9.367,-42.924 11.765,-42.957 14.286,-42.991 15.25,-42.071 17.869,-39.756 20.934,-36.878 25.602,-32.347 32.979,-25.175 L 64.387,-48.38 C 70.167,-51.568 74.339,-49.917 75.779,-43.013 L 95.469,54.39 C 97.58,62.853 92.609,65.376 87.08,62.866"
             style="fill:#ffffff;fill-opacity:1;fill-rule:nonzero;stroke:none;stroke-opacity:1"
             id="path274"
             inkscape:connector-curvature="0" /></g><g
           id="g276"
           transform="translate(1173.5,465.4)"
           style="stroke:none;stroke-opacity:1"><path
             d="M 0,0 C 6.137,0.327 8.185,-6.976 12.748,-10.125 17.809,-13.551 33.703,-17.197 38.367,-6.573 41.816,2.601 31.684,3.995 21.706,6.449 6.434,9.718 -6.353,13.658 -6.241,29.264 -6.31,44.312 5.602,50.503 17.061,51.541 30.686,52.755 40.741,49.895 48.196,43.827 56.888,36.412 52.199,28.313 45.989,28.142 37.191,27.899 37.308,39.598 22.795,39.415 10.251,39.61 4.509,27.53 17.615,23.3 35.992,18.446 50.727,19.036 55.478,3.537 59.13,-10.957 50.346,-24.471 28.918,-26.205 11.885,-27.107 2.914,-22.33 -2.911,-16.504 -9.985,-8.46 -6.653,-0.355 0,0 M 85.52,2.126 C 86.13,5.61 86.452,9.194 86.452,12.852 86.452,46.888 58.861,74.478 24.826,74.478 21.162,74.478 17.573,74.155 14.086,73.543 8.676,76.675 2.402,78.477 -4.298,78.477 -24.598,78.477 -41.052,62.021 -41.052,41.724 -41.052,34.906 -39.189,28.524 -35.955,23.053 -36.507,19.734 -36.799,16.327 -36.799,12.852 -36.799,-21.183 -9.208,-48.773 24.826,-48.773 28.398,-48.773 31.899,-48.466 35.306,-47.881 40.68,-50.959 46.899,-52.727 53.536,-52.727 73.834,-52.727 90.29,-36.271 90.29,-15.973 90.29,-9.39 88.55,-3.218 85.52,2.126"
             style="fill:#ffffff;fill-opacity:1;fill-rule:nonzero;stroke:none;stroke-opacity:1"
             id="path278"
             inkscape:connector-curvature="0" /></g><g
           id="g280"
           transform="translate(1549.9,460.39)"
           style="stroke:none;stroke-opacity:1"><path
             d="M 0,0 C -18.166,0 -32.891,14.726 -32.891,32.891 -32.891,40.092 -30.571,46.747 -26.646,52.164 -26.225,45.207 -20.465,39.691 -13.403,39.691 -6.066,39.691 -0.119,45.639 -0.119,52.976 -0.119,58.217 -3.162,62.734 -7.57,64.896 -5.139,65.47 -2.607,65.782 0,65.782 18.166,65.782 32.891,51.057 32.891,32.891 32.891,14.726 18.166,0 0,0 M 0,87.279 C -29.94,87.279 -54.21,63.009 -54.21,33.07 -54.21,-7.238 -10.859,-51.534 0,-51.534 10.86,-51.534 54.208,-7.238 54.208,33.07 54.208,63.009 29.94,87.279 0,87.279"
             style="fill:#ffffff;fill-opacity:1;fill-rule:nonzero;stroke:none;stroke-opacity:1"
             id="path282"
             inkscape:connector-curvature="0" /></g><g
           id="g284"
           transform="translate(1956.7,478.63)"
           style="stroke:none;stroke-opacity:1"><path
             d="M 0,0 C -3.233,-0.745 -6.36,-1.074 -9.176,-1.074 -25.013,-1.074 -37.206,9.986 -37.206,29.218 -37.206,38.645 -33.562,43.547 -28.408,43.547 -23.505,43.547 -20.236,39.147 -20.236,30.223 -20.236,25.148 -21.596,19.588 -22.599,16.298 -22.599,16.298 -17.719,7.784 -4.373,10.397 -1.54,16.688 0,24.835 0,31.982 0,51.214 -9.805,62.4 -27.779,62.4 -46.255,62.4 -57.064,48.196 -57.064,29.468 -57.064,10.915 -48.392,-5.011 -34.09,-12.268 -40.104,-24.298 -47.756,-34.895 -55.736,-42.879 -70.217,-25.375 -83.307,-2.023 -88.678,43.547 L -110.04,43.547 C -100.17,-32.349 -70.758,-56.515 -62.98,-61.155 -58.582,-63.794 -54.794,-63.669 -50.771,-61.405 -44.457,-57.814 -25.497,-38.858 -14.988,-16.653 -10.577,-16.642 -5.277,-16.135 0,-14.942 L 0,0 Z"
             style="fill:#ffffff;fill-opacity:1;fill-rule:nonzero;stroke:none;stroke-opacity:1"
             id="path286"
             inkscape:connector-curvature="0" /></g><g
           id="g288"
           transform="translate(169.65,162.74)"
           style="stroke:none;stroke-opacity:1"><path
             d="M 0,0 C -1.2,-1.623 -10.735,-13.846 -31.773,-22.436 -30.449,-25.146 -29.18,-27.902 -27.998,-30.678 -27.579,-31.661 -27.171,-32.64 -26.772,-33.614 -7.839,-31.233 10.973,-35.049 12.85,-35.445 12.724,-22.016 7.925,-9.683 0,0 M -57.379,19.337 C -55.807,17.23 -45.472,3.157 -36.148,-13.975 -15.915,-6.391 -7.349,5.122 -6.326,6.58 -16.374,15.495 -29.587,20.918 -44.045,20.918 -48.636,20.918 -53.101,20.368 -57.379,19.337 M -99.745,-24.329 C -97.199,-24.362 -73.756,-24.465 -47.14,-17.396 -56.568,-0.637 -66.736,13.454 -68.236,15.512 -84.156,8.003 -96.055,-6.672 -99.745,-24.329 M -86.318,-74.029 C -85.029,-71.822 -69.413,-45.966 -40.067,-36.479 -39.325,-36.24 -38.578,-36.015 -37.825,-35.803 -39.253,-32.57 -40.809,-29.334 -42.438,-26.146 -70.854,-34.65 -98.428,-34.296 -100.92,-34.244 -100.93,-34.822 -100.95,-35.401 -100.95,-35.983 -100.95,-50.598 -95.406,-63.941 -86.318,-74.029 M -21.818,-88.362 C -22.665,-83.37 -25.968,-65.972 -33.957,-45.212 -34.082,-45.255 -34.207,-45.295 -34.333,-45.339 -66.427,-56.522 -77.948,-78.779 -78.972,-80.872 -69.324,-88.395 -57.199,-92.884 -44.045,-92.884 -36.163,-92.884 -28.65,-91.272 -21.818,-88.362 M 12.136,-45.016 C 10.19,-44.4 -5.476,-39.729 -23.307,-42.583 -15.864,-63.034 -12.835,-79.691 -12.252,-83.152 0.513,-74.521 9.601,-60.848 12.136,-45.016 M -44.045,-102.51 C -80.778,-102.51 -110.66,-72.629 -110.66,-35.896 -110.66,0.837 -80.778,30.721 -44.045,30.721 -7.312,30.721 22.572,0.837 22.572,-35.896 22.572,-72.629 -7.312,-102.51 -44.045,-102.51"
             style="fill:#ffffff;fill-opacity:1;fill-rule:evenodd;stroke:none;stroke-opacity:1"
             id="path290"
             inkscape:connector-curvature="0" /></g><g
           id="g292"
           transform="translate(542.32,123.47)"
           style="stroke:none;stroke-opacity:1"><path
             d="M 0,0 C -0.315,4.481 -1.812,7.873 -4.506,10.191 -7.177,12.516 -10.515,13.683 -14.498,13.683 -18.833,13.683 -22.18,12.436 -24.558,9.983 -26.952,7.537 -28.442,4.211 -29.052,0 L 0,0 Z M 16.939,1.681 C 17.377,-1.265 17.575,-5.538 17.495,-11.124 L -29.456,-11.124 C -29.197,-17.604 -26.96,-22.137 -22.717,-24.73 -20.158,-26.356 -17.056,-27.15 -13.423,-27.15 -9.592,-27.15 -6.47,-26.183 -4.066,-24.191 -2.757,-23.137 -1.602,-21.646 -0.603,-19.768 L 16.606,-19.768 C 16.155,-23.595 14.083,-27.478 10.359,-31.422 4.59,-37.692 -3.501,-40.837 -13.892,-40.837 -22.477,-40.837 -30.042,-38.186 -36.609,-32.901 -43.154,-27.599 -46.441,-18.998 -46.441,-7.069 -46.441,4.118 -43.49,12.681 -37.568,18.641 -31.624,24.611 -23.953,27.583 -14.498,27.583 -8.894,27.583 -3.842,26.582 0.666,24.567 5.159,22.552 8.872,19.379 11.796,15.019 14.443,11.179 16.145,6.738 16.939,1.681 M -72.357,-12.965 C -72.357,-8.289 -74.269,-5.056 -78.084,-3.321 -80.217,-2.335 -83.227,-1.831 -87.086,-1.796 L -106.41,-1.796 -106.41,-25.786 -87.385,-25.786 C -83.477,-25.786 -80.452,-25.275 -78.269,-24.208 -74.332,-22.245 -72.357,-18.511 -72.357,-12.965 M -106.41,13.109 -87.36,13.109 C -83.445,13.109 -80.28,13.854 -77.843,15.341 -75.407,16.825 -74.192,19.466 -74.192,23.256 -74.192,27.443 -75.801,30.223 -79.027,31.561 -81.8,32.49 -85.349,32.969 -89.654,32.969 L -106.41,32.969 -106.41,13.109 Z M -56.898,-1.064 C -54.559,-4.687 -53.39,-9.087 -53.39,-14.251 -53.39,-19.592 -54.708,-24.384 -57.389,-28.616 -59.095,-31.417 -61.213,-33.782 -63.757,-35.687 -66.624,-37.89 -70.017,-39.399 -73.917,-40.207 -77.83,-41.015 -82.065,-41.424 -86.628,-41.424 L -127.17,-41.424 -127.17,48.602 -83.695,48.602 C -72.736,48.423 -64.966,45.248 -60.378,39.013 -57.625,35.188 -56.262,30.6 -56.262,25.266 -56.262,19.762 -57.642,15.357 -60.422,12.012 -61.968,10.136 -64.252,8.43 -67.277,6.889 -62.696,5.212 -59.221,2.571 -56.898,-1.064 M 3.488,35.861 -32.764,35.861 -32.764,44.866 3.491,44.866 3.491,35.861 3.488,35.861 Z"
             style="fill:#ffffff;fill-opacity:1;fill-rule:nonzero;stroke:none;stroke-opacity:1"
             id="path294"
             inkscape:connector-curvature="0" /></g><g
           id="g296"
           transform="translate(867.73,126)"
           style="stroke:none;stroke-opacity:1"><path
             d="M 0,0 C -1.806,0.062 -3.538,-0.051 -5.158,-0.312 -4.702,3.364 -3.184,7.878 2.191,7.689 8.144,7.483 8.979,1.858 8.998,-1.95 6.49,-0.832 3.384,-0.118 0,0 M 25.449,39.907 C 24.454,45.232 21.288,47.857 18.42,48.891 15.336,50.006 9.07,51.163 1.202,52.09 -5.126,52.835 -12.57,52.775 -17.064,52.638 -17.604,56.332 -20.197,59.708 -23.098,60.877 -30.821,63.986 -42.761,63.234 -45.825,62.376 -48.262,61.694 -50.958,60.301 -52.458,58.151 -53.463,56.714 -54.114,54.875 -54.119,52.305 -54.119,50.852 -54.08,47.424 -54.042,44.379 -54.006,41.326 -53.963,38.593 -53.963,38.574 -53.966,35.855 -56.171,33.645 -58.9,33.641 L -71.428,33.641 C -74.1,33.641 -76.142,33.191 -77.702,32.482 -79.264,31.773 -80.371,30.817 -81.21,29.687 -82.883,27.439 -83.174,24.669 -83.167,21.838 -83.167,21.838 -83.142,19.528 -82.586,15.055 -82.123,11.592 -78.368,-12.59 -74.802,-19.944 -73.419,-22.805 -72.499,-23.999 -69.783,-25.26 -63.731,-27.852 -49.909,-30.733 -43.428,-31.559 -36.962,-32.387 -32.903,-34.124 -30.484,-29.053 -30.478,-29.039 -29.999,-27.793 -29.345,-25.957 -27.244,-19.594 -26.951,-13.949 -26.951,-9.863 -26.951,-9.447 -26.343,-9.429 -26.343,-9.863 -26.343,-12.747 -26.893,-22.957 -19.183,-25.693 -16.137,-26.772 -9.823,-27.735 -3.405,-28.488 2.394,-29.157 6.606,-31.437 6.606,-46.324 6.606,-55.381 4.704,-56.621 -5.24,-56.621 -13.299,-56.621 -16.374,-56.828 -16.374,-50.428 -16.374,-45.25 -11.252,-45.794 -7.46,-45.794 -5.766,-45.794 -6.995,-44.533 -6.995,-41.34 -6.995,-38.162 -5.008,-36.325 -6.888,-36.279 -20.008,-35.918 -27.726,-36.265 -27.726,-52.672 -27.726,-67.566 -22.026,-70.332 -3.405,-70.332 11.194,-70.332 16.335,-69.854 22.364,-51.152 23.559,-47.459 26.443,-36.192 28.19,-17.272 29.293,-5.311 27.148,30.795 25.449,39.907"
             style="fill:#ffffff;fill-opacity:1;fill-rule:nonzero;stroke:none;stroke-opacity:1"
             id="path298"
             inkscape:connector-curvature="0" /></g><g
           id="g300"
           transform="translate(795.72,163.28)"
           style="stroke:none;stroke-opacity:1"><path
             d="M 0,0 0.007,0 12.534,0 C 13.25,0 13.83,0.584 13.831,1.295 13.831,1.301 13.678,12.037 13.678,15.02 L 13.678,15.057 C 13.678,17.508 14.192,19.645 15.09,21.437 L 15.517,22.24 C 15.47,22.233 15.423,22.21 15.373,22.163 L -8.964,-1.973 C -9.011,-2.01 -9.04,-2.061 -9.055,-2.113 -8.551,-1.865 -7.862,-1.523 -7.766,-1.481 -5.647,-0.524 -3.077,0 0,0"
             style="fill:#ffffff;fill-opacity:1;fill-rule:nonzero;stroke:none;stroke-opacity:1"
             id="path302"
             inkscape:connector-curvature="0" /></g><g
           id="g304"
           transform="translate(1199.5,158.36)"
           style="stroke:none;stroke-opacity:1"><path
             d="M 0,0 C -1.11,0 -2.021,-0.912 -2.038,-2.032 L -2.872,-43.672 -2.036,-58.785 C -2.021,-59.889 -1.11,-60.799 0,-60.799 1.107,-60.799 2.019,-59.889 2.035,-58.769 L 2.035,-58.786 2.941,-43.672 2.035,-2.028 C 2.019,-0.912 1.107,0 0,0 M 57.013,-23.962 C 54.481,-23.962 52.064,-24.474 49.863,-25.396 48.393,-8.737 34.423,4.331 17.382,4.331 13.212,4.331 9.147,3.51 5.558,2.122 4.164,1.582 3.792,1.026 3.779,-0.052 L 3.779,-58.719 C 3.793,-59.85 4.671,-60.792 5.775,-60.903 5.821,-60.908 56.682,-60.935 57.012,-60.935 67.219,-60.935 75.496,-52.658 75.496,-42.449 75.496,-32.239 67.221,-23.962 57.013,-23.962 M -23.662,-59.344 -23.662,-59.336 -22.595,-43.659 -23.662,-9.487 C -23.688,-8.639 -24.357,-7.973 -25.183,-7.973 -26.014,-7.973 -26.683,-8.637 -26.705,-9.487 L -27.652,-43.657 -26.704,-59.343 C -26.681,-60.183 -26.012,-60.847 -25.183,-60.847 -24.355,-60.847 -23.689,-60.183 -23.662,-59.338 L -23.662,-59.344 Z M -37.522,-60.849 C -36.847,-60.849 -36.289,-60.298 -36.257,-59.595 L -35.016,-43.654 -36.257,-13.145 C -36.291,-12.44 -36.847,-11.891 -37.522,-11.891 -38.204,-11.891 -38.76,-12.441 -38.79,-13.145 L -39.888,-43.654 -38.788,-59.602 C -38.76,-60.298 -38.204,-60.849 -37.522,-60.849 M -12.649,-9.809 C -13.627,-9.809 -14.411,-10.586 -14.431,-11.582 L -15.226,-43.664 -14.431,-59.102 C -14.411,-60.084 -13.629,-60.861 -12.649,-60.861 -11.673,-60.861 -10.895,-60.086 -10.872,-59.091 L -10.872,-59.104 -9.979,-43.666 -10.872,-11.578 C -10.895,-10.586 -11.673,-9.809 -12.649,-9.809 M -61.623,-59.807 C -61.231,-59.807 -60.915,-59.498 -60.869,-59.071 L -59.276,-43.64 -60.868,-27.627 C -60.915,-27.198 -61.231,-26.89 -61.623,-26.89 -62.019,-26.89 -62.335,-27.2 -62.375,-27.627 L -63.778,-43.64 -62.375,-59.067 C -62.337,-59.496 -62.02,-59.807 -61.623,-59.807 M -49.669,-60.686 C -49.134,-60.686 -48.701,-60.257 -48.661,-59.693 L -47.242,-43.644 -48.661,-28.375 C -48.7,-27.812 -49.133,-27.386 -49.669,-27.386 -50.212,-27.386 -50.646,-27.814 -50.679,-28.382 L -51.929,-43.644 -50.679,-59.691 C -50.644,-60.257 -50.212,-60.686 -49.669,-60.686 M -18.939,-60.831 C -18.04,-60.831 -17.314,-60.108 -17.29,-59.187 L -17.29,-59.198 -16.31,-43.661 -17.291,-10.363 C -17.315,-9.442 -18.041,-8.722 -18.941,-8.722 -19.848,-8.722 -20.574,-9.442 -20.593,-10.363 L -21.464,-43.662 -20.591,-59.197 C -20.572,-60.108 -19.846,-60.831 -18.939,-60.831 M -6.311,-60.891 C -5.277,-60.891 -4.423,-60.039 -4.404,-58.992 L -4.404,-59.003 -4.404,-58.992 -3.599,-43.667 -4.404,-5.487 C -4.422,-4.441 -5.277,-3.588 -6.311,-3.588 -7.347,-3.588 -8.202,-4.44 -8.218,-5.489 L -8.937,-43.654 C -8.937,-43.679 -8.218,-59.002 -8.218,-59.002 -8.202,-60.039 -7.345,-60.891 -6.311,-60.891 M -31.377,-60.816 C -30.626,-60.816 -30.015,-60.21 -29.984,-59.435 L -28.831,-43.657 -29.983,-10.6 C -30.014,-9.823 -30.625,-9.218 -31.376,-9.218 -32.134,-9.218 -32.747,-9.825 -32.771,-10.601 L -33.794,-43.656 -32.771,-59.439 C -32.747,-60.209 -32.134,-60.816 -31.377,-60.816 M -55.67,-26.323 C -56.136,-26.323 -56.515,-26.694 -56.553,-27.19 L -57.878,-43.644 -56.553,-59.561 C -56.517,-60.054 -56.136,-60.426 -55.67,-60.426 -55.209,-60.426 -54.83,-60.054 -54.789,-59.561 L -53.283,-43.644 -54.789,-27.187 C -54.83,-26.694 -55.209,-26.323 -55.67,-26.323 M -43.622,-17.692 C -44.228,-17.692 -44.729,-18.188 -44.758,-18.819 L -45.934,-43.649 -44.758,-59.696 C -44.727,-60.323 -44.228,-60.818 -43.622,-60.818 -43.019,-60.818 -42.52,-60.322 -42.484,-59.693 L -42.484,-59.698 -41.154,-43.649 -42.484,-18.819 C -42.52,-18.188 -43.019,-17.692 -43.622,-17.692 M -66.901,-30.142 C -66.953,-29.783 -67.209,-29.536 -67.526,-29.536 -67.845,-29.536 -68.108,-29.791 -68.152,-30.142 L -69.629,-43.639 -68.152,-56.836 C -68.109,-57.189 -67.846,-57.445 -67.526,-57.445 -67.211,-57.445 -66.954,-57.196 -66.902,-56.839 L -65.222,-43.639 -66.901,-30.142 Z M -73.081,-34.702 C -73.395,-34.702 -73.644,-34.945 -73.684,-35.291 L -74.783,-43.639 -73.684,-51.842 C -73.644,-52.187 -73.395,-52.429 -73.081,-52.429 -72.777,-52.429 -72.53,-52.189 -72.481,-51.845 L -72.481,-51.844 -72.481,-51.845 -71.179,-43.639 -72.481,-35.289 C -72.528,-34.945 -72.779,-34.702 -73.081,-34.702"
             style="fill:#ffffff;fill-opacity:1;fill-rule:nonzero;stroke:none;stroke-opacity:1"
             id="path306"
             inkscape:connector-curvature="0" /></g><g
           id="g308"
           transform="translate(1509.9,156.91)"
           style="stroke:none;stroke-opacity:1"><path
             d="M 0,0 C -16.638,0 -30.125,-13.461 -30.125,-30.062 -30.125,-46.667 -16.638,-60.124 0,-60.124 16.638,-60.124 30.124,-46.667 30.124,-30.062 30.124,-13.461 16.638,0 0,0"
             style="fill:#ffffff;fill-opacity:1;fill-rule:nonzero;stroke:none;stroke-opacity:1"
             id="path310"
             inkscape:connector-curvature="0" /></g><g
           id="g312"
           transform="translate(1590,156.91)"
           style="stroke:none;stroke-opacity:1"><path
             d="M 0,0 C -16.639,0 -30.126,-13.461 -30.126,-30.062 -30.126,-46.667 -16.639,-60.124 0,-60.124 16.637,-60.124 30.125,-46.667 30.125,-30.062 30.125,-13.461 16.637,0 0,0"
             style="fill:#ffffff;fill-opacity:1;fill-rule:nonzero;stroke:none;stroke-opacity:1"
             id="path314"
             inkscape:connector-curvature="0" /></g><g
           id="g316"
           transform="translate(1938.9,68.778)"
           style="stroke:none;stroke-opacity:1"><path
             d="M 0,0 C -4.483,-4.789 -14.876,-8.04 -24.182,-8.193 L -25.203,-8.193 C -56.466,-8.193 -63.256,14.791 -63.256,28.207 L -63.256,65.48 -75.571,65.48 C -76.998,65.48 -78.153,66.637 -78.153,68.062 L -78.153,85.664 C -78.152,87.521 -76.982,89.176 -75.232,89.796 -59.183,95.449 -54.149,109.45 -53.404,120.1 -53.203,122.95 -51.715,124.32 -49.245,124.32 L -30.889,124.32 C -29.463,124.32 -28.307,123.17 -28.307,121.74 L -28.307,91.932 -6.817,91.932 C -5.394,91.933 -4.238,90.781 -4.233,89.357 L -4.233,68.204 C -4.234,66.778 -5.392,65.623 -6.817,65.624 L -28.405,65.624 -28.405,31.153 C -28.405,22.498 -22.701,20.109 -19.179,20.109 -15.799,20.19 -12.471,21.22 -10.804,21.89 -9.565,22.387 -8.478,22.716 -7.504,22.472 -6.598,22.245 -6.002,21.604 -5.601,20.433 L 0.096,3.796 C 0.558,2.463 0.955,1.02 0,0"
             style="fill:#ffffff;fill-opacity:1;fill-rule:nonzero;stroke:none;stroke-opacity:1"
             id="path318"
             inkscape:connector-curvature="0" /></g></g></g></g></svg>