<?xml version="1.0" encoding="utf-8"?>
<!-- Generator: Adobe Illustrator 21.0.0, SVG Export Plug-In . SVG Version: 6.00 Build 0)  -->
<svg version="1.1" id="Layer_1" xmlns="http://www.w3.org/2000/svg" xmlns:xlink="http://www.w3.org/1999/xlink" x="0px" y="0px"
	 viewBox="0 0 128 128" style="enable-background:new 0 0 128 128;" xml:space="preserve">
<style type="text/css">
	.st0{fill:none;stroke:#E5AD2A;stroke-width:2.9146;stroke-linecap:round;stroke-linejoin:round;stroke-miterlimit:10;}
	.st1{fill:#E5AD2A;}
</style>
<g>
	<path class="st0" d="M121.1,89.1V62.8h-11.2c-2-4-4.9-7.7-8.5-11V28.7c0,0-14.2,1.8-23.8,11.4C73.9,39.4,70,39,66,39
		c-26,0-47.1,15.4-47.1,37c0,7.5,2.6,14.3,7,19.9l-4.8,4.8c-2.9,2.9-2.9,7.5,0,10.3c2.9,2.9,7.5,2.9,10.3,0l5.5-5.5
		c8,4.8,18.1,7.5,29,7.5c9.6,0,18.6-2.4,26.1-6.3l4.4,4.4c2.9,2.9,7.5,2.9,10.3,0h0c2.9-2.9,2.9-7.5,0-10.3l-2.9-2.9
		c2.5-2.6,4.5-5.5,6-8.6H121.1z"/>
	<path class="st0" d="M22.1,62c-1.1,4.1-5.3,6.6-9.4,5.5s-6.6-5.3-5.5-9.4s5.3-6.6,9.4-5.5"/>
	<circle class="st1" cx="95.5" cy="67.6" r="3.8"/>
	<path class="st0" d="M34.2,48c-6-6.5-7-16.4-1.9-24.2c6-9.1,18.2-11.7,27.3-5.7c6.8,4.5,10,12.5,8.6,20.1"/>
	<line class="st0" x1="86.2" y1="75.3" x2="95.1" y2="79.2"/>
	<path class="st0" d="M39.9,44.7c-2.7-2.4-4.3-5.9-4.3-9.8c0-7.4,6-13.3,13.3-13.3s13.3,6,13.3,13.3c0,1.4-0.2,2.8-0.6,4.1"/>
	<path class="st0" d="M88.3,99.7c-6.3,3.5-14.1,5.6-22.6,5.6c-21.1,0-38.2-13.1-38.2-29.2c0-2.9,0.6-5.8,1.6-8.4"/>
</g>
</svg>
