<?xml version="1.0" encoding="utf-8"?>
<!-- Generator: Adobe Illustrator 21.0.0, SVG Export Plug-In . SVG Version: 6.00 Build 0)  -->
<svg version="1.1" id="Layer_1" xmlns="http://www.w3.org/2000/svg" xmlns:xlink="http://www.w3.org/1999/xlink" x="0px" y="0px"
	 viewBox="0 0 128 128" style="enable-background:new 0 0 128 128;" xml:space="preserve">
<style type="text/css">
	.st0{fill:none;stroke:#E5AD2A;stroke-width:2.9146;stroke-linecap:round;stroke-linejoin:round;stroke-miterlimit:10;}
</style>
<g>
	<path class="st0" d="M118,19.1H10c-4,0-7.2,3.2-7.2,7.2v9h122.5v-9C125.2,22.3,122,19.1,118,19.1z"/>
	<path class="st0" d="M2.8,43.1v58.3c0,4,3.2,7.2,7.2,7.2H118c4,0,7.2-3.2,7.2-7.2V43.1"/>
	<circle class="st0" cx="30.7" cy="59.9" r="9.9"/>
	<path class="st0" d="M14.2,95.6V82c0-5.7,4.6-10.3,10.3-10.3h12.9c5.7,0,10.3,4.6,10.3,10.3"/>
	<line class="st0" x1="47.7" y1="86.1" x2="47.7" y2="96.9"/>
	<line class="st0" x1="53.1" y1="91.5" x2="42.3" y2="91.5"/>
	<line class="st0" x1="60.9" y1="56.9" x2="109.6" y2="56.9"/>
	<line class="st0" x1="60.9" y1="65.6" x2="109.6" y2="65.6"/>
	<line class="st0" x1="60.9" y1="74.3" x2="109.6" y2="74.3"/>
	<polygon class="st0" points="114.6,90 91.3,82.9 98.4,106.2 102.6,97.7 113.7,108.9 117.3,105.3 106.2,94.2 	"/>
	<circle class="st0" cx="13.1" cy="27.5" r="3.3"/>
	<circle class="st0" cx="26" cy="27.5" r="3.3"/>
	<circle class="st0" cx="38.8" cy="27.5" r="3.3"/>
</g>
</svg>
