<?xml version="1.0" encoding="utf-8"?>
<!-- Generator: Adobe Illustrator 21.0.0, SVG Export Plug-In . SVG Version: 6.00 Build 0)  -->
<svg version="1.1" id="Layer_1" xmlns="http://www.w3.org/2000/svg" xmlns:xlink="http://www.w3.org/1999/xlink" x="0px" y="0px"
	 viewBox="0 0 128 128" style="enable-background:new 0 0 128 128;" xml:space="preserve">
<style type="text/css">
	.st0{fill:none;stroke:#E5AD2A;stroke-width:2.5961;stroke-linecap:round;stroke-miterlimit:10;}
</style>
<g>
	<polygon class="st0" points="122.5,87.1 101.6,80.7 108,101.6 111.7,94 121.7,104 124.9,100.8 114.9,90.9 	"/>
	<path class="st0" d="M105.5,94l-0.9,4.7c-0.5,3-3.2,5.3-6.3,5.3H20.1c-3.1,0-5.7-2.2-6.3-5.3L4.5,51.3H114l-6.1,31"/>
	<line class="st0" x1="3.1" y1="43.7" x2="114.9" y2="43.7"/>
	<line class="st0" x1="20.8" y1="62" x2="46.3" y2="24"/>
	<circle class="st0" cx="19.9" cy="65.2" r="3"/>
	<g>
		<line class="st0" x1="97.8" y1="62" x2="72.3" y2="24"/>
		<circle class="st0" cx="99.8" cy="65.2" r="3"/>
	</g>
	<line class="st0" x1="21.1" y1="73.6" x2="25" y2="95.7"/>
	<line class="st0" x1="38.4" y1="61.4" x2="41.7" y2="95.7"/>
	<line class="st0" x1="81.9" y1="61.4" x2="78.6" y2="95.7"/>
	<line class="st0" x1="60" y1="61.4" x2="60" y2="95.4"/>
	<line class="st0" x1="98.9" y1="73.6" x2="95" y2="95.7"/>
</g>
</svg>
