<?xml version="1.0" encoding="utf-8"?>
<!-- Generator: Adobe Illustrator 21.0.0, SVG Export Plug-In . SVG Version: 6.00 Build 0)  -->
<svg version="1.1" id="Layer_1" xmlns="http://www.w3.org/2000/svg" xmlns:xlink="http://www.w3.org/1999/xlink" x="0px" y="0px"
	 viewBox="0 0 128 128" style="enable-background:new 0 0 128 128;" xml:space="preserve">
<style type="text/css">
	.st0{fill:none;stroke:#E5AD2A;stroke-width:2.9146;stroke-linecap:round;stroke-linejoin:round;stroke-miterlimit:10;}
	.st1{fill:#E5AD2A;}
	.st2{fill:none;stroke:#E5AD2A;stroke-width:2.0848;stroke-linecap:round;stroke-miterlimit:10;}
	.st3{fill:none;stroke:#E5AD2A;stroke-width:1.2155;stroke-linecap:round;stroke-miterlimit:10;}
	.st4{fill:none;stroke:#E5AD2A;stroke-width:0.8818;stroke-linecap:round;stroke-miterlimit:10;}
</style>
<g>
	<path class="st0" d="M70.2,104.5H32.4c-3.2,0-5.7-2.6-5.7-5.7V11.7c0-3.2,2.6-5.7,5.7-5.7h37.8c3.2,0,5.7,2.6,5.7,5.7v87.1
		C75.9,102,73.4,104.5,70.2,104.5z"/>
	<g>
		<g>
			<path class="st1" d="M34.2,79.1c-0.3,0-0.6,0-0.9-0.1c-0.3-0.1-0.5-0.1-0.7-0.2v-1.1h0.1c0.2,0.2,0.5,0.3,0.7,0.4
				c0.3,0.1,0.5,0.2,0.8,0.2c0.1,0,0.1,0,0.3,0c0.1,0,0.2,0,0.3-0.1c0.1,0,0.1-0.1,0.2-0.1s0.1-0.1,0.1-0.2c0-0.1,0-0.2-0.1-0.3
				c-0.1-0.1-0.2-0.1-0.3-0.2c-0.2,0-0.3-0.1-0.5-0.1s-0.3-0.1-0.5-0.1c-0.3-0.1-0.6-0.3-0.7-0.5s-0.2-0.5-0.2-0.8
				c0-0.4,0.2-0.8,0.5-1c0.4-0.3,0.8-0.4,1.3-0.4c0.3,0,0.5,0,0.8,0.1c0.3,0.1,0.5,0.1,0.7,0.2v1h-0.1c-0.2-0.1-0.4-0.3-0.6-0.4
				c-0.2-0.1-0.5-0.1-0.7-0.1c-0.1,0-0.2,0-0.3,0c-0.1,0-0.2,0-0.2,0.1c-0.1,0-0.1,0.1-0.2,0.1s-0.1,0.1-0.1,0.2
				c0,0.1,0,0.2,0.1,0.3s0.2,0.1,0.5,0.2c0.2,0,0.3,0.1,0.4,0.1s0.3,0.1,0.4,0.1c0.3,0.1,0.5,0.3,0.7,0.5c0.2,0.2,0.2,0.4,0.2,0.8
				c0,0.4-0.2,0.8-0.5,1.1C35.3,78.9,34.8,79.1,34.2,79.1z"/>
			<path class="st1" d="M40.7,76.7c0,0.4-0.1,0.8-0.3,1.1c-0.2,0.3-0.4,0.6-0.7,0.8c-0.2,0.2-0.5,0.2-0.8,0.3
				c-0.3,0-0.6,0.1-0.9,0.1h-1.4v-4.5h1.4c0.3,0,0.6,0,0.9,0.1c0.3,0,0.5,0.1,0.8,0.3c0.3,0.2,0.5,0.4,0.7,0.8S40.7,76.3,40.7,76.7z
				 M39.6,76.7c0-0.3-0.1-0.5-0.2-0.8s-0.3-0.4-0.5-0.5c-0.2-0.1-0.3-0.1-0.5-0.1c-0.2,0-0.4,0-0.6,0h0v2.8h0c0.3,0,0.5,0,0.6,0
				s0.3-0.1,0.5-0.2c0.2-0.1,0.3-0.3,0.4-0.5C39.5,77.3,39.6,77,39.6,76.7z"/>
		</g>
		<g>
			<path class="st1" d="M46.4,76.7c0,0.4,0,0.7-0.1,1s-0.2,0.5-0.3,0.7c-0.1,0.2-0.3,0.3-0.5,0.4c-0.2,0.1-0.5,0.1-0.8,0.1
				c-0.3,0-0.6,0-0.8-0.1c-0.2-0.1-0.4-0.2-0.5-0.4c-0.1-0.2-0.2-0.4-0.3-0.7c-0.1-0.3-0.1-0.6-0.1-1c0-0.4,0-0.7,0.1-1
				c0.1-0.3,0.2-0.5,0.3-0.7c0.1-0.2,0.3-0.3,0.5-0.4c0.2-0.1,0.5-0.1,0.8-0.1c0.3,0,0.6,0.1,0.8,0.2c0.2,0.1,0.4,0.3,0.5,0.5
				c0.1,0.2,0.2,0.4,0.3,0.7C46.4,76,46.4,76.4,46.4,76.7z M45.3,76.7c0-0.6,0-0.9-0.1-1.2c-0.1-0.2-0.2-0.3-0.5-0.3
				c-0.2,0-0.4,0.1-0.5,0.3c-0.1,0.2-0.1,0.6-0.1,1.2c0,0.5,0,0.9,0.1,1.2c0.1,0.2,0.2,0.3,0.5,0.3c0.2,0,0.4-0.1,0.5-0.3
				C45.2,77.7,45.3,77.3,45.3,76.7z"/>
			<path class="st1" d="M50.3,76.7c0,0.4,0,0.7-0.1,1s-0.2,0.5-0.3,0.7c-0.1,0.2-0.3,0.3-0.5,0.4c-0.2,0.1-0.5,0.1-0.8,0.1
				c-0.3,0-0.6,0-0.8-0.1c-0.2-0.1-0.4-0.2-0.5-0.4C47.1,78.3,47,78,47,77.8c-0.1-0.3-0.1-0.6-0.1-1c0-0.4,0-0.7,0.1-1
				c0.1-0.3,0.2-0.5,0.3-0.7c0.1-0.2,0.3-0.3,0.5-0.4c0.2-0.1,0.5-0.1,0.8-0.1c0.3,0,0.6,0.1,0.8,0.2c0.2,0.1,0.4,0.3,0.5,0.5
				c0.1,0.2,0.2,0.4,0.3,0.7C50.3,76,50.3,76.4,50.3,76.7z M49.2,76.7c0-0.6,0-0.9-0.1-1.2c-0.1-0.2-0.2-0.3-0.5-0.3
				c-0.2,0-0.4,0.1-0.5,0.3C48,75.8,48,76.2,48,76.7c0,0.5,0,0.9,0.1,1.2c0.1,0.2,0.2,0.3,0.5,0.3c0.2,0,0.4-0.1,0.5-0.3
				C49.1,77.7,49.2,77.3,49.2,76.7z"/>
			<path class="st1" d="M54.2,76.7c0,0.4,0,0.7-0.1,1s-0.2,0.5-0.3,0.7c-0.1,0.2-0.3,0.3-0.5,0.4c-0.2,0.1-0.5,0.1-0.8,0.1
				c-0.3,0-0.6,0-0.8-0.1c-0.2-0.1-0.4-0.2-0.5-0.4c-0.1-0.2-0.2-0.4-0.3-0.7c-0.1-0.3-0.1-0.6-0.1-1c0-0.4,0-0.7,0.1-1
				c0.1-0.3,0.2-0.5,0.3-0.7c0.1-0.2,0.3-0.3,0.5-0.4c0.2-0.1,0.5-0.1,0.8-0.1c0.3,0,0.6,0.1,0.8,0.2c0.2,0.1,0.4,0.3,0.5,0.5
				c0.1,0.2,0.2,0.4,0.3,0.7C54.2,76,54.2,76.4,54.2,76.7z M53.1,76.7c0-0.6,0-0.9-0.1-1.2c-0.1-0.2-0.2-0.3-0.5-0.3
				c-0.2,0-0.4,0.1-0.5,0.3c-0.1,0.2-0.1,0.6-0.1,1.2c0,0.5,0,0.9,0.1,1.2c0.1,0.2,0.2,0.3,0.5,0.3c0.2,0,0.4-0.1,0.5-0.3
				C53.1,77.7,53.1,77.3,53.1,76.7z"/>
			<path class="st1" d="M58.2,76.7c0,0.4,0,0.7-0.1,1s-0.2,0.5-0.3,0.7c-0.1,0.2-0.3,0.3-0.5,0.4c-0.2,0.1-0.5,0.1-0.8,0.1
				c-0.3,0-0.6,0-0.8-0.1c-0.2-0.1-0.4-0.2-0.5-0.4c-0.1-0.2-0.2-0.4-0.3-0.7c-0.1-0.3-0.1-0.6-0.1-1c0-0.4,0-0.7,0.1-1
				c0.1-0.3,0.2-0.5,0.3-0.7c0.1-0.2,0.3-0.3,0.5-0.4c0.2-0.1,0.5-0.1,0.8-0.1c0.3,0,0.6,0.1,0.8,0.2c0.2,0.1,0.4,0.3,0.5,0.5
				c0.1,0.2,0.2,0.4,0.3,0.7C58.1,76,58.2,76.4,58.2,76.7z M57,76.7c0-0.6,0-0.9-0.1-1.2c-0.1-0.2-0.2-0.3-0.5-0.3
				c-0.2,0-0.4,0.1-0.5,0.3c-0.1,0.2-0.1,0.6-0.1,1.2c0,0.5,0,0.9,0.1,1.2c0.1,0.2,0.2,0.3,0.5,0.3c0.2,0,0.4-0.1,0.5-0.3
				C57,77.7,57,77.3,57,76.7z"/>
			<path class="st1" d="M62.1,76.7c0,0.4,0,0.7-0.1,1s-0.2,0.5-0.3,0.7c-0.1,0.2-0.3,0.3-0.5,0.4c-0.2,0.1-0.5,0.1-0.8,0.1
				c-0.3,0-0.6,0-0.8-0.1c-0.2-0.1-0.4-0.2-0.5-0.4c-0.1-0.2-0.2-0.4-0.3-0.7c-0.1-0.3-0.1-0.6-0.1-1c0-0.4,0-0.7,0.1-1
				c0.1-0.3,0.2-0.5,0.3-0.7c0.1-0.2,0.3-0.3,0.5-0.4c0.2-0.1,0.5-0.1,0.8-0.1c0.3,0,0.6,0.1,0.8,0.2c0.2,0.1,0.4,0.3,0.5,0.5
				c0.1,0.2,0.2,0.4,0.3,0.7C62.1,76,62.1,76.4,62.1,76.7z M61,76.7c0-0.6,0-0.9-0.1-1.2c-0.1-0.2-0.2-0.3-0.5-0.3
				c-0.2,0-0.4,0.1-0.5,0.3c-0.1,0.2-0.1,0.6-0.1,1.2c0,0.5,0,0.9,0.1,1.2c0.1,0.2,0.2,0.3,0.5,0.3c0.2,0,0.4-0.1,0.5-0.3
				C60.9,77.7,61,77.3,61,76.7z"/>
			<path class="st1" d="M66,76.7c0,0.4,0,0.7-0.1,1s-0.2,0.5-0.3,0.7c-0.1,0.2-0.3,0.3-0.5,0.4c-0.2,0.1-0.5,0.1-0.8,0.1
				c-0.3,0-0.6,0-0.8-0.1c-0.2-0.1-0.4-0.2-0.5-0.4c-0.1-0.2-0.2-0.4-0.3-0.7c-0.1-0.3-0.1-0.6-0.1-1c0-0.4,0-0.7,0.1-1
				c0.1-0.3,0.2-0.5,0.3-0.7c0.1-0.2,0.3-0.3,0.5-0.4c0.2-0.1,0.5-0.1,0.8-0.1c0.3,0,0.6,0.1,0.8,0.2c0.2,0.1,0.4,0.3,0.5,0.5
				c0.1,0.2,0.2,0.4,0.3,0.7C66,76,66,76.4,66,76.7z M64.9,76.7c0-0.6,0-0.9-0.1-1.2c-0.1-0.2-0.2-0.3-0.5-0.3
				c-0.2,0-0.4,0.1-0.5,0.3c-0.1,0.2-0.1,0.6-0.1,1.2c0,0.5,0,0.9,0.1,1.2c0.1,0.2,0.2,0.3,0.5,0.3c0.2,0,0.4-0.1,0.5-0.3
				C64.9,77.7,64.9,77.3,64.9,76.7z"/>
			<path class="st1" d="M70,77.7c0,0.2,0,0.4-0.1,0.5c-0.1,0.2-0.2,0.3-0.3,0.4c-0.2,0.1-0.3,0.2-0.6,0.3c-0.2,0.1-0.5,0.1-0.8,0.1
				c-0.3,0-0.6,0-0.8-0.1s-0.4-0.2-0.6-0.3c-0.1-0.1-0.2-0.3-0.3-0.4s-0.1-0.3-0.1-0.5c0-0.3,0.1-0.5,0.2-0.6s0.3-0.3,0.6-0.4v0
				c-0.3-0.1-0.4-0.3-0.6-0.5s-0.2-0.4-0.2-0.6c0-0.2,0-0.3,0.1-0.5s0.2-0.3,0.3-0.4c0.1-0.1,0.3-0.2,0.5-0.3s0.4-0.1,0.7-0.1
				c0.3,0,0.5,0,0.7,0.1c0.2,0.1,0.4,0.1,0.5,0.2c0.1,0.1,0.2,0.2,0.3,0.4s0.1,0.3,0.1,0.5c0,0.2-0.1,0.4-0.2,0.6
				c-0.1,0.2-0.3,0.3-0.6,0.4v0c0.3,0.1,0.5,0.3,0.7,0.5C69.9,77.2,70,77.5,70,77.7z M68.9,77.8c0-0.1,0-0.3-0.1-0.3
				s-0.2-0.2-0.4-0.3c-0.1,0-0.1-0.1-0.3-0.1C68,77,67.9,77,67.9,77c-0.1,0.1-0.1,0.2-0.2,0.3s-0.1,0.2-0.1,0.4
				c0,0.2,0.1,0.4,0.2,0.5c0.1,0.1,0.3,0.2,0.5,0.2c0.1,0,0.1,0,0.2,0c0.1,0,0.1,0,0.2-0.1c0.1,0,0.1-0.1,0.2-0.2
				S68.9,77.9,68.9,77.8z M68.8,75.7c0-0.2-0.1-0.3-0.2-0.4c-0.1-0.1-0.2-0.1-0.4-0.1c-0.2,0-0.3,0-0.4,0.1s-0.2,0.2-0.2,0.3
				c0,0.1,0,0.2,0.1,0.3c0.1,0.1,0.2,0.1,0.3,0.2c0.1,0,0.1,0.1,0.2,0.1c0.1,0,0.2,0.1,0.3,0.1c0.1-0.1,0.1-0.2,0.2-0.3
				S68.8,75.8,68.8,75.7z"/>
		</g>
	</g>
	<line class="st2" x1="32.8" y1="40.2" x2="32.8" y2="69.6"/>
	<line class="st2" x1="36.9" y1="40.2" x2="36.9" y2="69.6"/>
	<line class="st3" x1="41" y1="39.8" x2="41" y2="70.1"/>
	<line class="st4" x1="45.1" y1="39.8" x2="45.1" y2="70.1"/>
	<line class="st2" x1="49.2" y1="40.2" x2="49.2" y2="69.6"/>
	<line class="st3" x1="53.3" y1="39.8" x2="53.3" y2="70.1"/>
	<line class="st2" x1="57.5" y1="40.2" x2="57.5" y2="69.6"/>
	<line class="st2" x1="61.6" y1="40.2" x2="61.6" y2="69.6"/>
	<line class="st3" x1="65.7" y1="39.8" x2="65.7" y2="70.1"/>
	<line class="st3" x1="69.8" y1="39.8" x2="69.8" y2="70.1"/>
	<path class="st0" d="M37.3,6.9v0.3c0,1.8,1.4,3.2,3.2,3.2h22c1.8,0,3.2-1.4,3.2-3.2V6.9"/>
	<path class="st0" d="M82,71.8v-22c0,0-5.9-11.9-5.8-12.3S75,26.9,82.8,27.1l11.9,18.6l9.4,26.5v36.5l10.1,12.9"/>
	<line class="st0" x1="60.8" y1="122" x2="47.1" y2="104.5"/>
	<path class="st0" d="M21.9,61.8h-1.1c-2.6,0-4.7-2.1-4.7-4.7v-2.5c0-2.6,2.1-4.7,4.7-4.7h1.1c2.6,0,4.7,2.1,4.7,4.7v2.5
		C26.6,59.7,24.5,61.8,21.9,61.8z"/>
	<path class="st0" d="M21.9,77.3h-1.1c-2.6,0-4.7-2.1-4.7-4.7v-2.5c0-2.6,2.1-4.7,4.7-4.7h1.1c2.6,0,4.7,2.1,4.7,4.7v2.5
		C26.6,75.2,24.5,77.3,21.9,77.3z"/>
	<path class="st0" d="M22.6,91.4h-0.7c-2.2,0-4-1.8-4-4V85c0-2.2,1.8-4,4-4h0.7c2.2,0,4,1.8,4,4v2.4C26.6,89.6,24.8,91.4,22.6,91.4z
		"/>
	<path class="st0" d="M25.9,32c0,0-10.3-2.3-11.7,1.6c-2.9,9,11.3,11.7,11.4,11.3"/>
</g>
</svg>
