<?xml version="1.0" encoding="utf-8"?>
<!-- Generator: Adobe Illustrator 21.0.0, SVG Export Plug-In . SVG Version: 6.00 Build 0)  -->
<svg version="1.1" id="Layer_1" xmlns="http://www.w3.org/2000/svg" xmlns:xlink="http://www.w3.org/1999/xlink" x="0px" y="0px"
	 viewBox="0 0 128 128" style="enable-background:new 0 0 128 128;" xml:space="preserve">
<style type="text/css">
	.st0{fill:none;stroke:#E5AD2A;stroke-width:2.9146;stroke-linecap:round;stroke-linejoin:round;stroke-miterlimit:10;}
</style>
<g>
	<g>
		<path class="st0" d="M112.7,76.6c-0.5,2.7-2.8,4.6-5.5,4.6H38.7c-2.7,0-5-1.9-5.5-4.6L25,35h95.9L112.7,76.6z"/>
		<line class="st0" x1="23.8" y1="28.4" x2="121.7" y2="28.4"/>
		<circle class="st0" cx="41.7" cy="107.5" r="3.3"/>
		<g>
			<circle class="st0" cx="84" cy="107.5" r="3.3"/>
		</g>
		<line class="st0" x1="39.6" y1="54.6" x2="43" y2="73.9"/>
		<line class="st0" x1="54.7" y1="43.9" x2="57.6" y2="73.9"/>
		<line class="st0" x1="92.8" y1="43.9" x2="90" y2="73.9"/>
		<line class="st0" x1="73.7" y1="43.9" x2="73.7" y2="73.6"/>
		<line class="st0" x1="107.7" y1="54.6" x2="104.3" y2="73.9"/>
		<path class="st0" d="M6.3,13.5h9.1c3,0,5.6,2.2,6.2,5.1l14.1,72.6c0.7,3.7,3.9,6.3,7.7,6.3h40.9"/>
	</g>
	<polygon class="st0" points="118.6,95.6 95.3,88.4 102.4,111.8 106.6,103.3 117.8,114.5 121.3,110.9 110.2,99.8 	"/>
</g>
</svg>
