<?xml version="1.0" encoding="utf-8"?>
<!-- Generator: Adobe Illustrator 21.0.0, SVG Export Plug-In . SVG Version: 6.00 Build 0)  -->
<svg version="1.1" id="Layer_1" xmlns="http://www.w3.org/2000/svg" xmlns:xlink="http://www.w3.org/1999/xlink" x="0px" y="0px"
	 viewBox="0 0 128 128" style="enable-background:new 0 0 128 128;" xml:space="preserve">
<style type="text/css">
	.st0{fill:none;stroke:#E5AD2A;stroke-width:2.9146;stroke-linecap:round;stroke-linejoin:round;stroke-miterlimit:10;}
	.st1{fill:#E5AD2A;}
	.st2{font-family:'Tahoma-Bold';}
	.st3{font-size:7.6861px;}
	.st4{fill:none;stroke:#E5AD2A;stroke-width:2.5961;stroke-linecap:round;stroke-miterlimit:10;}
	.st5{fill:none;stroke:#E5AD2A;stroke-width:1.5136;stroke-linecap:round;stroke-miterlimit:10;}
	.st6{fill:none;stroke:#E5AD2A;stroke-width:1.098;stroke-linecap:round;stroke-miterlimit:10;}
</style>
<g>
	<path class="st0" d="M87.6,125.4H40.4c-3.9,0-7.1-3.2-7.1-7.1V9.8c0-3.9,3.2-7.1,7.1-7.1h47.1c3.9,0,7.1,3.2,7.1,7.1v108.5
		C94.7,122.2,91.5,125.4,87.6,125.4z"/>
	<g>
		<text transform="matrix(1 0 0 1 40.443 93.5349)" class="st1 st2 st3">SD</text>
		<text transform="matrix(1 0 0 1 53.2994 93.5349)" class="st1 st2 st3">0000008</text>
	</g>
	<line class="st4" x1="41" y1="45.2" x2="41" y2="81.8"/>
	<line class="st4" x1="46.1" y1="45.2" x2="46.1" y2="81.8"/>
	<line class="st5" x1="51.2" y1="44.8" x2="51.2" y2="82.4"/>
	<line class="st6" x1="56.3" y1="44.8" x2="56.3" y2="82.4"/>
	<line class="st4" x1="61.4" y1="45.2" x2="61.4" y2="81.8"/>
	<line class="st5" x1="66.6" y1="44.8" x2="66.6" y2="82.4"/>
	<line class="st4" x1="71.7" y1="45.2" x2="71.7" y2="81.8"/>
	<line class="st4" x1="76.8" y1="45.2" x2="76.8" y2="81.8"/>
	<line class="st5" x1="81.9" y1="44.8" x2="81.9" y2="82.4"/>
	<line class="st5" x1="87" y1="44.8" x2="87" y2="82.4"/>
	<path class="st0" d="M46.6,3.4v0.7c0,2.2,1.8,4,4,4H78c2.2,0,4-1.8,4-4V3.4"/>
</g>
</svg>
