<svg height="512px" style="enable-background:new 0 0 512 512;" version="1.1" viewBox="0 0 512 512" width="512px" xml:space="preserve" xmlns="http://www.w3.org/2000/svg" xmlns:xlink="http://www.w3.org/1999/xlink">
	<path fill="#DA4B42" d="M317.686,229.75c1.752,9.361,2.709,19.162,2.709,29.398C320.395,339.125,266.852,396,186,396c-77.349,0-140-62.651-140-140  s62.651-140,140-140c37.803,0,69.385,13.911,93.627,36.487l-39.469,39.465v-0.09c-14.697-14.001-33.333-21.174-54.158-21.174  c-46.198,0-83.736,39.024-83.736,85.227c0,46.194,37.538,85.312,83.736,85.312c41.913,0,70.436-23.977,76.307-56.875H186V229.75  H317.686z M422.25,238.5v-43.75h-35v43.75H343.5v35h43.75v43.75h35V273.5H466v-35H422.25z"></path></svg>