<svg xmlns="http://www.w3.org/2000/svg" viewBox="0 0 56 30"><path style="fill-rule:evenodd;clip-rule:evenodd;fill:#e4c745;" d="m33.1 0.4h9.8c7.5 0 13.7 6.1 13.7 13.7 0 7.5-6.1 13.7-13.7 13.7H33.1 33v0h-0.1v0c-2 0-3.6-1.6-3.6-3.6V24 15.6h10.3c0.6 1.3 1.8 2.2 3.3 2.2 2 0 3.6-1.6 3.6-3.6 0-2-1.6-3.6-3.6-3.6-1.5 0-2.8 0.9-3.3 2.2H29.3V4.4 4.2c0-2 1.6-3.6 3.6-3.6v0h0.2z"/><path style="fill-rule:evenodd;clip-rule:evenodd;fill:#FFFFFF;" d="m0.3 14.1v0 0V4 4C0.3 2 1.9 0.4 3.9 0.4v0H24c2 0 3.6 1.6 3.6 3.6V4C27.6 6 26 7.6 24 7.6H14.4C13.8 6.3 12.6 5.4 11.1 5.4 9.1 5.4 7.5 7 7.5 9c0 2 1.6 3.6 3.6 3.6 1.5 0 2.8-0.9 3.3-2.2H24v0h0.1v0h0.1v0h0.1v0h0.1v0h0.1v0h0.1v0h0.1v0h0.1v0h0.1v0H25v0h0.1v0h0.1v0h0.1v0h0.1v0h0.1v0h0.1v0h0.1v0h0.1v0h0.1v0H26v0h0.1v0h0.1v0h0.1v0h0.1v0h0.1v0l0.1 0.1v0l0.1 0.1v0l0.1 0.1v0l0.1 0.1v0l0.1 0.1v0l0.1 0.1v0l0.1 0.1v0l0.1 0.1v0l0.1 0.1v0l0.1 0.1v0l0.1 0.1v0l0.1 0.1v0l0.1 0.1v0l0.1 0.1v0 0.1 0 0.1 0 0.1 0 0.1 0 0.1 0 0.1 0 0.1 0 0.1 0 0.1 0 0.1 0 0.1 0 0.1 0 0.1 0 0.1 0 0.1 0 0.1 0 0.1 0 0.1 0 0.1 0 0.1 0 0.1 0 0.1 0 0.1 0 0.1 0 0.1 0 0 10.1 0c0 2-1.6 3.6-3.6 3.6v0H3.9c-2 0-3.6-1.6-3.6-3.6v0c0-2 1.6-3.6 3.6-3.6h9.6c0.5 1.3 1.8 2.2 3.4 2.2 2 0 3.6-1.6 3.6-3.6 0-2-1.6-3.6-3.6-3.6-1.5 0-2.7 0.9-3.3 2.1H3.9v0H3.8v0H3.7v0H3.6v0H3.5v0H3.4v0H3.3v0H3.2v0H3.1v0H3v0H2.9v0H2.8v0H2.7v0H2.6v0H2.5v0H2.4v0H2.3v0H2.2v0H2.1v0H2v0H1.9v0H1.8v0H1.7v0H1.6v0H1.5v0H1.4v0L1.3 17.8v0L1.2 17.7v0L1.1 17.6v0L1 17.5v0L0.9 17.4v0L0.8 17.3v0L0.7 17.2v0L0.6 17.1v0L0.5 17v0L0.4 16.9v0L0.3 16.8v0L0.2 16.7v0L0.1 16.6v0L0 16.5v0-0.1 0-0.1 0-0.1 0-0.1 0-0.1 0-0.1 0-0.1 0-0.1 0-0.1 0-0.1 0-0.1 0-0.1 0-0.1 0-0.1 0-0.1 0-0.1 0-0.1 0-0.1 0-0.1 0-0.1 0-0.1 0-0.1 0-0.1 0z"/></svg>
