<svg version="1.1" xmlns="http://www.w3.org/2000/svg" xmlns:xlink="http://www.w3.org/1999/xlink" x="0px" y="0px"
	 viewBox="0 0 112.2 112.2" xml:space="preserve">
<g>
	<g>
		<g>
			<circle fill="#F7931E" cx="56.1" cy="56.1" r="56.1"/>
		</g>
	</g>
	<path fill="#fff" d="M56.1,15.9c-11.2,0-20.4,9.1-20.4,20.4c0,11.2,9.1,20.4,20.4,20.4s20.4-9.1,20.4-20.4
		C76.5,25,67.3,15.9,56.1,15.9z M56.1,44.7c-4.6,0-8.4-3.8-8.4-8.4s3.8-8.4,8.4-8.4s8.4,3.8,8.4,8.4S60.7,44.7,56.1,44.7z"/>
	<path fill="#fff" d="M63.6,72.8c8.2-1.7,13-5.5,13.3-5.7c2.4-1.9,2.8-5.4,0.9-7.8c-1.9-2.4-5.4-2.8-7.8-0.9c-0.1,0-5.3,4-13.8,4
		c-8.6,0-13.9-4-13.9-4c-2.4-1.9-5.9-1.5-7.8,0.9c-1.9,2.4-1.5,5.9,0.9,7.8c0.3,0.2,5.3,4.2,13.7,5.8L37.3,85.1
		c-2.1,2.2-2.1,5.7,0.1,7.8c1.1,1,2.5,1.6,3.8,1.6c1.5,0,2.9-0.6,4-1.7l10.9-11.6l11.9,11.6c2.2,2.2,5.7,2.2,7.8,0
		c2.2-2.2,2.2-5.7,0-7.8L63.6,72.8z"/>
</g>
</svg>
