<svg version="1.1" xmlns="http://www.w3.org/2000/svg" xmlns:xlink="http://www.w3.org/1999/xlink" x="0px" y="0px"
	 viewBox="0 0 81.6 81.6"  xml:space="preserve">
<g>
	<path fill-rule="evenodd" clip-rule="evenodd" fill="#E4C745" d="M44.6,27h9.8c7.5,0,13.7,6.1,13.7,13.7c0,7.5-6.1,13.7-13.7,13.7h-9.8l-0.1,0h0l-0.1,0h0c-2,0-3.6-1.6-3.6-3.6
		v-0.2v-8.4h10.3c0.6,1.3,1.8,2.2,3.3,2.2c2,0,3.6-1.6,3.6-3.6c0-2-1.6-3.6-3.6-3.6c-1.5,0-2.8,0.9-3.3,2.2H40.9v-8.4v-0.2
		c0-2,1.6-3.6,3.6-3.6h0H44.6L44.6,27L44.6,27L44.6,27z"/>
	<path fill-rule="evenodd" clip-rule="evenodd" fill="#fff" d="M11.8,40.6L11.8,40.6L11.8,40.6V30.6v0c0-2,1.6-3.6,3.6-3.6h0h20.1c2,0,3.6,1.6,3.6,3.6v0c0,2-1.6,3.6-3.6,3.6
		h-9.6c-0.6-1.3-1.8-2.2-3.3-2.2c-2,0-3.6,1.6-3.6,3.6c0,2,1.6,3.6,3.6,3.6c1.5,0,2.8-0.9,3.3-2.2h9.6v0h0.1v0l0.1,0v0l0.1,0v0
		l0.1,0v0l0.1,0v0l0.1,0v0l0.1,0v0l0.1,0v0l0.1,0v0l0.1,0v0l0.1,0v0l0.1,0v0l0.1,0v0l0.1,0v0l0.1,0v0l0.1,0v0l0.1,0v0l0.1,0v0l0.1,0
		v0l0.1,0v0l0.1,0v0l0.1,0v0l0.1,0v0l0.1,0v0l0.1,0v0l0.1,0.1v0l0.1,0.1v0l0.1,0.1v0l0.1,0.1v0L38,38v0L38,38v0l0.1,0.1v0l0.1,0.1v0
		l0.1,0.1v0l0.1,0.1v0l0.1,0.1v0l0.1,0.1v0l0.1,0.1v0l0.1,0.1v0l0,0.1v0l0,0.1v0l0,0.1v0l0,0.1v0l0,0.1v0l0,0.1v0l0,0.1v0l0,0.1v0
		l0,0.1v0l0,0.1v0l0,0.1v0l0,0.1v0l0,0.1v0l0,0.1v0l0,0.1v0l0,0.1v0l0,0.1v0l0,0.1v0l0,0.1v0l0,0.1v0l0,0.1v0l0,0.1v0l0,0.1v0l0,0.1
		v0l0,0.1v0v0v10.1v0c0,2-1.6,3.6-3.6,3.6h0H15.4c-2,0-3.6-1.6-3.6-3.6v0c0-2,1.6-3.6,3.6-3.6H25c0.5,1.3,1.8,2.2,3.4,2.2
		c2,0,3.6-1.6,3.6-3.6c0-2-1.6-3.6-3.6-3.6c-1.5,0-2.7,0.9-3.3,2.1h-9.7v0h-0.1v0l-0.1,0v0l-0.1,0v0l-0.1,0v0l-0.1,0v0l-0.1,0v0
		l-0.1,0v0l-0.1,0v0l-0.1,0v0l-0.1,0v0l-0.1,0v0l-0.1,0v0l-0.1,0v0l-0.1,0v0l-0.1,0v0l-0.1,0v0l-0.1,0v0l-0.1,0v0l-0.1,0v0l-0.1,0v0
		l-0.1,0v0l-0.1,0v0l-0.1,0v0l-0.1,0v0l-0.1,0v0l-0.1-0.1v0l-0.1-0.1v0l-0.1-0.1v0l-0.1-0.1v0L13,43.3v0L13,43.2v0l-0.1-0.1v0
		l-0.1-0.1v0L12.8,43v0L12.7,43v0l-0.1-0.1v0l-0.1-0.1v0l-0.1-0.1v0l-0.1-0.1v0l0-0.1v0l0-0.1v0l0-0.1v0l0-0.1v0l0-0.1v0l0-0.1v0
		l0-0.1v0l0-0.1v0l0-0.1v0l0-0.1v0l0-0.1v0l0-0.1v0l0-0.1v0l0-0.1v0l0-0.1v0l0-0.1v0l0-0.1v0l0-0.1v0l0-0.1v0l0-0.1v0l0-0.1v0l0-0.1
		v0l0-0.1v0L11.8,40.6L11.8,40.6L11.8,40.6L11.8,40.6z"/>
	<circle fill="none" stroke="#FFFFFF" stroke-miterlimit="10" cx="40.8" cy="40.8" r="40.3"/>
</g>
</svg>
