<svg xmlns="http://www.w3.org/2000/svg" width="97.278526mm" height="7.7622132mm" viewBox="0 0 97.278526 7.7622132" version="1.1" id="svg3775"><defs id="defs3769"/><g id="layer1" transform="translate(-5.5712741,-9.242112)"><path d="m 93.978818,10.621252 c -0.330729,0 -0.601927,0.271198 -0.601927,0.601927 v 3.800078 c 0,0.330729 0.271198,0.601927 0.601927,0.601927 h 2.599531 c 0.327422,0 0.59862,-0.271198 0.59862,-0.601927 0,-0.330729 -0.271198,-0.59862 -0.59862,-0.59862 h -2.000912 v -0.701145 h 2.000912 c 0.327422,0 0.59862,-0.271198 0.59862,-0.59862 0,-0.330729 -0.271198,-0.601927 -0.59862,-0.601927 h -2.000912 v -0.697839 h 2.000912 c 0.327422,0 0.59862,-0.271198 0.59862,-0.601927 0,-0.330729 -0.271198,-0.601927 -0.59862,-0.601927 z m 7.669612,1.203854 v 0.697839 h -2.599534 v -0.697839 z m -3.800081,-0.601927 v 3.800078 c 0,0.330729 0.271198,0.601927 0.601927,0.601927 0.330729,0 0.59862,-0.271198 0.59862,-0.601927 v -1.299765 h 1.051724 l 1.72309,1.726406 c 0.23482,0.234818 0.61847,0.23151 0.84998,0 0.23481,-0.234818 0.23481,-0.615156 0,-0.849974 l -0.87313,-0.876432 h 0.46302 0.0298 l 0.0331,-0.0033 0.0265,-0.0033 0.0298,-0.0066 0.0298,-0.0099 0.0298,-0.0066 0.0264,-0.0099 0.0265,-0.01323 0.0265,-0.0099 0.0265,-0.01654 0.0232,-0.01323 0.0265,-0.01654 0.0198,-0.01654 0.0231,-0.01984 0.0232,-0.01984 0.0199,-0.01984 0.0198,-0.01984 0.0165,-0.02315 0.0198,-0.02315 0.0132,-0.02315 0.0165,-0.02646 0.0132,-0.02646 0.0132,-0.02646 0.0132,-0.02646 0.003,-0.01323 0.01,-0.02646 0.0132,-0.04299 0.007,-0.02977 0.003,-0.02976 0.003,-0.02977 v -0.02977 -1.918229 c 0,-0.330729 -0.26789,-0.59862 -0.59862,-0.59862 h -3.800074 c -0.330729,0 -0.601927,0.267891 -0.601927,0.59862 z m -14.175052,-0.59862 c -0.330729,0 -0.59862,0.267891 -0.59862,0.59862 v 3.800078 c 0,0.330729 0.271198,0.601927 0.59862,0.601927 0.330729,0 0.601927,-0.271198 0.601927,-0.601927 v -3.198151 h 2.599531 v 3.198151 c 0,0.330729 0.271198,0.601927 0.59862,0.601927 0.330729,0 0.601927,-0.271198 0.601927,-0.601927 v -3.800078 c 0,-0.330729 -0.271198,-0.59862 -0.601927,-0.59862 z m 8.430286,0 H 89.33538 c -0.330729,0 -0.601927,0.267891 -0.601927,0.59862 0,0.330729 0.271198,0.601927 0.601927,0.601927 h 0.783828 v 3.198151 c 0,0.330729 0.271198,0.601927 0.601927,0.601927 0.327422,0 0.59862,-0.271198 0.59862,-0.601927 v -3.198151 h 0.783828 c 0.330729,0 0.601927,-0.271198 0.601927,-0.601927 0,-0.330729 -0.271198,-0.59862 -0.601927,-0.59862 z m -14.085755,0 c -0.330729,0 -0.601927,0.267891 -0.601927,0.59862 v 3.800078 c 0,0.330729 0.271198,0.601927 0.601927,0.601927 h 3.800078 c 0.330729,0 0.601927,-0.271198 0.601927,-0.601927 v -3.800078 c 0,-0.330729 -0.271198,-0.59862 -0.601927,-0.59862 -0.330729,0 -0.601927,0.267891 -0.601927,0.59862 v 3.201458 h -2.596224 v -3.201458 c 0,-0.330729 -0.271198,-0.59862 -0.601927,-0.59862 z m -2.470547,1.200547 v 2.599531 H 72.94775 v -2.599531 z m -3.201458,-1.200547 c -0.330729,0 -0.59862,0.267891 -0.59862,0.59862 v 3.800078 c 0,0.330729 0.267891,0.601927 0.59862,0.601927 h 3.800078 c 0.330729,0 0.601927,-0.271198 0.601927,-0.601927 v -3.800078 c 0,-0.330729 -0.271198,-0.59862 -0.601927,-0.59862 z m -4.831953,0 c -0.327422,0 -0.59862,0.267891 -0.59862,0.59862 v 3.800078 c 0,0.330729 0.271198,0.601927 0.601927,0.601927 h 2.940182 c 0.33073,0 0.601927,-0.271198 0.601927,-0.601927 0,-0.330729 -0.271197,-0.59862 -0.601927,-0.59862 h -2.341562 v -2.599531 h 2.341562 c 0.33073,0 0.601927,-0.271198 0.601927,-0.601927 0,-0.330729 -0.271197,-0.59862 -0.601927,-0.59862 z m -6.264011,0.59862 v 1.931458 0.01323 l 0.0033,0.03307 0.0066,0.02646 0.0033,0.02976 0.0099,0.02977 0.0066,0.02977 0.0099,0.02646 0.01323,0.02646 0.01323,0.02646 0.01323,0.02646 0.01323,0.02315 0.01654,0.02646 0.01984,0.01984 0.01654,0.02315 0.01984,0.02315 0.01984,0.01984 0.02315,0.01984 0.01984,0.01654 0.02315,0.01984 0.02646,0.01654 0.02315,0.01323 0.02646,0.01323 0.02646,0.01323 0.02646,0.01323 0.02646,0.0099 0.02977,0.0066 0.02646,0.0099 0.02977,0.0033 0.02977,0.0066 0.02977,0.0033 h 0.02977 3.217994 v 0.701145 h -3.201458 c -0.327422,0 -0.59862,0.267891 -0.59862,0.59862 0,0.330729 0.271198,0.601927 0.59862,0.601927 h 3.803386 c 0.330729,0 0.598619,-0.271198 0.598619,-0.601927 V 13.10825 13.07849 l -0.0033,-0.02977 -0.0033,-0.02977 -0.0066,-0.02977 -0.0099,-0.02977 -0.01323,-0.03969 -0.01654,-0.043 L 66.18432,12.85026 66.17109,12.82711 66.15786,12.80065 66.14132,12.7775 66.12148,12.75435 66.10494,12.7312 66.0851,12.71136 66.06526,12.69152 66.04542,12.67168 66.02227,12.65184 65.99912,12.6353 65.97266,12.61876 65.94951,12.60222 65.92305,12.58899 65.8999,12.57576 l -0.02977,-0.0099 -0.02646,-0.0099 -0.02977,-0.0099 -0.02646,-0.0066 -0.02977,-0.0066 -0.02977,-0.0033 -0.02976,-0.0033 -0.02977,-0.0033 h -3.217995 v -0.697839 h 3.201459 c 0.330729,0 0.598619,-0.271198 0.598619,-0.601927 0,-0.330729 -0.271198,-0.59862 -0.598619,-0.59862 h -3.803386 c -0.327422,0 -0.59862,0.267891 -0.59862,0.59862 z m -1.27,-0.59862 c -0.327422,0 -0.598619,0.267891 -0.598619,0.59862 v 3.800078 c 0,0.330729 0.271197,0.601927 0.601927,0.601927 0.327422,0 0.598619,-0.271198 0.598619,-0.601927 v -3.800078 c 0,-0.330729 -0.271197,-0.59862 -0.601927,-0.59862 z m -5.089922,1.174089 h 1.316303 c 0.727604,0 1.326224,0.59862 1.326224,1.326224 0,0.727604 -0.59862,1.326224 -1.326224,1.326224 h -1.316303 v -1.332839 c 0,-0.03307 0,-0.06615 0,-0.09922 0,-0.383645 0,-0.763984 0,-1.14763 z m -1.174088,1.14763 v 0.07276 c 0,0.03307 0,0.06615 0,0.09922 v 0.07607 c 0,0.59862 0,1.19724 0,1.795859 v 0.03307 c 0,0.330729 0.267891,0.605235 0.59862,0.601927 h 1.891771 c 1.375833,0 2.500312,-1.124479 2.500312,-2.500312 0,-1.375834 -1.124479,-2.500313 -2.500312,-2.500313 h -1.891771 c -0.330729,-0.0033 -0.59862,0.271198 -0.59862,0.59862 v 0.03638 c 0,0.56224 0,1.124479 0,1.686719" style="fill:#dbc335;fill-opacity:1;fill-rule:evenodd;stroke:none;stroke-width:0.03307291" id="path34"/><path d="m 45.209495,10.621252 c -0.330729,0 -0.601927,0.271198 -0.601927,0.601927 v 3.800078 c 0,0.330729 0.271198,0.601927 0.601927,0.601927 h 2.599531 c 0.327422,0 0.59862,-0.271198 0.59862,-0.601927 0,-0.327422 -0.271198,-0.59862 -0.59862,-0.59862 h -2.000911 v -0.701145 h 2.000911 c 0.327422,0 0.59862,-0.271198 0.59862,-0.59862 0,-0.330729 -0.271198,-0.601927 -0.59862,-0.601927 h -2.000911 v -0.697839 h 2.000911 c 0.327422,0 0.59862,-0.271198 0.59862,-0.601927 0,-0.330729 -0.271198,-0.601927 -0.59862,-0.601927 z m 3.862916,0.601927 c 0,0.330729 0.271198,0.601927 0.59862,0.601927 h 0.787136 v 3.198151 c 0,0.330729 0.26789,0.601927 0.598619,0.601927 0.33073,0 0.601928,-0.271198 0.601928,-0.601927 v -3.198151 h 0.783828 c 0.330729,0 0.601927,-0.271198 0.601927,-0.601927 0,-0.330729 -0.271198,-0.601927 -0.601927,-0.601927 h -2.771511 c -0.330729,0 -0.59862,0.271198 -0.59862,0.601927 z m -6.326849,0.601927 v 0.697839 h -2.599531 v -0.697839 z m -3.800078,-0.601927 v 3.800078 c 0,0.330729 0.267891,0.601927 0.59862,0.601927 0.330729,0 0.601927,-0.271198 0.601927,-0.601927 v -1.299765 h 1.051719 l 1.723099,1.726406 c 0.234818,0.234818 0.618463,0.234818 0.849974,0 0.234818,-0.234818 0.234818,-0.615156 0,-0.849974 l -0.876432,-0.876432 h 0.466328 0.02976 l 0.02977,-0.0033 0.02977,-0.0033 0.02976,-0.0066 0.02977,-0.0066 0.04299,-0.01654 0.03969,-0.01654 0.02646,-0.0099 0.02315,-0.01654 0.02646,-0.01323 0.02315,-0.01654 0.02315,-0.01654 0.02315,-0.01984 0.02315,-0.01984 0.01984,-0.01984 0.02646,-0.03307 0.01984,-0.02315 0.02315,-0.03307 0.01654,-0.02646 0.01323,-0.02646 0.01323,-0.02315 0.0099,-0.02977 0.0099,-0.02646 0.0099,-0.02977 0.0066,-0.02646 0.0066,-0.02977 0.0066,-0.02976 0.0033,-0.02977 v -0.02977 -1.918229 c 0,-0.330729 -0.271198,-0.601927 -0.601927,-0.601927 h -3.800078 c -0.330729,0 -0.59862,0.271198 -0.59862,0.601927 z m -4.206875,-0.601927 c -0.330729,0 -0.601927,0.271198 -0.601927,0.601927 v 3.800078 c 0,0.330729 0.271198,0.601927 0.601927,0.601927 h 2.940183 c 0.330729,0 0.601927,-0.271198 0.601927,-0.601927 0,-0.327422 -0.271198,-0.59862 -0.601927,-0.59862 h -2.341563 v -2.599531 h 2.341563 c 0.330729,0 0.601927,-0.271198 0.601927,-0.601927 0,-0.330729 -0.271198,-0.601927 -0.601927,-0.601927 z m -4.471458,0 c -0.330729,0 -0.601927,0.271198 -0.601927,0.601927 v 3.800078 c 0,0.330729 0.271198,0.601927 0.601927,0.601927 h 2.599531 c 0.327422,0 0.59862,-0.271198 0.59862,-0.601927 0,-0.327422 -0.271198,-0.59862 -0.59862,-0.59862 h -2.000911 v -0.701145 h 2.000911 c 0.327422,0 0.59862,-0.271198 0.59862,-0.59862 0,-0.330729 -0.271198,-0.601927 -0.59862,-0.601927 h -2.000911 v -0.697839 h 2.000911 c 0.327422,0 0.59862,-0.271198 0.59862,-0.601927 0,-0.330729 -0.271198,-0.601927 -0.59862,-0.601927 z m -6.270625,0.601927 v 1.914922 l 0.0033,0.02977 0.0033,0.03307 v 0.01323 l 0.0066,0.02976 0.0066,0.02977 0.0099,0.02646 0.0066,0.02977 0.01654,0.03969 0.01323,0.02646 0.01323,0.02646 0.01654,0.02315 0.01654,0.02315 0.01654,0.02646 0.01984,0.01984 0.01654,0.02315 0.02315,0.01984 0.01984,0.01984 0.03307,0.02646 0.02315,0.01654 0.02646,0.01654 0.02646,0.01323 0.02315,0.01323 0.02646,0.01323 0.02646,0.0099 0.02976,0.0099 0.043,0.01323 0.02977,0.0066 0.02977,0.0033 0.02977,0.0033 h 0.02977 3.217994 v 0.701145 h -3.201458 c -0.330729,0 -0.601927,0.267891 -0.601927,0.59862 0,0.330729 0.271198,0.601927 0.601927,0.601927 h 3.800078 c 0.330729,0 0.601927,-0.271198 0.601927,-0.601927 v -1.914922 l -0.0033,-0.02976 -0.0033,-0.02977 -0.0033,-0.02977 -0.0066,-0.02977 -0.0066,-0.02977 -0.0066,-0.02646 -0.01323,-0.02646 -0.0099,-0.02977 -0.01323,-0.02646 -0.01323,-0.02315 -0.01654,-0.02646 -0.01654,-0.02315 -0.01654,-0.02315 -0.02646,-0.03307 -0.01984,-0.01984 -0.01984,-0.01984 -0.02315,-0.01984 -0.02315,-0.01984 -0.03638,-0.02315 -0.02315,-0.01654 -0.02646,-0.01323 -0.02646,-0.01323 -0.02646,-0.0099 -0.02646,-0.0099 -0.02977,-0.0099 -0.02646,-0.0066 -0.02977,-0.0066 -0.02977,-0.0033 -0.03307,-0.0033 -0.02976,-0.0033 h -3.214688 v -0.697839 h 3.198151 c 0.330729,0 0.601927,-0.271198 0.601927,-0.601927 0,-0.330729 -0.271198,-0.601927 -0.601927,-0.601927 h -3.800078 c -0.330729,0 -0.601927,0.271198 -0.601927,0.601927" style="fill:#ffffff;fill-opacity:1;fill-rule:evenodd;stroke:none;stroke-width:0.03307291" id="path36"/><path d="m 14.894529,9.242112 h 2.798299 c 2.133203,0 3.879453,1.746249 3.879453,3.88276 0,2.133203 -1.74625,3.879453 -3.879453,3.879453 h -2.798299 -0.02646 -6.61e-4 -0.02547 -6.62e-4 c -0.559263,0 -1.016992,-0.456406 -1.016992,-1.015339 v -2.450703 h 2.929268 c 0.162058,0.363802 0.522552,0.615157 0.945886,0.615157 0.568854,0 1.028567,-0.459714 1.028567,-1.028568 0,-0.568854 -0.459713,-1.031875 -1.028567,-1.031875 -0.423334,0 -0.783828,0.254661 -0.945886,0.615156 h -2.929268 v -2.447396 c 0,-0.558932 0.457729,-1.018645 1.016992,-1.018645 h 6.62e-4 0.02547 6.61e-4 0.02646" style="fill:#dbc335;fill-opacity:1;fill-rule:evenodd;stroke:none;stroke-width:0.03307291" id="path38"/><path d="m 5.5712741,13.124872 v -2.864115 c 0,-0.558932 0.457729,-1.018645 1.016992,-1.018645 h 5.7282289 c 0.559263,0 1.016992,0.459713 1.016992,1.018645 v 0 c 0,0.558933 -0.457729,1.015339 -1.016992,1.015339 H 9.5807031 c -0.159742,-0.360495 -0.522221,-0.615156 -0.944232,-0.615156 -0.569515,0 -1.031213,0.46302 -1.031213,1.031875 0,0.568854 0.461698,1.028567 1.031213,1.028567 0.422011,0 0.78449,-0.251354 0.944232,-0.615156 h 2.7357919 v 0 h 0.02613 v 0 l 0.02613,0.0033 v 0 h 0.0258 v 0 l 0.0258,0.0033 v 0 l 0.02514,0.0033 v 0 l 0.02547,0.0033 v 0 l 0.02514,0.0033 v 0 l 0.0248,0.0033 v 0 l 0.02481,0.0066 v 0 l 0.02414,0.0066 v 0 l 0.02414,0.0066 v 0 l 0.02414,0.0066 v 0 l 0.02348,0.0066 v 0 l 0.02381,0.0099 v 0 l 0.02282,0.0066 v 0.0033 l 0.02282,0.0066 v 0.0033 l 0.02315,0.0066 v 0 l 0.02216,0.01323 v 0 l 0.02216,0.0099 v 0 l 0.02183,0.0099 v 0.0033 l 0.0215,0.0099 v 0 l 0.02084,0.01323 v 0 l 0.02117,0.01323 v 0 l 0.02017,0.01323 v 0 l 0.02017,0.01323 v 0 l 0.01984,0.01323 v 0 l 0.01918,0.01654 v 0 l 0.01951,0.01654 v 0 l 0.01852,0.01323 v 0 l 0.01819,0.01654 v 0 l 0.01786,0.01654 v 0 l 0.01753,0.01654 v 0.0033 l 0.0172,0.01654 v 0 l 0.01654,0.01654 v 0 l 0.01621,0.01984 v 0 l 0.01587,0.01654 v 0 l 0.01521,0.01984 v 0 l 0.01521,0.01984 v 0 l 0.01422,0.01984 v 0 l 0.01356,0.01984 v 0 l 0.01389,0.01984 v 0 l 0.0129,0.02315 v 0 l 0.01257,0.01984 v 0 l 0.01191,0.01984 v 0 l 0.01191,0.02315 v 0 l 0.01091,0.02315 v 0 l 0.01058,0.01984 v 0 l 0.0099,0.02315 v 0 l 0.0093,0.02315 v 0 l 0.0089,0.02315 v 0 l 0.0083,0.02315 v 0 l 0.0076,0.02315 v 0 l 0.0073,0.02646 v 0 l 0.0066,0.02315 v 0 l 0.006,0.02315 v 0 l 0.0053,0.02646 v 0 l 0.005,0.02315 v 0 l 0.0043,0.02646 v 0 l 0.0033,0.02646 v 0 l 0.003,0.02315 v 0 l 0.0023,0.02646 v 0 l 0.0016,0.02646 v 0 l 10e-4,0.02646 v 0 l 3.18e-4,0.02646 v 2.864114 c 0,0.558933 -0.457729,1.015339 -1.016992,1.015339 H 6.5882661 c -0.559263,0 -1.016992,-0.456406 -1.016992,-1.015339 v 0 c 0,-0.562239 0.457729,-1.018645 1.016992,-1.018645 h 2.731823 c 0.154781,0.373724 0.523213,0.638307 0.9531609,0.638307 0.569185,0 1.031214,-0.463021 1.031214,-1.031875 0,-0.568854 -0.462029,-1.031875 -1.031214,-1.031875 -0.4137419,0 -0.7702679,0.244739 -0.9349709,0.595312 h -2.750013 v 0 h -0.0258 v 0 h -0.02613 v 0 l -0.02613,-0.0033 v 0 h -0.02547 v 0 l -0.02547,-0.0033 v 0 l -0.02547,-0.0033 v 0 l -0.02514,-0.0066 v 0 l -0.02481,-0.0033 v 0 l -0.02481,-0.0066 v 0 l -0.02414,-0.0066 v 0 l -0.02414,-0.0033 v -0.0033 l -0.02414,-0.0066 v 0 l -0.02348,-0.0066 v 0 l -0.02348,-0.0066 v -0.0033 l -0.02315,-0.0066 v 0 l -0.02282,-0.0099 v 0 l -0.02282,-0.0099 v 0 l -0.02249,-0.0099 v 0 l -0.02216,-0.0099 v -0.0033 l -0.02183,-0.0099 v 0 l -0.0215,-0.01323 v 0 l -0.02084,-0.0099 v 0 l -0.02117,-0.01324 v 0 l -0.02017,-0.01323 v -0.0033 l -0.01984,-0.01323 v 0 l -0.02018,-0.01323 v 0 l -0.01918,-0.01323 v -0.0033 l -0.01951,-0.01323 v 0 l -0.01852,-0.01654 v 0 l -0.01819,-0.01654 v 0 l -0.01786,-0.01654 v 0 l -0.01753,-0.01654 v 0 l -0.0172,-0.01654 v 0 l -0.01654,-0.01984 v 0 l -0.01587,-0.01654 v 0 l -0.01621,-0.01984 v 0 l -0.01521,-0.01984 v 0 l -0.01488,-0.01984 v 0 l -0.01455,-0.01984 v 0 l -0.01356,-0.01984 v 0 l -0.01389,-0.01984 v 0 l -0.0129,-0.01984 v 0 l -0.01257,-0.01984 v -0.0033 l -0.01191,-0.01984 v 0 l -0.01157,-0.01984 v -0.0033 l -0.01125,-0.01984 v 0 l -0.01025,-0.02315 v 0 l -0.0099,-0.02315 v 0 l -0.0096,-0.02315 v 0 l -0.0089,-0.02315 v 0 l -0.0079,-0.02315 v 0 l -0.0079,-0.02315 v 0 l -0.0073,-0.02315 v 0 l -0.0066,-0.02646 v 0 l -0.0056,-0.02315 v 0 l -0.0056,-0.02315 v -0.0033 l -0.005,-0.02315 v 0 l -0.0043,-0.02646 v 0 l -0.0033,-0.02315 v 0 l -0.003,-0.02646 v 0 l -0.0023,-0.02646 v 0 l -0.0016,-0.02315 v -0.0033 l -9.92e-4,-0.02315 v 0 l -3.31e-4,-0.02646" style="fill:#ffffff;fill-opacity:1;fill-rule:evenodd;stroke:none;stroke-width:0.03307291" id="path40"/></g></svg>
