<svg xmlns="http://www.w3.org/2000/svg" viewBox="0 0 841.9 120"><style type="text/css">
	.st0{display:none;}
	.st1{fill:#016DAF;}
	.st2{fill:#F07F00;}
	.st3{fill:#7FBB33;}
	.st4{fill:#474D55;}
	.st5{fill:#7D878C;}
</style><g transform="translate(5.5878 -222.48)"><rect x="31.3" y="303" class="st1" width="16.5" height="16.5" fill="#016daf"/><rect x="632.1" y="303" class="st2" width="16.5" height="16.5" fill="#f07f00"/><rect x="62.1" y="283" class="st3" width="16.5" height="36.5" fill="#7fbb33"/><path class="st4" d="M138.5 247.8 132.4 247.8C127.1 247.8 122.8 252.1 122.8 257.4L122.8 260 122.8 319.5 138.5 319.5 138.5 262.9C138.5 261.3 139.8 260 141.4 260L159.7 260C166.6 260 172.1 265.6 172.1 272.4L172.1 319.5 187.8 319.5 187.8 270.1C187.8 257.8 177.8 247.8 165.5 247.8L138.5 247.8Z" fill="#474d55"/><path class="st5" d="M496.4 247.8 490.3 247.8C485 247.8 480.7 252.1 480.7 257.4L480.7 260 480.7 319.5 496.4 319.5 496.4 262.9C496.4 261.3 497.7 260 499.3 260L517.6 260C524.5 260 530 265.6 530 272.4L530 319.5 545.7 319.5 545.7 270.1C545.7 257.8 535.7 247.8 523.4 247.8L496.4 247.8Z" fill="#7d878c"/><path class="st4" d="M240.6 235.8 240.6 223.6 228.3 223.6C215.2 223.6 204.6 234.2 204.6 247.3L204.6 247.7 194.3 247.7 194.3 260 204.6 260 204.6 319.5 220.3 319.5 220.3 260 240.7 260 240.7 247.8 220.3 247.8 220.3 245.9C220.3 240.4 224.8 235.9 230.3 235.9L240.6 235.9Z" fill="#474d55"/><path class="st5" d="M345.4 247.8 345.4 224.9 329.7 224.9 329.7 308.6C329.7 314.7 334.6 319.6 340.7 319.6L370.5 319.6C384.3 319.6 395.6 308.4 395.6 294.5L395.6 272.9C395.6 259.1 384.4 247.8 370.5 247.8L345.4 247.8ZM364.3 307.4 349.6 307.4C347.3 307.4 345.3 305.5 345.3 303.1L345.3 260 364.2 260C372.8 260 379.8 267 379.8 275.6L379.8 291.7C380 300.4 373 307.4 364.3 307.4Z" fill="#7d878c"/><path class="st5" d="M677.6 247.8 677.6 224.9 661.9 224.9 661.9 308.6C661.9 314.7 666.8 319.6 672.9 319.6L702.7 319.6C716.5 319.6 727.8 308.4 727.8 294.5L727.8 272.9C727.8 259.1 716.6 247.8 702.7 247.8L677.6 247.8ZM696.5 307.4 681.8 307.4C679.5 307.4 677.5 305.5 677.5 303.1L677.5 260 696.4 260C705 260 712 267 712 275.6L712 291.7C712.2 300.4 705.2 307.4 696.5 307.4Z" fill="#7d878c"/><path class="st5" d="M408.3 247.8 408.3 260 444 260C449.5 260 453.9 264.4 453.9 269.9L453.9 274.9 420.9 274.9C411.4 274.9 403.6 282.6 403.6 292.2L403.6 302.3C403.6 311.8 411.3 319.6 420.9 319.6L460 319.6C465.3 319.6 469.5 315.3 469.5 310.1L469.5 266.6C469.5 256.3 461.1 247.9 450.8 247.9L408.3 247.9ZM449.6 307.4 427.7 307.4C423 307.4 419.2 303.6 419.2 298.9L419.2 295.5C419.2 290.8 423 287 427.7 287L453.8 287 453.8 303.1C453.8 305.5 451.9 307.4 449.6 307.4Z" fill="#7d878c"/><path class="st4" d="M244.8 276.8 244.8 290.6C244.8 306.8 258.2 320 274.6 320L290.6 320C307.1 320 320.4 306.8 320.4 290.6L320.4 276.8C320.4 260.6 307 247.4 290.6 247.4L274.6 247.4C258.2 247.4 244.8 260.5 244.8 276.8ZM285.5 308.1 279.8 308.1C269.1 308.1 260.5 299.5 260.5 289L260.5 278.4C260.5 267.8 269.2 259.3 279.8 259.3L285.5 259.3C296.2 259.3 304.8 267.9 304.8 278.4L304.8 289C304.8 299.6 296.2 308.1 285.5 308.1Z" fill="#474d55"/><path class="st4" d="M111.8 319.5 96.1 319.5 96.1 247.8 111.8 247.8 111.8 319.5ZM111.8 224.9 96.1 224.9 96.1 237.4 111.8 237.4 111.8 224.9Z" fill="#474d55"/><rect x="556.7" y="224.9" class="st5" width="15.7" height="94.6" fill="#7d878c"/><polygon class="st5" points="765.5 342.4 808.3 247.8 792.7 247.8 768.6 301 744.5 247.8 728.8 247.8 760.8 318.3 749.8 342.4 " fill="#7d878c"/><path class="st5" d="M625.3 319.5 594.6 286.3C592.4 283.9 592.4 280.2 594.6 277.8L622.3 247.9 603.5 247.9 581 272.2C575.8 277.8 575.8 286.4 581 292L606.5 319.5 625.3 319.5Z" fill="#7d878c"/><path d="M31.3 357.2 43.6 357.2C46.1 357.2 48 357.7 49.2 358.6 50.4 359.5 51.1 360.9 51.1 362.7 51.1 363.9 50.8 364.9 50.1 365.8 49.4 366.7 48.6 367.3 47.5 367.6 49 368 50 368.6 50.8 369.6 51.5 370.6 51.9 371.7 51.9 372.8 51.9 374.4 51.3 375.8 50.1 376.8 48.9 377.8 47.1 378.3 44.7 378.3L31.3 378.3 31.3 357.2ZM37 366 40.6 366C42.3 366 43.6 365.8 44.4 365.3 45.2 364.9 45.6 364.2 45.6 363.2 45.6 362.3 45.2 361.7 44.5 361.3 43.8 360.9 42.5 360.7 40.6 360.7L37 360.7 37 366ZM37 374.8 41.4 374.8C43 374.8 44.2 374.6 44.9 374.2 45.6 373.8 46 373.1 46 372.1 46 371.1 45.6 370.4 44.7 370 43.9 369.6 42.2 369.4 39.8 369.4L37 369.4 37 374.8Z"/><path d="M84.4 363.4 78.9 364.4C78.7 363.3 78.3 362.5 77.6 361.9 76.9 361.3 76.1 361.1 75 361.1 73.6 361.1 72.5 361.6 71.7 362.5 70.9 363.5 70.5 365.1 70.5 367.3 70.5 369.8 70.9 371.6 71.8 372.6 72.6 373.6 73.8 374.2 75.2 374.2 76.3 374.2 77.1 373.9 77.8 373.3 78.5 372.7 79 371.7 79.2 370.2L84.7 371.1C84.1 373.6 83 375.5 81.4 376.8 79.8 378.1 77.6 378.7 74.9 378.7 71.8 378.7 69.3 377.7 67.5 375.8 65.7 373.8 64.7 371.1 64.7 367.7 64.7 364.2 65.6 361.5 67.5 359.5 69.3 357.6 71.8 356.6 75 356.6 77.6 356.6 79.6 357.2 81.1 358.3 82.7 359.5 83.8 361.2 84.4 363.4Z"/><path d="M111.6 371.6 117.2 372.5C116.5 374.5 115.4 376.1 113.8 377.2 112.2 378.3 110.3 378.8 108 378.8 104.3 378.8 101.6 377.6 99.8 375.2 98.4 373.3 97.7 370.8 97.7 367.9 97.7 364.4 98.6 361.6 100.4 359.7 102.2 357.7 104.6 356.7 107.4 356.7 110.5 356.7 113 357.7 114.9 359.8 116.7 361.9 117.6 365.1 117.5 369.4L103.5 369.4C103.5 371.1 104 372.4 104.9 373.3 105.8 374.2 106.8 374.7 108.1 374.7 109 374.7 109.7 374.5 110.3 374 110.8 373.4 111.3 372.7 111.6 371.6ZM111.9 366C111.9 364.4 111.4 363.1 110.6 362.3 109.8 361.5 108.8 361 107.7 361 106.5 361 105.5 361.4 104.7 362.3 103.9 363.2 103.5 364.4 103.5 365.9L111.9 365.9Z"/><path d="M144.8 367.5C144.8 365.6 145.3 363.8 146.2 362.1 147.1 360.4 148.4 359 150.1 358.1 151.8 357.2 153.7 356.7 155.7 356.7 158.9 356.7 161.5 357.7 163.6 359.8 165.6 361.9 166.7 364.5 166.7 367.7 166.7 370.9 165.7 373.6 163.6 375.7 161.5 377.8 158.9 378.9 155.8 378.9 153.9 378.9 152 378.5 150.3 377.6 148.6 376.7 147.2 375.4 146.3 373.7 145.2 372 144.8 369.9 144.8 367.5ZM150.5 367.8C150.5 369.9 151 371.5 152 372.6 153 373.7 154.2 374.3 155.7 374.3 157.2 374.3 158.4 373.7 159.4 372.6 160.4 371.5 160.9 369.9 160.9 367.7 160.9 365.6 160.4 364 159.4 362.9 158.4 361.8 157.2 361.2 155.7 361.2 154.2 361.2 153 361.8 152 362.9 151 364 150.5 365.7 150.5 367.8Z"/><path d="M207.2 349.1 212.8 349.1 212.8 359.8C213.5 358.8 214.3 358 215.2 357.4 216.1 356.9 217.2 356.6 218.4 356.6 220.7 356.6 222.5 357.7 224 359.9 225.4 362.1 226.2 364.7 226.2 367.8 226.2 370.9 225.4 373.5 223.8 375.6 222.2 377.7 220.3 378.8 218.1 378.8 217.1 378.8 216.2 378.6 215.3 378.1 214.4 377.6 213.6 376.9 212.9 375.9L212.9 386.4 207.3 386.4 207.3 375.9C206.5 376.9 205.6 377.6 204.7 378.1 203.8 378.6 202.8 378.8 201.8 378.8 199.5 378.8 197.6 377.7 196.1 375.6 194.6 373.5 193.9 370.8 193.9 367.6 193.9 364.4 194.7 361.8 196.5 359.7 198.2 357.6 200 356.6 202 356.6 203.1 356.6 204.1 356.9 204.9 357.4 205.8 357.9 206.6 358.7 207.3 359.7L207.3 349.1ZM203.5 361C202.5 361 201.6 361.6 200.8 362.9 200 364.1 199.6 365.8 199.6 367.8 199.6 369.8 200 371.5 200.7 372.7 201.4 373.9 202.3 374.6 203.4 374.6 204.5 374.6 205.4 374 206.2 372.7 207 371.5 207.3 369.8 207.3 367.6 207.3 365.3 206.9 363.6 206.1 362.5 205.2 361.5 204.4 361 203.5 361ZM216.6 361C215.5 361 214.5 361.7 213.8 363 213.1 364.3 212.7 366 212.7 368 212.7 370 213.1 371.6 213.8 372.8 214.6 374 215.5 374.6 216.5 374.6 217.5 374.6 218.5 373.9 219.2 372.6 220 371.3 220.3 369.7 220.3 367.9 220.3 366 220 364.4 219.3 363 218.7 361.7 217.7 361 216.6 361Z"/><path d="M241.2 357.2 246.6 357.2 246.6 370.5 255.2 357.2 260.7 357.2 260.7 378.4 255.3 378.4 255.3 364.9 246.6 378.4 241.2 378.4 241.2 357.2Z"/><path d="M276.9 357.2 282.5 357.2 282.5 364.9 290.5 364.9 290.5 357.2 296.1 357.2 296.1 378.4 290.5 378.4 290.5 369.5 282.5 369.5 282.5 378.4 276.9 378.4 276.9 357.2Z"/><path d="M316.6 363.6 311.5 362.7C312.1 360.7 313.1 359.1 314.4 358.2 315.7 357.3 317.9 356.7 320.6 356.7 323.1 356.7 325 357 326.2 357.6 327.4 358.2 328.3 358.9 328.8 359.9 329.3 360.8 329.5 362.5 329.5 364.9L329.4 371.4C329.4 373.3 329.5 374.6 329.7 375.5 329.9 376.4 330.2 377.3 330.7 378.3L325.2 378.3C325.1 377.9 324.9 377.4 324.7 376.6 324.6 376.3 324.5 376 324.5 375.9 323.5 376.8 322.5 377.5 321.4 378 320.3 378.5 319.1 378.7 317.9 378.7 315.7 378.7 314 378.1 312.8 376.9 311.5 375.7 310.9 374.2 310.9 372.4 310.9 371.2 311.2 370.1 311.8 369.2 312.4 368.3 313.2 367.5 314.2 367 315.2 366.5 316.7 366.1 318.7 365.7 321.3 365.2 323.1 364.8 324.1 364.3L324.1 364C324.1 362.9 323.8 362.2 323.3 361.7 322.8 361.2 321.8 361 320.3 361 319.3 361 318.5 361.2 318 361.6 317.4 362 316.9 362.7 316.6 363.6ZM324.1 368.2C323.4 368.4 322.2 368.7 320.7 369.1 319.1 369.4 318.1 369.8 317.7 370.1 317 370.6 316.6 371.3 316.6 372.1 316.6 372.9 316.9 373.6 317.5 374.1 318.1 374.7 318.8 375 319.7 375 320.7 375 321.7 374.7 322.6 374 323.3 373.5 323.7 372.9 323.9 372.1 324 371.6 324.1 370.7 324.1 369.4L324.1 368.2Z"/><path d="M345.5 357.2 351.1 357.2 351.1 364.9 359.1 364.9 359.1 357.2 364.7 357.2 364.7 378.4 359.1 378.4 359.1 369.5 351.1 369.5 351.1 378.4 345.5 378.4 345.5 357.2Z"/><path d="M399.5 363.4 394 364.4C393.8 363.3 393.4 362.5 392.7 361.9 392 361.3 391.2 361.1 390.1 361.1 388.7 361.1 387.6 361.6 386.8 362.5 386 363.5 385.6 365.1 385.6 367.3 385.6 369.8 386 371.6 386.9 372.6 387.7 373.6 388.9 374.2 390.3 374.2 391.4 374.2 392.2 373.9 392.9 373.3 393.6 372.7 394.1 371.7 394.3 370.2L399.8 371.1C399.2 373.6 398.1 375.5 396.5 376.8 394.9 378.1 392.7 378.7 390 378.7 386.9 378.7 384.4 377.7 382.6 375.8 380.8 373.8 379.8 371.1 379.8 367.7 379.8 364.2 380.7 361.5 382.6 359.5 384.4 357.6 386.9 356.6 390.1 356.6 392.7 356.6 394.7 357.2 396.2 358.3 397.7 359.5 398.8 361.2 399.5 363.4Z"/><path d="M419.1 363.6 414 362.7C414.6 360.7 415.6 359.1 416.9 358.2 418.3 357.2 420.4 356.7 423.1 356.7 425.6 356.7 427.5 357 428.7 357.6 429.9 358.2 430.8 358.9 431.3 359.9 431.8 360.8 432 362.5 432 364.9L431.9 371.4C431.9 373.3 432 374.6 432.2 375.5 432.4 376.4 432.7 377.3 433.2 378.3L427.7 378.3C427.6 377.9 427.4 377.4 427.2 376.6 427.1 376.3 427 376 427 375.9 426 376.8 425 377.5 423.9 378 422.8 378.5 421.6 378.7 420.4 378.7 418.2 378.7 416.5 378.1 415.2 376.9 413.9 375.7 413.3 374.2 413.3 372.4 413.3 371.2 413.6 370.1 414.2 369.2 414.8 368.3 415.6 367.5 416.6 367 417.6 366.5 419.1 366.1 421.1 365.7 423.7 365.2 425.5 364.8 426.5 364.3L426.5 364C426.5 362.9 426.2 362.2 425.7 361.7 425.2 361.2 424.2 361 422.7 361 421.7 361 420.9 361.2 420.4 361.6 419.9 362 419.4 362.7 419.1 363.6ZM426.6 368.2C425.9 368.4 424.7 368.7 423.2 369.1 421.6 369.4 420.6 369.8 420.2 370.1 419.5 370.6 419.1 371.3 419.1 372.1 419.1 372.9 419.4 373.6 420 374.1 420.6 374.7 421.3 375 422.2 375 423.2 375 424.2 374.7 425.1 374 425.8 373.5 426.2 372.9 426.4 372.1 426.5 371.6 426.6 370.7 426.6 369.4L426.6 368.2Z"/><path d="M445.5 378.3 453.1 367.4 445.8 357.1 452.6 357.1 456.3 362.9 460.2 357.1 466.8 357.1 459.6 367.1 467.4 378.2 460.5 378.2 456.2 371.6 451.9 378.2 445.5 378.2Z"/><path d="M495 357.2 507.3 357.2C509.8 357.2 511.7 357.7 512.9 358.6 514.1 359.5 514.8 360.9 514.8 362.7 514.8 363.9 514.5 364.9 513.8 365.8 513.1 366.7 512.3 367.3 511.2 367.6 512.7 368 513.7 368.6 514.5 369.6 515.2 370.6 515.6 371.7 515.6 372.8 515.6 374.4 515 375.8 513.8 376.8 512.6 377.8 510.8 378.3 508.4 378.3L495 378.3 495 357.2ZM500.7 366 504.3 366C506 366 507.3 365.8 508.1 365.3 508.9 364.9 509.3 364.2 509.3 363.2 509.3 362.3 508.9 361.7 508.2 361.3 507.5 360.9 506.2 360.7 504.3 360.7L500.7 360.7 500.7 366ZM500.7 374.8 505.1 374.8C506.7 374.8 507.9 374.6 508.6 374.2 509.3 373.8 509.7 373.1 509.7 372.1 509.7 371.1 509.3 370.4 508.4 370 507.6 369.6 505.9 369.4 503.5 369.4L500.6 369.4 500.6 374.8Z"/><path d="M544.3 349.1 566.1 349.1 566.1 354 550.2 354 550.2 360.8 558.1 360.8C560.3 360.8 562.1 361.1 563.5 361.6 564.9 362.1 566.2 363.1 567.2 364.5 568.2 365.9 568.7 367.6 568.7 369.5 568.7 371.5 568.2 373.2 567.2 374.6 566.2 376 565 377 563.7 377.5 562.4 378 560.5 378.3 558.1 378.3L544.3 378.3 544.3 349.1ZM550.2 373.4 555.9 373.4C557.7 373.4 559 373.3 559.8 373.1 560.5 372.9 561.2 372.5 561.7 371.9 562.3 371.3 562.5 370.5 562.5 369.5 562.5 368.1 562 367.2 561.1 366.5 560.1 365.9 558.5 365.6 556.2 365.6L550.2 365.6 550.2 373.4Z"/><path d="M596.3 371.6 601.9 372.5C601.2 374.5 600.1 376.1 598.5 377.2 597 378.3 595 378.8 592.7 378.8 589 378.8 586.3 377.6 584.5 375.2 583.1 373.3 582.4 370.8 582.4 367.9 582.4 364.4 583.3 361.6 585.1 359.7 586.9 357.7 589.3 356.7 592.1 356.7 595.2 356.7 597.7 357.7 599.6 359.8 601.4 361.9 602.3 365.1 602.2 369.4L588.2 369.4C588.2 371.1 588.7 372.4 589.6 373.3 590.5 374.2 591.5 374.7 592.8 374.7 593.7 374.7 594.4 374.5 595 374 595.6 373.4 596 372.7 596.3 371.6ZM596.6 366C596.6 364.4 596.1 363.1 595.3 362.3 594.5 361.5 593.5 361 592.4 361 591.2 361 590.2 361.4 589.4 362.3 588.6 363.2 588.2 364.4 588.2 365.9L596.6 365.9Z"/><path d="M618.9 357.2 637.6 357.2 637.6 378.4 632 378.4 632 361.8 624.4 361.8 624.4 371.3C624.4 373.7 624.1 375.4 623.6 376.4 623 377.4 622.4 378 621.7 378.3 621 378.6 619.9 378.8 618.4 378.8 617.5 378.8 616.3 378.7 614.9 378.4L614.9 374.3C615 374.3 615.3 374.3 615.8 374.3 616.4 374.3 616.8 374.4 617.2 374.4 618 374.4 618.4 374.2 618.6 373.7 618.8 373.2 618.9 371.8 618.9 369.5L618.9 357.2Z"/><path d="M658.2 363.6 653.1 362.7C653.7 360.7 654.7 359.1 656 358.2 657.4 357.2 659.5 356.7 662.2 356.7 664.7 356.7 666.6 357 667.8 357.6 669 358.2 669.9 358.9 670.4 359.9 670.9 360.8 671.1 362.5 671.1 364.9L671 371.4C671 373.3 671.1 374.6 671.3 375.5 671.5 376.4 671.8 377.3 672.3 378.3L666.8 378.3C666.7 377.9 666.5 377.4 666.3 376.6 666.2 376.3 666.1 376 666.1 375.9 665.1 376.8 664.1 377.5 663 378 661.9 378.5 660.7 378.7 659.5 378.7 657.3 378.7 655.6 378.1 654.3 376.9 653 375.7 652.4 374.2 652.4 372.4 652.4 371.2 652.7 370.1 653.3 369.2 653.9 368.3 654.7 367.5 655.7 367 656.7 366.5 658.2 366.1 660.2 365.7 662.8 365.2 664.6 364.8 665.6 364.3L665.6 364C665.6 362.9 665.3 362.2 664.8 361.7 664.3 361.2 663.3 361 661.8 361 660.8 361 660 361.2 659.5 361.6 659 362 658.5 362.7 658.2 363.6ZM665.7 368.2C665 368.4 663.8 368.7 662.3 369.1 660.7 369.4 659.7 369.8 659.3 370.1 658.6 370.6 658.2 371.3 658.2 372.1 658.2 372.9 658.5 373.6 659.1 374.1 659.7 374.6 660.4 375 661.3 375 662.3 375 663.3 374.7 664.2 374 664.9 373.5 665.3 372.9 665.5 372.1 665.6 371.6 665.7 370.7 665.7 369.4L665.7 368.2Z"/><path d="M687.2 357.2 692.4 357.2 692.4 360.3C693.1 359.2 694 358.4 695.1 357.7 696.3 357 697.5 356.7 698.9 356.7 701.4 356.7 703.4 357.7 705.2 359.6 706.9 361.5 707.8 364.2 707.8 367.6 707.8 371.1 706.9 373.9 705.2 375.8 703.5 377.8 701.4 378.7 698.9 378.7 697.7 378.7 696.7 378.5 695.7 378 694.7 377.5 693.8 376.7 692.7 375.6L692.7 386.3 687.1 386.3 687.1 357.2ZM692.7 367.4C692.7 369.8 693.2 371.5 694.1 372.7 695 373.8 696.2 374.4 697.5 374.4 698.8 374.4 699.9 373.9 700.7 372.8 701.6 371.8 702 370 702 367.7 702 365.5 701.6 363.8 700.7 362.8 699.8 361.7 698.7 361.2 697.4 361.2 696 361.2 694.9 361.7 694 362.8 693.2 363.8 692.7 365.3 692.7 367.4Z"/><path d="M719.7 357.2 725.7 357.2 730.8 372.2 735.7 357.2 741.5 357.2 734 377.6 732.7 381.3C732.2 382.5 731.7 383.5 731.3 384.1 730.9 384.8 730.3 385.3 729.8 385.7 729.2 386.1 728.5 386.4 727.7 386.6 726.9 386.8 725.9 386.9 724.8 386.9 723.7 386.9 722.7 386.8 721.6 386.6L721.1 382.2C722 382.4 722.8 382.5 723.5 382.5 724.8 382.5 725.8 382.1 726.4 381.4 727 380.6 727.5 379.7 727.8 378.5L719.7 357.2Z"/><path d="M773.1 363.4 767.6 364.4C767.4 363.3 767 362.5 766.3 361.9 765.6 361.3 764.8 361.1 763.7 361.1 762.3 361.1 761.2 361.6 760.4 362.5 759.6 363.5 759.2 365.1 759.2 367.3 759.2 369.8 759.6 371.6 760.5 372.6 761.3 373.6 762.5 374.2 763.9 374.2 765 374.2 765.8 373.9 766.5 373.3 767.2 372.7 767.7 371.7 767.9 370.2L773.4 371.1C772.8 373.6 771.7 375.5 770.1 376.8 768.5 378.1 766.3 378.7 763.6 378.7 760.5 378.7 758 377.7 756.2 375.8 754.4 373.8 753.4 371.1 753.4 367.7 753.4 364.2 754.3 361.5 756.2 359.5 758 357.6 760.5 356.6 763.7 356.6 766.3 356.6 768.3 357.2 769.8 358.3 771.4 359.5 772.5 361.2 773.1 363.4Z"/><path d="M787.9 357.2 793.3 357.2 793.3 370.5 801.9 357.2 807.4 357.2 807.4 378.4 802 378.4 802 364.9 793.3 378.4 787.9 378.4 787.9 357.2Z"/></g></svg>
