<?xml version="1.0" encoding="utf-8"?>
<svg version="1.1" id="Layer_1" xmlns="http://www.w3.org/2000/svg" xmlns:xlink="http://www.w3.org/1999/xlink" x="0px" y="0px"
	 viewBox="0 0 50 50" style="enable-background:new 0 0 50 50;" xml:space="preserve">
<g id="Layer_2">
	<g id="Layer_1-2">
		<path d="M50,14.6c0,0.4-0.2,0.9-0.5,1.2L26.2,39.1c-0.3,0.3-0.7,0.5-1.2,0.5c-0.4,0-0.9-0.2-1.2-0.5L0.5,15.7
			C0.2,15.4,0,15,0,14.6c0-0.4,0.2-0.9,0.5-1.2L3,10.9c0.3-0.3,0.7-0.5,1.2-0.5c0.4,0,0.9,0.2,1.2,0.5L25,30.6l19.7-19.7
			c0.3-0.3,0.7-0.5,1.2-0.5c0.4,0,0.9,0.2,1.2,0.5l2.5,2.5C49.8,13.8,50,14.2,50,14.6z"/>
	</g>
</g>
</svg>
