<?xml version="1.0" encoding="utf-8"?>
<!-- Generator: Adobe Illustrator 21.0.0, SVG Export Plug-In . SVG Version: 6.00 Build 0)  -->
<svg version="1.1" id="Layer_1" xmlns="http://www.w3.org/2000/svg" xmlns:xlink="http://www.w3.org/1999/xlink" x="0px" y="0px"
	 viewBox="0 0 50 50" style="enable-background:new 0 0 50 50;" xml:space="preserve">
<title>Angle-right</title>
<g id="Layer_2">
	<g id="Layer_1-2">
		<path d="M39.6,25c0,0.4-0.2,0.9-0.5,1.1L15.7,49.5c-0.6,0.6-1.6,0.7-2.2,0.1c0,0,0,0-0.1-0.1L10.9,47c-0.6-0.6-0.7-1.6-0.1-2.2
			c0,0,0,0,0.1-0.1L30.6,25L10.9,5.3c-0.6-0.6-0.7-1.6-0.1-2.2c0,0,0.1-0.1,0.1-0.1l2.5-2.5C14-0.1,15-0.2,15.7,0.4c0,0,0,0,0.1,0.1
			l23.4,23.4C39.4,24.1,39.6,24.6,39.6,25z"/>
	</g>
</g>
</svg>
