<?xml version="1.0" encoding="utf-8"?>
<svg width="1792" height="1792" viewBox="0 0 1792 1792" xmlns="http://www.w3.org/2000/svg">
  <path d="M 1664 1344 L 1667.285 1440.79 C 1667.285 1458.123 1649.454 1469.838 1636.787 1482.505 C 1624.12 1495.172 1617.333 1500 1600 1500 L 200 1500 C 182.667 1500 169.523 1488.601 156.856 1475.934 C 144.189 1463.267 128 1458.123 128 1440.79 L 128 1353.856 C 128 1336.523 139.261 1331.379 151.928 1318.712 C 164.595 1306.045 182.667 1300 200 1300 L 1600 1300 C 1617.333 1300 1627.405 1307.687 1640.072 1320.354 C 1652.739 1333.021 1664 1326.667 1664 1344 Z M 1660.715 853.354 L 1661.156 932.419 C 1661.156 949.752 1652.108 968.242 1639.441 980.909 C 1626.774 993.576 1617.333 1000 1600 1000 L 200 1000 C 182.667 1000 170.786 994.135 158.119 981.468 C 145.452 968.801 128 952.442 128 935.109 L 128 851.712 C 128 834.379 140.904 830.877 153.571 818.21 C 166.238 805.543 182.667 800 200 800 L 1600 800 C 1617.333 800 1627.405 807.186 1640.072 819.853 C 1652.739 832.52 1660.715 836.021 1660.715 853.354 Z M 1664 356.387 L 1664 435.521 C 1664 452.854 1659.31 460.621 1646.643 473.288 C 1633.976 485.955 1617.333 500 1600 500 L 200 500 C 182.667 500 159.667 489.241 147 476.574 C 134.333 463.907 126.357 453.835 126.357 436.502 L 125.407 358.151 C 125.407 340.818 137.184 330.736 149.851 318.069 C 162.518 305.402 182.667 300 200 300 L 1600 300 C 1617.333 300 1624.267 304.389 1636.934 317.056 C 1649.601 329.723 1664 339.054 1664 356.387 Z"/>
</svg>