<?xml version="1.0" encoding="utf-8"?>
<!-- Generator: Adobe Illustrator 21.0.0, SVG Export Plug-In . SVG Version: 6.00 Build 0)  -->
<svg version="1.1" id="Layer_1" xmlns="http://www.w3.org/2000/svg" xmlns:xlink="http://www.w3.org/1999/xlink" x="0px" y="0px"
	 viewBox="0 0 50 50" style="enable-background:new 0 0 50 50;" xml:space="preserve">
<title>Bay-big</title>
<g id="Layer_2">
	<g id="Layer_2-2">
		<path d="M49.1,10.5c-0.8-1.4-2.3-2.3-3.9-2.3H12.6c-1.5-0.1-2.9,0.3-3.9,1.4C8.4,9.9,8.1,10.5,8,10.9L7,7
			C6.5,4.7,4.5,3.1,2.1,3H0.6l0,0C0.3,3,0.1,3.3,0.1,3.5S0.3,4,0.6,4H2c1.9,0,3.6,1.3,4.1,3.2l5.6,23.1c0.5,2.2,2.4,3.8,4.7,3.8h21
			c2,0,3.7-1.2,4.5-3l7.7-16.3C50.1,13.5,49.9,11.8,49.1,10.5z M48.6,14.5L41,30.4c-0.6,1.5-2,2.6-3.6,2.6H16.5
			c-1.8,0-3.5-1.3-3.8-3.1L9.4,16.7l23.3,0c0.3,0,0.5-0.2,0.5-0.5c0-0.3-0.2-0.5-0.5-0.5l-23.5,0l-0.4-1.8c-0.3-1.2,0-2.5,0.6-3.5
			c0.7-1,2-1.2,3.2-1.1h32.6c1.2,0,2.3,0.6,3,1.8C48.8,12.1,49.1,13.4,48.6,14.5L48.6,14.5z"/>
		<path d="M17.9,36.5c-2.9,0-5.3,2.3-5.3,5.2s2.3,5.3,5.2,5.3s5.3-2.3,5.3-5.2l0,0C23.1,38.9,20.9,36.5,17.9,36.5
			C18,36.5,17.9,36.5,17.9,36.5z M17.9,46c-2.3,0-4.2-1.9-4.2-4.2s1.9-4.2,4.2-4.2l0,0c2.3,0,4.2,1.9,4.2,4.2c0,0,0,0,0,0.1
			C22.1,44,20.2,45.9,17.9,46z"/>
		<path d="M36.5,36.5c-2.9,0-5.2,2.3-5.2,5.2s2.3,5.2,5.2,5.2s5.2-2.3,5.2-5.2l0,0C41.7,38.8,39.4,36.5,36.5,36.5z
			 M36.5,46c-2.3,0-4.2-1.9-4.2-4.2s1.9-4.2,4.2-4.2s4.2,1.9,4.2,4.2l0,0C40.7,44,38.8,45.9,36.5,46z"/>
		<path d="M39.2,15.7h-3.1c-0.3,0-0.5,0.2-0.5,0.5c0,0.3,0.2,0.5,0.5,0.5h3.1c0.3,0,0.5-0.2,0.5-0.5
			C39.7,15.9,39.5,15.7,39.2,15.7L39.2,15.7z"/>
	</g>
</g>
</svg>
