<?xml version="1.0" encoding="utf-8"?>
<!-- Generator: Adobe Illustrator 21.0.0, SVG Export Plug-In . SVG Version: 6.00 Build 0)  -->
<svg version="1.1" id="Layer_2" xmlns="http://www.w3.org/2000/svg" xmlns:xlink="http://www.w3.org/1999/xlink" x="0px" y="0px"
   width="27.3"
   height="24.2"
	 viewBox="0 0 27.3 24.2" style="enable-background:new 0 0 27.3 24.2;" xml:space="preserve">

<g stroke="#FCCA37">
	<g>
		<path d="M24.7,4c1.2,0,2,1.2,1.6,2.3l-4.1,9.9c-0.3,0.6-0.9,1-1.6,1H9c-0.8,0-1.5-0.5-1.7-1.3L5.1,6
			C4.9,5,5.7,4,6.8,4H24.7 M24.7,3.3H6.8C6,3.3,5.3,3.6,4.9,4.2c-0.4,0.6-0.6,1.3-0.5,2l2.3,9.9C6.9,17.2,7.9,18,9,18h11.5
			c1,0,1.9-0.6,2.2-1.5l4.1-9.9c0.3-0.7,0.2-1.5-0.2-2.2C26.2,3.7,25.5,3.3,24.7,3.3L24.7,3.3z"/>
	</g>
	<g>
		<path  d="M9.7,19.5c1,0,1.9,0.8,1.9,1.9s-0.8,1.9-1.9,1.9s-1.9-0.8-1.9-1.9S8.7,19.5,9.7,19.5 M9.7,18.8
			c-1.4,0-2.6,1.2-2.6,2.6S8.3,24,9.7,24c1.4,0,2.6-1.2,2.6-2.6S11.2,18.8,9.7,18.8L9.7,18.8z"/>
	</g>
	<g>
		<path  d="M19.9,19.5c1,0,1.9,0.8,1.9,1.9s-0.8,1.9-1.9,1.9S18,22.4,18,21.4S18.8,19.5,19.9,19.5 M19.9,18.8
			c-1.4,0-2.6,1.2-2.6,2.6s1.2,2.6,2.6,2.6c1.4,0,2.6-1.2,2.6-2.6S21.3,18.8,19.9,18.8L19.9,18.8z"/>
	</g>
	<g fill="none">

		<path d="M0.5,0.5h0.8c1.2,0,2.2,0.8,2.5,1.9l1.8,7.4"/>
		<line x1="5.1" y1="7.4" x2="17.9" y2="7.4"/>
		<line  x1="19.7" y1="7.4" x2="21.4" y2="7.4"/>
	</g>
</g>
</svg>
