<?xml version="1.0" encoding="utf-8"?>
<!-- Generator: Adobe Illustrator 21.0.0, SVG Export Plug-In . SVG Version: 6.00 Build 0)  -->
<svg version="1.1" id="Layer_1" xmlns="http://www.w3.org/2000/svg" xmlns:xlink="http://www.w3.org/1999/xlink" x="0px" y="0px"
	 viewBox="0 0 40.9 31.5"
	 width="40.9" heigth="31.5"
	 style="enable-background:new 0 0 40.9 31.5;" xml:space="preserve">
<g fill="none" stroke="#FCCA37">
	<circle cx="8.6" cy="22.9" r="7.9"/>
	<circle cx="32.3" cy="22.9" r="7.9"/>
	<path  d="M32.3,27.3c-2.5,0-4.5-2-4.5-4.5"/>
	<path  d="M7.8,27.3c-2.5,0-4.5-2-4.5-4.5"/>
	<path  d="M1.1,20.5l5.5-13c0.8-1.9,2.6-3.1,4.6-3.1h6.9"/>
	<path  d="M39.9,20.5l-5.5-13c-0.8-1.9-2.6-3.1-4.6-3.1h-6.9"/>
	<path  d="M9.7,4.2c0-1.9,1.5-3.5,3.5-3.5s3.5,1.5,3.5,3.5"/>
	<path  d="M24.9,4.2c0-1.9,1.5-3.5,3.5-3.5c1.9,0,3.5,1.5,3.5,3.5"/>
	<circle  cx="20.3" cy="20" r="3.5"/>
	<line  x1="16.7" y1="19" x2="18.2" y2="4.2"/>
	<line  x1="24.5" y1="19.4" x2="22.9" y2="4.3"/>
	<path  d="M18.2,4.5c0-1.3,1.1-2.4,2.4-2.4c1.3,0,2.4,1.1,2.4,2.4"/>
</g>
</svg>
