<?xml version="1.0" encoding="utf-8"?>
<!-- Generator: Adobe Illustrator 21.0.0, SVG Export Plug-In . SVG Version: 6.00 Build 0)  -->
<svg version="1.1" id="Layer_1" xmlns="http://www.w3.org/2000/svg" xmlns:xlink="http://www.w3.org/1999/xlink" x="0px" y="0px"
	 viewBox="0 0 50 50" style="enable-background:new 0 0 50 50;" xml:space="preserve">
<title>Binokulars-big</title>
<g id="Layer_2">
	<g id="Layer_1-2">
		<path d="M48.9,29.7l-6.3-15c-0.7-1.7-2.2-3.1-3.9-3.7c0,0,0-0.1,0-0.1c0-2.7-2.2-4.6-4.7-4.6s-4.8,1.9-4.8,4.3h-0.8
			c-0.4-1.9-2.2-3.1-4-2.7C23,8,21.9,9.1,21.6,10.5h-0.8c-0.1-2.6-2.2-4.6-4.8-4.6c0,0,0,0,0,0c-2.6,0-4.8,2.1-4.8,4.7
			c0,0,0,0.1,0,0.1c0,0.1,0,0.1,0,0.2c-1.7,0.7-3.1,2-3.8,3.7c0,0-6.6,15.4-6.6,15.5c-2,5.3,0.6,11.2,5.9,13.2s11.2-0.6,13.2-5.9
			c0.4-1.2,0.7-2.4,0.7-3.6c0-0.1,0-0.2,0-0.3c1.5,2.4,4.7,3.1,7.2,1.6c0.6-0.4,1.2-1,1.6-1.6c0,0.1,0,0.2,0,0.3
			c0,5.6,4.6,10.2,10.2,10.2c5.6,0,10.2-4.6,10.2-10.2C49.8,32.4,49.5,31,48.9,29.7L48.9,29.7z M33.9,7.1c2.1,0,3.7,1.4,3.8,3.5
			c-0.4-0.1-0.8-0.1-1.2-0.1h-6.3C30.3,8.5,31.9,7.1,33.9,7.1z M22.5,11.1c-0.1-1.4,0.9-2.5,2.3-2.6c1.4-0.1,2.5,0.9,2.6,2.3
			c0,0.1,0,0.2,0,0.3L29,27.4c-1.7-2.2-5-2.6-7.2-0.9c-0.3,0.2-0.6,0.5-0.9,0.9C20.9,27.3,22.5,11.1,22.5,11.1z M16,7
			c2,0,3.7,1.5,3.8,3.6h-6.2c-0.5,0-0.9,0.1-1.3,0.2C12.3,8.6,14,6.9,16,7C16,7,16,7,16,7z M10.4,43c-5.1,0-9.2-4.1-9.2-9.2
			s4.1-9.2,9.2-9.2s9.2,4.1,9.2,9.2l0,0C19.6,38.9,15.5,43,10.4,43z M19.7,29.6c-2.3-5.2-8.3-7.5-13.4-5.2c-1,0.4-1.9,1-2.7,1.8
			L8.4,15c0.9-2.1,2.9-3.5,5.2-3.5h7.9L19.7,29.6z M25,34.8c-2.3,0-4.2-1.8-4.3-4.2s1.8-4.2,4.2-4.3s4.2,1.8,4.3,4.2c0,0,0,0,0,0
			C29.1,32.9,27.3,34.8,25,34.8z M28.5,11.5h8c2.3,0,4.3,1.4,5.2,3.5l4.7,11.2c-4.2-3.8-10.6-3.5-14.4,0.7c-0.7,0.8-1.3,1.7-1.7,2.7
			L28.5,11.5z M39.6,43c-5.1,0-9.2-4.1-9.2-9.2s4.1-9.2,9.2-9.2s9.2,4.1,9.2,9.2l0,0C48.8,38.9,44.7,43,39.6,43z"/>
		<path  d="M39.6,38.7c-2.8,0-5-2.2-5-5c0-0.3-0.2-0.5-0.5-0.5s-0.5,0.2-0.5,0.5c0,3.3,2.7,6,6,6c0.3,0,0.5-0.2,0.5-0.5
			S39.8,38.7,39.6,38.7z"/>
		<path d="M9.4,38.7c-2.8,0-5-2.2-5-5c0-0.3-0.2-0.5-0.5-0.5s-0.5,0.2-0.5,0.5c0,3.3,2.7,6,6,6c0.3,0,0.5-0.2,0.5-0.5
			S9.7,38.7,9.4,38.7z"/>
	</g>
</g>
</svg>
