<?xml version="1.0" encoding="utf-8"?>
<!-- Generator: Adobe Illustrator 21.0.0, SVG Export Plug-In . SVG Version: 6.00 Build 0)  -->
<svg version="1.1" id="Layer_1" xmlns="http://www.w3.org/2000/svg" xmlns:xlink="http://www.w3.org/1999/xlink" x="0px" y="0px"
	 viewBox="0 0 50 50" style="enable-background:new 0 0 50 50;" xml:space="preserve">
<title>A-Calendar-Small</title>
<g id="Layer_2">
	<g id="Layer_2-2">
		<polygon  points="23.6,30.5 23.6,43.3 28.9,43.3 28.9,24 24.5,24 17.7,30.5 20.5,33.7 		"/>
		<path d="M13.8,13.8c1.3,0,2.4-1.1,2.4-2.4c0,0,0,0,0,0v-9C16.2,1,15,0,13.7,0.1c-1.2,0.1-2.2,1.1-2.3,2.3v9
			C11.4,12.7,12.5,13.8,13.8,13.8C13.8,13.8,13.8,13.8,13.8,13.8z"/>
		<path d="M36.2,13.8c1.3,0,2.4-1.1,2.4-2.4c0,0,0,0,0,0v-9C38.5,1,37.4,0,36,0.1c-1.2,0.1-2.2,1.1-2.3,2.3v9
			C33.8,12.7,34.8,13.8,36.2,13.8C36.2,13.8,36.2,13.8,36.2,13.8z"/>
		<path d="M41.1,5.6v5.7c0,2.6-2.1,4.8-4.8,4.8h-0.2c-2.6,0-4.7-2.1-4.7-4.8V4.6H18.8v6.6c0,2.6-2.1,4.8-4.8,4.8h-0.2
			C11.2,16,9,13.9,9,11.2V5.5C4.3,7.5,1.2,12,1.1,17.1v20.3c0.1,6.9,5.6,12.4,12.5,12.5h22.8c7-0.1,12.6-5.8,12.5-12.8v-20
			C48.8,12,45.7,7.5,41.1,5.6z M45.7,37.1c0.1,5.2-4.1,9.6-9.3,9.6H13.6c-5.1-0.1-9.3-4.2-9.3-9.3V20.6h41.5V37.1z"/>
	</g>
</g>
</svg>
