<?xml version="1.0" encoding="UTF-8" standalone="no"?>
<!-- Generator: Adobe Illustrator 21.0.0, SVG Export Plug-In . SVG Version: 6.00 Build 0)  -->

<svg
   xmlns:dc="http://purl.org/dc/elements/1.1/"
   xmlns:cc="http://creativecommons.org/ns#"
   xmlns:rdf="http://www.w3.org/1999/02/22-rdf-syntax-ns#"
   xmlns:svg="http://www.w3.org/2000/svg"
   xmlns="http://www.w3.org/2000/svg"
   xmlns:sodipodi="http://sodipodi.sourceforge.net/DTD/sodipodi-0.dtd"
   xmlns:inkscape="http://www.inkscape.org/namespaces/inkscape"
   version="1.1"
   id="Layer_1"
   x="0px"
   y="0px"
   viewBox="0 0 128 128"
   style="enable-background:new 0 0 128 128;"
   xml:space="preserve"
   sodipodi:docname="chart_click2.svg"
   inkscape:version="0.92.2 (5c3e80d, 2017-08-06)"><metadata
     id="metadata37"><rdf:RDF><cc:Work
         rdf:about=""><dc:format>image/svg+xml</dc:format><dc:type
           rdf:resource="http://purl.org/dc/dcmitype/StillImage" /></cc:Work></rdf:RDF></metadata><defs
     id="defs35" /><sodipodi:namedview
     pagecolor="#ffffff"
     bordercolor="#666666"
     borderopacity="1"
     objecttolerance="10"
     gridtolerance="10"
     guidetolerance="10"
     inkscape:pageopacity="0"
     inkscape:pageshadow="2"
     inkscape:window-width="1366"
     inkscape:window-height="691"
     id="namedview33"
     showgrid="false"
     inkscape:zoom="1.84375"
     inkscape:cx="-15.728814"
     inkscape:cy="62.915254"
     inkscape:window-x="0"
     inkscape:window-y="26"
     inkscape:window-maximized="1"
     inkscape:current-layer="g30" /><style
     type="text/css"
     id="style2">
	.st0{fill:none;stroke:#E5AD2A;stroke-width:2.5961;stroke-linecap:round;stroke-miterlimit:10;}
</style><g
     id="g30"><g
       id="g18" /><path
       style="color:#000000;font-style:normal;font-variant:normal;font-weight:normal;font-stretch:normal;font-size:medium;line-height:normal;font-family:sans-serif;font-variant-ligatures:normal;font-variant-position:normal;font-variant-caps:normal;font-variant-numeric:normal;font-variant-alternates:normal;font-feature-settings:normal;text-indent:0;text-align:start;text-decoration:none;text-decoration-line:none;text-decoration-style:solid;text-decoration-color:#000000;letter-spacing:normal;word-spacing:normal;text-transform:none;writing-mode:lr-tb;direction:ltr;text-orientation:mixed;dominant-baseline:auto;baseline-shift:baseline;text-anchor:start;white-space:normal;shape-padding:0;clip-rule:nonzero;display:inline;overflow:visible;visibility:visible;opacity:1;isolation:auto;mix-blend-mode:normal;color-interpolation:sRGB;color-interpolation-filters:linearRGB;solid-color:#000000;solid-opacity:1;vector-effect:none;fill:#e5ad2a;fill-opacity:1;fill-rule:nonzero;stroke:none;stroke-width:2.59610009;stroke-linecap:round;stroke-linejoin:miter;stroke-miterlimit:10;stroke-dasharray:none;stroke-dashoffset:0;stroke-opacity:1;color-rendering:auto;image-rendering:auto;shape-rendering:auto;text-rendering:auto;enable-background:accumulate"
       d="m 46.279297,22.6875 a 1.2981799,1.2981799 0 0 0 -1.056641,0.589844 l -12.833984,19.125 H 3.0996094 a 1.2981799,1.2981799 0 1 0 0,2.595703 H 30.646484 l -3.357422,5.003906 H 2.921875 l 9.603516,48.947266 c 0.711865,3.673401 3.860712,6.349611 7.574218,6.349611 h 78.201172 c 3.708139,0 6.898519,-2.7009 7.546879,-6.292971 l 1.87695,6.126951 4.3457,-8.925779 9.62891,9.628909 5.04101,-5.04102 -9.64257,-9.542967 8.88672,-4.443359 -3.10352,-0.949219 -13.54297,-4.146484 6.24023,-31.710938 H 91.310547 l -3.357422,-5.003906 h 26.947265 a 1.2981799,1.2981799 0 1 0 0,-2.595703 H 86.210938 l -12.833985,-19.125 a 1.2981799,1.2981799 0 1 0 -2.154297,1.445312 L 83.085938,42.402344 H 35.513672 L 47.376953,24.722656 A 1.2981799,1.2981799 0 0 0 46.279297,22.6875 Z M 33.771484,44.998047 h 51.056641 l 3.357422,5.003906 H 30.414062 Z M 6.0761719,52.597656 H 25.546875 l -5.582031,8.31836 c -0.02277,-3.63e-4 -0.04161,-0.01367 -0.06445,-0.01367 -2.358373,0 -4.298829,1.938502 -4.298829,4.296875 0,2.358372 1.940456,4.298828 4.298829,4.298828 2.358372,0 4.296875,-1.940456 4.296875,-4.298828 0,-1.382235 -0.707999,-2.563199 -1.734375,-3.351563 l 6.208984,-9.25 h 61.255859 l 6.628907,9.876953 c -0.630441,0.748574 -1.054688,1.678596 -1.054688,2.72461 0,2.358372 1.940456,4.298828 4.298828,4.298828 2.358369,-2e-6 4.296879,-1.940457 4.296879,-4.298828 0,-2.358371 -1.93851,-4.296873 -4.296879,-4.296875 -0.365246,0 -0.693692,0.12354 -1.033203,0.210937 l -5.714844,-8.515625 h 19.369146 l -5.57813,28.351563 -7.201172,-2.205078 4.587892,14.982421 a 1.2981799,1.2981799 0 0 0 -0.006,0.0293 l -0.90234,4.714844 -0.002,0.01563 c -0.39311,2.358652 -2.56158,4.214842 -5.019529,4.214842 H 20.099609 c -2.485868,0 -4.536555,-1.7224 -5.02539,-4.248045 v -0.002 z m 32.3085941,7.486328 a 1.2981799,1.2981799 0 0 0 -1.277344,1.439454 l 3.300781,34.300781 a 1.2981799,1.2981799 0 1 0 2.583985,-0.248047 L 39.691406,61.275391 a 1.2981799,1.2981799 0 0 0 -1.30664,-1.191407 z m 21.595703,0 a 1.2981799,1.2981799 0 0 0 -1.279297,1.316407 v 34 a 1.298828,1.298828 0 1 0 2.597656,0 v -34 a 1.2981799,1.2981799 0 0 0 -1.318359,-1.316407 z m 21.896484,0 a 1.2981799,1.2981799 0 0 0 -1.269531,1.191407 l -3.298828,34.300781 a 1.2981799,1.2981799 0 1 0 2.583984,0.248047 l 3.298828,-34.300781 a 1.2981799,1.2981799 0 0 0 -1.314453,-1.439454 z m -61.976562,3.414063 c 0.955336,0 1.701172,0.745836 1.701171,1.701172 0,0.955336 -0.745835,1.703125 -1.701171,1.703125 -0.955336,0 -1.703125,-0.747789 -1.703125,-1.703125 0,-0.955336 0.747789,-1.701172 1.703125,-1.701172 z m 79.90039,0 c 0.955339,10e-7 1.701169,0.745837 1.701169,1.701172 0,0.955335 -0.74583,1.703124 -1.701169,1.703125 -0.955336,0 -1.703125,-0.747789 -1.703125,-1.703125 0,-0.955336 0.747789,-1.701172 1.703125,-1.701172 z m -78.691406,8.785156 a 1.2981799,1.2981799 0 0 0 -1.287109,1.542969 l 3.90039,22.099609 a 1.2981799,1.2981799 0 1 0 2.554688,-0.451172 L 22.378906,73.375 a 1.2981799,1.2981799 0 0 0 -1.269531,-1.091797 z m 77.742187,0.002 A 1.2981799,1.2981799 0 0 0 97.621094,73.375 l -3.898438,22.099609 a 1.2981799,1.2981799 0 1 0 2.554688,0.451172 l 3.900386,-22.099609 a 1.2981799,1.2981799 0 0 0 -1.326168,-1.541016 z m 4.705078,10.371094 15.45898,4.734375 -6.3164,3.158203 10.35937,10.255862 -1.35937,1.35937 -10.36914,-10.369138 -3.05469,6.273437 z"
       id="line28"
       inkscape:connector-curvature="0" /></g></svg>