<?xml version="1.0" encoding="utf-8"?>
<!-- Generator: Adobe Illustrator 21.0.0, SVG Export Plug-In . SVG Version: 6.00 Build 0)  -->
<svg version="1.1" id="Layer_1" xmlns="http://www.w3.org/2000/svg" xmlns:xlink="http://www.w3.org/1999/xlink" x="0px" y="0px"
	 width="50.3" heigth="43.2"
	 viewBox="0 0 50.3 43.2" style="enable-background:new 0 0 50.3 43.2;" xml:space="preserve">
<g fill="none" stroke="#FCCA37">
	<ellipse cx="14.1" cy="6.4" rx="13.4" ry="5.7"/>
	<path d="M26.5,8.6c0.7,0.7,1.1,1.4,1.1,2.2c0,3.1-6,5.7-13.4,5.7S0.7,13.9,0.7,10.8c0-0.8,0.4-1.5,1.1-2.2"/>
	<path d="M26.5,13.8c0.7,0.7,1.1,1.4,1.1,2.2c0,3.1-6,5.7-13.4,5.7S0.7,19.1,0.7,16c0-0.8,0.4-1.5,1.1-2.2"/>
	<path d="M26.5,19c0.7,0.7,1.1,1.4,1.1,2.2c0,3.1-6,5.7-13.4,5.7S0.7,24.4,0.7,21.2c0-0.8,0.4-1.5,1.1-2.2"/>
	<path d="M26.5,24.2c0.7,0.7,1.1,1.4,1.1,2.2c0,3.1-6,5.7-13.4,5.7S0.7,29.6,0.7,26.4c0-0.8,0.4-1.5,1.1-2.2"/>
	<path d="M26.5,29.4c0.7,0.7,1.1,1.4,1.1,2.2c0,3.1-6,5.7-13.4,5.7S0.7,34.8,0.7,31.7c0-0.8,0.4-1.5,1.1-2.2"/>
	<path d="M26.5,34.7c0.7,0.7,1.1,1.4,1.1,2.2c0,3.1-6,5.7-13.4,5.7S0.7,40,0.7,36.9c0-0.8,0.4-1.5,1.1-2.2"/>
	<path d="M27.6,9.4c2.3-0.8,5.3-1.3,8.6-1.3c7.4,0,13.4,2.5,13.4,5.7s-6,5.7-13.4,5.7c-3.5,0-6.6-0.6-9-1.5"/>
	<path d="M48.6,15.9c0.7,0.7,1.1,1.4,1.1,2.2c0,3.1-6,5.7-13.4,5.7c-3.3,0-6.4-0.5-8.7-1.4"/>
	<path d="M48.6,21.2c0.7,0.7,1.1,1.4,1.1,2.2c0,3.1-6,5.7-13.4,5.7c-3.4,0-6.4-0.5-8.8-1.4"/>
	<path d="M48.6,26.4c0.7,0.7,1.1,1.4,1.1,2.2c0,3.1-6,5.7-13.4,5.7c-3.3,0-6.4-0.5-8.7-1.4"/>
	<path d="M48.6,31.6c0.7,0.7,1.1,1.4,1.1,2.2c0,3.1-6,5.7-13.4,5.7c-3.4,0-6.4-0.5-8.8-1.4"/>
</g>
</svg>
