<svg id="Layer_1" xmlns="http://www.w3.org/2000/svg" viewBox="0 0 50 50"><g id="Layer_2"><path d="M50 27c0-1-.5-1.9-1.2-2.6h-.1c.8-.7 1.3-1.7 1.3-2.7 0-.9-.4-1.7-1-2.3.5-.6.9-1.4.9-2.2 0-3.5-6.1-6.2-13.9-6.2-3 0-5.9.4-8.8 1.3-.1-.2-.3-.3-.4-.5.6-.6.9-1.4 1-2.3 0-3.5-6.1-6.2-13.9-6.2S0 6.2 0 9.6c0 .9.4 1.7 1 2.3-.6.6-1 1.4-1 2.3.1 1 .5 2 1.3 2.6h-.1c-.7.7-1.2 1.6-1.2 2.6.1 1 .5 2 1.3 2.6h-.1c-.7.7-1.2 1.6-1.2 2.7 0 1 .5 2 1.3 2.6-.8.6-1.3 1.6-1.3 2.6.1 1 .5 2 1.4 2.7l-.1.1c-.8.5-1.3 1.5-1.3 2.5.1 1 .5 2 1.3 2.6h-.1c-.7.6-1.2 1.6-1.2 2.6 0 3.4 6.3 6.2 14 6.2 6.3 0 11.5-1.8 13.3-4.3 2.8 1 5.8 1.4 8.8 1.4 7.8 0 13.9-2.7 13.9-6.2 0-1-.5-1.9-1.2-2.5.8-.7 1.2-1.6 1.2-2.7 0-1-.5-1.9-1.2-2.5C49.5 29 50 28 50 27zm-2-1.8c.6.5.9 1.1 1 1.9 0 2.5-5.2 5.2-12.9 5.2-2.9 0-5.7-.4-8.4-1.3.1-.3.2-.7.2-1.1 0-1-.5-1.9-1.2-2.5.2-.2.5-.5.7-.8 2.8 1 5.8 1.5 8.8 1.4 5.1 0 9.4-1.2 11.8-2.9v.1zm-11.9 1.7c-2.8.1-5.7-.4-8.4-1.3.1-.3.2-.7.2-1 0-1-.5-1.9-1.2-2.5l.2-.2c2.9 1.1 6 1.6 9.2 1.6 5.4 0 10-1.3 12.3-3.3.4.4.7 1 .7 1.6-.1 2.4-5.3 5.1-13 5.1zM36 12.1c7.1 0 12.9 2.3 12.9 5.2s-5.8 5.2-12.9 5.2c-2.9 0-5.8-.4-8.6-1.4.3-.5.5-1 .5-1.6 0-1-.5-1.9-1.2-2.5.8-.7 1.2-1.6 1.3-2.6 0-.3-.1-.7-.2-1 2.6-1 5.4-1.4 8.2-1.3zM13.9 4.4c7 0 12.9 2.4 12.9 5.2s-5.9 5.2-12.9 5.2S1 12.4 1 9.6s5.9-5.2 12.9-5.2zM1 14.3c0-.6.3-1.2.7-1.6 2.3 1.9 6.9 3.2 12.2 3.2s9.9-1.3 12.2-3.2c.4.4.7 1 .8 1.6 0 2.5-5.2 5.2-12.9 5.2-6.9-.1-13-2.5-13-5.2zm0 5.1c.1-.7.4-1.4 1-1.9v-.1c2.5 1.8 6.9 3 12 3s9.5-1.2 11.9-2.9c0 0 0 .1.1.1.6.5.9 1.1 1 1.8 0 2.5-5.2 5.2-12.9 5.2-7 .1-13.1-2.4-13.1-5.2zm0 5.2c.1-.7.4-1.4 1-1.9v-.1c2.5 1.8 6.9 3 12 3s9.5-1.2 11.9-3c0 0 0 .1.1.1.6.5.9 1.1 1 1.9 0 2.5-5.2 5.2-12.9 5.2C7 29.9 1 27.4 1 24.6zm0 5.2c.1-.7.4-1.4 1-1.9v-.1c2.4 1.8 6.8 3 12 3s9.5-1.2 11.9-3c0 0 0 .1.1.1.6.5.9 1.1 1 1.9 0 2.5-5.2 5.2-12.9 5.2C7 35.1 1 32.7 1 29.8zm0 5.3c.1-.7.4-1.4 1-1.8 0-.1.1-.1.1-.2C4.5 34.9 8.9 36 14 36s9.5-1.2 11.9-3c0 0 0 .1.1.1.6.5.9 1.1 1 1.8 0 2.5-5.2 5.2-12.9 5.2C7 40.3 1 37.9 1 35.1zm13 10.4c-6.9 0-13-2.4-13-5.2.1-.7.4-1.4 1-1.8 0 0 .1-.1.1-.2 2.4 1.7 6.8 2.9 12 2.9s9.4-1.2 11.8-2.9c0 .1.1.1.1.2.6.5.9 1.1 1 1.8-.1 2.6-5.3 5.3-13 5.2zm34-10c.6.5 1 1.2 1 1.9 0 2.5-5.2 5.2-12.9 5.2-2.8 0-5.7-.4-8.4-1.3.1-.3.2-.7.2-1 0-1-.5-1.9-1.2-2.5l-.1-.1c.2-.2.5-.5.7-.8 2.8 1 5.9 1.5 8.9 1.5 5 0 9.4-1.2 11.8-2.9zm0-5.2c.6.5.9 1.1 1 1.9 0 2.5-5.2 5.2-12.9 5.2-2.9.1-5.7-.4-8.4-1.3.1-.3.2-.7.2-1 0-1-.5-1.9-1.2-2.5.2-.2.4-.4.6-.7 2.9 1 5.9 1.5 8.9 1.4 5 0 9.4-1.2 11.8-3 0 0 0 .1 0 0z" id="Layer_1-2"/></g></svg>