<?xml version="1.0" encoding="utf-8"?>
<!-- Generator: Adobe Illustrator 21.0.0, SVG Export Plug-In . SVG Version: 6.00 Build 0)  -->
<svg version="1.1" id="Layer_1" xmlns="http://www.w3.org/2000/svg" xmlns:xlink="http://www.w3.org/1999/xlink" x="0px" y="0px"
	 viewBox="0 0 50 50" style="enable-background:new 0 0 50 50;" xml:space="preserve">
<title>Coin-big</title>
<g id="Layer_2">
	<g id="Layer_1-2">
		<path  d="M25,46C13.4,46,4,36.6,4,25S13.4,4,25,4s21,9.4,21,21S36.6,46,25,46z M25,5C14,5,5,14,5,25s9,20,20,20
			s20-9,20-20S36,5,25,5z"/>
		<path  d="M25.7,33.8c-0.3,0-0.5-0.2-0.5-0.5V14.2l-5.9,3.9c-0.2,0.2-0.5,0.1-0.7-0.1s-0.1-0.5,0.1-0.7l7.5-4.9v20.9
			C26.2,33.6,26,33.8,25.7,33.8z"/>
		<path  d="M24.9,41.1c-8.9,0-16.2-7.2-16.2-16.2c0-4.8,2.1-9.3,5.8-12.4c0.2-0.2,0.5-0.2,0.7,0.1s0.2,0.5-0.1,0.7
			c-6.4,5.4-7.2,15-1.8,21.4s15,7.2,21.4,1.8c3.4-2.9,5.4-7.1,5.4-11.6c0-4.6-2.1-8.9-5.6-11.8c-0.2-0.2-0.2-0.5-0.1-0.7
			c0.2-0.2,0.5-0.2,0.7-0.1c6.9,5.6,8,15.9,2.4,22.8C34.4,38.9,29.8,41.1,24.9,41.1z"/>
	</g>
</g>
</svg>
