<?xml version="1.0" encoding="utf-8"?>
<!-- Generator: Adobe Illustrator 21.0.0, SVG Export Plug-In . SVG Version: 6.00 Build 0)  -->
<svg version="1.1" id="Layer_1" xmlns="http://www.w3.org/2000/svg" xmlns:xlink="http://www.w3.org/1999/xlink" x="0px" y="0px"
	 viewBox="0 0 50 50" style="enable-background:new 0 0 50 50;" xml:space="preserve">
<style type="text/css">
</style>
<title>Coins-big</title>
<g id="Layer_2">
	<g id="Layer_1-2">
		<path  d="M50,27c0-1-0.5-1.9-1.2-2.6h-0.1c0.8-0.7,1.3-1.7,1.3-2.7c0-0.9-0.4-1.7-1-2.3c0.5-0.6,0.9-1.4,0.9-2.2
			c0-3.5-6.1-6.2-13.9-6.2c-3,0-5.9,0.4-8.8,1.3c-0.1-0.2-0.3-0.3-0.4-0.5c0.6-0.6,0.9-1.4,1-2.3c0-3.5-6.1-6.2-13.9-6.2
			S0,6.2,0,9.6c0,0.9,0.4,1.7,1,2.3c-0.6,0.6-1,1.4-1,2.3c0.1,1,0.5,2,1.3,2.6H1.2C0.5,17.5,0,18.4,0,19.4c0.1,1,0.5,2,1.3,2.6H1.2
			C0.5,22.7,0,23.6,0,24.7c0,1,0.5,2,1.3,2.6l0,0C0.5,27.9,0,28.9,0,29.9c0.1,1,0.5,2,1.4,2.7l-0.1,0.1C0.5,33.2,0,34.2,0,35.2
			c0.1,1,0.5,2,1.3,2.6H1.2C0.5,38.4,0,39.4,0,40.4c0,3.4,6.3,6.2,14,6.2c6.3,0,11.5-1.8,13.3-4.3c2.8,1,5.8,1.4,8.8,1.4
			c7.8,0,13.9-2.7,13.9-6.2c0-1-0.5-1.9-1.2-2.5l0,0c0.8-0.7,1.2-1.6,1.2-2.7c0-1-0.5-1.9-1.2-2.5l0,0C49.5,29,50,28,50,27z
			 M48,25.2c0.6,0.5,0.9,1.1,1,1.9c0,2.5-5.2,5.2-12.9,5.2c-2.9,0-5.7-0.4-8.4-1.3c0.1-0.3,0.2-0.7,0.2-1.1c0-1-0.5-1.9-1.2-2.5l0,0
			c0.2-0.2,0.5-0.5,0.7-0.8c2.8,1,5.8,1.5,8.8,1.4c5.1,0,9.4-1.2,11.8-2.9C48,25.1,48,25.1,48,25.2L48,25.2z M36.1,26.9
			c-2.8,0.1-5.7-0.4-8.4-1.3c0.1-0.3,0.2-0.7,0.2-1c0-1-0.5-1.9-1.2-2.5l0,0l0.2-0.2l0,0c2.9,1.1,6,1.6,9.2,1.6
			c5.4,0,10-1.3,12.3-3.3c0.4,0.4,0.7,1,0.7,1.6C49,24.2,43.8,26.9,36.1,26.9z M36,12.1c7.1,0,12.9,2.3,12.9,5.2s-5.8,5.2-12.9,5.2
			c-2.9,0-5.8-0.4-8.6-1.4c0.3-0.5,0.5-1,0.5-1.6c0-1-0.5-1.9-1.2-2.5l0,0c0.8-0.7,1.2-1.6,1.3-2.6c0-0.3-0.1-0.7-0.2-1
			C30.4,12.4,33.2,12,36,12.1z M13.9,4.4c7,0,12.9,2.4,12.9,5.2s-5.9,5.2-12.9,5.2S1,12.4,1,9.6S6.9,4.4,13.9,4.4z M1,14.3
			c0-0.6,0.3-1.2,0.7-1.6c2.3,1.9,6.9,3.2,12.2,3.2s9.9-1.3,12.2-3.2c0.4,0.4,0.7,1,0.8,1.6c0,2.5-5.2,5.2-12.9,5.2
			C7.1,19.4,1,17,1,14.3z M1,19.4c0.1-0.7,0.4-1.4,1-1.9c0,0,0-0.1,0-0.1c2.5,1.8,6.9,3,12,3s9.5-1.2,11.9-2.9c0,0,0,0.1,0.1,0.1
			c0.6,0.5,0.9,1.1,1,1.8c0,2.5-5.2,5.2-12.9,5.2C7.1,24.7,1,22.2,1,19.4z M1,24.6c0.1-0.7,0.4-1.4,1-1.9c0,0,0-0.1,0-0.1
			c2.5,1.8,6.9,3,12,3s9.5-1.2,11.9-3c0,0,0,0.1,0.1,0.1c0.6,0.5,0.9,1.1,1,1.9c0,2.5-5.2,5.2-12.9,5.2C7,29.9,1,27.4,1,24.6L1,24.6
			z M1,29.8c0.1-0.7,0.4-1.4,1-1.9c0,0,0-0.1,0-0.1c2.4,1.8,6.8,3,12,3s9.5-1.2,11.9-3c0,0,0,0.1,0.1,0.1c0.6,0.5,0.9,1.1,1,1.9
			c0,2.5-5.2,5.2-12.9,5.2C7,35.1,1,32.7,1,29.8L1,29.8z M1,35.1c0.1-0.7,0.4-1.4,1-1.8c0-0.1,0.1-0.1,0.1-0.2
			c2.4,1.8,6.8,2.9,11.9,2.9s9.5-1.2,11.9-3c0,0,0,0.1,0.1,0.1c0.6,0.5,0.9,1.1,1,1.8c0,2.5-5.2,5.2-12.9,5.2C7,40.3,1,37.9,1,35.1
			L1,35.1z M14,45.5c-6.9,0-13-2.4-13-5.2c0.1-0.7,0.4-1.4,1-1.8c0,0,0.1-0.1,0.1-0.2c2.4,1.7,6.8,2.9,12,2.9s9.4-1.2,11.8-2.9
			c0,0.1,0.1,0.1,0.1,0.2c0.6,0.5,0.9,1.1,1,1.8C26.9,42.9,21.7,45.6,14,45.5L14,45.5z M48,35.5c0.6,0.5,1,1.2,1,1.9
			c0,2.5-5.2,5.2-12.9,5.2c-2.8,0-5.7-0.4-8.4-1.3c0.1-0.3,0.2-0.7,0.2-1c0-1-0.5-1.9-1.2-2.5l-0.1-0.1c0.2-0.2,0.5-0.5,0.7-0.8
			c2.8,1,5.9,1.5,8.9,1.5C41.2,38.4,45.6,37.2,48,35.5C48,35.5,48,35.5,48,35.5L48,35.5z M48,30.3c0.6,0.5,0.9,1.1,1,1.9
			c0,2.5-5.2,5.2-12.9,5.2c-2.9,0.1-5.7-0.4-8.4-1.3c0.1-0.3,0.2-0.7,0.2-1c0-1-0.5-1.9-1.2-2.5l0,0c0.2-0.2,0.4-0.4,0.6-0.7
			c2.9,1,5.9,1.5,8.9,1.4C41.2,33.3,45.6,32.1,48,30.3C48,30.3,48,30.4,48,30.3L48,30.3z"/>
	</g>
</g>
</svg>
