<?xml version="1.0" ?><svg viewBox="0 0 32 32" xmlns="http://www.w3.org/2000/svg"><title/><g data-name="9-Computer-Communication" id="_9-Computer-Communication"><path d="M30,22H2V19H14V17H6V6H9V4H5A1,1,0,0,0,4,5V17H2V3A1,1,0,0,1,3,2h7V0H3A3,3,0,0,0,0,3V23a1,1,0,0,0,1,1H9.85l-.71,5H8a1,1,0,0,0-1,1H5v2H27V30H25a1,1,0,0,0-1-1H22.87l-.71-5H31a1,1,0,0,0,1-1V17H30ZM11.15,29l.71-5h8.27l.71,5Z"/><path d="M29,1H15a3,3,0,0,0-3,3v6a3,3,0,0,0,3,3h2v4a1,1,0,0,0,1.71.71L23.41,13H29a3,3,0,0,0,3-3V4A3,3,0,0,0,29,1Zm1,9a1,1,0,0,1-1,1H23a1,1,0,0,0-.71.29L19,14.59V12a1,1,0,0,0-1-1H15a1,1,0,0,1-1-1V4a1,1,0,0,1,1-1H29a1,1,0,0,1,1,1Z"/><rect height="2" width="2" x="21" y="6"/><rect height="2" width="2" x="25" y="6"/><rect height="2" width="2" x="17" y="6"/></g></svg>