<svg xmlns="http://www.w3.org/2000/svg" id="Layer_1" viewBox="0 0 128 128"><g><path d="M30.4 10.342c-3.102 0-5.658 2.555-5.658 5.658v96l.002-.063c-.136 3.136 2.487 5.721 5.656 5.721h1a1.457 1.457 0 0 0 1.457-1.459c0-1.908 1.507-3.441 3.543-3.441 1.909 0 3.472 1.557 3.543 3.496a1.457 1.457 0 0 0 1.457 1.404h8.5a1.457 1.457 0 0 0 1.457-1.459c0-1.908 1.507-3.441 3.543-3.441 1.909 0 3.472 1.557 3.543 3.496a1.457 1.457 0 0 0 1.457 1.404h8.5a1.457 1.457 0 0 0 1.457-1.459c0-1.908 1.507-3.441 3.543-3.441 1.909 0 3.472 1.557 3.543 3.496a1.457 1.457 0 0 0 1.457 1.404h8.5a1.457 1.457 0 0 0 1.457-1.459c0-1.908 1.507-3.441 3.543-3.441 1.909 0 3.472 1.557 3.543 3.496a1.457 1.457 0 0 0 1.457 1.404h1c3.103 0 5.657-2.555 5.657-5.658V16c0-3.103-2.554-5.658-5.657-5.658zm0 2.916h67.5A2.764 2.764 0 0 1 100.643 16v96c0 1.452-1.19 2.621-2.625 2.693-.756-2.748-3.145-4.851-6.118-4.851-3.036 0-5.468 2.124-6.156 4.9h-6.217c-.74-2.772-3.136-4.9-6.127-4.9-3.036 0-5.468 2.124-6.156 4.9h-6.217c-.74-2.772-3.136-4.9-6.127-4.9-3.036 0-5.468 2.124-6.156 4.9h-6.217c-.74-2.772-3.136-4.9-6.127-4.9-3.016 0-5.436 2.095-6.144 4.844-1.54-.084-2.661-1.211-2.6-2.624a1.457 1.457 0 0 0 .002-.062V16a2.764 2.764 0 0 1 2.742-2.742zm2.3 7.385a1.457 1.457 0 1 0 0 2.914h62.6a1.457 1.457 0 1 0 0-2.914zm58.65 19.884a1.457 1.457 0 0 0-1.09.565l-8.467 10.64c-4.085-5.962-10.934-9.89-18.693-9.89-12.496 0-22.657 10.162-22.657 22.658S50.603 87.158 63.1 87.158c12.496 0 22.658-10.162 22.658-22.658 0-3.61-.926-6.978-2.434-10.01l9.217-11.582a1.457 1.457 0 0 0-1.191-2.38zm-28.25 4.23c7.114 0 13.285 3.778 16.76 9.407L61.83 76.822l-10.068-13.3a1.457 1.457 0 1 0-2.325 1.757L60.64 80.08a1.457 1.457 0 0 0 2.3.027l18.407-23.13a19.702 19.702 0 0 1 1.496 7.523c0 10.92-8.822 19.742-19.742 19.742-10.921 0-19.743-8.821-19.743-19.742 0-10.92 8.822-19.742 19.743-19.742zm-30.4 56.186a1.457 1.457 0 1 0 0 2.914h62.6a1.457 1.457 0 1 0 0-2.914z"/></g></svg>