<?xml version="1.0" encoding="UTF-8" standalone="no"?>
<svg
    xmlns:dc="http://purl.org/dc/elements/1.1/"
    xmlns:cc="http://creativecommons.org/ns#"
    xmlns:rdf="http://www.w3.org/1999/02/22-rdf-syntax-ns#"
    xmlns:svg="http://www.w3.org/2000/svg"
    xmlns="http://www.w3.org/2000/svg"
    xmlns:sodipodi="http://sodipodi.sourceforge.net/DTD/sodipodi-0.dtd"
    xmlns:inkscape="http://www.inkscape.org/namespaces/inkscape"
    id="Layer_1"
    data-name="Layer 1"
    viewBox="0 0 58 58"
    version="1.1"
    sodipodi:docname="flogo-RGB-HEX-Blk-58.svg"
    inkscape:version="0.92.3 (2405546, 2018-03-11)">
  <metadata
      id="metadata14">
    <rdf:RDF>
      <cc:Work
          rdf:about="">
        <dc:format>image/svg+xml</dc:format>
        <dc:type
            rdf:resource="http://purl.org/dc/dcmitype/StillImage" />
      </cc:Work>
    </rdf:RDF>
  </metadata>
  <sodipodi:namedview
      pagecolor="#ffffff"
      bordercolor="#666666"
      borderopacity="1"
      objecttolerance="10"
      gridtolerance="10"
      guidetolerance="10"
      inkscape:pageopacity="0"
      inkscape:pageshadow="2"
      inkscape:window-width="1366"
      inkscape:window-height="692"
      id="namedview12"
      showgrid="false"
      inkscape:zoom="4.069"
      inkscape:cx="2.7311"
      inkscape:cy="28.508"
      inkscape:window-x="1368"
      inkscape:window-y="25"
      inkscape:window-maximized="1"
      inkscape:current-layer="Layer_1" />
  <defs
      id="defs4">
    <style
        id="style2">.cls-1{fill:#fff;}</style>
  </defs>
  <title
      id="title6">flogo-RGB-HEX-Blk-58</title>
  <path
      d="M 42.26 8.7598 A 64.2 64.2 0 0 0 42.25 8.7598 C 40.578 8.7598 39.038 9.0141 37.67 9.5137 C 36.302 10.013 35.105 10.758 34.117 11.736 C 33.129 12.714 32.348 13.928 31.816 15.363 C 31.284 16.799 31 18.458 31 20.33 C 31 12.84 35.58 8.7598 42.26 8.7598 z "
      id="path839" />
  <path
      d="M 45.648 8.9219 A 64.2 64.2 0 0 0 42.592 8.7598 A 64.2 64.2 0 0 0 42.26 8.7598 A 64.2 64.2 0 0 1 45.648 8.9219 z "
      id="path837" />
  <path
      d="M 42.18 17.242 C 42.752 17.049 43.458 16.939 44.35 16.939 L 49 16.939 L 49 16.93 L 44.4 16.93 C 43.486 16.93 42.759 17.04 42.18 17.242 z "
      id="path835" />
  <path
      d="M 40 35.57 L 47.57 35.57 L 47.572 35.561 L 40 35.561 L 40 35.57 z "
      id="path833" />
  <path
      d="M 3.1992 0 A 3.2 3.2 0 0 0 0 3.1992 L 0 54.801 A 3.2 3.2 0 0 0 3.1992 58 L 31 58 L 31 35.57 L 23.449 35.57 L 23.449 26.789 L 31 26.789 L 31 20.33 C 31 18.458 31.284 16.799 31.816 15.363 C 32.348 13.928 33.129 12.714 34.117 11.736 C 35.105 10.758 36.302 10.013 37.67 9.5137 C 39.038 9.0141 40.578 8.7598 42.25 8.7598 A 64.2 64.2 0 0 1 42.26 8.7598 A 64.2 64.2 0 0 1 42.592 8.7598 A 64.2 64.2 0 0 1 45.648 8.9219 A 64.2 64.2 0 0 1 49 9.0996 L 49 16.93 L 49 16.939 L 44.35 16.939 C 43.458 16.939 42.752 17.049 42.18 17.242 C 40.451 17.846 40.051 19.287 40.051 21.189 L 40.051 26.779 L 48.75 26.779 L 47.619 35.561 L 47.572 35.561 L 47.57 35.57 L 40 35.57 L 40 58 L 54.801 58 A 3.2 3.2 0 0 0 58 54.801 L 58 3.1992 A 3.2 3.2 0 0 0 54.801 0 L 3.1992 0 z "
      id="path8" />
</svg>
