<?xml version="1.0" encoding="utf-8"?>
<!-- Generator: Adobe Illustrator 21.0.0, SVG Export Plug-In . SVG Version: 6.00 Build 0)  -->
<svg version="1.1" id="Layer_1" xmlns="http://www.w3.org/2000/svg" xmlns:xlink="http://www.w3.org/1999/xlink" x="0px" y="0px"
	 viewBox="0 0 35.6 25.1" width="35.6" height="25.1" xml:space="preserve">
<g>
	<path fill="none" d="M32.2,24.4H3.4c-1.5,0-2.7-1.2-2.7-2.7V3.4c0-1.5,1.2-2.7,2.7-2.7h28.8c1.5,0,2.7,1.2,2.7,2.7v18.2
		C34.9,23.2,33.7,24.4,32.2,24.4z"/>
	<line fill="none" x1="12.7" y1="0.7" x2="12.7" y2="5.8"/>
	<line fill="none" x1="12.7" y1="16.6" x2="12.7" y2="24.4"/>
	<line fill="none" x1="34.8" y1="12.5" x2="23.3" y2="12.5"/>
	<path fill="none" d="M12.7,12.5c0,0-3.5,0-5.4,0c-3.5,0-3-5.9,0.6-5.4S12.8,12.5,12.7,12.5c0,0-4.4,1.1-5.4,5"/>
	<path fill="none" d="M12.7,12.5c0,0,3.5,0,5.4,0c3.5,0,3-5.9-0.6-5.4S12.6,12.5,12.7,12.5c0,0,4.4,1.1,5.4,5"/>
</g>
</svg>
