<?xml version="1.0" encoding="utf-8"?>
<!-- Generator: Adobe Illustrator 21.0.0, SVG Export Plug-In . SVG Version: 6.00 Build 0)  -->
<svg version="1.1" id="Layer_1" xmlns="http://www.w3.org/2000/svg" xmlns:xlink="http://www.w3.org/1999/xlink" x="0px" y="0px"
	 viewBox="0 0 50 50" style="enable-background:new 0 0 50 50;" xml:space="preserve">
<title>Gift-Small</title>
<g id="Layer_2">
	<g id="Layer_1-2" stroke-width="0">
		<path d="M45.2,7.4H4.8C2.2,7.4,0,9.5,0,12.2v25.7c0,2.7,2.2,4.8,4.8,4.8h40.4c2.7,0,4.8-2.2,4.8-4.9c0,0,0-0.1,0-0.1
			V12.2C50,9.5,47.8,7.4,45.2,7.4z M45.2,40.6H18.9v-9.9c0-0.6-0.5-1-1-1s-1,0.5-1,1v9.9h-12c-1.5,0-2.7-1.2-2.8-2.7c0,0,0,0,0-0.1
			V12.2c0-1.5,1.2-2.7,2.7-2.8c0,0,0,0,0.1,0h12v6.1c0,0.6,0.5,1,1,1s1-0.5,1-1V9.4h26.3c1.5,0,2.7,1.2,2.8,2.7c0,0,0,0,0,0.1v11.7
			H32.7c-0.6,0-1,0.5-1,1s0.5,1,1,1h15.2v11.7c0.1,1.5-1.1,2.8-2.6,2.9C45.3,40.6,45.2,40.6,45.2,40.6z"/>
		<path d="M24.4,16.4c-3.4,0.5-5.4,3.2-6.6,5.5c-1.1-2.3-3.2-5-6.6-5.5c-1.7-0.3-3.4,0.4-4.4,1.8
			c-1.1,1.6-1.3,3.8-0.4,5.6c0.7,1.4,2.2,2.3,3.8,2.2h3.1c-2,1.4-3.4,3.4-4.1,5.7c-0.2,0.5,0.1,1.1,0.7,1.2c0,0,0,0,0.1,0
			c0.1,0,0.2,0,0.3,0c0.5,0,0.9-0.3,1-0.8c1.1-4.2,5.5-5.8,6.6-6.2c1.1,0.3,5.5,2,6.6,6.2c0.1,0.5,0.5,0.8,1,0.8c0.1,0,0.2,0,0.3,0
			c0.5-0.1,0.9-0.6,0.8-1.2c0,0,0,0,0-0.1c-0.6-2.3-2.1-4.4-4.1-5.7h3c1.6,0.1,3.1-0.8,3.8-2.2c0.9-1.8,0.7-3.9-0.4-5.6
			C27.8,16.8,26.1,16.1,24.4,16.4z M10.3,23.9c-0.8,0.1-1.6-0.4-2-1.1c-0.5-1.1-0.4-2.4,0.3-3.4c0.4-0.7,1.2-1,2-1
			c0.1,0,0.3,0,0.4,0c3.1,0.4,4.8,3.7,5.5,5.5L10.3,23.9z M27.4,22.8c-0.4,0.7-1.2,1.2-2,1.1h-6.2c0.7-1.8,2.4-5.1,5.5-5.5
			c0.9-0.2,1.9,0.2,2.4,1C27.8,20.4,27.9,21.7,27.4,22.8L27.4,22.8z"/>
	</g>
</g>
</svg>
