<?xml version="1.0" encoding="utf-8"?>
<!-- Generator: Adobe Illustrator 21.0.0, SVG Export Plug-In . SVG Version: 6.00 Build 0)  -->
<svg version="1.1" id="Layer_1" xmlns="http://www.w3.org/2000/svg" xmlns:xlink="http://www.w3.org/1999/xlink" x="0px" y="0px"
	 viewBox="0 0 50 50" style="enable-background:new 0 0 50 50;" xml:space="preserve">

<title>Heart-big</title>
<g id="Layer_2">
	<g id="Layer_1-2" stroke-width="0">
		<path  d="M44.4,5.7L44.4,5.7C40,2.4,35.1,1.9,29.9,4c-2,0.9-3.7,2.4-4.9,4.2c-1.2-1.9-2.9-3.4-4.9-4.2
			C15.3,1.8,9.7,2.5,5.6,5.7c-4.4,3.3-6.2,8-5.4,14c0.6,4.5,2.6,8.5,6.4,13.2c4.8,5.7,10.7,10,16.4,13.7c0.6,0.4,1.2,0.6,1.9,0.7
			h0.2c0.7,0,1.3-0.3,1.9-0.7c5.3-3.5,11.5-7.9,16.4-13.8c3.7-4.3,5.8-8.7,6.4-13.2C50.7,13.8,48.8,9.1,44.4,5.7z M48.8,19.6
			c-0.6,4.4-2.6,8.4-6.2,12.7C37.8,38,31.7,42.3,26.5,45.7c-0.4,0.3-0.9,0.5-1.4,0.5h-0.2c-0.5,0-1-0.2-1.4-0.5
			C17.9,42,12,37.9,7.3,32.2c-3.7-4.5-5.6-8.4-6.2-12.7c-0.7-5.6,1-9.9,5-13c2.2-1.8,5-2.8,7.8-2.8c1.9,0,3.9,0.4,5.6,1.2
			c2.1,0.9,3.8,2.5,4.9,4.6c0.1,0.2,0.3,0.2,0.5,0.2c0.2,0,0.3-0.1,0.4-0.3c1-2,2.8-3.7,4.9-4.5c4.9-2,9.3-1.5,13.5,1.6
			S49.6,14.1,48.8,19.6z"/>
	</g>
</g>
</svg>
