<svg xmlns="http://www.w3.org/2000/svg" viewBox="0 0 50 50"><title>Heart-black</title><g id="Layer_2" data-name="Layer 2"><g id="Layer_1-2" data-name="Layer 1"><path d="M25,50a1.56,1.56,0,0,1-1.23-.58L6.36,29.82A10.14,10.14,0,0,1,5.59,29Q5.11,28.38,4,26.84a29.38,29.38,0,0,1-1.9-3.17A21.43,21.43,0,0,1,.66,19.73,16.42,16.42,0,0,1,0,15.23Q0,8.07,3.54,4t9.79-4a9.7,9.7,0,0,1,3.53.7,13.49,13.49,0,0,1,3.35,1.89q1.55,1.19,2.66,2.23A27.17,27.17,0,0,1,25,7a27.17,27.17,0,0,1,2.12-2.21q1.12-1,2.66-2.23A13.5,13.5,0,0,1,33.13.7,9.71,9.71,0,0,1,36.66,0q6.25,0,9.79,4T50,15.23q0,7.19-6.39,14.65L26.22,49.41A1.56,1.56,0,0,1,25,50Z"/></g></g></svg>
