<?xml version="1.0" encoding="UTF-8" standalone="no"?>
<svg
   xmlns:dc="http://purl.org/dc/elements/1.1/"
   xmlns:cc="http://creativecommons.org/ns#"
   xmlns:rdf="http://www.w3.org/1999/02/22-rdf-syntax-ns#"
   xmlns:svg="http://www.w3.org/2000/svg"
   xmlns="http://www.w3.org/2000/svg"
   xmlns:sodipodi="http://sodipodi.sourceforge.net/DTD/sodipodi-0.dtd"
   xmlns:inkscape="http://www.inkscape.org/namespaces/inkscape"
   width="32"
   height="32"
   viewBox="0 0 32 32"
   id="svg2"
   version="1.1"
   inkscape:version="0.91 r13725"
   sodipodi:docname="heart.svg">
  <sodipodi:namedview
     pagecolor="#ffffff"
     bordercolor="#666666"
     borderopacity="1"
     objecttolerance="10"
     gridtolerance="10"
     guidetolerance="10"
     inkscape:pageopacity="0"
     inkscape:pageshadow="2"
     inkscape:window-width="1366"
     inkscape:window-height="690"
     id="namedview6"
     showgrid="false"
     inkscape:zoom="7.375"
     inkscape:cx="-3.8644068"
     inkscape:cy="15.728814"
     inkscape:window-x="1366"
     inkscape:window-y="25"
     inkscape:window-maximized="1"
     inkscape:current-layer="svg2" />
  <metadata
     id="metadata10">
    <rdf:RDF>
      <cc:Work
         rdf:about="">
        <dc:format>image/svg+xml</dc:format>
        <dc:type
           rdf:resource="http://purl.org/dc/dcmitype/StillImage" />
      </cc:Work>
    </rdf:RDF>
  </metadata>
  <defs
     id="defs8" />
  <path
     d="m 15.999998,31.090428 q -0.437893,0 -0.741049,-0.353677 L 4.7495456,18.908052 Q 4.5811255,18.750861 4.2863914,18.397178 3.9916561,18.043495 3.3516606,17.11017 2.7116638,16.176838 2.2064056,15.194393 1.7011448,14.211942 1.3053578,12.816864 0.90957171,11.421785 0.90957171,10.105298 q 0,-4.322778 2.13893299,-6.759253 2.1389328,-2.43647402 5.9115406,-2.43647402 1.0442027,0 2.1305117,0.42245202 1.086308,0.422451 2.021039,1.139641 0.934729,0.717191 1.60841,1.345959 0.67368,0.628768 1.279992,1.336128 0.606312,-0.70736 1.279993,-1.336128 0.673678,-0.628768 1.608409,-1.345959 0.93473,-0.71719 2.021038,-1.139641 1.08631,-0.42245202 2.130512,-0.42245202 3.772607,0 5.91154,2.43647402 2.138938,2.436475 2.138938,6.759253 0,4.342432 -3.856821,8.84205 l -10.49256,11.789403 q -0.303156,0.353677 -0.741049,0.353677 z"
     id="path4"
     style="fill:#ffffff;stroke:#000000;stroke-width:1.81914341;stroke-miterlimit:4;stroke-dasharray:none;stroke-opacity:1"
     inkscape:connector-curvature="0" />
</svg>
