<?xml version="1.0" encoding="utf-8"?>
<!-- Generator: Adobe Illustrator 21.0.0, SVG Export Plug-In . SVG Version: 6.00 Build 0)  -->
<svg version="1.1" id="Layer_1" xmlns="http://www.w3.org/2000/svg" xmlns:xlink="http://www.w3.org/1999/xlink" x="0px" y="0px"
	 viewBox="0 0 138.9 138.9" style="enable-background:new 0 0 138.9 138.9;" xml:space="preserve">
<style type="text/css">
	.st0{fill:url(#SVGID_1_);}
	.st1{fill:url(#SVGID_2_);}
	.st2{fill:#FFFFFF;}
</style>
<radialGradient id="SVGID_1_" cx="-10.2852" cy="102.1071" r="137.0376" gradientTransform="matrix(0.5068 -0.862 0.862 0.5068 -25.9066 94.426)" gradientUnits="userSpaceOnUse">
	<stop  offset="0" style="stop-color:#FFDD55"/>
	<stop  offset="0.1" style="stop-color:#FFDD55"/>
	<stop  offset="0.5" style="stop-color:#FF543E"/>
	<stop  offset="1" style="stop-color:#C837AB"/>
</radialGradient>
<circle class="st0" cx="69.5" cy="69.5" r="69.4"/>
<radialGradient id="SVGID_2_" cx="-10.2373" cy="239.3455" r="137.0376" gradientTransform="matrix(0.4667 0.8844 -0.8844 0.4667 219.7173 -88.8846)" gradientUnits="userSpaceOnUse">
	<stop  offset="0" style="stop-color:#3771C8"/>
	<stop  offset="0.128" style="stop-color:#3771C8"/>
	<stop  offset="1" style="stop-color:#6600FF;stop-opacity:0"/>
</radialGradient>
<circle class="st1" cx="69.5" cy="69.5" r="69.4"/>
<path class="st2" d="M69.5,21.5c-13,0-14.7,0.1-19.8,0.3c-5.1,0.2-8.6,1-11.7,2.2c-3.2,1.2-5.8,2.9-8.5,5.5
	c-2.7,2.7-4.3,5.3-5.5,8.5c-1.2,3.1-2,6.5-2.2,11.7c-0.2,5.1-0.3,6.8-0.3,19.8s0.1,14.7,0.3,19.8c0.2,5.1,1,8.6,2.2,11.7
	c1.2,3.2,2.9,5.8,5.5,8.5c2.7,2.7,5.3,4.3,8.5,5.5c3.1,1.2,6.5,2,11.7,2.2c5.1,0.2,6.8,0.3,19.8,0.3c13,0,14.7-0.1,19.8-0.3
	c5.1-0.2,8.6-1,11.7-2.2c3.2-1.2,5.8-2.9,8.5-5.5c2.7-2.7,4.3-5.3,5.5-8.5c1.2-3.1,2-6.5,2.2-11.7c0.2-5.1,0.3-6.8,0.3-19.8
	s-0.1-14.7-0.3-19.8c-0.2-5.1-1.1-8.6-2.2-11.7c-1.2-3.2-2.9-5.8-5.5-8.5c-2.7-2.7-5.3-4.3-8.5-5.5c-3.1-1.2-6.6-2-11.7-2.2
	C84.1,21.5,82.5,21.5,69.5,21.5L69.5,21.5z M65.2,30.1c1.3,0,2.7,0,4.3,0c12.8,0,14.3,0,19.4,0.3c4.7,0.2,7.2,1,8.9,1.7
	c2.2,0.9,3.8,1.9,5.5,3.6c1.7,1.7,2.7,3.3,3.6,5.5c0.7,1.7,1.4,4.2,1.7,8.9c0.2,5.1,0.3,6.6,0.3,19.4s-0.1,14.3-0.3,19.4
	c-0.2,4.7-1,7.2-1.7,8.9c-0.9,2.2-1.9,3.8-3.6,5.5c-1.7,1.7-3.3,2.7-5.5,3.6c-1.7,0.7-4.2,1.4-8.9,1.7c-5.1,0.2-6.6,0.3-19.4,0.3
	c-12.8,0-14.3-0.1-19.4-0.3c-4.7-0.2-7.2-1-8.9-1.7c-2.2-0.9-3.8-1.9-5.5-3.6c-1.7-1.7-2.7-3.3-3.6-5.5c-0.7-1.7-1.4-4.2-1.7-8.9
	c-0.2-5.1-0.3-6.6-0.3-19.4s0-14.3,0.3-19.4c0.2-4.7,1-7.2,1.7-8.9c0.9-2.2,1.9-3.8,3.6-5.5c1.7-1.7,3.3-2.7,5.5-3.6
	c1.7-0.7,4.2-1.4,8.9-1.7C54.5,30.2,56.2,30.1,65.2,30.1L65.2,30.1z M95.1,38.1c-3.2,0-5.8,2.6-5.8,5.8c0,3.2,2.6,5.8,5.8,5.8
	s5.8-2.6,5.8-5.8S98.3,38.1,95.1,38.1L95.1,38.1z M69.5,44.8c-13.6,0-24.7,11-24.7,24.7s11,24.6,24.7,24.6c13.6,0,24.6-11,24.6-24.6
	S83.1,44.8,69.5,44.8L69.5,44.8z M69.5,53.5c8.8,0,16,7.2,16,16c0,8.8-7.2,16-16,16c-8.8,0-16-7.2-16-16
	C53.5,60.6,60.6,53.5,69.5,53.5z"/>
</svg>
