<?xml version="1.0" encoding="UTF-8" standalone="no"?>
<svg
   xmlns:dc="http://purl.org/dc/elements/1.1/"
   xmlns:cc="http://creativecommons.org/ns#"
   xmlns:rdf="http://www.w3.org/1999/02/22-rdf-syntax-ns#"
   xmlns:svg="http://www.w3.org/2000/svg"
   xmlns="http://www.w3.org/2000/svg"
   xmlns:sodipodi="http://sodipodi.sourceforge.net/DTD/sodipodi-0.dtd"
   xmlns:inkscape="http://www.inkscape.org/namespaces/inkscape"
   width="50"
   height="50"
   viewBox="0 0 50 50"
   id="svg2"
   version="1.1"
   inkscape:version="0.91 r13725"
   sodipodi:docname="link.svg">
  <metadata
     id="metadata10">
    <rdf:RDF>
      <cc:Work
         rdf:about="">
        <dc:format>image/svg+xml</dc:format>
        <dc:type
           rdf:resource="http://purl.org/dc/dcmitype/StillImage" />
      </cc:Work>
    </rdf:RDF>
  </metadata>
  <defs
     id="defs8" />
  <sodipodi:namedview
     pagecolor="#ffffff"
     bordercolor="#666666"
     borderopacity="1"
     objecttolerance="10"
     gridtolerance="10"
     guidetolerance="10"
     inkscape:pageopacity="0"
     inkscape:pageshadow="2"
     inkscape:window-width="1366"
     inkscape:window-height="688"
     id="namedview6"
     showgrid="false"
     inkscape:zoom="4.72"
     inkscape:cx="-44.809322"
     inkscape:cy="23.728813"
     inkscape:window-x="0"
     inkscape:window-y="27"
     inkscape:window-maximized="1"
     inkscape:current-layer="svg2" />
  <path stroke-width="0"
     d="m 44.117647,36.764706 q 0,-1.22549 -0.857843,-2.083333 l -6.372549,-6.372549 q -0.857843,-0.857844 -2.083333,-0.857844 -1.286765,0 -2.205883,0.980393 0.09191,0.09191 0.582108,0.566789 0.490196,0.474877 0.658701,0.658701 0.168505,0.183823 0.459559,0.582108 0.291054,0.398284 0.398284,0.78125 0.107231,0.382965 0.107231,0.842524 0,1.22549 -0.857844,2.083333 -0.857843,0.857844 -2.083333,0.857844 -0.459559,0 -0.842524,-0.107231 -0.382966,-0.10723 -0.78125,-0.398284 -0.398285,-0.291054 -0.582108,-0.459559 -0.183824,-0.168505 -0.658701,-0.658701 -0.474878,-0.490196 -0.566789,-0.582108 -1.01103,0.949755 -1.01103,2.23652 0,1.22549 0.857843,2.083333 l 6.311275,6.341912 q 0.827206,0.827206 2.083333,0.827206 1.22549,0 2.083333,-0.796569 l 4.503677,-4.473039 q 0.857843,-0.857843 0.857843,-2.052696 z M 22.579657,15.165441 q 0,-1.22549 -0.857843,-2.083333 L 15.410539,6.7401961 q -0.857843,-0.8578432 -2.083333,-0.8578432 -1.194853,0 -2.083333,0.8272059 L 6.7401961,11.182598 q -0.8578432,0.857843 -0.8578432,2.052696 0,1.22549 0.8578432,2.083333 l 6.3725489,6.372549 q 0.827206,0.827206 2.083333,0.827206 1.286765,0 2.205883,-0.949755 -0.09191,-0.09191 -0.582108,-0.566789 -0.490196,-0.474877 -0.658701,-0.658701 -0.168505,-0.183823 -0.459559,-0.582108 -0.291054,-0.398284 -0.398284,-0.78125 -0.107231,-0.382965 -0.107231,-0.842524 0,-1.22549 0.857844,-2.083333 0.857843,-0.857844 2.083333,-0.857844 0.459559,0 0.842524,0.107231 0.382966,0.10723 0.78125,0.398284 0.398285,0.291054 0.582108,0.459559 0.183824,0.168505 0.658701,0.658701 0.474878,0.490196 0.566789,0.582108 1.01103,-0.949755 1.01103,-2.23652 z M 50,36.764706 q 0,3.67647 -2.604167,6.219363 l -4.503676,4.473039 Q 40.349265,50 36.672794,50 q -3.707108,0 -6.25,-2.604167 L 24.11152,41.053922 q -2.542893,-2.542893 -2.542893,-6.219363 0,-3.768383 2.696079,-6.403186 l -2.696079,-2.696079 q -2.634803,2.696079 -6.372549,2.696079 -3.67647,0 -6.2499996,-2.57353 L 2.5735294,19.485294 Q 0,16.911765 0,13.235294 0,9.5588235 2.6041667,7.0159314 L 7.1078431,2.5428922 Q 9.6507353,0 13.327206,0 q 3.707108,0 6.25,2.6041667 l 6.311274,6.3419117 q 2.542893,2.5428926 2.542893,6.2193626 0,3.768383 -2.696079,6.403186 l 2.696079,2.696079 q 2.634803,-2.696079 6.372549,-2.696079 3.67647,0 6.25,2.57353 l 6.372549,6.372549 Q 50,33.088235 50,36.764706 Z"
     id="path4"
     inkscape:connector-curvature="0"
     style="fill:#ffffff;stroke-width:0.1;stroke-miterlimit:4;stroke-dasharray:none" />
</svg>
