<svg xmlns="http://www.w3.org/2000/svg" width="50" height="50" viewBox="0 0 50 50"><path stroke-width="0" d="M44.118 36.765q0-1.226-.858-2.084l-6.373-6.372q-.858-.858-2.083-.858-1.287 0-2.206.98.092.092.582.567t.659.659q.168.184.46.582.29.398.398.781.107.383.107.843 0 1.225-.858 2.083-.858.858-2.083.858-.46 0-.843-.107-.383-.108-.781-.399-.398-.29-.582-.46-.184-.168-.659-.658-.475-.49-.567-.582-1.01.95-1.01 2.237 0 1.225.857 2.083l6.311 6.342q.828.827 2.084.827 1.225 0 2.083-.797l4.504-4.473q.858-.857.858-2.052zm-21.538-21.6q0-1.225-.858-2.083L15.41 6.74q-.858-.858-2.084-.858-1.195 0-2.083.828L6.74 11.183q-.858.857-.858 2.052 0 1.226.858 2.084l6.373 6.372q.827.827 2.083.827 1.287 0 2.206-.95-.092-.091-.582-.566t-.659-.659q-.168-.184-.46-.582-.29-.398-.398-.781-.107-.383-.107-.843 0-1.225.858-2.083.858-.858 2.083-.858.46 0 .843.107.383.108.781.399.398.29.582.46.184.168.659.658.475.49.567.582 1.01-.95 1.01-2.237zM50 36.765q0 3.676-2.604 6.22l-4.504 4.472Q40.35 50 36.672 50q-3.706 0-6.25-2.604l-6.31-6.342q-2.543-2.543-2.543-6.22 0-3.768 2.696-6.403l-2.696-2.696q-2.635 2.696-6.373 2.696-3.676 0-6.25-2.573l-6.372-6.373Q0 16.912 0 13.235q0-3.676 2.604-6.22l4.504-4.472Q9.65 0 13.328 0q3.706 0 6.25 2.604l6.31 6.342q2.543 2.543 2.543 6.22 0 3.768-2.696 6.403l2.696 2.696q2.635-2.696 6.373-2.696 3.676 0 6.25 2.573l6.372 6.373Q50 33.088 50 36.765z"/></svg>