<svg class="icons-list_icon" xmlns="http://www.w3.org/2000/svg" viewBox="0 0 37.5 28.8" width="37.5" height="28.8"><g fill="none"><circle cx="7.9" cy="20.9" r="7.2"></circle><circle cx="29.6" cy="20.9" r="7.2"></circle><path d="M29.6 25c-2.3 0-4.1-1.8-4.1-4.1M7.9 25c-2.3 0-4.1-1.8-4.1-4.1M1.1 18.8l5-11.9c.7-1.7 2.4-2.8 4.2-2.8h6.3M36.5 18.8l-5-11.9c-.7-1.7-2.4-2.8-4.2-2.8H21M9 3.9C9 2.2 10.4.8 12.1.8s3.1 1.4 3.1 3.1M22.7 3.9c0-1.7 1.4-3.1 3.1-3.1 1.7 0 3.1 1.4 3.1 3.1"></path><circle cx="18.6" cy="18.3" r="3.2"></circle><path d="M15.3 17.4l1.4-13.5M22.4 17.8L20.9 4M16.7 4.2c0-1.2 1-2.2 2.2-2.2C20 2 21 3 21 4.2"></path></g></svg>
