<?xml version="1.0" encoding="utf-8"?>
<!-- Generator: Adobe Illustrator 21.0.0, SVG Export Plug-In . SVG Version: 6.00 Build 0)  -->
<svg version="1.1" id="Layer_1" xmlns="http://www.w3.org/2000/svg" xmlns:xlink="http://www.w3.org/1999/xlink" x="0px" y="0px"
	 viewBox="0 0 37.5 28.8"  width="37.5" height="28.8" style="enable-background:new 0 0 37.5 28.8;" xml:space="preserve">
<g>
	<circle  fill="none" cx="7.9" cy="20.9" r="7.2"/>
	<circle  fill="none" cx="29.6" cy="20.9" r="7.2"/>
	<path  fill="none" d="M29.6,25c-2.3,0-4.1-1.8-4.1-4.1"/>
	<path  fill="none" d="M7.9,25c-2.3,0-4.1-1.8-4.1-4.1"/>
	<path  fill="none" d="M1.1,18.8l5-11.9c0.7-1.7,2.4-2.8,4.2-2.8h6.3"/>
	<path  fill="none" d="M36.5,18.8l-5-11.9c-0.7-1.7-2.4-2.8-4.2-2.8h-6.3"/>
	<path  fill="none" d="M9,3.9c0-1.7,1.4-3.1,3.1-3.1s3.1,1.4,3.1,3.1"/>
	<path  fill="none" d="M22.7,3.9c0-1.7,1.4-3.1,3.1-3.1c1.7,0,3.1,1.4,3.1,3.1"/>
	<circle  fill="none" cx="18.6" cy="18.3" r="3.2"/>
	<line  fill="none" x1="15.3" y1="17.4" x2="16.7" y2="3.9"/>
	<line  fill="none" x1="22.4" y1="17.8" x2="20.9" y2="4"/>
	<path  fill="none" d="M16.7,4.2c0-1.2,1-2.2,2.2-2.2C20,2,21,3,21,4.2"/>
</g>
</svg>
