<svg xmlns="http://www.w3.org/2000/svg" width="49.652" height="49.652" viewBox="0 0 49.652 49.652"><path d="M24.861 20.585a4.252 4.252 0 0 0 4.252-4.29 4.26 4.26 0 0 0-4.274-4.272 4.268 4.268 0 0 0-4.285 4.324 4.262 4.262 0 0 0 4.307 4.238z"/><path d="M24.838 0C11.12 0 0 11.12 0 24.838c0 13.717 11.12 24.838 24.838 24.838 13.718 0 24.838-11.12 24.838-24.838C49.676 11.121 38.556 0 24.838 0zm.036 7.553c4.838.013 8.72 3.97 8.696 8.862-.025 4.779-3.971 8.652-8.801 8.635-4.78-.016-8.701-3.98-8.673-8.767.027-4.841 3.95-8.743 8.778-8.73zm9.799 20.935c-1.07 1.098-2.358 1.893-3.788 2.447-1.352.524-2.833.788-4.3.964.222.24.326.36.465.497 1.99 2.001 3.99 3.992 5.973 5.998.676.684.817 1.532.445 2.326-.406.869-1.318 1.44-2.212 1.379-.566-.04-1.007-.32-1.4-.715-1.501-1.512-3.032-2.996-4.503-4.536-.43-.448-.634-.363-1.013.027a299.761 299.761 0 0 1-4.591 4.61c-.694.684-1.52.808-2.324.417-.855-.414-1.4-1.288-1.357-2.166.029-.593.32-1.047.728-1.453 1.97-1.966 3.935-3.938 5.9-5.909.13-.13.251-.27.44-.473-2.68-.28-5.096-.94-7.164-2.557-.258-.201-.522-.395-.756-.62-.906-.87-.997-1.867-.281-2.893.613-.878 1.642-1.112 2.712-.608.207.097.404.22.593.35 3.855 2.65 9.152 2.722 13.022.119.383-.293.793-.534 1.268-.655.923-.238 1.785.102 2.28.91.567.923.56 1.824-.137 2.54z"/></svg>