<?xml version="1.0" encoding="utf-8"?>
<!-- Generator: Adobe Illustrator 21.0.0, SVG Export Plug-In . SVG Version: 6.00 Build 0)  -->
<svg version="1.1" id="Layer_1" xmlns="http://www.w3.org/2000/svg" xmlns:xlink="http://www.w3.org/1999/xlink" x="0px" y="0px"
	 viewBox="0 0 50 50" style="enable-background:new 0 0 50 50;" xml:space="preserve">
<style type="text/css">

</style>
<title>Offline-Small</title>
<g id="Layer_2">
	<g id="Layer_1-2" stroke-width="0">
		<path d="M42.9,24.7c-0.6,0-1,0.4-1,1V46h-5V33.3c0-0.6-0.4-1-1-1H25.1c-0.6,0-1,0.4-1,1V46H8.5V25.7c0-0.6-0.4-1-1-1
			c-0.6,0-1,0.4-1,1V47c0,0.6,0.4,1,1,1h17.6c0.6,0,1-0.4,1-1V34.3h8.8V47c0,0.6,0.4,1,1,1h7c0.6,0,1-0.4,1-1V25.7
			C43.9,25.1,43.5,24.7,42.9,24.7z"/>
		<path d="M49.7,25.1L25.8,2.2c-0.4-0.4-1-0.4-1.4,0L0.3,25.1c-0.4,0.4-0.4,1,0,1.4c0.4,0.4,1,0.4,1.4,0L25.1,4.4
			l23.2,22.2c0.4,0.4,1,0.4,1.4,0C50.1,26.1,50.1,25.5,49.7,25.1z"/>
		<path  d="M34.3,8.3h7.2v7.2c0,0.6,0.4,1,1,1s1-0.4,1-1V7.3c0-0.6-0.4-1-1-1h-8.2c-0.6,0-1,0.4-1,1S33.7,8.3,34.3,8.3
			L34.3,8.3z"/>
		<path d="M20.1,42.5c0.6,0,1-0.4,1-1v-8.1c0-0.6-0.4-1-1-1h-7.4c-0.6,0-1,0.4-1,1v8.1c0,0.6,0.4,1,1,1L20.1,42.5z
			 M13.7,34.4h5.4v6.1h-5.4V34.4z"/>
	</g>
</g>
</svg>
