<?xml version="1.0" encoding="utf-8"?>
<!-- Generator: Adobe Illustrator 21.0.0, SVG Export Plug-In . SVG Version: 6.00 Build 0)  -->
<svg version="1.1" id="Layer_1" xmlns="http://www.w3.org/2000/svg" xmlns:xlink="http://www.w3.org/1999/xlink" x="0px" y="0px"
	 viewBox="0 0 50 50" style="enable-background:new 0 0 50 50;" xml:space="preserve">
<g id="Layer_2">
	<g id="Layer_1-2" stroke="none"     stroke-width="0">
		<path  d="M49.8,41.5L46.9,34c-0.3-0.9-0.9-1.6-1.7-2c0.9-0.9,1.4-2.1,1.4-3.4V7.7c0-2.5-2-4.6-4.5-4.6c0,0-0.1,0-0.1,0
			H7.8c-2.5,0-4.6,2-4.6,4.5c0,0,0,0.1,0,0.1v21c0,1.3,0.5,2.5,1.5,3.4C4,32.6,3.5,33.2,3.2,34l-2.9,7.4c-0.6,1.2-0.5,2.6,0.3,3.7
			c0.7,1.1,2,1.8,3.4,1.8h42c1.3,0,2.5-0.7,3.2-1.7C50,44.1,50.2,42.7,49.8,41.5z M5.2,7.7c0-1.4,1.1-2.6,2.5-2.6c0,0,0.1,0,0.1,0
			h34.1c1.4,0,2.6,1.1,2.6,2.5c0,0,0,0,0,0.1v20.9c0,1.5-1.1,2.7-2.6,2.7H7.8c-1.4,0-2.6-1.1-2.6-2.5c0,0,0,0,0-0.1V7.7z M47.6,44
			c-0.3,0.5-0.9,0.8-1.5,0.8H4c-0.7,0-1.3-0.3-1.7-0.9C2,43.4,2,42.8,2.2,42.2l2.9-7.5c0.3-0.7,1-1.2,1.8-1.2h36.3
			c0.8,0,1.6,0.5,1.8,1.2l2.9,7.5C48.1,42.8,48,43.5,47.6,44z"/>
		<path  d="M42.9,40.2H7c-0.6,0-1,0.4-1,1s0.4,1,1,1h35.9c0.6,0,1-0.4,1-1S43.5,40.2,42.9,40.2z"/>
		<path  d="M9,37.8h3.6c0.6,0,1-0.4,1-1s-0.4-1-1-1H9c-0.6,0-1,0.4-1,1S8.5,37.8,9,37.8z"/>
		<path  d="M15.7,37.8h25.2c0.6,0,1-0.4,1-1s-0.4-1-1-1H15.7c-0.6,0-1,0.4-1,1S15.1,37.8,15.7,37.8z"/>
	</g>
</g>
</svg>
