<?xml version="1.0" encoding="utf-8"?>
<!-- Generator: Adobe Illustrator 21.0.0, SVG Export Plug-In . SVG Version: 6.00 Build 0)  -->
<svg version="1.1" id="Layer_1" xmlns="http://www.w3.org/2000/svg" xmlns:xlink="http://www.w3.org/1999/xlink" x="0px" y="0px"
	 viewBox="0 0 34.8 30.4"  width="34.8" height="30.4" style="enable-background:new 0 0 34.8 30.4;" xml:space="preserve">
<g stroke="#FCCA37">
	<path  fill="none" d="M29.1,20.3H5.4c-1.4,0-2.5-1.1-2.5-2.5V3.2c0-1.4,1.1-2.5,2.5-2.5h23.7c1.4,0,2.5,1.1,2.5,2.5v14.5
		C31.6,19.1,30.5,20.3,29.1,20.3z"/>
	<path  fill="none" d="M32,29.7H2.8c-1.5,0-2.5-1.5-1.9-2.8l2-5.2c0.3-0.8,1.1-1.3,1.9-1.3H30c0.9,0,1.6,0.5,1.9,1.3l2,5.2
		C34.4,28.2,33.4,29.7,32,29.7z"/>
	<line  fill="none" x1="4.9" y1="26.5" x2="29.8" y2="26.5"/>
	<line  fill="none" x1="6.3" y1="23.4" x2="8.8" y2="23.4"/>
	<line  fill="none" x1="10.9" y1="23.4" x2="28.4" y2="23.4"/>
</g>
</svg>
