<?xml version="1.0" encoding="utf-8"?>
<!-- Generator: Adobe Illustrator 21.0.0, SVG Export Plug-In . SVG Version: 6.00 Build 0)  -->
<svg version="1.1" id="Layer_1" xmlns="http://www.w3.org/2000/svg" xmlns:xlink="http://www.w3.org/1999/xlink" x="0px" y="0px"
	 viewBox="0 0 50 50" style="enable-background:new 0 0 50 50;" xml:space="preserve">
<title>Padlock-big</title>
<g id="Layer_2">
	<g id="Layer_1-2">
		<path  d="M9.9,21.9V35c0.2,8.4,7.2,15,15.5,14.7c8.1-0.2,14.5-6.7,14.7-14.7V21.9H9.9z M39.1,35
			c-0.2,7.8-6.7,14-14.5,13.7c-7.5-0.2-13.5-6.2-13.7-13.7V22.9h28.2V35z"/>
		<path  d="M13,18.4c0.3,0,0.5-0.2,0.5-0.5v-5.4C13.4,6.4,18.3,1.3,24.4,1.2c0.1,0,0.2,0,0.3,0c6.2,0,11.3,5.1,11.3,11.3
			v5.7c0,0.3,0.2,0.5,0.5,0.5c0.3,0,0.5-0.2,0.5-0.5v-5.7c0-6.8-5.5-12.3-12.3-12.3c-6.7,0-12.1,5.3-12.2,12c0,0.1,0,0.2,0,0.3v5.4
			C12.5,18.2,12.7,18.4,13,18.4z"/>
		<path  d="M22,43.6l12.4-16.2c0.2-0.2,0.1-0.5-0.1-0.7c-0.2-0.1-0.5-0.1-0.7,0.1L21.9,42.1l-4.5-4.5
			c-0.2-0.2-0.5-0.2-0.7,0c-0.2,0.2-0.2,0.5,0,0.7L22,43.6z"/>
	</g>
</g>
</svg>
