<?xml version="1.0" encoding="utf-8"?>
<!-- Generator: Adobe Illustrator 21.0.0, SVG Export Plug-In . SVG Version: 6.00 Build 0)  -->
<svg version="1.1" id="Layer_1" xmlns="http://www.w3.org/2000/svg" xmlns:xlink="http://www.w3.org/1999/xlink" x="0px" y="0px"
	 viewBox="0 0 50 50" style="enable-background:new 0 0 50 50;" xml:space="preserve">

<title>A-Padlock-Small</title>
<g id="Layer_2">
	<g id="Layer_2-2">
		<path d="M25,50c-9.9,0.1-18.1-7.9-18.2-17.8c0-0.1,0-0.2,0-0.3V21h24.5c0.9,0,1.7,0.7,1.7,1.7s-0.7,1.7-1.7,1.7H10.2
			v7.5c-0.1,8.1,6.4,14.7,14.5,14.8c0.1,0,0.2,0,0.3,0c8.1,0.1,14.7-6.4,14.8-14.5c0-0.1,0-0.2,0-0.3v-9.2c0-0.9,0.7-1.7,1.7-1.7
			c0.9,0,1.7,0.7,1.7,1.7l0,0v9.2c0.1,9.9-7.9,18.1-17.8,18.2C25.2,50,25.1,50,25,50z"/>
		<path  d="M38,18.7c-0.9,0-1.7-0.7-1.7-1.7v-2.1c0-6.4-5.2-11.5-11.5-11.5C18.3,3.3,13.1,8.4,13,14.9v1.7
			c0,0.9-0.7,1.7-1.7,1.7c-0.9,0-1.7-0.7-1.7-1.7v-1.7c0-8.3,6.7-15,15-15s15,6.7,15,15V17C39.7,17.9,38.9,18.7,38,18.7
			C38,18.7,38,18.7,38,18.7z"/>
		<path  d="M23.3,43.3l-7-7c-0.6-0.7-0.4-1.8,0.3-2.3c0.6-0.5,1.4-0.4,2,0l4.3,4.3l12.3-16.4c0.6-0.7,1.6-0.8,2.4-0.2
			c0.7,0.5,0.8,1.5,0.3,2.2L23.3,43.3z"/>
	</g>
</g>
</svg>
