<svg xmlns="http://www.w3.org/2000/svg" viewBox="0 0 50 50"><path d="M9.9 21.9V35c.2 8.4 7.2 15 15.5 14.7 8.1-.2 14.5-6.7 14.7-14.7V21.9H9.9zM39.1 35c-.2 7.8-6.7 14-14.5 13.7-7.5-.2-13.5-6.2-13.7-13.7V22.9h28.2V35zM13 18.4c.3 0 .5-.2.5-.5v-5.4c-.1-6.1 4.8-11.2 10.9-11.3h.3C30.9 1.2 36 6.3 36 12.5v5.7c0 .3.2.5.5.5s.5-.2.5-.5v-5.7C37 5.7 31.5.2 24.7.2c-6.7 0-12.1 5.3-12.2 12v5.7c0 .3.2.5.5.5z"/><path d="M22 43.6l12.4-16.2c.2-.2.1-.5-.1-.7-.2-.1-.5-.1-.7.1L21.9 42.1l-4.5-4.5c-.2-.2-.5-.2-.7 0-.2.2-.2.5 0 .7l5.3 5.3z"/></svg>