<svg xmlns="http://www.w3.org/2000/svg" viewBox="0 0 50 50"><defs></defs><title>A-Percentages-Small</title><g id="Layer_2" data-name="Layer 2"><g id="Layer_2-2" data-name="Layer 2"><path  d="M31.16,0H18.84A18.77,18.77,0,0,0,0,19.1V30.9A18.77,18.77,0,0,0,18.84,50H31.16A18.77,18.77,0,0,0,50,30.9V19.1A18.77,18.77,0,0,0,31.16,0ZM46.57,30.9A15.35,15.35,0,0,1,31.16,46.53H18.84A15.35,15.35,0,0,1,3.42,30.9V19.1A15.35,15.35,0,0,1,18.84,3.47H31.16A15.35,15.35,0,0,1,46.57,19.1Z"/><path  d="M25,18.75a5.25,5.25,0,0,0-5.48-5.56A5.25,5.25,0,0,0,14,18.75C14,21.87,16.1,24,19.52,24S25,21.87,25,18.75Zm-7.53,0c0-1.74.68-2.43,2.05-2.43,1,0,2.05.69,2.05,2.43a2.31,2.31,0,0,1-2.05,2.43A2.31,2.31,0,0,1,17.47,18.75Z"/><path  d="M31.51,24.65A5.25,5.25,0,0,0,26,30.21a5.17,5.17,0,0,0,5.48,5.21c3.42,0,5.48-2.08,5.48-5.21A5.25,5.25,0,0,0,31.51,24.65Zm-.34,8c-1,0-2.05-.69-2.05-2.43a2.18,2.18,0,0,1,2.4-2.43c1,0,2.05.69,2.05,2.43A2.36,2.36,0,0,1,31.16,32.64Z"/><polygon  points="30.82 13.54 17.46 35.07 20.2 35.07 33.56 13.54 30.82 13.54"/></g></g></svg>
