<?xml version="1.0" encoding="UTF-8" standalone="no"?>
<!-- Generator: Adobe Illustrator 21.0.0, SVG Export Plug-In . SVG Version: 6.00 Build 0)  -->

<svg
   xmlns:dc="http://purl.org/dc/elements/1.1/"
   xmlns:cc="http://creativecommons.org/ns#"
   xmlns:rdf="http://www.w3.org/1999/02/22-rdf-syntax-ns#"
   xmlns:svg="http://www.w3.org/2000/svg"
   xmlns="http://www.w3.org/2000/svg"
   xmlns:sodipodi="http://sodipodi.sourceforge.net/DTD/sodipodi-0.dtd"
   xmlns:inkscape="http://www.inkscape.org/namespaces/inkscape"
   version="1.1"
   id="Layer_2"
   x="0px"
   y="0px"
   viewBox="0 0 14.6 14.4"
   style="enable-background:new 0 0 14.6 14.4;"
   xml:space="preserve"
   width="14.6"
   height="14.4"
   inkscape:version="0.91 r13725"
   sodipodi:docname="percentages.svg"><metadata
     id="metadata15"><rdf:RDF><cc:Work
         rdf:about=""><dc:format>image/svg+xml</dc:format><dc:type
           rdf:resource="http://purl.org/dc/dcmitype/StillImage" /></cc:Work></rdf:RDF></metadata><defs
     id="defs13" /><sodipodi:namedview
     pagecolor="#ffffff"
     bordercolor="#666666"
     borderopacity="1"
     objecttolerance="10"
     gridtolerance="10"
     guidetolerance="10"
     inkscape:pageopacity="0"
     inkscape:pageshadow="2"
     inkscape:window-width="1366"
     inkscape:window-height="688"
     id="namedview11"
     showgrid="false"
     inkscape:zoom="46.354779"
     inkscape:cx="5.8643595"
     inkscape:cy="8.0650132"
     inkscape:window-x="0"
     inkscape:window-y="27"
     inkscape:window-maximized="1"
     inkscape:current-layer="Layer_2" /><g
      fill="none" stroke="#FCCA37"
     id="g3"><path
       fill="none"
       d="M9.1,13.9H5.5c-2.8,0-5-2.2-5-5V5.5c0-2.8,2.2-5,5-5h3.6c2.8,0,5,2.2,5,5v3.4C14.1,11.7,11.9,13.9,9.1,13.9z"
       id="path5" /></g><path
     fill="none"
     style="fill:none;fill-rule:evenodd;stroke:#000000;stroke-width:1px;stroke-linecap:butt;stroke-linejoin:miter;stroke-opacity:1"
     d="m 9.3194274,3.894071 -3.775231,6.148233"
     id="path4143"
     inkscape:connector-curvature="0" /><path fill="none"
     style="fill:none;fill-rule:evenodd;stroke:#000000;stroke-width:1px;stroke-linecap:butt;stroke-linejoin:miter;stroke-opacity:1"
     d="M 6.1698062,4.3686715 C 6.6556815,4.8385182 6.4643651,5.738175 6.1424057,6.1094683 5.802807,6.5011037 5.1133362,6.4858729 4.638141,6.1592096 4.1450369,5.7335315 4.1390933,4.9480798 4.55185,4.498108 5.1558869,4.0265063 5.6304874,4.0411437 6.1698062,4.3686715 Z"
     id="path4152"
     inkscape:connector-curvature="0"
     inkscape:transform-center-x="0.67929739"
     inkscape:transform-center-y="-0.91240833"
     sodipodi:nodetypes="csccc" /><path fill="none"
     style="fill:none;fill-rule:evenodd;stroke:#000000;stroke-width:1px;stroke-linecap:butt;stroke-linejoin:miter;stroke-opacity:1"
     d="m 10.220174,7.7622728 c 0.485876,0.4698466 0.294559,1.3695034 -0.0274,1.7407967 C 9.8531752,9.8947049 9.1637044,9.8794741 8.6885092,9.5528108 8.1954051,9.1271327 8.1894615,8.341681 8.6022182,7.8917093 9.2062551,7.4201076 9.6808556,7.434745 10.220174,7.7622728 Z"
     id="path4152-3"
     inkscape:connector-curvature="0"
     inkscape:transform-center-x="0.67929739"
     inkscape:transform-center-y="-0.91240833"
     sodipodi:nodetypes="csccc" /></svg>