<?xml version="1.0" encoding="utf-8"?>
<!-- Generator: Adobe Illustrator 21.0.0, SVG Export Plug-In . SVG Version: 6.00 Build 0)  -->
<svg version="1.1" id="Layer_1" xmlns="http://www.w3.org/2000/svg" xmlns:xlink="http://www.w3.org/1999/xlink" x="0px" y="0px"
	 viewBox="0 0 50 50" style="enable-background:new 0 0 50 50;" xml:space="preserve">

<title>Pig-big</title>
<g id="Layer_2">
	<g id="Layer_2-2">
		<path  d="M47.6,24.6h-3.3c-1.1-2.4-2.7-4.6-4.8-6.3l-0.9-6c0-0.4-0.3-0.8-0.7-1c-0.4-0.2-0.8-0.1-1.1,0.2h-0.1
			c-1.3,0.8-2.4,1.8-3.2,3c-1.2-0.4-2.4-0.6-3.6-0.8C29.4,8.2,24.6,4,19.1,4.5c-5.3,0.4-9.3,4.8-9.3,10.1c0,1.6,0.5,3.2,1.3,4.5
			c-1.5,1.4-2.7,3.2-3.6,5.1c-0.1,0.1-0.2,0.2-0.3,0.3c-0.1,0.4-0.9,0.4-1.3,0.4c-1.4,0.1-2.7-0.3-3.9-1c-0.5-0.3-0.9-0.8-1.1-1.3
			c-0.1-0.4,0-0.8,0.3-1.1h0.1c0,0.1,0.1,0.2,0.1,0.3c0,0.3,0.2,0.5,0.5,0.5s0.5-0.2,0.5-0.5c0-0.5-0.2-1-0.6-1.2H1.8
			c-0.2-0.1-0.4-0.1-0.6,0H1.1H1c-0.8,0.5-1.2,1.4-0.9,2.3c0.3,0.8,0.8,1.4,1.4,1.9C2.9,25.5,4.4,26,6,25.9c0.3,0,0.6,0,0.9-0.1
			c-0.4,1.4-0.6,2.9-0.6,4.4C6.2,33.5,7.5,36.7,10,39l-0.5,2.5c-0.4,1.5,0.5,2.9,2,3.3l2.1,0.5c1.5,0.4,2.9-0.5,3.3-2l0.2-0.8
			c2.9,0.8,6,1.2,9,1.1c3.2,0.1,6.4-0.3,9.5-1.2l0.2,1.1c0.4,1.2,1.4,2,2.7,2c0.2,0,0.4,0,0.6-0.1l2.1-0.5c0.7-0.2,1.3-0.7,1.7-1.4
			c0.3-0.6,0.4-1.3,0.3-2l-0.7-2.9c0.3-0.3,0.6-0.6,0.8-0.8s0.5-0.5,0.6-0.6c1.2-0.3,6.2-1.7,6.2-4V27c0-1.3-1-2.4-2.3-2.4
			C47.7,24.6,47.6,24.6,47.6,24.6z M19.8,5.5c5,0,9.1,4.1,9.1,9.1c0,1.4-0.3,2.8-0.9,4.1c-1.6,0-8,0.2-12.8,3.6l0,0
			c-2.1-1.6-4.4-4.5-4.4-7.7C10.8,9.6,14.8,5.5,19.8,5.5z M49,33.4c0,1.1-3.2,2.5-5.5,3c-0.3,0-0.5,0.3-1.1,0.9
			c-0.3,0.3-0.6,0.6-1,1l-0.2,0.2l0.9,3.5c0.1,0.4,0,0.8-0.2,1.2c-0.2,0.4-0.6,0.7-1,0.9l-2.1,0.5c-0.9,0.2-1.8-0.3-2.1-1.2
			l-0.4-2.2l-0.5,0.2c-3.1,1-6.4,1.4-9.7,1.4c-3.1,0.1-6.3-0.3-9.3-1.3l-0.5-0.2l-0.5,1.8c-0.2,0.9-1.2,1.5-2.1,1.2c0,0,0,0,0,0
			l-2-0.5c-0.9-0.2-1.5-1.2-1.2-2.1l0.7-3.2L11,38.4c-2.4-2-3.8-5.1-3.6-8.2c0-3.9,1.5-7.6,4.4-10.2c0.8,1.1,1.7,2.1,2.7,3
			c-0.7,0.6-1.4,1.3-2,2c-0.2,0.2-0.1,0.5,0.1,0.7c0.2,0.2,0.5,0.1,0.7-0.1c4.7-6.1,14.9-5.9,15-5.9h0.3l0.1-0.3
			c0.7-1.4,1.1-3,1.1-4.6c1,0.1,2,0.3,3,0.6c-0.2,0.4-0.5,0.9-0.7,1.3c-0.1,0.2,0,0.6,0.2,0.7c0.2,0.1,0.6,0,0.7-0.2
			c0.9-2,2.3-3.7,4.1-4.8c0.1,0,0.2-0.1,0.2-0.2c0,0,0.1,0,0.1,0l1,6.6l0.2,0.1c2.1,1.7,3.7,3.9,4.8,6.3l0.1,0.3h4
			c0.7-0.1,1.4,0.5,1.4,1.2c0,0.1,0,0.2,0,0.3V33.4z"/>
		<path  d="M37.5,24.1h-2.4c-0.3,0-0.5,0.2-0.5,0.5s0.2,0.5,0.5,0.5h2.4c0.3,0,0.5-0.2,0.5-0.5S37.8,24.1,37.5,24.1z"/>
	</g>
</g>
</svg>
