<?xml version="1.0" encoding="utf-8"?>
<!-- Generator: Adobe Illustrator 21.0.0, SVG Export Plug-In . SVG Version: 6.00 Build 0)  -->
<svg version="1.1" id="Layer_2" xmlns="http://www.w3.org/2000/svg" xmlns:xlink="http://www.w3.org/1999/xlink" x="0px" y="0px"
	   width="31.6"
   height="26.2"
	  viewBox="0 0 31.6 26.2" style="enable-background:new 0 0 31.6 26.2;" xml:space="preserve">
<g  fill="none" stroke="#FCCA37">
	<path  d="M18.8,6.3c0.9,0.1,1.6,0.3,2.3,0.5"/>
	<path  d="M20.6,8c1.3-2.6,2.7-3.1,2.8-3.2c0.2-0.2,0.6,0,0.6,0.3L24.6,9c1.4,1.1,2.4,2.5,3.1,4.1h2.3
		c0.7,0,1.2,0.5,1.2,1.2v4c0,1.3-3.7,2.2-3.7,2.2c-0.1,0-0.5,0.5-1.1,1.1c0,0,0,0,0,0l0.5,2c0.2,0.7-0.3,1.5-1,1.7l-1.3,0.3
		c-0.7,0.2-1.5-0.3-1.7-1l-0.2-1c-1.8,0.6-4,0.9-6.2,0.9c-2.1,0-4.1-0.2-5.9-0.8l-0.2,0.8c-0.2,0.7-0.9,1.2-1.7,1l-1.3-0.3
		c-0.7-0.2-1.2-0.9-1-1.7l0.4-1.8c-1.5-1.3-2.4-3-2.4-5.4c0-2.8,1.1-5,3.1-6.9"/>
	<path class="st0" d="M5,12.8c-0.1,0.4-0.6,0.5-1.1,0.5c-0.9,0-1.9-0.2-2.6-0.7c-0.3-0.2-0.7-0.6-0.8-1s0-0.9,0.4-1.1
		c0.1,0,0.2-0.1,0.2,0c0.2,0,0.3,0.3,0.3,0.5"/>
	<line x1="22.2" y1="12.8" x2="23.7" y2="12.8"/>
	<path  d="M9.5,11.6c-1.3-1-2.9-2.9-2.9-5.1c0-3.3,2.7-6,6-6s6,2.7,6,6c0,1-0.3,2-0.7,2.9c0,0-6.6-0.2-9.7,3.8"/>
</g>
</svg>
