<?xml version="1.0" encoding="UTF-8" standalone="no"?>
<!-- Generator: Adobe Illustrator 21.0.0, SVG Export Plug-In . SVG Version: 6.00 Build 0)  -->

<svg
   xmlns:dc="http://purl.org/dc/elements/1.1/"
   xmlns:cc="http://creativecommons.org/ns#"
   xmlns:rdf="http://www.w3.org/1999/02/22-rdf-syntax-ns#"
   xmlns:svg="http://www.w3.org/2000/svg"
   xmlns="http://www.w3.org/2000/svg"
   xmlns:sodipodi="http://sodipodi.sourceforge.net/DTD/sodipodi-0.dtd"
   xmlns:inkscape="http://www.inkscape.org/namespaces/inkscape"
   version="1.1"
   id="Layer_1"
   x="0px"
   y="0px"
   viewBox="0 0 128 128"
   style="enable-background:new 0 0 128 128;"
   xml:space="preserve"
   sodipodi:docname="uEA08-save_money.svg"
   inkscape:version="0.92.2 (5c3e80d, 2017-08-06)"><metadata
     id="metadata25"><rdf:RDF><cc:Work
         rdf:about=""><dc:format>image/svg+xml</dc:format><dc:type
           rdf:resource="http://purl.org/dc/dcmitype/StillImage" /><dc:title></dc:title></cc:Work></rdf:RDF></metadata><defs
     id="defs23" /><sodipodi:namedview
     pagecolor="#ffffff"
     bordercolor="#666666"
     borderopacity="1"
     objecttolerance="10"
     gridtolerance="10"
     guidetolerance="10"
     inkscape:pageopacity="0"
     inkscape:pageshadow="2"
     inkscape:window-width="1366"
     inkscape:window-height="692"
     id="namedview21"
     showgrid="false"
     inkscape:zoom="3.6875"
     inkscape:cx="53.535771"
     inkscape:cy="58.001387"
     inkscape:window-x="1366"
     inkscape:window-y="25"
     inkscape:window-maximized="1"
     inkscape:current-layer="g18" /><style
     type="text/css"
     id="style2">
	.st0{fill:none;stroke:#E5AD2A;stroke-width:2.9146;stroke-linecap:round;stroke-linejoin:round;stroke-miterlimit:10;}
	.st1{fill:#E5AD2A;}
</style><g
     id="g18"><path
       style="color:#000000;font-style:normal;font-variant:normal;font-weight:normal;font-stretch:normal;font-size:medium;line-height:normal;font-family:sans-serif;font-variant-ligatures:normal;font-variant-position:normal;font-variant-caps:normal;font-variant-numeric:normal;font-variant-alternates:normal;font-feature-settings:normal;text-indent:0;text-align:start;text-decoration:none;text-decoration-line:none;text-decoration-style:solid;text-decoration-color:#000000;letter-spacing:normal;word-spacing:normal;text-transform:none;writing-mode:lr-tb;direction:ltr;text-orientation:mixed;dominant-baseline:auto;baseline-shift:baseline;text-anchor:start;white-space:normal;shape-padding:0;clip-rule:nonzero;display:inline;overflow:visible;visibility:visible;opacity:1;isolation:auto;mix-blend-mode:normal;color-interpolation:sRGB;color-interpolation-filters:linearRGB;solid-color:#000000;solid-opacity:1;vector-effect:none;fill:#e5ad2a;fill-opacity:1;fill-rule:nonzero;stroke:none;stroke-width:3;stroke-linecap:round;stroke-linejoin:round;stroke-miterlimit:10;stroke-dasharray:none;stroke-dashoffset:0;stroke-opacity:1;color-rendering:auto;image-rendering:auto;shape-rendering:auto;text-rendering:auto;enable-background:accumulate"
       d="m 101.35547,27.201172 a 1.50015,1.50015 0 0 0 -0.14453,0.0098 c 0,0 -14.041678,1.752914 -24.070315,11.310546 C 73.570035,37.887322 69.840055,37.5 66,37.5 52.703846,37.5 40.614128,41.427387 31.785156,48.210938 22.956184,54.994488 17.400391,64.711574 17.400391,76 c 0,7.370618 2.477777,14.076564 6.572265,19.707031 l -3.933594,3.931641 c -3.457311,3.457308 -3.468258,9.058368 0.01172,12.429688 3.461636,3.45045 9.060899,3.45974 12.427735,-0.0273 l 4.71875,-4.7168 c 8.090057,4.58438 18.008758,7.17578 28.703125,7.17578 9.43374,0 18.259895,-2.29795 25.767578,-6.01172 l 3.671875,3.67188 c 3.456636,3.45663 9.054246,3.47012 12.425776,-0.008 3.45189,-3.45963 3.46333,-9.05735 -0.0195,-12.425778 l -1.92773,-1.929687 c 1.91948,-2.171834 3.54471,-4.509329 4.83594,-6.996094 h 10.44531 a 1.50015,1.50015 0 0 0 1.5,-1.5 V 89.099609 62.800781 a 1.50015,1.50015 0 0 0 -1.5,-1.5 H 110.7168 c -1.95972,-3.653796 -4.59667,-7.038543 -7.81641,-10.082031 V 28.699219 a 1.50015,1.50015 0 0 0 -1.54492,-1.498047 z m -1.455079,3.302734 v 21.296875 a 1.50015,1.50015 0 0 0 0.486329,1.105469 c 3.48409,3.193754 6.26579,6.752283 8.17187,10.564453 a 1.50015,1.50015 0 0 0 1.3418,0.830078 h 9.69922 v 23.5 h -9.79883 a 1.50015,1.50015 0 0 0 -1.35156,0.845703 c -1.43206,2.959588 -3.33968,5.726473 -5.73047,8.212891 a 1.50015,1.50015 0 0 0 0.0215,2.101563 l 2.89844,2.900392 a 1.50015,1.50015 0 0 0 0.0195,0.0176 c 2.30943,2.22979 2.31966,5.82096 -0.0195,8.16015 a 1.50015,1.50015 0 0 0 -0.0176,0.0195 c -2.22979,2.30943 -5.820961,2.31966 -8.160152,-0.0195 l -4.400391,-4.40039 a 1.50015,1.50015 0 0 0 -1.751953,-0.26953 C 84.0209,109.15874 75.250391,111.5 65.900391,111.5 c -10.652294,0 -20.49333,-2.646 -28.228516,-7.28711 a 1.50015,1.50015 0 0 0 -1.832031,0.22656 l -5.5,5.5 a 1.50015,1.50015 0 0 0 -0.01953,0.0195 c -2.229791,2.30943 -5.820965,2.31966 -8.160156,-0.0195 a 1.50015,1.50015 0 0 0 -0.01758,-0.0195 c -2.309427,-2.22979 -2.321613,-5.82096 0.01758,-8.16015 l 4.800782,-4.798832 a 1.50015,1.50015 0 0 0 0.11914,-1.988282 C 22.867179,89.610784 20.400391,83.153333 20.400391,76 c 0,-10.311574 4.991862,-19.093707 13.21289,-25.410156 C 41.834309,44.273394 53.296154,40.5 66,40.5 c 3.9,0 7.706928,0.390606 11.320312,1.074219 a 1.50015,1.50015 0 0 0 1.339844,-0.414063 c 7.463811,-7.463811 17.613829,-9.956603 21.240235,-10.65625 z"
       id="path4"
       inkscape:connector-curvature="0" /><path
       style="color:#000000;font-style:normal;font-variant:normal;font-weight:normal;font-stretch:normal;font-size:medium;line-height:normal;font-family:sans-serif;font-variant-ligatures:normal;font-variant-position:normal;font-variant-caps:normal;font-variant-numeric:normal;font-variant-alternates:normal;font-feature-settings:normal;text-indent:0;text-align:start;text-decoration:none;text-decoration-line:none;text-decoration-style:solid;text-decoration-color:#000000;letter-spacing:normal;word-spacing:normal;text-transform:none;writing-mode:lr-tb;direction:ltr;text-orientation:mixed;dominant-baseline:auto;baseline-shift:baseline;text-anchor:start;white-space:normal;shape-padding:0;clip-rule:nonzero;display:inline;overflow:visible;visibility:visible;opacity:1;isolation:auto;mix-blend-mode:normal;color-interpolation:sRGB;color-interpolation-filters:linearRGB;solid-color:#000000;solid-opacity:1;vector-effect:none;fill:#e5ad2a;fill-opacity:1;fill-rule:nonzero;stroke:none;stroke-width:3;stroke-linecap:round;stroke-linejoin:round;stroke-miterlimit:10;stroke-dasharray:none;stroke-dashoffset:0;stroke-opacity:1;color-rendering:auto;image-rendering:auto;shape-rendering:auto;text-rendering:auto;enable-background:accumulate"
       d="m 13.351562,50.935547 c -3.5425949,0.517551 -6.6185493,3.118714 -7.5996089,6.775391 -1.3138314,4.897007 1.6830252,9.930201 6.5585939,11.238281 4.897008,1.313831 9.930202,-1.684979 11.238281,-6.560547 0.518229,-1.932291 -2.380208,-2.709635 -2.898437,-0.777344 -0.891921,3.324432 -4.259508,5.325622 -7.5625,4.439453 -3.3244318,-0.89192 -5.3256222,-4.259508 -4.4394535,-7.5625 0.5068658,-1.889227 1.8132445,-3.351114 3.4529305,-4.098605 1.245633,-0.567853 2.683621,-0.723419 4.10957,-0.340848 1.93229,0.518228 2.709633,-2.380209 0.777343,-2.898437 -1.224252,-0.328458 -2.455853,-0.387361 -3.636719,-0.214844 z"
       id="path6"
       inkscape:connector-curvature="0"
       sodipodi:nodetypes="sssccsssccs" /><path
       style="color:#000000;font-style:normal;font-variant:normal;font-weight:normal;font-stretch:normal;font-size:medium;line-height:normal;font-family:sans-serif;font-variant-ligatures:normal;font-variant-position:normal;font-variant-caps:normal;font-variant-numeric:normal;font-variant-alternates:normal;font-feature-settings:normal;text-indent:0;text-align:start;text-decoration:none;text-decoration-line:none;text-decoration-style:solid;text-decoration-color:#000000;letter-spacing:normal;word-spacing:normal;text-transform:none;writing-mode:lr-tb;direction:ltr;text-orientation:mixed;dominant-baseline:auto;baseline-shift:baseline;text-anchor:start;white-space:normal;shape-padding:0;clip-rule:nonzero;display:inline;overflow:visible;visibility:visible;opacity:1;isolation:auto;mix-blend-mode:normal;color-interpolation:sRGB;color-interpolation-filters:linearRGB;solid-color:#000000;solid-opacity:1;vector-effect:none;fill-opacity:1;fill-rule:nonzero;stroke:none;stroke-width:3;stroke-linecap:butt;stroke-linejoin:miter;stroke-miterlimit:10;stroke-dasharray:none;stroke-dashoffset:0;stroke-opacity:1;color-rendering:auto;image-rendering:auto;shape-rendering:auto;text-rendering:auto;enable-background:accumulate"
       d="m 95.5,62.300781 c -2.909342,0 -5.300781,2.389486 -5.300781,5.298828 0,2.909343 2.391439,5.300782 5.300781,5.300782 2.909342,0 5.30078,-2.391439 5.30078,-5.300782 0,-2.909342 -2.391438,-5.298828 -5.30078,-5.298828 z m 0,3 c 1.288022,0 2.300781,1.010807 2.300781,2.298828 0,1.288022 -1.012759,2.300782 -2.300781,2.300782 -1.288022,0 -2.300781,-1.01276 -2.300781,-2.300782 0,-1.288021 1.012759,-2.298828 2.300781,-2.298828 z"
       id="circle8"
       inkscape:connector-curvature="0" /><path
       style="color:#000000;font-style:normal;font-variant:normal;font-weight:normal;font-stretch:normal;font-size:medium;line-height:normal;font-family:sans-serif;font-variant-ligatures:normal;font-variant-position:normal;font-variant-caps:normal;font-variant-numeric:normal;font-variant-alternates:normal;font-feature-settings:normal;text-indent:0;text-align:start;text-decoration:none;text-decoration-line:none;text-decoration-style:solid;text-decoration-color:#000000;letter-spacing:normal;word-spacing:normal;text-transform:none;writing-mode:lr-tb;direction:ltr;text-orientation:mixed;dominant-baseline:auto;baseline-shift:baseline;text-anchor:start;white-space:normal;shape-padding:0;clip-rule:nonzero;display:inline;overflow:visible;visibility:visible;opacity:1;isolation:auto;mix-blend-mode:normal;color-interpolation:sRGB;color-interpolation-filters:linearRGB;solid-color:#000000;solid-opacity:1;vector-effect:none;fill:#e5ad2a;fill-opacity:1;fill-rule:nonzero;stroke:none;stroke-width:3;stroke-linecap:round;stroke-linejoin:round;stroke-miterlimit:10;stroke-dasharray:none;stroke-dashoffset:0;stroke-opacity:1;color-rendering:auto;image-rendering:auto;shape-rendering:auto;text-rendering:auto;enable-background:accumulate"
       d="m 48.53125,13.376953 c -6.808129,0.106068 -13.458068,3.491091 -17.484375,9.597656 a 1.50015,1.50015 0 0 0 -0.002,0.0039 c -5.46729,8.361738 -4.405809,19.042307 2.052734,26.039062 a 1.5003524,1.5003524 0 1 0 2.205078,-2.035156 C 29.76223,40.980209 28.822787,31.862664 33.552734,24.625 l 0.002,-0.0039 c 5.55842,-8.426052 16.798793,-10.818714 25.216796,-5.269532 6.298312,4.168001 9.245374,11.561106 7.953125,18.576172 a 1.5005296,1.5005296 0 1 0 2.951172,0.544922 C 71.183532,30.287722 67.729423,21.681609 60.427734,16.849609 a 1.50015,1.50015 0 0 0 -0.002,-0.002 C 56.758048,14.42937 52.616128,13.313312 48.53125,13.376953 Z"
       id="path10"
       inkscape:connector-curvature="0" /><path
       style="color:#000000;font-style:normal;font-variant:normal;font-weight:normal;font-stretch:normal;font-size:medium;line-height:normal;font-family:sans-serif;font-variant-ligatures:normal;font-variant-position:normal;font-variant-caps:normal;font-variant-numeric:normal;font-variant-alternates:normal;font-feature-settings:normal;text-indent:0;text-align:start;text-decoration:none;text-decoration-line:none;text-decoration-style:solid;text-decoration-color:#000000;letter-spacing:normal;word-spacing:normal;text-transform:none;writing-mode:lr-tb;direction:ltr;text-orientation:mixed;dominant-baseline:auto;baseline-shift:baseline;text-anchor:start;white-space:normal;shape-padding:0;clip-rule:nonzero;display:inline;overflow:visible;visibility:visible;opacity:1;isolation:auto;mix-blend-mode:normal;color-interpolation:sRGB;color-interpolation-filters:linearRGB;solid-color:#000000;solid-opacity:1;vector-effect:none;fill:#e5ad2a;fill-opacity:1;fill-rule:nonzero;stroke:none;stroke-width:3;stroke-linecap:round;stroke-linejoin:round;stroke-miterlimit:10;stroke-dasharray:none;stroke-dashoffset:0;stroke-opacity:1;color-rendering:auto;image-rendering:auto;shape-rendering:auto;text-rendering:auto;enable-background:accumulate"
       d="m 86.220703,73.791016 a 1.50015,1.50015 0 0 0 -0.623047,2.882812 l 8.900391,3.900391 a 1.50015,1.50015 0 1 0 1.203125,-2.748047 l -8.898438,-3.900391 a 1.50015,1.50015 0 0 0 -0.582031,-0.134765 z"
       id="line12"
       inkscape:connector-curvature="0" /><path
       style="color:#000000;font-style:normal;font-variant:normal;font-weight:normal;font-stretch:normal;font-size:medium;line-height:normal;font-family:sans-serif;font-variant-ligatures:normal;font-variant-position:normal;font-variant-caps:normal;font-variant-numeric:normal;font-variant-alternates:normal;font-feature-settings:normal;text-indent:0;text-align:start;text-decoration:none;text-decoration-line:none;text-decoration-style:solid;text-decoration-color:#000000;letter-spacing:normal;word-spacing:normal;text-transform:none;writing-mode:lr-tb;direction:ltr;text-orientation:mixed;dominant-baseline:auto;baseline-shift:baseline;text-anchor:start;white-space:normal;shape-padding:0;clip-rule:nonzero;display:inline;overflow:visible;visibility:visible;opacity:1;isolation:auto;mix-blend-mode:normal;color-interpolation:sRGB;color-interpolation-filters:linearRGB;solid-color:#000000;solid-opacity:1;vector-effect:none;fill:#e5ad2a;fill-opacity:1;fill-rule:nonzero;stroke:none;stroke-width:3;stroke-linecap:round;stroke-linejoin:round;stroke-miterlimit:10;stroke-dasharray:none;stroke-dashoffset:0;stroke-opacity:1;color-rendering:auto;image-rendering:auto;shape-rendering:auto;text-rendering:auto;enable-background:accumulate"
       d="m 48.900391,20.099609 c -8.10822,0 -14.800782,6.589971 -14.800782,14.800782 0,4.310256 1.783388,8.234321 4.804688,10.919921 a 1.50015,1.50015 0 1 0 1.992187,-2.242187 c -2.3787,-2.1144 -3.796875,-5.187991 -3.796875,-8.677734 0,-6.58919 5.309001,-11.800782 11.800782,-11.800782 6.478082,0 11.798828,5.322699 11.798828,11.800782 0,1.257142 -0.180893,2.513194 -0.533203,3.658203 a 1.50015,1.50015 0 1 0 2.867187,0.882812 c 0.44769,-1.454991 0.666016,-2.998158 0.666016,-4.541015 0,-8.121918 -6.676911,-14.800782 -14.798828,-14.800782 z"
       id="path14"
       inkscape:connector-curvature="0" /><path
       style="color:#000000;font-style:normal;font-variant:normal;font-weight:normal;font-stretch:normal;font-size:medium;line-height:normal;font-family:sans-serif;font-variant-ligatures:normal;font-variant-position:normal;font-variant-caps:normal;font-variant-numeric:normal;font-variant-alternates:normal;font-feature-settings:normal;text-indent:0;text-align:start;text-decoration:none;text-decoration-line:none;text-decoration-style:solid;text-decoration-color:#000000;letter-spacing:normal;word-spacing:normal;text-transform:none;writing-mode:lr-tb;direction:ltr;text-orientation:mixed;dominant-baseline:auto;baseline-shift:baseline;text-anchor:start;white-space:normal;shape-padding:0;clip-rule:nonzero;display:inline;overflow:visible;visibility:visible;opacity:1;isolation:auto;mix-blend-mode:normal;color-interpolation:sRGB;color-interpolation-filters:linearRGB;solid-color:#000000;solid-opacity:1;vector-effect:none;fill:#e5ad2a;fill-opacity:1;fill-rule:nonzero;stroke:none;stroke-width:3;stroke-linecap:round;stroke-linejoin:round;stroke-miterlimit:10;stroke-dasharray:none;stroke-dashoffset:0;stroke-opacity:1;color-rendering:auto;image-rendering:auto;shape-rendering:auto;text-rendering:auto;enable-background:accumulate"
       d="m 29.035156,66.181641 a 1.50015,1.50015 0 0 0 -1.335937,0.980468 C 26.63723,69.92328 26,72.992713 26,76.099609 c 0,8.581056 4.570757,16.31912 11.775391,21.830079 7.204633,5.510962 17.063401,8.871092 27.923828,8.871092 8.747059,0 16.793278,-2.15751 23.330078,-5.78906 a 1.5002767,1.5002767 0 1 0 -1.457031,-2.623048 c -6.0632,3.368448 -13.620106,5.412108 -21.873047,5.412108 -10.239574,0 -19.479243,-3.18986 -26.09961,-8.253905 C 32.979243,90.482834 29,83.618553 29,76.099609 c 0,-2.693103 0.561989,-5.422498 1.5,-7.861328 a 1.50015,1.50015 0 0 0 -1.464844,-2.05664 z"
       id="path16"
       inkscape:connector-curvature="0" /></g></svg>