<?xml version="1.0" ?><svg viewBox="0 0 32 32" xmlns="http://www.w3.org/2000/svg"><title/><g data-name="46-Shopping Cart - Add" id="_46-Shopping_Cart_-_Add"><path d="M30,22H6V8h5V6H6V1A1,1,0,0,0,5,0H0V2H4V26a2,2,0,0,0,2,2H8.18A3,3,0,0,0,8,29a3,3,0,0,0,6,0,3,3,0,0,0-.18-1H24.18A3,3,0,0,0,24,29a3,3,0,0,0,6,0,3,3,0,0,0-.18-1H32V26H6V24H31a1,1,0,0,0,1-1V18H30Z"/><path d="M23,18a9,9,0,1,0-9-9A9,9,0,0,0,23,18ZM23,2a7,7,0,1,1-7,7A7,7,0,0,1,23,2Z"/><polygon points="22 13 24 13 24 10 27 10 27 8 24 8 24 5 22 5 22 8 19 8 19 10 22 10 22 13"/></g></svg>