<?xml version="1.0" encoding="utf-8"?>
<!-- Generator: Adobe Illustrator 21.0.0, SVG Export Plug-In . SVG Version: 6.00 Build 0)  -->
<svg version="1.1" id="Layer_2" xmlns="http://www.w3.org/2000/svg" xmlns:xlink="http://www.w3.org/1999/xlink" x="0px" y="0px"
	    width="30.1"
   height="22.6"
	 viewBox="0 0 30.1 22.6" style="enable-background:new 0 0 30.1 22.6;" xml:space="preserve">
<g  stroke="#FCCA37">
	<g>
		<path d="M17.7,6.2c0.1,0,0.2,0,0.2,0L28.2,9c0.8,0.2,0.9,1.3,0.2,1.7l-2.7,1.5c-0.5,0.3-0.6,1-0.2,1.5l3.3,3.3
			c0.4,0.4,0.4,0.9,0,1.3c-0.2,0.2-0.4,0.3-0.7,0.3c-0.2,0-0.5-0.1-0.7-0.3l-3.3-3.3c-0.2-0.2-0.4-0.3-0.7-0.3
			c-0.3,0-0.6,0.2-0.8,0.5l-1.5,2.7c-0.2,0.3-0.5,0.5-0.8,0.5c-0.4,0-0.8-0.2-0.9-0.7L16.8,7.4C16.7,6.8,17.1,6.2,17.7,6.2
			 M17.7,5.5c-0.5,0-1,0.2-1.3,0.6C16.1,6.5,16,7,16.1,7.5l2.7,10.2c0.2,0.7,0.8,1.2,1.6,1.2c0.6,0,1.1-0.3,1.4-0.8l1.5-2.7
			c0.1-0.1,0.1-0.1,0.2-0.1c0,0,0.1,0,0.1,0.1l3.3,3.3c0.3,0.3,0.7,0.5,1.2,0.5c0.4,0,0.8-0.2,1.2-0.5c0.3-0.3,0.5-0.7,0.5-1.2
			c0-0.4-0.2-0.8-0.5-1.2L26,13.1C26,13.1,26,13,26,13c0,0,0-0.1,0.1-0.2l2.7-1.5c0.6-0.3,0.9-1,0.8-1.6C29.5,9,29,8.5,28.4,8.3
			L18.1,5.5C18,5.5,17.8,5.5,17.7,5.5L17.7,5.5z"/>
	</g>
	<g fill="none">
	<path  d="M24,3c0-1.4-1.3-2.5-3-2.5H3.4c-1.6,0-3,1.1-3,2.5v16.6c0,1.4,1.3,2.5,3,2.5H21c1.6,0,3-1.1,3-2.5"/>
	<line x1="3.5" y1="6.3" x2="12.3" y2="6.3"/>
	<line  x1="3.5" y1="10.1" x2="12.3" y2="10.1"/>
	<line  x1="3.5" y1="14" x2="12.3" y2="14"/>
		</g>
</g>
</svg>
