<?xml version="1.0" encoding="utf-8"?>
<!-- Generator: Adobe Illustrator 21.0.0, SVG Export Plug-In . SVG Version: 6.00 Build 0)  -->
<svg version="1.1" id="Layer_1" xmlns="http://www.w3.org/2000/svg" xmlns:xlink="http://www.w3.org/1999/xlink" x="0px" y="0px"
	 viewBox="0 0 50 50" style="enable-background:new 0 0 50 50;" xml:space="preserve">
<title>Shop-big</title>
<g id="Layer_2">
	<g id="Layer_2-2">
		<path  d="M49,33c0,0-4.8-4.6-5.3-5.1l4.4-2.4c1.2-0.6,1.8-1.9,1.6-3.2c-0.2-1.3-1.1-2.4-2.4-2.8l-16.9-4.6
			C29,14.6,27.6,15,26.7,16c-0.6,0.8-0.8,1.8-0.6,2.8l4.5,17c0.5,1.7,2.3,2.7,4,2.2c0.8-0.2,1.5-0.8,1.9-1.5l2.4-4.2l5.3,5.3
			c0.6,0.6,1.5,1,2.4,1c0.9-0.1,1.7-0.4,2.4-1c0.6-0.6,1-1.5,1-2.4C50,34.5,49.6,33.6,49,33z M48.3,37c-0.5,0.4-1.1,0.7-1.7,0.7
			c-0.6,0-1.2-0.3-1.6-0.7l-5.4-5.5c-0.2-0.2-0.4-0.3-0.7-0.3h-0.1c-0.3,0-0.5,0.2-0.6,0.4L35.7,36c-0.4,0.7-1.1,1.1-1.9,1.1
			c-1,0-1.9-0.6-2.2-1.6l-4.5-17c-0.1-0.7,0-1.4,0.4-1.9l0,0c0.6-0.7,1.6-1,2.5-0.8L47,20.5c0.9,0.3,1.5,1,1.7,1.9
			c0.1,0.9-0.3,1.7-1.1,2.1L43,27.1c-0.2,0.1-0.4,0.4-0.4,0.6c0,0.3,0.1,0.6,0.3,0.8l5.3,5.2c0.4,0.5,0.7,1.1,0.7,1.7
			C49,36,48.7,36.5,48.3,37L48.3,37z"/>
		<path  d="M39.8,38.3c-0.3,0-0.5,0.2-0.5,0.5l0,0c0,2-2.1,3.7-4.5,3.7H5.5C3,42.5,1,40.9,1,38.8V11.2
			c0-2,2.1-3.7,4.5-3.7h29.3c2.5,0,4.5,1.6,4.5,3.7c0,0.3,0.2,0.5,0.5,0.5s0.5-0.2,0.5-0.5c0-2.6-2.4-4.7-5.5-4.7H5.5
			c-3,0-5.5,2.1-5.5,4.7v27.7c0,2.7,2.4,4.7,5.5,4.7h29.3c3,0,5.5-2.1,5.5-4.7C40.3,38.6,40.1,38.3,39.8,38.3
			C39.8,38.3,39.8,38.3,39.8,38.3z"/>
		<path  d="M20.3,16.2H5.6c-0.3,0-0.5,0.2-0.5,0.5s0.2,0.5,0.5,0.5h14.7c0.3,0,0.5-0.2,0.5-0.5S20.6,16.2,20.3,16.2z"/>
		<path  d="M20.3,22.5H5.6c-0.3,0-0.5,0.2-0.5,0.5s0.2,0.5,0.5,0.5h14.7c0.3,0,0.5-0.2,0.5-0.5S20.6,22.5,20.3,22.5z"/>
		<path  d="M20.3,29H5.6c-0.3,0-0.5,0.2-0.5,0.5S5.4,30,5.6,30h14.7c0.3,0,0.5-0.2,0.5-0.5S20.6,29,20.3,29z"/>
	</g>
</g>
</svg>
