<?xml version="1.0" encoding="UTF-8" standalone="no"?>
<svg
   xmlns:dc="http://purl.org/dc/elements/1.1/"
   xmlns:cc="http://creativecommons.org/ns#"
   xmlns:rdf="http://www.w3.org/1999/02/22-rdf-syntax-ns#"
   xmlns:svg="http://www.w3.org/2000/svg"
   xmlns="http://www.w3.org/2000/svg"
   xmlns:sodipodi="http://sodipodi.sourceforge.net/DTD/sodipodi-0.dtd"
   xmlns:inkscape="http://www.inkscape.org/namespaces/inkscape"
   width="50"
   height="50"
   viewBox="0 0 50 50"
   id="svg2"
   version="1.1"
   inkscape:version="0.91 r13725"
   sodipodi:docname="star.svg">
  <metadata
     id="metadata10">
    <rdf:RDF>
      <cc:Work
         rdf:about="">
        <dc:format>image/svg+xml</dc:format>
        <dc:type
           rdf:resource="http://purl.org/dc/dcmitype/StillImage" />
      </cc:Work>
    </rdf:RDF>
  </metadata>
  <defs
     id="defs8" />
  <sodipodi:namedview
     pagecolor="#ffffff"
     bordercolor="#666666"
     borderopacity="1"
     objecttolerance="10"
     gridtolerance="10"
     guidetolerance="10"
     inkscape:pageopacity="0"
     inkscape:pageshadow="2"
     inkscape:window-width="1366"
     inkscape:window-height="688"
     id="namedview6"
     showgrid="false"
     inkscape:zoom="8.32"
     inkscape:cx="25"
     inkscape:cy="25"
     inkscape:window-x="0"
     inkscape:window-y="27"
     inkscape:window-maximized="1"
     inkscape:current-layer="svg2" />
  <path
     d="m 47.54902,19.927537 q 0,0.625179 -0.704655,1.364025 l -9.838094,10.059675 2.330788,14.208582 q 0.02709,0.198921 0.02709,0.568344 0,0.59676 -0.284572,1.008809 -0.284576,0.412048 -0.826618,0.412048 -0.514943,0 -1.084088,-0.341005 l -12.168877,-6.706451 -12.16888,6.706451 q -0.596247,0.341005 -1.084088,0.341005 -0.569146,0 -0.853719,-0.412048 -0.284572,-0.412049 -0.284572,-1.008809 0,-0.170503 0.0542,-0.568344 L 12.993731,31.351237 3.1285349,21.291562 q -0.6775545,-0.767265 -0.6775545,-1.364025 0,-1.051435 1.5177221,-1.30719 L 17.574005,16.545895 23.671996,3.6160839 q 0.514942,-1.1651036 1.328007,-1.1651036 0.813065,0 1.328008,1.1651036 l 6.09799,12.9298111 13.605296,2.074452 q 1.517723,0.255755 1.517723,1.30719 z"
     id="path4"
     inkscape:connector-curvature="0"
     style="fill:#ffffff;stroke:#000000;stroke-width:0.90196073;stroke-opacity:1" />
</svg>
