<?xml version="1.0" encoding="utf-8"?>
<!-- Generator: Adobe Illustrator 21.0.0, SVG Export Plug-In . SVG Version: 6.00 Build 0)  -->
<svg version="1.1" id="Layer_1" xmlns="http://www.w3.org/2000/svg" xmlns:xlink="http://www.w3.org/1999/xlink" x="0px" y="0px"
	 viewBox="0 0 50 50" style="enable-background:new 0 0 50 50;" xml:space="preserve">

<title>Stop-watch-Big</title>
<g id="Layer_2">
	<g id="Layer_1-2">
		<path  d="M35.2,9.8l2.2-3.8c0.2-0.2,0.1-0.5-0.1-0.7c-0.2-0.2-0.5-0.1-0.7,0.1c0,0,0,0,0,0.1l-2.2,3.8
			c-2.3-1.1-4.9-1.8-7.4-2V4.3c0.8,0.1,1.5,0,2.3-0.3l0.2-0.3l-0.1-0.1C29,1.6,27,0,24.7,0s-4.5,1.7-4.5,3.7v0.4l0.4,0.1
			c0,0,0.9,0,2.2,0.1v3.1C11,8.6,2.5,19.1,3.7,30.9s11.8,20.3,23.5,19c11.7-1.2,20.3-11.8,19-23.5C45.5,19.4,41.4,13.2,35.2,9.8z
			 M24.7,1c1.5-0.1,2.9,0.8,3.4,2.2c-1.4,0-5.4,0-6.8,0C21.8,1.8,23.2,0.9,24.7,1z M23.8,4.2h2v3c-0.3,0-0.5,0-0.8,0s-0.8,0-1.2,0.1
			L23.8,4.2z M25,49C13.7,49,4.6,39.9,4.6,28.6S13.7,8.3,25,8.3c11.2,0,20.4,9.1,20.4,20.4C45.4,39.9,36.2,49,25,49z"/>
		<path  d="M34.1,18.4L26.5,26c-0.5-0.4-1.1-0.6-1.8-0.6c-1.7,0-3,1.3-3,3s1.3,3,3,3s3-1.3,3-3c0-0.6-0.2-1.1-0.5-1.6
			l7.6-7.6c0.2-0.2,0.2-0.5,0-0.7C34.6,18.3,34.4,18.3,34.1,18.4L34.1,18.4z M24.7,30.2c-1.1,0-1.9-0.9-1.9-1.9
			c0-1.1,0.9-1.9,1.9-1.9c1.1,0,1.9,0.9,1.9,1.9c0,0,0,0,0,0C26.6,29.4,25.8,30.2,24.7,30.2z"/>
		<path  d="M25,10.8c-9.8,0-17.8,8-17.8,17.8c0,9.8,8,17.8,17.8,17.8c9.8,0,17.8-8,17.8-17.8
			C42.8,18.8,34.8,10.8,25,10.8z M25,45.4c-9.3,0-16.8-7.5-16.8-16.8c0-9.3,7.5-16.8,16.8-16.8c9.3,0,16.8,7.5,16.8,16.8
			C41.8,37.9,34.3,45.4,25,45.4L25,45.4z"/>
	</g>
</g>
</svg>
