<?xml version="1.0" encoding="utf-8"?>
<!-- Generator: Adobe Illustrator 21.0.0, SVG Export Plug-In . SVG Version: 6.00 Build 0)  -->
<svg version="1.1" id="Layer_1" xmlns="http://www.w3.org/2000/svg" xmlns:xlink="http://www.w3.org/1999/xlink" x="0px" y="0px"
	 viewBox="0 0 50 50" style="enable-background:new 0 0 50 50;" xml:space="preserve">
>
<title>A-Support-Small</title>
<g id="Layer_2">
	<g id="Layer_2-2">
		<path d="M41.9,34.5V23.3c0-0.9-0.7-1.6-1.6-1.6c-0.9,0-1.6,0.7-1.6,1.6v11.2c0,0.9,0.7,1.6,1.6,1.6c0,0,0,0,0,0
			C41.2,36,41.8,35.4,41.9,34.5z"/>
		<path  d="M46,20.8v-3.9C46,6.3,38.2,0,25,0S4,6.3,4,16.9v3.9c-1.9,0.7-3.1,2.5-3.2,4.5v6.6c0,2.6,2.2,4.8,4.8,4.8
			c0.9,0,1.6-0.7,1.6-1.6c0-0.9-0.7-1.6-1.6-1.6c-0.9-0.1-1.5-0.7-1.6-1.6v-6.6c0.1-0.9,0.7-1.5,1.6-1.6c0.9,0,1.6-0.7,1.6-1.6
			c0,0,0,0,0,0v-5.2C7.2,4.6,19.7,3.2,25,3.2s17.8,1.3,17.8,13.7v5.2c0,0.9,0.7,1.6,1.6,1.6c0,0,0,0,0,0c0.9,0,1.6,0.7,1.6,1.6v6.6
			c0,0.9-0.7,1.6-1.6,1.6c-0.9,0-1.6,0.7-1.6,1.6c0,0,0,0,0,0v5.4c-0.1,1.6-1.2,2.9-2.7,3.2c-0.7-1.8-2.4-2.9-4.3-2.9
			c-2.5,0-4.6,2.1-4.6,4.6c0,2.5,2.1,4.6,4.6,4.6c1.9,0,3.6-1.2,4.3-3c3.3-0.3,5.9-3.1,5.9-6.4v-4.2c1.9-0.7,3.2-2.5,3.2-4.5v-6.6
			C49.1,23.3,47.9,21.5,46,20.8z M35.8,46.8c-0.8,0-1.4-0.6-1.4-1.4S35,44,35.8,44c0.8,0,1.4,0.6,1.4,1.4
			C37.2,46.2,36.6,46.8,35.8,46.8z"/>
		<path  d="M9.6,21.7c-0.9,0-1.6,0.7-1.6,1.6c0,0,0,0,0,0v11.2c0,0.9,0.7,1.6,1.6,1.6s1.6-0.7,1.6-1.6V23.3
			C11.2,22.4,10.5,21.7,9.6,21.7C9.6,21.7,9.6,21.7,9.6,21.7z"/>
	</g>
</g>
</svg>
