<?xml version="1.0" encoding="utf-8"?>
<!-- Generator: Adobe Illustrator 21.0.0, SVG Export Plug-In . SVG Version: 6.00 Build 0)  -->
<svg version="1.1" id="Layer_2" xmlns="http://www.w3.org/2000/svg" xmlns:xlink="http://www.w3.org/1999/xlink" x="0px" y="0px"
	 viewBox="0 0 21.3 21.9" style="enable-background:new 0 0 21.3 21.9;" xml:space="preserve"
width="21.3" height="21.9"
>
<g stroke="#FCCA37">
	<path fill="none" d="M19.1,9.6V7.4c0-4.7-3.8-6.7-8.5-6.7s-8.5,2-8.5,6.7v2.2"/>
	<line fill="none" x1="17.6" y1="10.2" x2="17.6" y2="15.1"/>
	<path fill="none" d="M19.1,9.7L19.1,9.7c0.8,0,1.4,0.7,1.4,1.4V14c0,0.8-0.7,1.4-1.4,1.4h0"/>
	<line fill="none" x1="3.7" y1="10.2" x2="3.7" y2="15.1"/>
	<path fill="none" d="M2.2,9.7L2.2,9.7c-0.8,0-1.4,0.7-1.4,1.4V14c0,0.8,0.7,1.4,1.4,1.4h0"/>
	<path fill="none" d="M15.3,18.7L15.3,18.7c0.7,0,1.2,0.6,1.2,1.2v0c0,0.7-0.6,1.2-1.2,1.2h0c-0.7,0-1.2-0.6-1.2-1.2v0
		C14,19.3,14.6,18.7,15.3,18.7z"/>
	<path fill="none" d="M16.9,19.9c1.1,0,2.1-0.9,2.1-2.1v-2.2"/>
</g>
</svg>
