<?xml version="1.0" encoding="utf-8"?>
<!-- Generator: Adobe Illustrator 21.0.0, SVG Export Plug-In . SVG Version: 6.00 Build 0)  -->
<svg version="1.1" id="Layer_1" xmlns="http://www.w3.org/2000/svg" xmlns:xlink="http://www.w3.org/1999/xlink" x="0px" y="0px"
	 viewBox="0 0 50 50" style="enable-background:new 0 0 50 50;" xml:space="preserve">

<title>Support-Big</title>
<g id="Layer_2">
	<g id="Layer_1-2" stroke-width="0.2px">
		<path  d="M46,21.6v-4.8C46,6.3,38.1,0,25,0S4,6.3,4,16.8v4.8c-2,0.4-3.4,2.1-3.4,4.1v6.6c0,2.3,1.9,4.2,4.2,4.2
			c0.4-0.1,0.7-0.5,0.6-0.9c-0.1-0.3-0.3-0.6-0.6-0.6c-1.5,0-2.6-1.2-2.6-2.6v-6.6c0-1.5,1.2-2.6,2.6-2.6c0.4,0,0.8-0.3,0.8-0.8
			c0,0,0,0,0,0v-5.5C5.6,7.2,12.8,1.6,25,1.6s19.4,5.7,19.4,15.2v5.5c0,0.4,0.3,0.8,0.8,0.8c1.5,0,2.6,1.2,2.6,2.6v6.6
			c0,1.5-1.2,2.6-2.6,2.7c0,0,0,0,0,0c-0.4,0-0.8,0.3-0.8,0.8c0,0.1,0,0.1,0,0.2v5.3c0,2.3-1.8,4.2-4.1,4.2c0,0-0.1,0-0.1,0
			c-0.1,0-0.1,0-0.2,0c-0.4-2-2.4-3.4-4.4-2.9s-3.4,2.4-2.9,4.4c0.4,2,2.4,3.4,4.4,2.9c1.5-0.3,2.6-1.5,2.9-2.9c0.1,0,0.1,0,0.2,0
			c3.2,0,5.8-2.6,5.8-5.8v-4.8c2-0.4,3.4-2.1,3.4-4.1v-6.6C49.4,23.7,47.9,22,46,21.6z M36.4,48.4c-1.2,0-2.2-1-2.2-2.2
			s1-2.2,2.2-2.2s2.2,1,2.2,2.2C38.6,47.4,37.6,48.4,36.4,48.4C36.4,48.4,36.4,48.4,36.4,48.4z"/>
		<path  d="M42.3,35V23.4c0-0.4-0.3-0.8-0.8-0.8c-0.4,0-0.8,0.3-0.8,0.8V35c0,0.4,0.3,0.8,0.8,0.8
			C42,35.8,42.3,35.4,42.3,35L42.3,35z"/>
		<path  d="M8.3,22.6c-0.4,0-0.7,0.4-0.7,0.8V35c0,0.4,0.3,0.8,0.8,0.8c0.4,0,0.8-0.3,0.8-0.8c0,0,0,0,0,0V23.4
			C9.2,23,8.8,22.6,8.3,22.6C8.4,22.6,8.4,22.6,8.3,22.6z"/>
	</g>
</g>
</svg>
