<?xml version="1.0" ?><svg viewBox="0 0 32 32" xmlns="http://www.w3.org/2000/svg"><title/><g data-name="44-Touch Gesture" id="_44-Touch_Gesture"><path d="M25,14H23l-.25,0A1.91,1.91,0,0,0,21,13H19V7a2,2,0,0,0-2-2H15a2.09,2.09,0,0,0-1,.26A2,2,0,0,0,13,5H11A2,2,0,0,0,9,7v7H7a2,2,0,0,0-2,2v9c0,1.08,1.29,3.21,2,4.3V32H9V29a1,1,0,0,0-.17-.55A14.3,14.3,0,0,1,7,25V16H9v4h2V7h2V18h2V7h2V21h2V15l2,0h.24A2,2,0,0,0,21,16v6h2V16h2v9a3.77,3.77,0,0,1-1.45,1.15A1,1,0,0,0,23,27v5h2V27.59c.81-.49,2-1.42,2-2.59V16A2,2,0,0,0,25,14Z"/><path d="M14,2a7,7,0,0,1,7,7h2A9,9,0,0,0,5,9H7A7,7,0,0,1,14,2Z"/></g></svg>