<svg xmlns="http://www.w3.org/2000/svg" viewBox="0 0 128 128"><g><path d="M10 17.643c-4.777 0-8.658 3.88-8.658 8.658v9A1.457 1.457 0 0 0 2.8 36.758h122.5a1.457 1.457 0 0 0 1.457-1.457v-9a1.457 1.457 0 0 0 0-.037c-.12-4.757-3.98-8.621-8.758-8.621zm0 2.914h108c3.22 0 5.756 2.531 5.842 5.77v7.515H4.258V26.3c0-3.223 2.52-5.744 5.742-5.744zm3.1 2.185c-2.61 0-4.758 2.148-4.758 4.758s2.147 4.758 4.758 4.758c2.61 0 4.757-2.148 4.757-4.758s-2.147-4.758-4.757-4.758zm12.9 0c-2.61 0-4.758 2.148-4.758 4.758S23.39 32.258 26 32.258s4.758-2.148 4.758-4.758S28.61 22.742 26 22.742zm12.8 0c-2.61 0-4.757 2.148-4.757 4.758s2.148 4.758 4.758 4.758 4.756-2.148 4.756-4.758-2.146-4.758-4.756-4.758zm-25.7 2.916c1.035 0 1.843.807 1.843 1.842a1.821 1.821 0 0 1-1.843 1.842 1.82 1.82 0 0 1-1.842-1.842 1.82 1.82 0 0 1 1.842-1.842zm12.9 0a1.82 1.82 0 0 1 1.842 1.842A1.82 1.82 0 0 1 26 29.342a1.82 1.82 0 0 1-1.842-1.842A1.82 1.82 0 0 1 26 25.658zm12.8 0a1.82 1.82 0 0 1 1.843 1.842 1.82 1.82 0 0 1-1.842 1.842 1.821 1.821 0 0 1-1.844-1.842c0-1.035.809-1.842 1.844-1.842zM2.778 41.623A1.457 1.457 0 0 0 1.342 43.1v58.3c0 4.778 3.88 8.657 8.658 8.657h102.816a1.457 1.457 0 0 0 1.766 0H118c4.777 0 8.658-3.88 8.658-8.657V43.1a1.458 1.458 0 1 0-2.916 0v58.3c0 3.223-2.52 5.743-5.742 5.743h-.482l.812-.813a1.457 1.457 0 0 0 0-2.06l-9.67-9.67 6.592-3.297a1.457 1.457 0 0 0-.227-2.698l-23.3-7.1a1.457 1.457 0 0 0-1.819 1.82l7.1 23.3a1.457 1.457 0 0 0 .283.518H10c-3.223 0-5.742-2.52-5.742-5.743V43.1a1.457 1.457 0 0 0-1.48-1.477zm27.922 6.92c-6.255 0-11.357 5.102-11.357 11.357 0 4.614 2.799 8.568 6.765 10.342H24.5c-6.484 0-11.758 5.274-11.758 11.758v13.6a1.458 1.458 0 1 0 2.916 0V82a8.8 8.8 0 0 1 8.842-8.842h12.9A8.8 8.8 0 0 1 46.242 82a1.458 1.458 0 1 0 2.916 0c0-6.484-5.274-11.758-11.758-11.758h-2.107c3.967-1.774 6.764-5.728 6.764-10.342 0-6.255-5.103-11.357-11.358-11.357zm0 2.914a8.422 8.422 0 0 1 8.444 8.443 8.42 8.42 0 0 1-8.444 8.442 8.418 8.418 0 0 1-8.441-8.442 8.42 8.42 0 0 1 8.441-8.443zM60.9 55.443a1.457 1.457 0 1 0 0 2.914h48.7a1.457 1.457 0 1 0 0-2.914zm0 8.7a1.457 1.457 0 1 0 0 2.914h48.7a1.457 1.457 0 1 0 0-2.914zm0 8.699a1.458 1.458 0 1 0 0 2.916h48.7a1.458 1.458 0 1 0 0-2.916zM47.678 84.623a1.457 1.457 0 0 0-1.436 1.477v3.943h-3.941a1.457 1.457 0 1 0 0 2.914h3.941V96.9a1.458 1.458 0 1 0 2.916 0v-3.943H53.1a1.457 1.457 0 1 0 0-2.914h-3.942V86.1a1.457 1.457 0 0 0-1.48-1.477zm45.812.469l17.194 5.238-5.135 2.566a1.457 1.457 0 0 0-.38 2.334l10.07 10.07-1.536 1.536-10.068-10.162a1.457 1.457 0 0 0-2.342.38l-2.57 5.204zm9.512 15.084l6.904 6.967H99.508a1.457 1.457 0 0 0 .199-.297z"/></g></svg>