<svg xmlns="http://www.w3.org/2000/svg" version="1" width="570" height="1052" viewBox="72 0 570 1052"><path d="M434.716 92.69a77.844 75.74 0 1 1-155.69 0 77.844 75.74 0 1 1 155.69 0zM161.734 707.556h103.617l1.052 294.02s3.11 31.614 38.442 31.8c39.423.197 39.929-31.8 39.929-31.8l.093-296.11 23.05-.014v296.125s4.084 31.8 39.23 31.8c36.635-.006 40.718-31.8 40.718-31.8l-.398-293.495 104.016-.789-113.348-390.8 19.198-.526 68.64 228.536s16.42 31.783 44.392 19.251c28.02-12.553 20.829-41.868 20.829-41.868L513.65 263.97s-14.606-28.795-34.79-43.456c-20.185-14.662-49.667-22.629-49.667-22.629l-143.592.526s-29.493 5.67-49.875 20.266c-20.381 14.595-35.004 45.42-35.004 45.42l-78.715 254.14s-5.607 33.966 25.262 44.473c33.012 11.326 43.115-23.96 43.115-23.96l65.763-221.994h16.305l-110.718 390.8z"/></svg>