<?xml version="1.0" encoding="utf-8"?>
<!DOCTYPE svg PUBLIC "-//W3C//DTD SVG 1.1//EN" "http://www.w3.org/Graphics/SVG/1.1/DTD/svg11.dtd">
<svg version="1.1" xmlns="http://www.w3.org/2000/svg" xmlns:xlink="http://www.w3.org/1999/xlink" x="0px" y="0px"
	 width="24px" height="24px" viewBox="0 0 24 24" enable-background="new 0 0 24 24" xml:space="preserve">
<g>
	<path fill="#5d616b" d="M12,24C5.383,24,0,18.617,0,12S5.383,0,12,0s12,5.383,12,12S18.617,24,12,24z M12,1.016
		C5.943,1.016,1.016,5.943,1.016,12S5.943,22.984,12,22.984S22.984,18.057,22.984,12S18.057,1.016,12,1.016z"/>
</g>
<path fill="#5d616b" d="M13.478,12l2.575-2.574c0.448-0.447,0.48-1.142,0.072-1.55S15.021,7.5,14.575,7.948L12,10.522L9.425,7.948
	C8.979,7.5,8.284,7.468,7.876,7.876S7.5,8.979,7.948,9.426L10.522,12l-2.574,2.574c-0.448,0.447-0.48,1.142-0.072,1.55
	s1.103,0.376,1.549-0.072L12,13.478l2.575,2.575c0.447,0.447,1.141,0.479,1.549,0.071s0.375-1.103-0.072-1.55L13.478,12z"/>
</svg>
