<?xml version="1.0" encoding="utf-8"?>
<!-- Generator: Adobe Illustrator 16.0.0, SVG Export Plug-In . SVG Version: 6.00 Build 0)  -->
<!DOCTYPE svg PUBLIC "-//W3C//DTD SVG 1.1//EN" "http://www.w3.org/Graphics/SVG/1.1/DTD/svg11.dtd">
<svg version="1.1" id="Layer_1" xmlns="http://www.w3.org/2000/svg" xmlns:xlink="http://www.w3.org/1999/xlink" x="0px" y="0px"
	 width="33px" height="33px" viewBox="0 0 33 33" enable-background="new 0 0 33 33" xml:space="preserve">
<g>
	<path fill="#ff5874" d="M16.5,33C7.402,33,0,25.598,0,16.5S7.402,0,16.5,0C25.599,0,33,7.402,33,16.5S25.599,33,16.5,33z M16.5,1
		C7.953,1,1,7.953,1,16.5S7.953,32,16.5,32S32,25.047,32,16.5S25.047,1,16.5,1z"/>
</g>
<g>
	<path fill="#ff5874" d="M15.143,22.95c0-0.828,0.575-1.426,1.357-1.426c0.828,0,1.356,0.598,1.356,1.426
		c0,0.805-0.529,1.426-1.356,1.426C15.695,24.376,15.143,23.755,15.143,22.95z M15.718,19.662L15.396,8.624h2.208l-0.322,11.038
		H15.718z"/>
</g>
</svg>
