<?xml version="1.0" encoding="utf-8"?>
<!-- Generator: Adobe Illustrator 21.0.0, SVG Export Plug-In . SVG Version: 6.00 Build 0)  -->
<svg version="1.1" id="Layer_1" xmlns="http://www.w3.org/2000/svg" xmlns:xlink="http://www.w3.org/1999/xlink" x="0px" y="0px"
	 viewBox="0 0 50 50" style="enable-background:new 0 0 50 50;" xml:space="preserve">
<style type="text/css">
	.st0{fill:#2C97D8;}
</style>
<title>Bankiros-logo</title>
<g id="Layer_2">
	<g id="Layer_1-2">
		<path class="st0" d="M18.3,25c0.3-0.2,0.5-0.3,0.5-0.9c0-0.7-0.5-1.3-1.2-1.3c-0.1,0-0.1,0-0.2,0h-1.8v4.3h1.9
			c0.7,0.1,1.3-0.4,1.3-1.1c0-0.1,0-0.1,0-0.2C18.7,25.5,18.7,25.2,18.3,25z M16.7,23.8h0.6c0.3,0,0.4,0.2,0.4,0.4
			c0,0.2-0.1,0.4-0.3,0.4c0,0,0,0-0.1,0h-0.6V23.8z M17.4,26.2h-0.7v-0.8h0.7c0.2,0,0.4,0.2,0.4,0.4S17.6,26.2,17.4,26.2z"/>
		<path class="st0" d="M21.4,22.9l-1.5,4.3h1l0.2-0.6h1.3l0.2,0.6h1.1l-1.5-4.3C22.2,22.9,21.4,22.9,21.4,22.9z M21.4,25.6l0.4-1.1
			l0.4,1.1H21.4z"/>
		<polygon class="st0" points="27.3,25 25.9,22.9 25,22.9 25,27.2 26.1,27.2 26.1,25 27.4,27.2 28.4,27.2 28.4,22.9 27.3,22.9 		"/>
		<polygon class="st0" points="33.6,22.9 32.3,22.9 31.1,24.4 31.1,22.9 30,22.9 30,27.2 31.1,27.2 31.1,25.8 31.4,25.4 32.4,27.2 
			33.7,27.2 32.2,24.6 		"/>
		<rect x="34.9" y="22.9" class="st0" width="1" height="4.3"/>
		<path class="st0" d="M40.8,24.3c0-0.8-0.6-1.4-1.3-1.4h-0.1h-1.7v4.3h1v-1.6H39l0.8,1.6H41l-0.9-1.8
			C40.6,25.2,40.8,24.7,40.8,24.3z M39.3,24.7h-0.6v-0.9h0.6c0.2,0,0.5,0.1,0.5,0.4c0,0.3,0,0.2,0,0.2
			C39.7,24.7,39.5,24.7,39.3,24.7z"/>
		<path class="st0" d="M43.8,22.8c-0.4,0-0.9,0.1-1.2,0.5c-0.4,0.5-0.4,1-0.4,1.7c0,1,0.1,1.2,0.4,1.7c0.7,0.6,1.7,0.6,2.4,0
			c0.3-0.3,0.4-1.1,0.4-1.7c0-0.6-0.1-1.3-0.4-1.7C44.7,23,44.3,22.8,43.8,22.8z M44.2,26.1c-0.2,0.2-0.6,0.3-0.8,0l0,0
			c-0.1-0.1-0.2-0.3-0.2-1c0-0.7,0.1-1,0.2-1.1c0.2-0.2,0.6-0.3,0.8,0l0,0c0.1,0.1,0.2,0.3,0.2,1.1C44.4,25.9,44.3,25.9,44.2,26.1
			L44.2,26.1z"/>
		<path class="st0" d="M49.8,25.1c-0.2-0.2-0.6-0.4-1-0.5c0,0-0.9-0.1-0.9-0.4c0-0.2,0.1-0.4,0.5-0.4c0.3,0,0.6,0.1,0.8,0.3l0.7-0.7
			c-0.4-0.4-0.7-0.5-1.4-0.5s-1.5,0.4-1.6,1.2c0,0.1,0,0.1,0,0.2c0,1,0.8,1.2,1.2,1.3l0.5,0.1c0.1,0,0.2,0,0.3,0.1
			c0.1,0.1,0.1,0.2,0.1,0.3c0,0.3-0.2,0.4-0.6,0.4c-0.4,0-0.7-0.1-1-0.3l-0.7,0.7c0.4,0.4,0.9,0.6,1.6,0.6c0.7,0,1.8-0.1,1.8-1.6
			C50,25.3,49.9,25.3,49.8,25.1z"/>
		<path class="st0" d="M1.2,25.1c0-2.4,1.9-4.3,4.3-4.4c1.8,0,3.4,1.1,4.1,2.8l0.9-0.9c-1.3-2.7-4.7-3.9-7.4-2.5
			c-1.9,1-3.1,2.9-3.1,5c0,0.4,0,0.7,0.1,1.1L1.2,25.1L1.2,25.1z"/>
		<path class="st0" d="M10.8,22.8l-4,3.5l-5-1.3l-1.5,1.6c0.9,2.9,4,4.5,6.9,3.6c2.3-0.7,3.8-2.8,3.9-5.1c0-0.2,0-0.3,0-0.5
			l-1.2,1.1c-0.4,2.4-2.6,4-4.9,3.6c-1.5-0.2-2.7-1.2-3.3-2.5L2,26.3l5.3,1.4l2.6-2.4l1.1-1l0.7-0.8v-0.9l0,0L10.8,22.8z"/>
		<polygon class="st0" points="3.9,25.2 5.1,23.9 5.2,23.2 4.5,23.2 2.7,24.9 		"/>
		<polygon class="st0" points="6.4,25.8 8.4,23.7 8.4,23 7.7,23 5.2,25.5 		"/>
	</g>
</g>
</svg>
