<svg viewBox="0 0 418 50"  height="50"  width="418"><defs><path
       d="M0.3-0.6L0.6-0.3 0.3 0 0-0.3 0.3-0.6Z" />
    <path
       d="M0-0.6L0.6-0.6 0.6 0 0 0 0-0.6Z" />
    <path
       d="M0.1 0L0.3-0.4 0.1-0.7 0.7-0.4 0.1 0ZM1358 739L309 1346 659 739 1358 739Z" />
    <path
       d="M1-0.4L0.6 0 0.4 0 0.6-0.3 0.1-0.3 0.1-0.5 0.6-0.5 0.4-0.7 0.6-0.7 1-0.4Z" />
    <path
       d="M0 0C0 0 0 0 0 0L0.2-0.3C0.1-0.4 0.1-0.5 0.1-0.5 0.1-0.5 0.1-0.5 0.1-0.5 0.1-0.5 0.1-0.5 0.1-0.5 0.2-0.5 0.2-0.5 0.2-0.5L0.2-0.5 0.2-0.4 0.4-0.5 0.4-0.5 0.4-0.5C0.4-0.5 0.4-0.5 0.5-0.5 0.4-0.5 0.4-0.4 0.4-0.4 0.4-0.4 0.3-0.3 0.3-0.3L0.4-0.1C0.4-0.1 0.4-0.1 0.3-0.1L0.4-0.1C0.4 0 0.3 0 0.3 0 0.3 0 0.3-0.1 0.2-0.2L0.1 0C0.1 0.1 0.1 0.1 0 0.1 0 0.1 0 0.1 0 0 0 0 0 0 0 0 0 0 0 0 0 0Z" />
    <path
       d="M0.1 0C0.1 0 0.1 0 0-0.1 0-0.1 0-0.2 0-0.2 0-0.3 0-0.3 0-0.3 0.1-0.4 0.1-0.4 0.1-0.4 0.1-0.4 0.2-0.4 0.2-0.3L0.2-0.2C0.2-0.2 0.2-0.2 0.2-0.2L0.6-0.5C0.6-0.6 0.6-0.6 0.6-0.6 0.6-0.6 0.6-0.5 0.6-0.5L0.6-0.5C0.6-0.5 0.6-0.4 0.6-0.4L0.2 0C0.2 0 0.2 0 0.1 0Z" />
    <path
       d="M0.4 0C0.3 0 0.2 0 0.2-0.1 0.1-0.1 0.1-0.2 0.1-0.3 0.1-0.4 0.1-0.4 0.2-0.5 0.2-0.6 0.3-0.6 0.4-0.6 0.5-0.6 0.6-0.6 0.6-0.5 0.7-0.4 0.7-0.4 0.7-0.3 0.7-0.2 0.7-0.1 0.6-0.1 0.6 0 0.5 0 0.4 0Z" />
    <path
       d="M0.2-0.2C0.1-0.2 0.1-0.2 0.1-0.3 0-0.3 0-0.3 0-0.4 0-0.4 0-0.4 0.1-0.4 0.1-0.5 0.1-0.5 0.2-0.5 0.2-0.5 0.2-0.5 0.3-0.4 0.3-0.4 0.3-0.4 0.3-0.4 0.3-0.3 0.3-0.3 0.3-0.3 0.2-0.2 0.2-0.2 0.2-0.2Z" />
    <path
       d="M0-0.2L0.6-0.2 0.6-0.3 0-0.3 0-0.2Z" />
  </defs>

  <g
     transform="matrix(0.0198622,0,0,0.01966159,1.0089701,0.24705659)">
    <g
       clip-path="url(#presentation_clip_path)">
      <g >
        <g>
          <rect
             style="fill:none"
             x="0"
             height="2509"
             width="2175"
             y="5"/>
          <path
             style="fill:#131313"
             d="m 1254,1009 c 46,0 86,-11 126,-34 40,-23 68,-52 92,-92 23,-40 33,-79 33,-125 0,-47 -10,-86 -33,-126 -24,-40 -52,-69 -92,-92 -40,-23 -80,-33 -126,-33 l -752,0 0,502 752,0 z m 167,1002 c 46,0 86,-10 126,-33 40,-23 68,-52 92,-92 23,-40 33,-79 33,-125 0,-47 -10,-86 -33,-126 -24,-40 -52,-69 -92,-92 -40,-23 -80,-33 -126,-33 l -923,0 0,501 923,0 z m 753,-250 c -1,138 -32,255 -101,375 -70,120 -156,206 -276,276 -120,69 -237,100 -376,101 L 0,2513 0,5 l 1254,0 0,0 c 138,1 255,32 375,101 120,70 207,156 276,277 70,120 101,238 101,377 0,139 -31,257 -101,378 -6,11 -12,20 -19,31 79,62 136,128 187,215 69,120 101,238 101,377 z" />
        </g>
        <g>
          <rect
             style="fill:none"
             height="2511"
             width="1934"
             y="5"
             x="3275" />
          <path
             style="fill:#131313"
             d="m 4194,1343 0,0 c 6,0 11,0 17,0 77,0 143,-18 209,-56 67,-39 115,-86 154,-153 38,-67 56,-132 56,-209 0,-77 -18,-143 -56,-209 -39,-67 -87,-115 -154,-154 -66,-38 -132,-56 -209,-56 -6,0 -11,1 -17,1 l -417,0 0,836 417,0 z m 1011,1170 -596,0 -435,-669 -397,0 0,669 -502,0 0,-2508 919,0 0,0 c 1,0 1,0 1,0 169,0 313,39 460,123 146,85 252,190 337,337 84,147 123,291 123,460 0,169 -39,313 -123,460 -80,138 -177,238 -313,322 l 529,808 -3,-2 z" />
        </g>
        <g>
          <rect
             style="fill:none"
             height="2509"
             width="2509"
             y="5"
             x="5992"/>
          <path
             style="fill:#131313"
             d="m 6494,1259 0,0 c 0,139 31,256 101,376 69,120 155,206 275,276 120,69 238,100 376,100 139,0 256,-31 376,-100 120,-70 206,-156 276,-276 69,-120 100,-237 100,-376 0,-138 -31,-256 -100,-376 -70,-120 -156,-206 -276,-275 -119,-70 -237,-101 -375,-101 -139,0 -256,32 -376,101 -121,69 -207,155 -276,276 -69,119 -101,237 -101,375 z m 752,1254 c -231,0 -427,-52 -627,-168 -200,-115 -344,-259 -459,-459 -115,-200 -168,-396 -168,-627 0,-231 53,-427 168,-627 C 6275,432 6419,288 6619,173 6819,58 7015,5 7246,5 c 231,0 427,53 627,168 200,115 344,259 459,459 116,200 168,396 168,627 0,231 -52,427 -168,627 -115,200 -259,344 -459,459 -200,116 -396,168 -627,168 z" />
        </g>
        <g>
          <rect
             style="fill:none"
             height="2511"
             width="2204"
             y="5"
             x="9469"/>
          <path
             style="fill:#131313"
             d="m 10388,2012 c 139,0 257,-32 377,-101 120,-69 206,-155 275,-275 69,-120 101,-238 101,-377 0,-138 -32,-256 -101,-376 -69,-120 -155,-206 -275,-275 -120,-69 -238,-101 -377,-101 l -418,0 0,1505 418,0 z m -919,502 0,-2509 919,0 c 11,0 19,0 29,0 231,0 428,53 628,168 200,115 343,259 459,459 115,200 168,396 168,627 0,231 -53,427 -168,627 -116,200 -259,344 -459,459 -200,116 -397,168 -628,168 -10,0 -18,0 -29,0 l -919,0 0,1 z" />
        </g>
        <g>
          <rect
             style="fill:none"
             height="2483"
             width="2175"
             y="5"
             x="12577" />
          <path
             style="fill:#131313"
             d="m 14751,1426 0,0 c -5,191 -50,352 -146,517 -100,173 -224,298 -398,398 -173,100 -343,145 -543,145 -200,0 -370,-45 -544,-145 -173,-100 -298,-225 -398,-398 -95,-165 -140,-326 -145,-517 l 0,-1421 502,0 0,1421 c 0,108 24,200 78,293 54,93 121,160 214,214 94,54 185,78 293,78 108,0 200,-24 293,-78 93,-54 160,-121 214,-214 54,-93 79,-185 79,-293 l 0,-1421 501,0 0,1421 z" />
        </g>
        <g>
          <rect
             style="fill:none"
             height="2509"
             width="2146"
             y="5"
             x="15986" />
          <path
             style="fill:#131313"
             d="m 16905,2011 c 139,0 257,-31 377,-100 120,-70 206,-156 275,-276 69,-120 101,-237 101,-376 0,-138 -32,-256 -101,-376 -69,-120 -155,-206 -275,-275 -120,-70 -238,-101 -377,-101 l -418,0 0,1504 418,0 z m -919,502 0,-2508 919,0 c 221,5 407,57 598,168 200,115 344,259 460,459 115,200 168,396 168,627 0,231 -53,427 -168,627 -116,200 -260,343 -460,459 -191,110 -377,162 -598,168 l -919,0 z" />
        </g>
        <g>
          <rect
             style="fill:none"
             height="2509"
             width="1841"
             y="5"
             x="19161"/>
          <path
             style="fill:#131313"
             d="m 19161,5 1840,0 0,502 -1342,0 0,752 1004,0 0,502 -1004,0 0,250 1338,0 0,502 -1836,0 0,-2508 z" />
        </g>
      </g>
    </g>
  </g>
</svg>
