<?xml version="1.0" encoding="UTF-8" standalone="no"?>
<svg
   xmlns:dc="http://purl.org/dc/elements/1.1/"
   xmlns:cc="http://creativecommons.org/ns#"
   xmlns:rdf="http://www.w3.org/1999/02/22-rdf-syntax-ns#"
   xmlns:svg="http://www.w3.org/2000/svg"
   xmlns="http://www.w3.org/2000/svg"
   xmlns:sodipodi="http://sodipodi.sourceforge.net/DTD/sodipodi-0.dtd"
   xmlns:inkscape="http://www.inkscape.org/namespaces/inkscape"
   viewBox="0 0 418 50"
   height="50"
   width="418"
   id="svg2"
   version="1.1"
   inkscape:version="0.91 r13725"
   sodipodi:docname="brodude.svg">
  <metadata
     id="metadata74">
    <rdf:RDF>
      <cc:Work
         rdf:about="">
        <dc:format>image/svg+xml</dc:format>
        <dc:type
           rdf:resource="http://purl.org/dc/dcmitype/StillImage" />
      </cc:Work>
    </rdf:RDF>
  </metadata>
  <sodipodi:namedview
     pagecolor="#ffffff"
     bordercolor="#666666"
     borderopacity="1"
     objecttolerance="10"
     gridtolerance="10"
     guidetolerance="10"
     inkscape:pageopacity="0"
     inkscape:pageshadow="2"
     inkscape:window-width="713"
     inkscape:window-height="512"
     id="namedview72"
     showgrid="false"
     inkscape:zoom="1.0813"
     inkscape:cx="73.52"
     inkscape:cy="25"
     inkscape:window-x="0"
     inkscape:window-y="27"
     inkscape:window-maximized="0"
     inkscape:current-layer="svg2" />
  <defs
     id="defs4">
    <path
       d="M0.3-0.6L0.6-0.3 0.3 0 0-0.3 0.3-0.6Z"
       id="path6" />
    <path
       d="M0-0.6L0.6-0.6 0.6 0 0 0 0-0.6Z"
       id="path8" />
    <path
       d="M0.1 0L0.3-0.4 0.1-0.7 0.7-0.4 0.1 0ZM1358 739L309 1346 659 739 1358 739Z"
       id="path10" />
    <path
       d="M1-0.4L0.6 0 0.4 0 0.6-0.3 0.1-0.3 0.1-0.5 0.6-0.5 0.4-0.7 0.6-0.7 1-0.4Z"
       id="path12" />
    <path
       d="M0 0C0 0 0 0 0 0L0.2-0.3C0.1-0.4 0.1-0.5 0.1-0.5 0.1-0.5 0.1-0.5 0.1-0.5 0.1-0.5 0.1-0.5 0.1-0.5 0.2-0.5 0.2-0.5 0.2-0.5L0.2-0.5 0.2-0.4 0.4-0.5 0.4-0.5 0.4-0.5C0.4-0.5 0.4-0.5 0.5-0.5 0.4-0.5 0.4-0.4 0.4-0.4 0.4-0.4 0.3-0.3 0.3-0.3L0.4-0.1C0.4-0.1 0.4-0.1 0.3-0.1L0.4-0.1C0.4 0 0.3 0 0.3 0 0.3 0 0.3-0.1 0.2-0.2L0.1 0C0.1 0.1 0.1 0.1 0 0.1 0 0.1 0 0.1 0 0 0 0 0 0 0 0 0 0 0 0 0 0Z"
       id="path14" />
    <path
       d="M0.1 0C0.1 0 0.1 0 0-0.1 0-0.1 0-0.2 0-0.2 0-0.3 0-0.3 0-0.3 0.1-0.4 0.1-0.4 0.1-0.4 0.1-0.4 0.2-0.4 0.2-0.3L0.2-0.2C0.2-0.2 0.2-0.2 0.2-0.2L0.6-0.5C0.6-0.6 0.6-0.6 0.6-0.6 0.6-0.6 0.6-0.5 0.6-0.5L0.6-0.5C0.6-0.5 0.6-0.4 0.6-0.4L0.2 0C0.2 0 0.2 0 0.1 0Z"
       id="path16" />
    <path
       d="M0.4 0C0.3 0 0.2 0 0.2-0.1 0.1-0.1 0.1-0.2 0.1-0.3 0.1-0.4 0.1-0.4 0.2-0.5 0.2-0.6 0.3-0.6 0.4-0.6 0.5-0.6 0.6-0.6 0.6-0.5 0.7-0.4 0.7-0.4 0.7-0.3 0.7-0.2 0.7-0.1 0.6-0.1 0.6 0 0.5 0 0.4 0Z"
       id="path18" />
    <path
       d="M0.2-0.2C0.1-0.2 0.1-0.2 0.1-0.3 0-0.3 0-0.3 0-0.4 0-0.4 0-0.4 0.1-0.4 0.1-0.5 0.1-0.5 0.2-0.5 0.2-0.5 0.2-0.5 0.3-0.4 0.3-0.4 0.3-0.4 0.3-0.4 0.3-0.3 0.3-0.3 0.3-0.3 0.2-0.2 0.2-0.2 0.2-0.2Z"
       id="path20" />
    <path
       d="M0-0.2L0.6-0.2 0.6-0.3 0-0.3 0-0.2Z"
       id="path22" />
  </defs>
  <g
     transform="matrix(0.01986,0,0,0.01966,1.009,0.2471)"
     id="g24">
    <g
       clip-path="url(#presentation_clip_path)"
       id="g26">
      <g
         id="g28">
        <g
           id="g30">
          <rect
             style="fill:none"
             x="0"
             height="2509"
             width="2175"
             y="5"
             id="rect32" />
          <path
             style="fill:#131313"
             d="M 1254,1009 C 1300,1009 1340,998 1380,975 1420,952 1448,923 1472,883 1495,843 1505,804 1505,758 1505,711 1495,672 1472,632 1448,592 1420,563 1380,540 1340,517 1300,507 1254,507 L 502,507 502,1009 1254,1009 Z M 1421,2011 C 1467,2011 1507,2001 1547,1978 1587,1955 1615,1926 1639,1886 1662,1846 1672,1807 1672,1761 1672,1714 1662,1675 1639,1635 1615,1595 1587,1566 1547,1543 1507,1520 1467,1510 1421,1510 L 498,1510 498,2011 1421,2011 Z M 2174,1761 C 2173,1899 2142,2016 2073,2136 2003,2256 1917,2342 1797,2412 1677,2481 1560,2512 1421,2513 L 0,2513 0,5 1254,5 1254,5 C 1392,6 1509,37 1629,106 1749,176 1836,262 1905,383 1975,503 2006,621 2006,760 2006,899 1975,1017 1905,1138 1899,1149 1893,1158 1886,1169 1965,1231 2022,1297 2073,1384 2142,1504 2174,1622 2174,1761 Z"
             id="path34"
             inkscape:connector-curvature="0" />
        </g>
        <g
           id="g36">
          <rect
             style="fill:none"
             height="2511"
             width="1934"
             y="5"
             x="3275"
             id="rect38" />
          <path
             style="fill:#131313"
             d="M 4194,1343 4194,1343 C 4200,1343 4205,1343 4211,1343 4288,1343 4354,1325 4420,1287 4487,1248 4535,1201 4574,1134 4612,1067 4630,1002 4630,925 4630,848 4612,782 4574,716 4535,649 4487,601 4420,562 4354,524 4288,506 4211,506 4205,506 4200,507 4194,507 L 3777,507 3777,1343 4194,1343 Z M 5205,2513 4609,2513 4174,1844 3777,1844 3777,2513 3275,2513 3275,5 4194,5 4194,5 C 4195,5 4195,5 4195,5 4364,5 4508,44 4655,128 4801,213 4907,318 4992,465 5076,612 5115,756 5115,925 5115,1094 5076,1238 4992,1385 4912,1523 4815,1623 4679,1707 L 5208,2515 5205,2513 Z"
             id="path40"
             inkscape:connector-curvature="0" />
        </g>
        <g
           id="g42">
          <rect
             style="fill:none"
             height="2509"
             width="2509"
             y="5"
             x="5992"
             id="rect44" />
          <path
             style="fill:#131313"
             d="M 6494,1259 6494,1259 C 6494,1398 6525,1515 6595,1635 6664,1755 6750,1841 6870,1911 6990,1980 7108,2011 7246,2011 7385,2011 7502,1980 7622,1911 7742,1841 7828,1755 7898,1635 7967,1515 7998,1398 7998,1259 7998,1121 7967,1003 7898,883 7828,763 7742,677 7622,608 7503,538 7385,507 7247,507 7108,507 6991,539 6871,608 6750,677 6664,763 6595,884 6526,1003 6494,1121 6494,1259 Z M 7246,2513 C 7015,2513 6819,2461 6619,2345 6419,2230 6275,2086 6160,1886 6045,1686 5992,1490 5992,1259 5992,1028 6045,832 6160,632 6275,432 6419,288 6619,173 6819,58 7015,5 7246,5 7477,5 7673,58 7873,173 8073,288 8217,432 8332,632 8448,832 8500,1028 8500,1259 8500,1490 8448,1686 8332,1886 8217,2086 8073,2230 7873,2345 7673,2461 7477,2513 7246,2513 Z"
             id="path46"
             inkscape:connector-curvature="0" />
        </g>
        <g
           id="g48">
          <rect
             style="fill:none"
             height="2511"
             width="2204"
             y="5"
             x="9469"
             id="rect50" />
          <path
             style="fill:#131313"
             d="M 10388,2012 C 10527,2012 10645,1980 10765,1911 10885,1842 10971,1756 11040,1636 11109,1516 11141,1398 11141,1259 11141,1121 11109,1003 11040,883 10971,763 10885,677 10765,608 10645,539 10527,507 10388,507 L 9970,507 9970,2012 10388,2012 Z M 9469,2514 9469,5 10388,5 C 10399,5 10407,5 10417,5 10648,5 10845,58 11045,173 11245,288 11388,432 11504,632 11619,832 11672,1028 11672,1259 11672,1490 11619,1686 11504,1886 11388,2086 11245,2230 11045,2345 10845,2461 10648,2513 10417,2513 10407,2513 10399,2513 10388,2513 L 9469,2513 9469,2514 Z"
             id="path52"
             inkscape:connector-curvature="0" />
        </g>
        <g
           id="g54">
          <rect
             style="fill:none"
             height="2483"
             width="2175"
             y="5"
             x="12577"
             id="rect56" />
          <path
             style="fill:#131313"
             d="M 14751,1426 14751,1426 C 14746,1617 14701,1778 14605,1943 14505,2116 14381,2241 14207,2341 14034,2441 13864,2486 13664,2486 13464,2486 13294,2441 13120,2341 12947,2241 12822,2116 12722,1943 12627,1778 12582,1617 12577,1426 L 12577,5 13079,5 13079,1426 C 13079,1534 13103,1626 13157,1719 13211,1812 13278,1879 13371,1933 13465,1987 13556,2011 13664,2011 13772,2011 13864,1987 13957,1933 14050,1879 14117,1812 14171,1719 14225,1626 14250,1534 14250,1426 L 14250,5 14751,5 14751,1426 Z"
             id="path58"
             inkscape:connector-curvature="0" />
        </g>
        <g
           id="g60">
          <rect
             style="fill:none"
             height="2509"
             width="2146"
             y="5"
             x="15986"
             id="rect62" />
          <path
             style="fill:#131313"
             d="M 16905,2011 C 17044,2011 17162,1980 17282,1911 17402,1841 17488,1755 17557,1635 17626,1515 17658,1398 17658,1259 17658,1121 17626,1003 17557,883 17488,763 17402,677 17282,608 17162,538 17044,507 16905,507 L 16487,507 16487,2011 16905,2011 Z M 15986,2513 15986,5 16905,5 C 17126,10 17312,62 17503,173 17703,288 17847,432 17963,632 18078,832 18131,1028 18131,1259 18131,1490 18078,1686 17963,1886 17847,2086 17703,2229 17503,2345 17312,2455 17126,2507 16905,2513 L 15986,2513 Z"
             id="path64"
             inkscape:connector-curvature="0" />
        </g>
        <g
           id="g66">
          <rect
             style="fill:none"
             height="2509"
             width="1841"
             y="5"
             x="19161"
             id="rect68" />
          <path
             style="fill:#131313"
             d="M 19161,5 21001,5 21001,507 19659,507 19659,1259 20663,1259 20663,1761 19659,1761 19659,2011 20997,2011 20997,2513 19161,2513 19161,5 Z"
             id="path70"
             inkscape:connector-curvature="0" />
        </g>
      </g>
    </g>
  </g>
</svg>
