<?xml version="1.0" encoding="utf-8"?>
<!-- Generator: Adobe Illustrator 21.0.0, SVG Export Plug-In . SVG Version: 6.00 Build 0)  -->
<svg version="1.1" id="Layer_1" xmlns="http://www.w3.org/2000/svg" xmlns:xlink="http://www.w3.org/1999/xlink" x="0px" y="0px"
	 viewBox="0 0 50 50" style="enable-background:new 0 0 50 50;" xml:space="preserve">
<style type="text/css">
	.st0{fill:#1A3462;}
	.st1{fill:#14509C;}
	.st2{fill:#F78F1E;}
</style>
<title>MyFin-Logo</title>
<g id="Layer_2">
	<g id="logo">
		<polygon class="st0" points="17.9,18.9 12.4,18.9 8.3,26 13.8,26 		"/>
		<polygon class="st0" points="9.6,18.9 4.1,18.9 0,26 5.5,26 		"/>
		<polygon class="st1" points="4.1,18.9 9.6,18.9 13.8,26 8.3,26 		"/>
		<polygon class="st1" points="12.4,18.9 17.9,18.9 22,26 16.6,26 		"/>
		<polygon class="st2" points="26.2,18.9 20.7,18.9 16.6,26 19.3,30.7 		"/>
		<polygon class="st2" points="25,22.2 23.8,24.4 29.2,24.4 30.4,22.2 		"/>
		<path class="st1" d="M26.2,28.8c0,0.1-1,1.9-1,1.9l-1-1.9c0,0.1-0.4,1.8-0.4,1.8h-0.5l0.8-3.4l1.2,2.4l1-2.4l0.8,3.4h-0.5
			L26.2,28.8z"/>
		<path class="st1" d="M29.2,30.7v-1.4L28,27.4h0.6l0.9,1.4l0.9-1.4h0.5l-1.1,1.8v1.5C29.8,30.7,29.2,30.7,29.2,30.7z"/>
		<path class="st1" d="M48.3,30.7v-1.4L47,27.4h0.6l0.9,1.4l0.9-1.4h0.5l-1.1,1.8v1.5C48.8,30.7,48.3,30.7,48.3,30.7z"/>
		<path class="st1" d="M32,30.7v-3.3h1.8v0.5h-1.3v0.8h1.3v0.5h-1.3v1.5H32z"/>
		<path class="st1" d="M35.3,30.7v-3.3h0.5v3.3H35.3z"/>
		<path class="st1" d="M37.5,30.7v-3.4l2.1,2l0.2,0.2l0.2,0.2v-2.3h0.5v3.4l-2.1-2l-0.2-0.2L38,28.4v2.2L37.5,30.7L37.5,30.7z"/>
		<path class="st1" d="M44.2,30.7v-3.3H45c0.2,0,0.2,0,0.4,0c0.1,0,0.7,0.2,0.7,0.8c0,0.4-0.3,0.6-0.4,0.6c0.5,0,0.7,0.6,0.7,0.8
			c0,0.5-0.1,1.1-1.3,1.1L44.2,30.7z M44.8,28.6H45c0.2,0,0.6,0,0.6-0.4c0-0.1,0-0.4-0.6-0.4h-0.2V28.6z M44.8,30.2H45
			c0.1,0,0.9,0,0.9-0.5c0-0.6-0.9-0.6-0.9-0.6h-0.2C44.8,29.1,44.8,30.2,44.8,30.2z"/>
		<circle class="st2" cx="42.5" cy="30.4" r="0.7"/>
		<polygon class="st2" points="26.9,18.9 25.7,21 31.1,21 32.3,18.9 		"/>
	</g>
</g>
</svg>
