<svg xmlns="http://www.w3.org/2000/svg" viewBox="0 0 50 14"><polygon points="0 21 2.5 21 2.5 27.1 5.9 27.1 5.9 21 8.4 21 8.4 18.3 0 18.3 " transform="translate(0.1 -18)" fill="#001ba8"/><polygon points="19.9 21 22.4 21 22.4 27.1 25.8 27.1 25.8 21 28.3 21 28.3 18.3 19.9 18.3 " transform="translate(0.1 -18)" fill="#001ba8"/><path d="m31.8 0.3 5.7 0c2.7 0 3.2 3.5 1.2 4.3 2.5 0.5 2.5 4.5-0.9 4.5l-5.9 0 0-8.8zm3.2 3.4 1.1 0C36.5 3.8 36.9 3.5 37 3.2 37.1 2.9 36.8 2.4 36.5 2.3c-0.1 0-0.2 0-0.3 0l-1.1 0 0 1.4zm0 3.5 1.4 0c0.5 0 0.9-0.4 0.9-0.9 0-0.5-0.4-0.9-0.9-0.9l0 0-1.4 0 0 1.8z" fill="#001ba8"/><polygon points="50 18.3 46.3 18.3 44.8 20.8 43.4 18.3 39.7 18.3 43.1 23.4 43.1 27.1 46.6 27.1 46.6 23.4 " transform="translate(0.1 -18)" fill="#001ba8"/><circle r="1.5" cy="8" cx="28.9" fill="#001ba8"/><path d="m0.5 12.7 0.2 0c0 0 0.1 0 0.1 0 0 0 0.1 0.1 0.1 0.1 0 0.1 0 0.1 0 0.2 0 0.1 0 0.1 0 0.2 0 0 0 0.1-0.1 0.1 0 0-0.1 0-0.1 0l-0.2 0 0-0.6 0 0zm47.6-1 0 0.9c0 0.1 0 0.2 0 0.3 0 0.1 0 0.1 0 0.2 0 0 0 0.1 0 0.1 0 0 0 0 0 0.1l0 0-0.2 0 0 0.3 0.1 0 0.1 0c0.1 0 0.2 0 0.2-0.1 0.1-0.1 0.1-0.2 0.1-0.3 0-0.2 0-0.3 0-0.5l0-0.7 0.4 0 0 1.6 0.4 0 0-1.9-1.1 0zm-3.6 1.9 0.4 0 0.1-0.5 0.4 0 0.1 0.5 0.4 0-0.4-1.9-0.5 0c0 0-0.5 1.9-0.5 1.9zm0.6-0.7 0.2-0.9 0.2 0.9-0.4 0zm-2.7-0.9 0.5 0 0-0.3-1.3 0 0 0.3 0.5 0 0 1.6 0.4 0C42.4 13.6 42.4 12 42.4 12Zm-3.5 0.8 0.3 0c0.1 0 0.1 0 0.2 0 0.1 0 0.1-0.1 0.2-0.1 0-0.1 0.1-0.1 0.1-0.2 0-0.1 0-0.1 0-0.2 0-0.1 0-0.1 0-0.2 0-0.1-0.1-0.1-0.1-0.2 0-0.1-0.1-0.1-0.2-0.1-0.1 0-0.1 0-0.2 0l-0.7 0 0 1.9 0.4 0 0-0.9 0 0zm0-0.8 0.2 0c0.1 0 0.1 0 0.2 0.1 0.1 0.1 0.1 0.1 0.1 0.2 0 0.1 0 0.2-0.1 0.2-0.1 0.1-0.1 0.1-0.2 0.1l-0.2 0 0-0.6 0 0zm-3.8 1.6 0.4 0 0.1-0.5 0.4 0 0.1 0.5 0.4 0-0.4-1.9-0.5 0-0.5 1.9zm0.5-0.8 0.2-0.9 0.2 0.9-0.4 0zm-3.8-1.1 0 1.9 0.4 0 0-1.6 0.5 0 0 1.6 0.4 0 0-1.9-1.3 0zm-5.3 0-0.4 0 0 1.9 0.4 0 0-1.9zm-3.2 0-0.4 0 0 1.9 0.4 0 0-0.6 0.1-0.2 0.3 0.8 0.4 0-0.5-1.1 0.5-0.8-0.4 0-0.4 0.8 0-0.8 0 0zm-2.5 0.6 0-0.1c0-0.1 0-0.2-0.1-0.3 0-0.1-0.1-0.1-0.2-0.2-0.1 0-0.2-0.1-0.3-0.1-0.2 0-0.3 0-0.4 0.2-0.1 0.1-0.2 0.3-0.1 0.5l0 0.7c0 0.1 0 0.2 0 0.2 0 0.1 0 0.1 0.1 0.2 0 0.1 0.1 0.1 0.2 0.1 0.1 0 0.2 0.1 0.3 0 0.1 0 0.2 0 0.3 0 0.1 0 0.1-0.1 0.2-0.1 0-0.1 0.1-0.1 0.1-0.2 0-0.1 0-0.2 0-0.2l0-0.1-0.4 0 0 0.1c0 0.1 0 0.1 0 0.2 0 0 0 0.1-0.1 0.1 0 0-0.1 0-0.1 0 0 0-0.1 0-0.1 0 0 0-0.1-0.1-0.1-0.1 0-0.1 0-0.1 0-0.2l0-0.7c0-0.1 0-0.1 0-0.2 0 0 0-0.1 0.1-0.1 0 0 0.1 0 0.1 0 0 0 0.1 0 0.1 0 0 0 0.1 0.1 0.1 0.1 0 0.1 0 0.1 0 0.2l0 0 0.3 0zm-4.5-0.6 0.5 1.5c0 0 0 0.1-0.1 0.1 0 0-0.1 0-0.1 0l-0.1 0 0 0.3 0.1 0 0.1 0c0.1 0 0.1 0 0.2 0 0.1 0 0.1-0.1 0.1-0.1 0-0.1 0-0.1 0.1-0.2l0.5-1.5-0.4 0-0.3 1-0.3-1-0.3-0.1zm-2.8 1.1 0.3 0c0.1 0 0.1 0 0.2 0 0.1 0 0.1-0.1 0.2-0.1 0-0.1 0.1-0.1 0.1-0.2 0-0.1 0-0.1 0-0.2 0-0.1 0-0.1 0-0.2 0-0.1-0.1-0.1-0.1-0.2 0-0.1-0.1-0.1-0.2-0.1-0.1 0-0.1 0-0.2 0l-0.7 0 0 1.9 0.4 0 0-0.9 0 0zm0-0.8 0.2 0c0.1 0 0.1 0 0.2 0.1 0.1 0.1 0.1 0.1 0.1 0.2 0 0.1 0 0.2-0.1 0.2-0.1 0.1-0.1 0.1-0.2 0.1l-0.2 0c0-0.1 0-0.6 0-0.6zm-3.8 1.6 0.4 0 0.1-0.5 0.4 0 0.1 0.5 0.4 0-0.4-1.9-0.5 0c0 0-0.5 1.9-0.5 1.9zm0.6-0.8 0.2-0.9 0.1 0.9-0.3 0zm-3.7-1.1 0 0.9c0 0.1 0 0.2 0 0.3 0 0.1 0 0.1 0 0.2 0 0 0 0.1 0 0.1 0 0 0 0 0 0.1l0 0-0.3 0 0 0.3 0.1 0 0.1 0c0.1 0 0.2 0 0.2-0.1 0.1-0.1 0.1-0.2 0.1-0.3 0-0.2 0-0.3 0-0.5l0-0.7 0.4 0 0 1.6 0.4 0 0-1.9-1 0zm-3.3 0 0 1.9 1 0 0-0.3-0.6 0 0-0.6 0.6 0 0-0.3-0.6 0 0-0.4 0.7 0 0-0.3-1.1 0zm-3.2 0 0 1.9 0.7 0c0.1 0 0.2 0 0.2-0.1 0.1-0.1 0.1-0.1 0.2-0.2 0-0.1 0.1-0.2 0-0.3 0-0.1 0-0.1 0-0.2 0-0.1 0-0.1-0.1-0.1 0 0-0.1-0.1-0.1-0.1 0 0-0.1-0.1-0.1-0.1-0.1 0-0.1 0-0.2 0l-0.2 0 0-0.5 0.6 0 0-0.3-1 0z" fill="#c00"/><path d="m19 0.3-3.4 0 0 2.7 1.7 0-3.1 4.1-3-4.1 1.7 0 0-2.7-3.5 0 0 5.6c0 1.9 1.7 3.7 4.8 3.7 3 0 4.8-1.8 4.8-3.7l0-5.6z" fill="#c00"/></svg>
