<?xml version="1.0" encoding="utf-8"?>
<!-- Generator: Adobe Illustrator 21.0.0, SVG Export Plug-In . SVG Version: 6.00 Build 0)  -->
<svg version="1.1" id="Layer_1" xmlns="http://www.w3.org/2000/svg" xmlns:xlink="http://www.w3.org/1999/xlink" x="0px" y="0px"
	 viewBox="0 0 50 50" style="enable-background:new 0 0 50 50;" xml:space="preserve">
<style type="text/css">
	.st0{fill:#001BA8;}
	.st1{fill:#CC0000;}
</style>
<title>TUTBY-logo</title>
<g id="Layer_2">
	<g id="Layer_1-2">
		<polygon class="st0" points="8.4,21 8.4,18.3 0,18.3 0,21 2.5,21 2.5,27.1 5.9,27.1 5.9,21 		"/>
		<polygon class="st0" points="28.3,21 28.3,18.3 19.9,18.3 19.9,21 22.4,21 22.4,27.1 25.8,27.1 25.8,21 		"/>
		<path class="st0" d="M31.7,18.3h5.7c2.7,0,3.2,3.5,1.2,4.3c2.5,0.5,2.5,4.5-0.9,4.5h-5.9V18.3z M34.9,21.7H36
			c0.4,0.1,0.8-0.2,0.9-0.5s-0.2-0.8-0.5-0.9c-0.1,0-0.2,0-0.3,0h-1.1V21.7z M34.9,25.2h1.4c0.5,0,0.9-0.4,0.9-0.9s-0.4-0.9-0.9-0.9
			l0,0h-1.4V25.2z"/>
		<polygon class="st0" points="46.6,23.4 50,18.3 46.3,18.3 44.8,20.8 43.4,18.3 39.7,18.3 43.1,23.4 43.1,27.1 46.6,27.1 		"/>
		<circle class="st0" cx="28.8" cy="26" r="1.5"/>
		<path class="st1" d="M0.4,30.7h0.2c0,0,0.1,0,0.1,0c0,0,0.1,0.1,0.1,0.1c0,0.1,0,0.1,0,0.2c0,0.1,0,0.1,0,0.2c0,0,0,0.1-0.1,0.1
			c0,0-0.1,0-0.1,0H0.4V30.7L0.4,30.7z M48,29.7v0.9c0,0.1,0,0.2,0,0.3c0,0.1,0,0.1,0,0.2c0,0,0,0.1,0,0.1c0,0,0,0,0,0.1l0,0h-0.2
			v0.3h0.1H48c0.1,0,0.2,0,0.2-0.1c0.1-0.1,0.1-0.2,0.1-0.3c0-0.2,0-0.3,0-0.5V30h0.4v1.6h0.4v-1.9L48,29.7z M44.4,31.6h0.4l0.1-0.5
			h0.4l0.1,0.5h0.4l-0.4-1.9h-0.5C44.9,29.7,44.4,31.6,44.4,31.6z M45,30.9l0.2-0.9l0.2,0.9H45z M42.3,30h0.5v-0.3h-1.3V30h0.5v1.6
			h0.4C42.3,31.6,42.3,30,42.3,30z M38.8,30.8h0.3c0.1,0,0.1,0,0.2,0c0.1,0,0.1-0.1,0.2-0.1c0-0.1,0.1-0.1,0.1-0.2
			c0-0.1,0-0.1,0-0.2c0-0.1,0-0.1,0-0.2c0-0.1-0.1-0.1-0.1-0.2c0-0.1-0.1-0.1-0.2-0.1c-0.1,0-0.1,0-0.2,0h-0.7v1.9h0.4V30.8
			L38.8,30.8z M38.8,30H39c0.1,0,0.1,0,0.2,0.1c0.1,0.1,0.1,0.1,0.1,0.2c0,0.1,0,0.2-0.1,0.2c-0.1,0.1-0.1,0.1-0.2,0.1h-0.2L38.8,30
			L38.8,30z M35,31.6h0.4l0.1-0.5h0.4l0.1,0.5h0.4L36,29.7h-0.5L35,31.6z M35.5,30.8l0.2-0.9l0.2,0.9H35.5z M31.7,29.7v1.9h0.4V30
			h0.5v1.6h0.4v-1.9H31.7z M26.4,29.7H26v1.9h0.4V29.7z M23.2,29.7h-0.4v1.9h0.4V31l0.1-0.2l0.3,0.8H24l-0.5-1.1l0.5-0.8h-0.4
			l-0.4,0.8L23.2,29.7L23.2,29.7z M20.7,30.3v-0.1c0-0.1,0-0.2-0.1-0.3c0-0.1-0.1-0.1-0.2-0.2c-0.1,0-0.2-0.1-0.3-0.1
			c-0.2,0-0.3,0-0.4,0.2c-0.1,0.1-0.2,0.3-0.1,0.5V31c0,0.1,0,0.2,0,0.2c0,0.1,0,0.1,0.1,0.2c0,0.1,0.1,0.1,0.2,0.1
			c0.1,0,0.2,0.1,0.3,0c0.1,0,0.2,0,0.3,0c0.1,0,0.1-0.1,0.2-0.1c0-0.1,0.1-0.1,0.1-0.2c0-0.1,0-0.2,0-0.2v-0.1h-0.4V31
			c0,0.1,0,0.1,0,0.2c0,0,0,0.1-0.1,0.1c0,0-0.1,0-0.1,0c0,0-0.1,0-0.1,0c0,0-0.1-0.1-0.1-0.1c0-0.1,0-0.1,0-0.2v-0.7
			c0-0.1,0-0.1,0-0.2c0,0,0-0.1,0.1-0.1c0,0,0.1,0,0.1,0c0,0,0.1,0,0.1,0c0,0,0.1,0.1,0.1,0.1c0,0.1,0,0.1,0,0.2l0,0H20.7z
			 M16.2,29.7l0.5,1.5c0,0,0,0.1-0.1,0.1c0,0-0.1,0-0.1,0h-0.1v0.3h0.1h0.1c0.1,0,0.1,0,0.2,0c0.1,0,0.1-0.1,0.1-0.1
			c0-0.1,0-0.1,0.1-0.2l0.5-1.5h-0.4l-0.3,1l-0.3-1L16.2,29.7z M13.4,30.8h0.3c0.1,0,0.1,0,0.2,0c0.1,0,0.1-0.1,0.2-0.1
			c0-0.1,0.1-0.1,0.1-0.2c0-0.1,0-0.1,0-0.2c0-0.1,0-0.1,0-0.2c0-0.1-0.1-0.1-0.1-0.2c0-0.1-0.1-0.1-0.2-0.1c-0.1,0-0.1,0-0.2,0H13
			v1.9h0.4L13.4,30.8L13.4,30.8z M13.4,30h0.2c0.1,0,0.1,0,0.2,0.1c0.1,0.1,0.1,0.1,0.1,0.2c0,0.1,0,0.2-0.1,0.2
			c-0.1,0.1-0.1,0.1-0.2,0.1h-0.2C13.4,30.5,13.4,30,13.4,30z M9.6,31.6H10l0.1-0.5h0.4l0.1,0.5H11l-0.4-1.9h-0.5
			C10.1,29.7,9.6,31.6,9.6,31.6z M10.2,30.8l0.2-0.9l0.1,0.9H10.2z M6.5,29.7v0.9c0,0.1,0,0.2,0,0.3c0,0.1,0,0.1,0,0.2
			c0,0,0,0.1,0,0.1c0,0,0,0,0,0.1l0,0H6.2v0.3h0.1h0.1c0.1,0,0.2,0,0.2-0.1c0.1-0.1,0.1-0.2,0.1-0.3c0-0.2,0-0.3,0-0.5V30h0.4v1.6
			h0.4v-1.9H6.5z M3.2,29.7v1.9h1v-0.3H3.6v-0.6h0.6v-0.3H3.6V30h0.7v-0.3H3.2z M0,29.7v1.9h0.7c0.1,0,0.2,0,0.2-0.1
			c0.1-0.1,0.1-0.1,0.2-0.2c0-0.1,0.1-0.2,0-0.3c0-0.1,0-0.1,0-0.2c0-0.1,0-0.1-0.1-0.1c0,0-0.1-0.1-0.1-0.1c0,0-0.1-0.1-0.1-0.1
			c-0.1,0-0.1,0-0.2,0H0.4V30H1v-0.3L0,29.7z"/>
		<path class="st1" d="M18.9,18.3h-3.4V21h1.7l-3.1,4.1L11.1,21h1.7v-2.7H9.3v5.6c0,1.9,1.7,3.7,4.8,3.7c3,0,4.8-1.8,4.8-3.7V18.3z"
			/>
	</g>
</g>
</svg>
